G04 #@! TF.GenerationSoftware,KiCad,Pcbnew,(5.1.5)-3*
G04 #@! TF.CreationDate,2020-04-15T22:49:56+02:00*
G04 #@! TF.ProjectId,makroboard,6d616b72-6f62-46f6-9172-642e6b696361,rev?*
G04 #@! TF.SameCoordinates,Original*
G04 #@! TF.FileFunction,Paste,Bot*
G04 #@! TF.FilePolarity,Positive*
%FSLAX46Y46*%
G04 Gerber Fmt 4.6, Leading zero omitted, Abs format (unit mm)*
G04 Created by KiCad (PCBNEW (5.1.5)-3) date 2020-04-15 22:49:56*
%MOMM*%
%LPD*%
G04 APERTURE LIST*
%ADD10R,1.500000X0.550000*%
%ADD11R,0.550000X1.500000*%
%ADD12C,0.100000*%
%ADD13R,0.300000X0.700000*%
%ADD14R,1.000000X0.700000*%
%ADD15R,7.175000X5.600000*%
G04 APERTURE END LIST*
D10*
X69200000Y-48070000D03*
X69200000Y-48870000D03*
X69200000Y-49670000D03*
X69200000Y-50470000D03*
X69200000Y-51270000D03*
X69200000Y-52070000D03*
X69200000Y-52870000D03*
X69200000Y-53670000D03*
X69200000Y-54470000D03*
X69200000Y-55270000D03*
X69200000Y-56070000D03*
D11*
X67500000Y-57770000D03*
X66700000Y-57770000D03*
X65900000Y-57770000D03*
X65100000Y-57770000D03*
X64300000Y-57770000D03*
X63500000Y-57770000D03*
X62700000Y-57770000D03*
X61900000Y-57770000D03*
X61100000Y-57770000D03*
X60300000Y-57770000D03*
X59500000Y-57770000D03*
D10*
X57800000Y-56070000D03*
X57800000Y-55270000D03*
X57800000Y-54470000D03*
X57800000Y-53670000D03*
X57800000Y-52870000D03*
X57800000Y-52070000D03*
X57800000Y-51270000D03*
X57800000Y-50470000D03*
X57800000Y-49670000D03*
X57800000Y-48870000D03*
X57800000Y-48070000D03*
D11*
X59500000Y-46370000D03*
X60300000Y-46370000D03*
X61100000Y-46370000D03*
X61900000Y-46370000D03*
X62700000Y-46370000D03*
X63500000Y-46370000D03*
X64300000Y-46370000D03*
X65100000Y-46370000D03*
X65900000Y-46370000D03*
X66700000Y-46370000D03*
X67500000Y-46370000D03*
D12*
G36*
X50134805Y-50803274D02*
G01*
X50156040Y-50806424D01*
X50176864Y-50811640D01*
X50197076Y-50818872D01*
X50216482Y-50828051D01*
X50234895Y-50839087D01*
X50252138Y-50851875D01*
X50268044Y-50866291D01*
X50577403Y-51175650D01*
X50591819Y-51191556D01*
X50604607Y-51208799D01*
X50615643Y-51227212D01*
X50624822Y-51246618D01*
X50632054Y-51266830D01*
X50637270Y-51287654D01*
X50640420Y-51308889D01*
X50641473Y-51330330D01*
X50640420Y-51351771D01*
X50637270Y-51373006D01*
X50632054Y-51393830D01*
X50624822Y-51414042D01*
X50615643Y-51433448D01*
X50604607Y-51451861D01*
X50591819Y-51469104D01*
X50577403Y-51485010D01*
X50215010Y-51847403D01*
X50199104Y-51861819D01*
X50181861Y-51874607D01*
X50163448Y-51885643D01*
X50144042Y-51894822D01*
X50123830Y-51902054D01*
X50103006Y-51907270D01*
X50081771Y-51910420D01*
X50060330Y-51911473D01*
X50038889Y-51910420D01*
X50017654Y-51907270D01*
X49996830Y-51902054D01*
X49976618Y-51894822D01*
X49957212Y-51885643D01*
X49938799Y-51874607D01*
X49921556Y-51861819D01*
X49905650Y-51847403D01*
X49596291Y-51538044D01*
X49581875Y-51522138D01*
X49569087Y-51504895D01*
X49558051Y-51486482D01*
X49548872Y-51467076D01*
X49541640Y-51446864D01*
X49536424Y-51426040D01*
X49533274Y-51404805D01*
X49532221Y-51383364D01*
X49533274Y-51361923D01*
X49536424Y-51340688D01*
X49541640Y-51319864D01*
X49548872Y-51299652D01*
X49558051Y-51280246D01*
X49569087Y-51261833D01*
X49581875Y-51244590D01*
X49596291Y-51228684D01*
X49958684Y-50866291D01*
X49974590Y-50851875D01*
X49991833Y-50839087D01*
X50010246Y-50828051D01*
X50029652Y-50818872D01*
X50049864Y-50811640D01*
X50070688Y-50806424D01*
X50091923Y-50803274D01*
X50113364Y-50802221D01*
X50134805Y-50803274D01*
G37*
G36*
X49021111Y-49689580D02*
G01*
X49042346Y-49692730D01*
X49063170Y-49697946D01*
X49083382Y-49705178D01*
X49102788Y-49714357D01*
X49121201Y-49725393D01*
X49138444Y-49738181D01*
X49154350Y-49752597D01*
X49463709Y-50061956D01*
X49478125Y-50077862D01*
X49490913Y-50095105D01*
X49501949Y-50113518D01*
X49511128Y-50132924D01*
X49518360Y-50153136D01*
X49523576Y-50173960D01*
X49526726Y-50195195D01*
X49527779Y-50216636D01*
X49526726Y-50238077D01*
X49523576Y-50259312D01*
X49518360Y-50280136D01*
X49511128Y-50300348D01*
X49501949Y-50319754D01*
X49490913Y-50338167D01*
X49478125Y-50355410D01*
X49463709Y-50371316D01*
X49101316Y-50733709D01*
X49085410Y-50748125D01*
X49068167Y-50760913D01*
X49049754Y-50771949D01*
X49030348Y-50781128D01*
X49010136Y-50788360D01*
X48989312Y-50793576D01*
X48968077Y-50796726D01*
X48946636Y-50797779D01*
X48925195Y-50796726D01*
X48903960Y-50793576D01*
X48883136Y-50788360D01*
X48862924Y-50781128D01*
X48843518Y-50771949D01*
X48825105Y-50760913D01*
X48807862Y-50748125D01*
X48791956Y-50733709D01*
X48482597Y-50424350D01*
X48468181Y-50408444D01*
X48455393Y-50391201D01*
X48444357Y-50372788D01*
X48435178Y-50353382D01*
X48427946Y-50333170D01*
X48422730Y-50312346D01*
X48419580Y-50291111D01*
X48418527Y-50269670D01*
X48419580Y-50248229D01*
X48422730Y-50226994D01*
X48427946Y-50206170D01*
X48435178Y-50185958D01*
X48444357Y-50166552D01*
X48455393Y-50148139D01*
X48468181Y-50130896D01*
X48482597Y-50114990D01*
X48844990Y-49752597D01*
X48860896Y-49738181D01*
X48878139Y-49725393D01*
X48896552Y-49714357D01*
X48915958Y-49705178D01*
X48936170Y-49697946D01*
X48956994Y-49692730D01*
X48978229Y-49689580D01*
X48999670Y-49688527D01*
X49021111Y-49689580D01*
G37*
G36*
X108554805Y-74933274D02*
G01*
X108576040Y-74936424D01*
X108596864Y-74941640D01*
X108617076Y-74948872D01*
X108636482Y-74958051D01*
X108654895Y-74969087D01*
X108672138Y-74981875D01*
X108688044Y-74996291D01*
X108997403Y-75305650D01*
X109011819Y-75321556D01*
X109024607Y-75338799D01*
X109035643Y-75357212D01*
X109044822Y-75376618D01*
X109052054Y-75396830D01*
X109057270Y-75417654D01*
X109060420Y-75438889D01*
X109061473Y-75460330D01*
X109060420Y-75481771D01*
X109057270Y-75503006D01*
X109052054Y-75523830D01*
X109044822Y-75544042D01*
X109035643Y-75563448D01*
X109024607Y-75581861D01*
X109011819Y-75599104D01*
X108997403Y-75615010D01*
X108635010Y-75977403D01*
X108619104Y-75991819D01*
X108601861Y-76004607D01*
X108583448Y-76015643D01*
X108564042Y-76024822D01*
X108543830Y-76032054D01*
X108523006Y-76037270D01*
X108501771Y-76040420D01*
X108480330Y-76041473D01*
X108458889Y-76040420D01*
X108437654Y-76037270D01*
X108416830Y-76032054D01*
X108396618Y-76024822D01*
X108377212Y-76015643D01*
X108358799Y-76004607D01*
X108341556Y-75991819D01*
X108325650Y-75977403D01*
X108016291Y-75668044D01*
X108001875Y-75652138D01*
X107989087Y-75634895D01*
X107978051Y-75616482D01*
X107968872Y-75597076D01*
X107961640Y-75576864D01*
X107956424Y-75556040D01*
X107953274Y-75534805D01*
X107952221Y-75513364D01*
X107953274Y-75491923D01*
X107956424Y-75470688D01*
X107961640Y-75449864D01*
X107968872Y-75429652D01*
X107978051Y-75410246D01*
X107989087Y-75391833D01*
X108001875Y-75374590D01*
X108016291Y-75358684D01*
X108378684Y-74996291D01*
X108394590Y-74981875D01*
X108411833Y-74969087D01*
X108430246Y-74958051D01*
X108449652Y-74948872D01*
X108469864Y-74941640D01*
X108490688Y-74936424D01*
X108511923Y-74933274D01*
X108533364Y-74932221D01*
X108554805Y-74933274D01*
G37*
G36*
X107441111Y-73819580D02*
G01*
X107462346Y-73822730D01*
X107483170Y-73827946D01*
X107503382Y-73835178D01*
X107522788Y-73844357D01*
X107541201Y-73855393D01*
X107558444Y-73868181D01*
X107574350Y-73882597D01*
X107883709Y-74191956D01*
X107898125Y-74207862D01*
X107910913Y-74225105D01*
X107921949Y-74243518D01*
X107931128Y-74262924D01*
X107938360Y-74283136D01*
X107943576Y-74303960D01*
X107946726Y-74325195D01*
X107947779Y-74346636D01*
X107946726Y-74368077D01*
X107943576Y-74389312D01*
X107938360Y-74410136D01*
X107931128Y-74430348D01*
X107921949Y-74449754D01*
X107910913Y-74468167D01*
X107898125Y-74485410D01*
X107883709Y-74501316D01*
X107521316Y-74863709D01*
X107505410Y-74878125D01*
X107488167Y-74890913D01*
X107469754Y-74901949D01*
X107450348Y-74911128D01*
X107430136Y-74918360D01*
X107409312Y-74923576D01*
X107388077Y-74926726D01*
X107366636Y-74927779D01*
X107345195Y-74926726D01*
X107323960Y-74923576D01*
X107303136Y-74918360D01*
X107282924Y-74911128D01*
X107263518Y-74901949D01*
X107245105Y-74890913D01*
X107227862Y-74878125D01*
X107211956Y-74863709D01*
X106902597Y-74554350D01*
X106888181Y-74538444D01*
X106875393Y-74521201D01*
X106864357Y-74502788D01*
X106855178Y-74483382D01*
X106847946Y-74463170D01*
X106842730Y-74442346D01*
X106839580Y-74421111D01*
X106838527Y-74399670D01*
X106839580Y-74378229D01*
X106842730Y-74356994D01*
X106847946Y-74336170D01*
X106855178Y-74315958D01*
X106864357Y-74296552D01*
X106875393Y-74278139D01*
X106888181Y-74260896D01*
X106902597Y-74244990D01*
X107264990Y-73882597D01*
X107280896Y-73868181D01*
X107298139Y-73855393D01*
X107316552Y-73844357D01*
X107335958Y-73835178D01*
X107356170Y-73827946D01*
X107376994Y-73822730D01*
X107398229Y-73819580D01*
X107419670Y-73818527D01*
X107441111Y-73819580D01*
G37*
G36*
X79344805Y-50803274D02*
G01*
X79366040Y-50806424D01*
X79386864Y-50811640D01*
X79407076Y-50818872D01*
X79426482Y-50828051D01*
X79444895Y-50839087D01*
X79462138Y-50851875D01*
X79478044Y-50866291D01*
X79787403Y-51175650D01*
X79801819Y-51191556D01*
X79814607Y-51208799D01*
X79825643Y-51227212D01*
X79834822Y-51246618D01*
X79842054Y-51266830D01*
X79847270Y-51287654D01*
X79850420Y-51308889D01*
X79851473Y-51330330D01*
X79850420Y-51351771D01*
X79847270Y-51373006D01*
X79842054Y-51393830D01*
X79834822Y-51414042D01*
X79825643Y-51433448D01*
X79814607Y-51451861D01*
X79801819Y-51469104D01*
X79787403Y-51485010D01*
X79425010Y-51847403D01*
X79409104Y-51861819D01*
X79391861Y-51874607D01*
X79373448Y-51885643D01*
X79354042Y-51894822D01*
X79333830Y-51902054D01*
X79313006Y-51907270D01*
X79291771Y-51910420D01*
X79270330Y-51911473D01*
X79248889Y-51910420D01*
X79227654Y-51907270D01*
X79206830Y-51902054D01*
X79186618Y-51894822D01*
X79167212Y-51885643D01*
X79148799Y-51874607D01*
X79131556Y-51861819D01*
X79115650Y-51847403D01*
X78806291Y-51538044D01*
X78791875Y-51522138D01*
X78779087Y-51504895D01*
X78768051Y-51486482D01*
X78758872Y-51467076D01*
X78751640Y-51446864D01*
X78746424Y-51426040D01*
X78743274Y-51404805D01*
X78742221Y-51383364D01*
X78743274Y-51361923D01*
X78746424Y-51340688D01*
X78751640Y-51319864D01*
X78758872Y-51299652D01*
X78768051Y-51280246D01*
X78779087Y-51261833D01*
X78791875Y-51244590D01*
X78806291Y-51228684D01*
X79168684Y-50866291D01*
X79184590Y-50851875D01*
X79201833Y-50839087D01*
X79220246Y-50828051D01*
X79239652Y-50818872D01*
X79259864Y-50811640D01*
X79280688Y-50806424D01*
X79301923Y-50803274D01*
X79323364Y-50802221D01*
X79344805Y-50803274D01*
G37*
G36*
X78231111Y-49689580D02*
G01*
X78252346Y-49692730D01*
X78273170Y-49697946D01*
X78293382Y-49705178D01*
X78312788Y-49714357D01*
X78331201Y-49725393D01*
X78348444Y-49738181D01*
X78364350Y-49752597D01*
X78673709Y-50061956D01*
X78688125Y-50077862D01*
X78700913Y-50095105D01*
X78711949Y-50113518D01*
X78721128Y-50132924D01*
X78728360Y-50153136D01*
X78733576Y-50173960D01*
X78736726Y-50195195D01*
X78737779Y-50216636D01*
X78736726Y-50238077D01*
X78733576Y-50259312D01*
X78728360Y-50280136D01*
X78721128Y-50300348D01*
X78711949Y-50319754D01*
X78700913Y-50338167D01*
X78688125Y-50355410D01*
X78673709Y-50371316D01*
X78311316Y-50733709D01*
X78295410Y-50748125D01*
X78278167Y-50760913D01*
X78259754Y-50771949D01*
X78240348Y-50781128D01*
X78220136Y-50788360D01*
X78199312Y-50793576D01*
X78178077Y-50796726D01*
X78156636Y-50797779D01*
X78135195Y-50796726D01*
X78113960Y-50793576D01*
X78093136Y-50788360D01*
X78072924Y-50781128D01*
X78053518Y-50771949D01*
X78035105Y-50760913D01*
X78017862Y-50748125D01*
X78001956Y-50733709D01*
X77692597Y-50424350D01*
X77678181Y-50408444D01*
X77665393Y-50391201D01*
X77654357Y-50372788D01*
X77645178Y-50353382D01*
X77637946Y-50333170D01*
X77632730Y-50312346D01*
X77629580Y-50291111D01*
X77628527Y-50269670D01*
X77629580Y-50248229D01*
X77632730Y-50226994D01*
X77637946Y-50206170D01*
X77645178Y-50185958D01*
X77654357Y-50166552D01*
X77665393Y-50148139D01*
X77678181Y-50130896D01*
X77692597Y-50114990D01*
X78054990Y-49752597D01*
X78070896Y-49738181D01*
X78088139Y-49725393D01*
X78106552Y-49714357D01*
X78125958Y-49705178D01*
X78146170Y-49697946D01*
X78166994Y-49692730D01*
X78188229Y-49689580D01*
X78209670Y-49688527D01*
X78231111Y-49689580D01*
G37*
G36*
X107441111Y-49689580D02*
G01*
X107462346Y-49692730D01*
X107483170Y-49697946D01*
X107503382Y-49705178D01*
X107522788Y-49714357D01*
X107541201Y-49725393D01*
X107558444Y-49738181D01*
X107574350Y-49752597D01*
X107883709Y-50061956D01*
X107898125Y-50077862D01*
X107910913Y-50095105D01*
X107921949Y-50113518D01*
X107931128Y-50132924D01*
X107938360Y-50153136D01*
X107943576Y-50173960D01*
X107946726Y-50195195D01*
X107947779Y-50216636D01*
X107946726Y-50238077D01*
X107943576Y-50259312D01*
X107938360Y-50280136D01*
X107931128Y-50300348D01*
X107921949Y-50319754D01*
X107910913Y-50338167D01*
X107898125Y-50355410D01*
X107883709Y-50371316D01*
X107521316Y-50733709D01*
X107505410Y-50748125D01*
X107488167Y-50760913D01*
X107469754Y-50771949D01*
X107450348Y-50781128D01*
X107430136Y-50788360D01*
X107409312Y-50793576D01*
X107388077Y-50796726D01*
X107366636Y-50797779D01*
X107345195Y-50796726D01*
X107323960Y-50793576D01*
X107303136Y-50788360D01*
X107282924Y-50781128D01*
X107263518Y-50771949D01*
X107245105Y-50760913D01*
X107227862Y-50748125D01*
X107211956Y-50733709D01*
X106902597Y-50424350D01*
X106888181Y-50408444D01*
X106875393Y-50391201D01*
X106864357Y-50372788D01*
X106855178Y-50353382D01*
X106847946Y-50333170D01*
X106842730Y-50312346D01*
X106839580Y-50291111D01*
X106838527Y-50269670D01*
X106839580Y-50248229D01*
X106842730Y-50226994D01*
X106847946Y-50206170D01*
X106855178Y-50185958D01*
X106864357Y-50166552D01*
X106875393Y-50148139D01*
X106888181Y-50130896D01*
X106902597Y-50114990D01*
X107264990Y-49752597D01*
X107280896Y-49738181D01*
X107298139Y-49725393D01*
X107316552Y-49714357D01*
X107335958Y-49705178D01*
X107356170Y-49697946D01*
X107376994Y-49692730D01*
X107398229Y-49689580D01*
X107419670Y-49688527D01*
X107441111Y-49689580D01*
G37*
G36*
X108554805Y-50803274D02*
G01*
X108576040Y-50806424D01*
X108596864Y-50811640D01*
X108617076Y-50818872D01*
X108636482Y-50828051D01*
X108654895Y-50839087D01*
X108672138Y-50851875D01*
X108688044Y-50866291D01*
X108997403Y-51175650D01*
X109011819Y-51191556D01*
X109024607Y-51208799D01*
X109035643Y-51227212D01*
X109044822Y-51246618D01*
X109052054Y-51266830D01*
X109057270Y-51287654D01*
X109060420Y-51308889D01*
X109061473Y-51330330D01*
X109060420Y-51351771D01*
X109057270Y-51373006D01*
X109052054Y-51393830D01*
X109044822Y-51414042D01*
X109035643Y-51433448D01*
X109024607Y-51451861D01*
X109011819Y-51469104D01*
X108997403Y-51485010D01*
X108635010Y-51847403D01*
X108619104Y-51861819D01*
X108601861Y-51874607D01*
X108583448Y-51885643D01*
X108564042Y-51894822D01*
X108543830Y-51902054D01*
X108523006Y-51907270D01*
X108501771Y-51910420D01*
X108480330Y-51911473D01*
X108458889Y-51910420D01*
X108437654Y-51907270D01*
X108416830Y-51902054D01*
X108396618Y-51894822D01*
X108377212Y-51885643D01*
X108358799Y-51874607D01*
X108341556Y-51861819D01*
X108325650Y-51847403D01*
X108016291Y-51538044D01*
X108001875Y-51522138D01*
X107989087Y-51504895D01*
X107978051Y-51486482D01*
X107968872Y-51467076D01*
X107961640Y-51446864D01*
X107956424Y-51426040D01*
X107953274Y-51404805D01*
X107952221Y-51383364D01*
X107953274Y-51361923D01*
X107956424Y-51340688D01*
X107961640Y-51319864D01*
X107968872Y-51299652D01*
X107978051Y-51280246D01*
X107989087Y-51261833D01*
X108001875Y-51244590D01*
X108016291Y-51228684D01*
X108378684Y-50866291D01*
X108394590Y-50851875D01*
X108411833Y-50839087D01*
X108430246Y-50828051D01*
X108449652Y-50818872D01*
X108469864Y-50811640D01*
X108490688Y-50806424D01*
X108511923Y-50803274D01*
X108533364Y-50802221D01*
X108554805Y-50803274D01*
G37*
G36*
X137764805Y-50803274D02*
G01*
X137786040Y-50806424D01*
X137806864Y-50811640D01*
X137827076Y-50818872D01*
X137846482Y-50828051D01*
X137864895Y-50839087D01*
X137882138Y-50851875D01*
X137898044Y-50866291D01*
X138207403Y-51175650D01*
X138221819Y-51191556D01*
X138234607Y-51208799D01*
X138245643Y-51227212D01*
X138254822Y-51246618D01*
X138262054Y-51266830D01*
X138267270Y-51287654D01*
X138270420Y-51308889D01*
X138271473Y-51330330D01*
X138270420Y-51351771D01*
X138267270Y-51373006D01*
X138262054Y-51393830D01*
X138254822Y-51414042D01*
X138245643Y-51433448D01*
X138234607Y-51451861D01*
X138221819Y-51469104D01*
X138207403Y-51485010D01*
X137845010Y-51847403D01*
X137829104Y-51861819D01*
X137811861Y-51874607D01*
X137793448Y-51885643D01*
X137774042Y-51894822D01*
X137753830Y-51902054D01*
X137733006Y-51907270D01*
X137711771Y-51910420D01*
X137690330Y-51911473D01*
X137668889Y-51910420D01*
X137647654Y-51907270D01*
X137626830Y-51902054D01*
X137606618Y-51894822D01*
X137587212Y-51885643D01*
X137568799Y-51874607D01*
X137551556Y-51861819D01*
X137535650Y-51847403D01*
X137226291Y-51538044D01*
X137211875Y-51522138D01*
X137199087Y-51504895D01*
X137188051Y-51486482D01*
X137178872Y-51467076D01*
X137171640Y-51446864D01*
X137166424Y-51426040D01*
X137163274Y-51404805D01*
X137162221Y-51383364D01*
X137163274Y-51361923D01*
X137166424Y-51340688D01*
X137171640Y-51319864D01*
X137178872Y-51299652D01*
X137188051Y-51280246D01*
X137199087Y-51261833D01*
X137211875Y-51244590D01*
X137226291Y-51228684D01*
X137588684Y-50866291D01*
X137604590Y-50851875D01*
X137621833Y-50839087D01*
X137640246Y-50828051D01*
X137659652Y-50818872D01*
X137679864Y-50811640D01*
X137700688Y-50806424D01*
X137721923Y-50803274D01*
X137743364Y-50802221D01*
X137764805Y-50803274D01*
G37*
G36*
X136651111Y-49689580D02*
G01*
X136672346Y-49692730D01*
X136693170Y-49697946D01*
X136713382Y-49705178D01*
X136732788Y-49714357D01*
X136751201Y-49725393D01*
X136768444Y-49738181D01*
X136784350Y-49752597D01*
X137093709Y-50061956D01*
X137108125Y-50077862D01*
X137120913Y-50095105D01*
X137131949Y-50113518D01*
X137141128Y-50132924D01*
X137148360Y-50153136D01*
X137153576Y-50173960D01*
X137156726Y-50195195D01*
X137157779Y-50216636D01*
X137156726Y-50238077D01*
X137153576Y-50259312D01*
X137148360Y-50280136D01*
X137141128Y-50300348D01*
X137131949Y-50319754D01*
X137120913Y-50338167D01*
X137108125Y-50355410D01*
X137093709Y-50371316D01*
X136731316Y-50733709D01*
X136715410Y-50748125D01*
X136698167Y-50760913D01*
X136679754Y-50771949D01*
X136660348Y-50781128D01*
X136640136Y-50788360D01*
X136619312Y-50793576D01*
X136598077Y-50796726D01*
X136576636Y-50797779D01*
X136555195Y-50796726D01*
X136533960Y-50793576D01*
X136513136Y-50788360D01*
X136492924Y-50781128D01*
X136473518Y-50771949D01*
X136455105Y-50760913D01*
X136437862Y-50748125D01*
X136421956Y-50733709D01*
X136112597Y-50424350D01*
X136098181Y-50408444D01*
X136085393Y-50391201D01*
X136074357Y-50372788D01*
X136065178Y-50353382D01*
X136057946Y-50333170D01*
X136052730Y-50312346D01*
X136049580Y-50291111D01*
X136048527Y-50269670D01*
X136049580Y-50248229D01*
X136052730Y-50226994D01*
X136057946Y-50206170D01*
X136065178Y-50185958D01*
X136074357Y-50166552D01*
X136085393Y-50148139D01*
X136098181Y-50130896D01*
X136112597Y-50114990D01*
X136474990Y-49752597D01*
X136490896Y-49738181D01*
X136508139Y-49725393D01*
X136526552Y-49714357D01*
X136545958Y-49705178D01*
X136566170Y-49697946D01*
X136586994Y-49692730D01*
X136608229Y-49689580D01*
X136629670Y-49688527D01*
X136651111Y-49689580D01*
G37*
G36*
X136651111Y-73819580D02*
G01*
X136672346Y-73822730D01*
X136693170Y-73827946D01*
X136713382Y-73835178D01*
X136732788Y-73844357D01*
X136751201Y-73855393D01*
X136768444Y-73868181D01*
X136784350Y-73882597D01*
X137093709Y-74191956D01*
X137108125Y-74207862D01*
X137120913Y-74225105D01*
X137131949Y-74243518D01*
X137141128Y-74262924D01*
X137148360Y-74283136D01*
X137153576Y-74303960D01*
X137156726Y-74325195D01*
X137157779Y-74346636D01*
X137156726Y-74368077D01*
X137153576Y-74389312D01*
X137148360Y-74410136D01*
X137141128Y-74430348D01*
X137131949Y-74449754D01*
X137120913Y-74468167D01*
X137108125Y-74485410D01*
X137093709Y-74501316D01*
X136731316Y-74863709D01*
X136715410Y-74878125D01*
X136698167Y-74890913D01*
X136679754Y-74901949D01*
X136660348Y-74911128D01*
X136640136Y-74918360D01*
X136619312Y-74923576D01*
X136598077Y-74926726D01*
X136576636Y-74927779D01*
X136555195Y-74926726D01*
X136533960Y-74923576D01*
X136513136Y-74918360D01*
X136492924Y-74911128D01*
X136473518Y-74901949D01*
X136455105Y-74890913D01*
X136437862Y-74878125D01*
X136421956Y-74863709D01*
X136112597Y-74554350D01*
X136098181Y-74538444D01*
X136085393Y-74521201D01*
X136074357Y-74502788D01*
X136065178Y-74483382D01*
X136057946Y-74463170D01*
X136052730Y-74442346D01*
X136049580Y-74421111D01*
X136048527Y-74399670D01*
X136049580Y-74378229D01*
X136052730Y-74356994D01*
X136057946Y-74336170D01*
X136065178Y-74315958D01*
X136074357Y-74296552D01*
X136085393Y-74278139D01*
X136098181Y-74260896D01*
X136112597Y-74244990D01*
X136474990Y-73882597D01*
X136490896Y-73868181D01*
X136508139Y-73855393D01*
X136526552Y-73844357D01*
X136545958Y-73835178D01*
X136566170Y-73827946D01*
X136586994Y-73822730D01*
X136608229Y-73819580D01*
X136629670Y-73818527D01*
X136651111Y-73819580D01*
G37*
G36*
X137764805Y-74933274D02*
G01*
X137786040Y-74936424D01*
X137806864Y-74941640D01*
X137827076Y-74948872D01*
X137846482Y-74958051D01*
X137864895Y-74969087D01*
X137882138Y-74981875D01*
X137898044Y-74996291D01*
X138207403Y-75305650D01*
X138221819Y-75321556D01*
X138234607Y-75338799D01*
X138245643Y-75357212D01*
X138254822Y-75376618D01*
X138262054Y-75396830D01*
X138267270Y-75417654D01*
X138270420Y-75438889D01*
X138271473Y-75460330D01*
X138270420Y-75481771D01*
X138267270Y-75503006D01*
X138262054Y-75523830D01*
X138254822Y-75544042D01*
X138245643Y-75563448D01*
X138234607Y-75581861D01*
X138221819Y-75599104D01*
X138207403Y-75615010D01*
X137845010Y-75977403D01*
X137829104Y-75991819D01*
X137811861Y-76004607D01*
X137793448Y-76015643D01*
X137774042Y-76024822D01*
X137753830Y-76032054D01*
X137733006Y-76037270D01*
X137711771Y-76040420D01*
X137690330Y-76041473D01*
X137668889Y-76040420D01*
X137647654Y-76037270D01*
X137626830Y-76032054D01*
X137606618Y-76024822D01*
X137587212Y-76015643D01*
X137568799Y-76004607D01*
X137551556Y-75991819D01*
X137535650Y-75977403D01*
X137226291Y-75668044D01*
X137211875Y-75652138D01*
X137199087Y-75634895D01*
X137188051Y-75616482D01*
X137178872Y-75597076D01*
X137171640Y-75576864D01*
X137166424Y-75556040D01*
X137163274Y-75534805D01*
X137162221Y-75513364D01*
X137163274Y-75491923D01*
X137166424Y-75470688D01*
X137171640Y-75449864D01*
X137178872Y-75429652D01*
X137188051Y-75410246D01*
X137199087Y-75391833D01*
X137211875Y-75374590D01*
X137226291Y-75358684D01*
X137588684Y-74996291D01*
X137604590Y-74981875D01*
X137621833Y-74969087D01*
X137640246Y-74958051D01*
X137659652Y-74948872D01*
X137679864Y-74941640D01*
X137700688Y-74936424D01*
X137721923Y-74933274D01*
X137743364Y-74932221D01*
X137764805Y-74933274D01*
G37*
G36*
X48464264Y-74532733D02*
G01*
X48485499Y-74535883D01*
X48506323Y-74541099D01*
X48526535Y-74548331D01*
X48545941Y-74557510D01*
X48564354Y-74568546D01*
X48581597Y-74581334D01*
X48597503Y-74595750D01*
X48906862Y-74905109D01*
X48921278Y-74921015D01*
X48934066Y-74938258D01*
X48945102Y-74956671D01*
X48954281Y-74976077D01*
X48961513Y-74996289D01*
X48966729Y-75017113D01*
X48969879Y-75038348D01*
X48970932Y-75059789D01*
X48969879Y-75081230D01*
X48966729Y-75102465D01*
X48961513Y-75123289D01*
X48954281Y-75143501D01*
X48945102Y-75162907D01*
X48934066Y-75181320D01*
X48921278Y-75198563D01*
X48906862Y-75214469D01*
X48544469Y-75576862D01*
X48528563Y-75591278D01*
X48511320Y-75604066D01*
X48492907Y-75615102D01*
X48473501Y-75624281D01*
X48453289Y-75631513D01*
X48432465Y-75636729D01*
X48411230Y-75639879D01*
X48389789Y-75640932D01*
X48368348Y-75639879D01*
X48347113Y-75636729D01*
X48326289Y-75631513D01*
X48306077Y-75624281D01*
X48286671Y-75615102D01*
X48268258Y-75604066D01*
X48251015Y-75591278D01*
X48235109Y-75576862D01*
X47925750Y-75267503D01*
X47911334Y-75251597D01*
X47898546Y-75234354D01*
X47887510Y-75215941D01*
X47878331Y-75196535D01*
X47871099Y-75176323D01*
X47865883Y-75155499D01*
X47862733Y-75134264D01*
X47861680Y-75112823D01*
X47862733Y-75091382D01*
X47865883Y-75070147D01*
X47871099Y-75049323D01*
X47878331Y-75029111D01*
X47887510Y-75009705D01*
X47898546Y-74991292D01*
X47911334Y-74974049D01*
X47925750Y-74958143D01*
X48288143Y-74595750D01*
X48304049Y-74581334D01*
X48321292Y-74568546D01*
X48339705Y-74557510D01*
X48359111Y-74548331D01*
X48379323Y-74541099D01*
X48400147Y-74535883D01*
X48421382Y-74532733D01*
X48442823Y-74531680D01*
X48464264Y-74532733D01*
G37*
G36*
X49577958Y-75646427D02*
G01*
X49599193Y-75649577D01*
X49620017Y-75654793D01*
X49640229Y-75662025D01*
X49659635Y-75671204D01*
X49678048Y-75682240D01*
X49695291Y-75695028D01*
X49711197Y-75709444D01*
X50020556Y-76018803D01*
X50034972Y-76034709D01*
X50047760Y-76051952D01*
X50058796Y-76070365D01*
X50067975Y-76089771D01*
X50075207Y-76109983D01*
X50080423Y-76130807D01*
X50083573Y-76152042D01*
X50084626Y-76173483D01*
X50083573Y-76194924D01*
X50080423Y-76216159D01*
X50075207Y-76236983D01*
X50067975Y-76257195D01*
X50058796Y-76276601D01*
X50047760Y-76295014D01*
X50034972Y-76312257D01*
X50020556Y-76328163D01*
X49658163Y-76690556D01*
X49642257Y-76704972D01*
X49625014Y-76717760D01*
X49606601Y-76728796D01*
X49587195Y-76737975D01*
X49566983Y-76745207D01*
X49546159Y-76750423D01*
X49524924Y-76753573D01*
X49503483Y-76754626D01*
X49482042Y-76753573D01*
X49460807Y-76750423D01*
X49439983Y-76745207D01*
X49419771Y-76737975D01*
X49400365Y-76728796D01*
X49381952Y-76717760D01*
X49364709Y-76704972D01*
X49348803Y-76690556D01*
X49039444Y-76381197D01*
X49025028Y-76365291D01*
X49012240Y-76348048D01*
X49001204Y-76329635D01*
X48992025Y-76310229D01*
X48984793Y-76290017D01*
X48979577Y-76269193D01*
X48976427Y-76247958D01*
X48975374Y-76226517D01*
X48976427Y-76205076D01*
X48979577Y-76183841D01*
X48984793Y-76163017D01*
X48992025Y-76142805D01*
X49001204Y-76123399D01*
X49012240Y-76104986D01*
X49025028Y-76087743D01*
X49039444Y-76071837D01*
X49401837Y-75709444D01*
X49417743Y-75695028D01*
X49434986Y-75682240D01*
X49453399Y-75671204D01*
X49472805Y-75662025D01*
X49493017Y-75654793D01*
X49513841Y-75649577D01*
X49535076Y-75646427D01*
X49556517Y-75645374D01*
X49577958Y-75646427D01*
G37*
G36*
X79344805Y-74933274D02*
G01*
X79366040Y-74936424D01*
X79386864Y-74941640D01*
X79407076Y-74948872D01*
X79426482Y-74958051D01*
X79444895Y-74969087D01*
X79462138Y-74981875D01*
X79478044Y-74996291D01*
X79787403Y-75305650D01*
X79801819Y-75321556D01*
X79814607Y-75338799D01*
X79825643Y-75357212D01*
X79834822Y-75376618D01*
X79842054Y-75396830D01*
X79847270Y-75417654D01*
X79850420Y-75438889D01*
X79851473Y-75460330D01*
X79850420Y-75481771D01*
X79847270Y-75503006D01*
X79842054Y-75523830D01*
X79834822Y-75544042D01*
X79825643Y-75563448D01*
X79814607Y-75581861D01*
X79801819Y-75599104D01*
X79787403Y-75615010D01*
X79425010Y-75977403D01*
X79409104Y-75991819D01*
X79391861Y-76004607D01*
X79373448Y-76015643D01*
X79354042Y-76024822D01*
X79333830Y-76032054D01*
X79313006Y-76037270D01*
X79291771Y-76040420D01*
X79270330Y-76041473D01*
X79248889Y-76040420D01*
X79227654Y-76037270D01*
X79206830Y-76032054D01*
X79186618Y-76024822D01*
X79167212Y-76015643D01*
X79148799Y-76004607D01*
X79131556Y-75991819D01*
X79115650Y-75977403D01*
X78806291Y-75668044D01*
X78791875Y-75652138D01*
X78779087Y-75634895D01*
X78768051Y-75616482D01*
X78758872Y-75597076D01*
X78751640Y-75576864D01*
X78746424Y-75556040D01*
X78743274Y-75534805D01*
X78742221Y-75513364D01*
X78743274Y-75491923D01*
X78746424Y-75470688D01*
X78751640Y-75449864D01*
X78758872Y-75429652D01*
X78768051Y-75410246D01*
X78779087Y-75391833D01*
X78791875Y-75374590D01*
X78806291Y-75358684D01*
X79168684Y-74996291D01*
X79184590Y-74981875D01*
X79201833Y-74969087D01*
X79220246Y-74958051D01*
X79239652Y-74948872D01*
X79259864Y-74941640D01*
X79280688Y-74936424D01*
X79301923Y-74933274D01*
X79323364Y-74932221D01*
X79344805Y-74933274D01*
G37*
G36*
X78231111Y-73819580D02*
G01*
X78252346Y-73822730D01*
X78273170Y-73827946D01*
X78293382Y-73835178D01*
X78312788Y-73844357D01*
X78331201Y-73855393D01*
X78348444Y-73868181D01*
X78364350Y-73882597D01*
X78673709Y-74191956D01*
X78688125Y-74207862D01*
X78700913Y-74225105D01*
X78711949Y-74243518D01*
X78721128Y-74262924D01*
X78728360Y-74283136D01*
X78733576Y-74303960D01*
X78736726Y-74325195D01*
X78737779Y-74346636D01*
X78736726Y-74368077D01*
X78733576Y-74389312D01*
X78728360Y-74410136D01*
X78721128Y-74430348D01*
X78711949Y-74449754D01*
X78700913Y-74468167D01*
X78688125Y-74485410D01*
X78673709Y-74501316D01*
X78311316Y-74863709D01*
X78295410Y-74878125D01*
X78278167Y-74890913D01*
X78259754Y-74901949D01*
X78240348Y-74911128D01*
X78220136Y-74918360D01*
X78199312Y-74923576D01*
X78178077Y-74926726D01*
X78156636Y-74927779D01*
X78135195Y-74926726D01*
X78113960Y-74923576D01*
X78093136Y-74918360D01*
X78072924Y-74911128D01*
X78053518Y-74901949D01*
X78035105Y-74890913D01*
X78017862Y-74878125D01*
X78001956Y-74863709D01*
X77692597Y-74554350D01*
X77678181Y-74538444D01*
X77665393Y-74521201D01*
X77654357Y-74502788D01*
X77645178Y-74483382D01*
X77637946Y-74463170D01*
X77632730Y-74442346D01*
X77629580Y-74421111D01*
X77628527Y-74399670D01*
X77629580Y-74378229D01*
X77632730Y-74356994D01*
X77637946Y-74336170D01*
X77645178Y-74315958D01*
X77654357Y-74296552D01*
X77665393Y-74278139D01*
X77678181Y-74260896D01*
X77692597Y-74244990D01*
X78054990Y-73882597D01*
X78070896Y-73868181D01*
X78088139Y-73855393D01*
X78106552Y-73844357D01*
X78125958Y-73835178D01*
X78146170Y-73827946D01*
X78166994Y-73822730D01*
X78188229Y-73819580D01*
X78209670Y-73818527D01*
X78231111Y-73819580D01*
G37*
G36*
X60717691Y-74456053D02*
G01*
X60738926Y-74459203D01*
X60759750Y-74464419D01*
X60779962Y-74471651D01*
X60799368Y-74480830D01*
X60817781Y-74491866D01*
X60835024Y-74504654D01*
X60850930Y-74519070D01*
X60865346Y-74534976D01*
X60878134Y-74552219D01*
X60889170Y-74570632D01*
X60898349Y-74590038D01*
X60905581Y-74610250D01*
X60910797Y-74631074D01*
X60913947Y-74652309D01*
X60915000Y-74673750D01*
X60915000Y-75186250D01*
X60913947Y-75207691D01*
X60910797Y-75228926D01*
X60905581Y-75249750D01*
X60898349Y-75269962D01*
X60889170Y-75289368D01*
X60878134Y-75307781D01*
X60865346Y-75325024D01*
X60850930Y-75340930D01*
X60835024Y-75355346D01*
X60817781Y-75368134D01*
X60799368Y-75379170D01*
X60779962Y-75388349D01*
X60759750Y-75395581D01*
X60738926Y-75400797D01*
X60717691Y-75403947D01*
X60696250Y-75405000D01*
X60258750Y-75405000D01*
X60237309Y-75403947D01*
X60216074Y-75400797D01*
X60195250Y-75395581D01*
X60175038Y-75388349D01*
X60155632Y-75379170D01*
X60137219Y-75368134D01*
X60119976Y-75355346D01*
X60104070Y-75340930D01*
X60089654Y-75325024D01*
X60076866Y-75307781D01*
X60065830Y-75289368D01*
X60056651Y-75269962D01*
X60049419Y-75249750D01*
X60044203Y-75228926D01*
X60041053Y-75207691D01*
X60040000Y-75186250D01*
X60040000Y-74673750D01*
X60041053Y-74652309D01*
X60044203Y-74631074D01*
X60049419Y-74610250D01*
X60056651Y-74590038D01*
X60065830Y-74570632D01*
X60076866Y-74552219D01*
X60089654Y-74534976D01*
X60104070Y-74519070D01*
X60119976Y-74504654D01*
X60137219Y-74491866D01*
X60155632Y-74480830D01*
X60175038Y-74471651D01*
X60195250Y-74464419D01*
X60216074Y-74459203D01*
X60237309Y-74456053D01*
X60258750Y-74455000D01*
X60696250Y-74455000D01*
X60717691Y-74456053D01*
G37*
G36*
X59142691Y-74456053D02*
G01*
X59163926Y-74459203D01*
X59184750Y-74464419D01*
X59204962Y-74471651D01*
X59224368Y-74480830D01*
X59242781Y-74491866D01*
X59260024Y-74504654D01*
X59275930Y-74519070D01*
X59290346Y-74534976D01*
X59303134Y-74552219D01*
X59314170Y-74570632D01*
X59323349Y-74590038D01*
X59330581Y-74610250D01*
X59335797Y-74631074D01*
X59338947Y-74652309D01*
X59340000Y-74673750D01*
X59340000Y-75186250D01*
X59338947Y-75207691D01*
X59335797Y-75228926D01*
X59330581Y-75249750D01*
X59323349Y-75269962D01*
X59314170Y-75289368D01*
X59303134Y-75307781D01*
X59290346Y-75325024D01*
X59275930Y-75340930D01*
X59260024Y-75355346D01*
X59242781Y-75368134D01*
X59224368Y-75379170D01*
X59204962Y-75388349D01*
X59184750Y-75395581D01*
X59163926Y-75400797D01*
X59142691Y-75403947D01*
X59121250Y-75405000D01*
X58683750Y-75405000D01*
X58662309Y-75403947D01*
X58641074Y-75400797D01*
X58620250Y-75395581D01*
X58600038Y-75388349D01*
X58580632Y-75379170D01*
X58562219Y-75368134D01*
X58544976Y-75355346D01*
X58529070Y-75340930D01*
X58514654Y-75325024D01*
X58501866Y-75307781D01*
X58490830Y-75289368D01*
X58481651Y-75269962D01*
X58474419Y-75249750D01*
X58469203Y-75228926D01*
X58466053Y-75207691D01*
X58465000Y-75186250D01*
X58465000Y-74673750D01*
X58466053Y-74652309D01*
X58469203Y-74631074D01*
X58474419Y-74610250D01*
X58481651Y-74590038D01*
X58490830Y-74570632D01*
X58501866Y-74552219D01*
X58514654Y-74534976D01*
X58529070Y-74519070D01*
X58544976Y-74504654D01*
X58562219Y-74491866D01*
X58580632Y-74480830D01*
X58600038Y-74471651D01*
X58620250Y-74464419D01*
X58641074Y-74459203D01*
X58662309Y-74456053D01*
X58683750Y-74455000D01*
X59121250Y-74455000D01*
X59142691Y-74456053D01*
G37*
G36*
X67067691Y-74456053D02*
G01*
X67088926Y-74459203D01*
X67109750Y-74464419D01*
X67129962Y-74471651D01*
X67149368Y-74480830D01*
X67167781Y-74491866D01*
X67185024Y-74504654D01*
X67200930Y-74519070D01*
X67215346Y-74534976D01*
X67228134Y-74552219D01*
X67239170Y-74570632D01*
X67248349Y-74590038D01*
X67255581Y-74610250D01*
X67260797Y-74631074D01*
X67263947Y-74652309D01*
X67265000Y-74673750D01*
X67265000Y-75186250D01*
X67263947Y-75207691D01*
X67260797Y-75228926D01*
X67255581Y-75249750D01*
X67248349Y-75269962D01*
X67239170Y-75289368D01*
X67228134Y-75307781D01*
X67215346Y-75325024D01*
X67200930Y-75340930D01*
X67185024Y-75355346D01*
X67167781Y-75368134D01*
X67149368Y-75379170D01*
X67129962Y-75388349D01*
X67109750Y-75395581D01*
X67088926Y-75400797D01*
X67067691Y-75403947D01*
X67046250Y-75405000D01*
X66608750Y-75405000D01*
X66587309Y-75403947D01*
X66566074Y-75400797D01*
X66545250Y-75395581D01*
X66525038Y-75388349D01*
X66505632Y-75379170D01*
X66487219Y-75368134D01*
X66469976Y-75355346D01*
X66454070Y-75340930D01*
X66439654Y-75325024D01*
X66426866Y-75307781D01*
X66415830Y-75289368D01*
X66406651Y-75269962D01*
X66399419Y-75249750D01*
X66394203Y-75228926D01*
X66391053Y-75207691D01*
X66390000Y-75186250D01*
X66390000Y-74673750D01*
X66391053Y-74652309D01*
X66394203Y-74631074D01*
X66399419Y-74610250D01*
X66406651Y-74590038D01*
X66415830Y-74570632D01*
X66426866Y-74552219D01*
X66439654Y-74534976D01*
X66454070Y-74519070D01*
X66469976Y-74504654D01*
X66487219Y-74491866D01*
X66505632Y-74480830D01*
X66525038Y-74471651D01*
X66545250Y-74464419D01*
X66566074Y-74459203D01*
X66587309Y-74456053D01*
X66608750Y-74455000D01*
X67046250Y-74455000D01*
X67067691Y-74456053D01*
G37*
G36*
X65492691Y-74456053D02*
G01*
X65513926Y-74459203D01*
X65534750Y-74464419D01*
X65554962Y-74471651D01*
X65574368Y-74480830D01*
X65592781Y-74491866D01*
X65610024Y-74504654D01*
X65625930Y-74519070D01*
X65640346Y-74534976D01*
X65653134Y-74552219D01*
X65664170Y-74570632D01*
X65673349Y-74590038D01*
X65680581Y-74610250D01*
X65685797Y-74631074D01*
X65688947Y-74652309D01*
X65690000Y-74673750D01*
X65690000Y-75186250D01*
X65688947Y-75207691D01*
X65685797Y-75228926D01*
X65680581Y-75249750D01*
X65673349Y-75269962D01*
X65664170Y-75289368D01*
X65653134Y-75307781D01*
X65640346Y-75325024D01*
X65625930Y-75340930D01*
X65610024Y-75355346D01*
X65592781Y-75368134D01*
X65574368Y-75379170D01*
X65554962Y-75388349D01*
X65534750Y-75395581D01*
X65513926Y-75400797D01*
X65492691Y-75403947D01*
X65471250Y-75405000D01*
X65033750Y-75405000D01*
X65012309Y-75403947D01*
X64991074Y-75400797D01*
X64970250Y-75395581D01*
X64950038Y-75388349D01*
X64930632Y-75379170D01*
X64912219Y-75368134D01*
X64894976Y-75355346D01*
X64879070Y-75340930D01*
X64864654Y-75325024D01*
X64851866Y-75307781D01*
X64840830Y-75289368D01*
X64831651Y-75269962D01*
X64824419Y-75249750D01*
X64819203Y-75228926D01*
X64816053Y-75207691D01*
X64815000Y-75186250D01*
X64815000Y-74673750D01*
X64816053Y-74652309D01*
X64819203Y-74631074D01*
X64824419Y-74610250D01*
X64831651Y-74590038D01*
X64840830Y-74570632D01*
X64851866Y-74552219D01*
X64864654Y-74534976D01*
X64879070Y-74519070D01*
X64894976Y-74504654D01*
X64912219Y-74491866D01*
X64930632Y-74480830D01*
X64950038Y-74471651D01*
X64970250Y-74464419D01*
X64991074Y-74459203D01*
X65012309Y-74456053D01*
X65033750Y-74455000D01*
X65471250Y-74455000D01*
X65492691Y-74456053D01*
G37*
G36*
X66762691Y-41436053D02*
G01*
X66783926Y-41439203D01*
X66804750Y-41444419D01*
X66824962Y-41451651D01*
X66844368Y-41460830D01*
X66862781Y-41471866D01*
X66880024Y-41484654D01*
X66895930Y-41499070D01*
X66910346Y-41514976D01*
X66923134Y-41532219D01*
X66934170Y-41550632D01*
X66943349Y-41570038D01*
X66950581Y-41590250D01*
X66955797Y-41611074D01*
X66958947Y-41632309D01*
X66960000Y-41653750D01*
X66960000Y-42166250D01*
X66958947Y-42187691D01*
X66955797Y-42208926D01*
X66950581Y-42229750D01*
X66943349Y-42249962D01*
X66934170Y-42269368D01*
X66923134Y-42287781D01*
X66910346Y-42305024D01*
X66895930Y-42320930D01*
X66880024Y-42335346D01*
X66862781Y-42348134D01*
X66844368Y-42359170D01*
X66824962Y-42368349D01*
X66804750Y-42375581D01*
X66783926Y-42380797D01*
X66762691Y-42383947D01*
X66741250Y-42385000D01*
X66303750Y-42385000D01*
X66282309Y-42383947D01*
X66261074Y-42380797D01*
X66240250Y-42375581D01*
X66220038Y-42368349D01*
X66200632Y-42359170D01*
X66182219Y-42348134D01*
X66164976Y-42335346D01*
X66149070Y-42320930D01*
X66134654Y-42305024D01*
X66121866Y-42287781D01*
X66110830Y-42269368D01*
X66101651Y-42249962D01*
X66094419Y-42229750D01*
X66089203Y-42208926D01*
X66086053Y-42187691D01*
X66085000Y-42166250D01*
X66085000Y-41653750D01*
X66086053Y-41632309D01*
X66089203Y-41611074D01*
X66094419Y-41590250D01*
X66101651Y-41570038D01*
X66110830Y-41550632D01*
X66121866Y-41532219D01*
X66134654Y-41514976D01*
X66149070Y-41499070D01*
X66164976Y-41484654D01*
X66182219Y-41471866D01*
X66200632Y-41460830D01*
X66220038Y-41451651D01*
X66240250Y-41444419D01*
X66261074Y-41439203D01*
X66282309Y-41436053D01*
X66303750Y-41435000D01*
X66741250Y-41435000D01*
X66762691Y-41436053D01*
G37*
G36*
X68337691Y-41436053D02*
G01*
X68358926Y-41439203D01*
X68379750Y-41444419D01*
X68399962Y-41451651D01*
X68419368Y-41460830D01*
X68437781Y-41471866D01*
X68455024Y-41484654D01*
X68470930Y-41499070D01*
X68485346Y-41514976D01*
X68498134Y-41532219D01*
X68509170Y-41550632D01*
X68518349Y-41570038D01*
X68525581Y-41590250D01*
X68530797Y-41611074D01*
X68533947Y-41632309D01*
X68535000Y-41653750D01*
X68535000Y-42166250D01*
X68533947Y-42187691D01*
X68530797Y-42208926D01*
X68525581Y-42229750D01*
X68518349Y-42249962D01*
X68509170Y-42269368D01*
X68498134Y-42287781D01*
X68485346Y-42305024D01*
X68470930Y-42320930D01*
X68455024Y-42335346D01*
X68437781Y-42348134D01*
X68419368Y-42359170D01*
X68399962Y-42368349D01*
X68379750Y-42375581D01*
X68358926Y-42380797D01*
X68337691Y-42383947D01*
X68316250Y-42385000D01*
X67878750Y-42385000D01*
X67857309Y-42383947D01*
X67836074Y-42380797D01*
X67815250Y-42375581D01*
X67795038Y-42368349D01*
X67775632Y-42359170D01*
X67757219Y-42348134D01*
X67739976Y-42335346D01*
X67724070Y-42320930D01*
X67709654Y-42305024D01*
X67696866Y-42287781D01*
X67685830Y-42269368D01*
X67676651Y-42249962D01*
X67669419Y-42229750D01*
X67664203Y-42208926D01*
X67661053Y-42187691D01*
X67660000Y-42166250D01*
X67660000Y-41653750D01*
X67661053Y-41632309D01*
X67664203Y-41611074D01*
X67669419Y-41590250D01*
X67676651Y-41570038D01*
X67685830Y-41550632D01*
X67696866Y-41532219D01*
X67709654Y-41514976D01*
X67724070Y-41499070D01*
X67739976Y-41484654D01*
X67757219Y-41471866D01*
X67775632Y-41460830D01*
X67795038Y-41451651D01*
X67815250Y-41444419D01*
X67836074Y-41439203D01*
X67857309Y-41436053D01*
X67878750Y-41435000D01*
X68316250Y-41435000D01*
X68337691Y-41436053D01*
G37*
G36*
X72667691Y-50846053D02*
G01*
X72688926Y-50849203D01*
X72709750Y-50854419D01*
X72729962Y-50861651D01*
X72749368Y-50870830D01*
X72767781Y-50881866D01*
X72785024Y-50894654D01*
X72800930Y-50909070D01*
X72815346Y-50924976D01*
X72828134Y-50942219D01*
X72839170Y-50960632D01*
X72848349Y-50980038D01*
X72855581Y-51000250D01*
X72860797Y-51021074D01*
X72863947Y-51042309D01*
X72865000Y-51063750D01*
X72865000Y-51501250D01*
X72863947Y-51522691D01*
X72860797Y-51543926D01*
X72855581Y-51564750D01*
X72848349Y-51584962D01*
X72839170Y-51604368D01*
X72828134Y-51622781D01*
X72815346Y-51640024D01*
X72800930Y-51655930D01*
X72785024Y-51670346D01*
X72767781Y-51683134D01*
X72749368Y-51694170D01*
X72729962Y-51703349D01*
X72709750Y-51710581D01*
X72688926Y-51715797D01*
X72667691Y-51718947D01*
X72646250Y-51720000D01*
X72133750Y-51720000D01*
X72112309Y-51718947D01*
X72091074Y-51715797D01*
X72070250Y-51710581D01*
X72050038Y-51703349D01*
X72030632Y-51694170D01*
X72012219Y-51683134D01*
X71994976Y-51670346D01*
X71979070Y-51655930D01*
X71964654Y-51640024D01*
X71951866Y-51622781D01*
X71940830Y-51604368D01*
X71931651Y-51584962D01*
X71924419Y-51564750D01*
X71919203Y-51543926D01*
X71916053Y-51522691D01*
X71915000Y-51501250D01*
X71915000Y-51063750D01*
X71916053Y-51042309D01*
X71919203Y-51021074D01*
X71924419Y-51000250D01*
X71931651Y-50980038D01*
X71940830Y-50960632D01*
X71951866Y-50942219D01*
X71964654Y-50924976D01*
X71979070Y-50909070D01*
X71994976Y-50894654D01*
X72012219Y-50881866D01*
X72030632Y-50870830D01*
X72050038Y-50861651D01*
X72070250Y-50854419D01*
X72091074Y-50849203D01*
X72112309Y-50846053D01*
X72133750Y-50845000D01*
X72646250Y-50845000D01*
X72667691Y-50846053D01*
G37*
G36*
X72667691Y-52421053D02*
G01*
X72688926Y-52424203D01*
X72709750Y-52429419D01*
X72729962Y-52436651D01*
X72749368Y-52445830D01*
X72767781Y-52456866D01*
X72785024Y-52469654D01*
X72800930Y-52484070D01*
X72815346Y-52499976D01*
X72828134Y-52517219D01*
X72839170Y-52535632D01*
X72848349Y-52555038D01*
X72855581Y-52575250D01*
X72860797Y-52596074D01*
X72863947Y-52617309D01*
X72865000Y-52638750D01*
X72865000Y-53076250D01*
X72863947Y-53097691D01*
X72860797Y-53118926D01*
X72855581Y-53139750D01*
X72848349Y-53159962D01*
X72839170Y-53179368D01*
X72828134Y-53197781D01*
X72815346Y-53215024D01*
X72800930Y-53230930D01*
X72785024Y-53245346D01*
X72767781Y-53258134D01*
X72749368Y-53269170D01*
X72729962Y-53278349D01*
X72709750Y-53285581D01*
X72688926Y-53290797D01*
X72667691Y-53293947D01*
X72646250Y-53295000D01*
X72133750Y-53295000D01*
X72112309Y-53293947D01*
X72091074Y-53290797D01*
X72070250Y-53285581D01*
X72050038Y-53278349D01*
X72030632Y-53269170D01*
X72012219Y-53258134D01*
X71994976Y-53245346D01*
X71979070Y-53230930D01*
X71964654Y-53215024D01*
X71951866Y-53197781D01*
X71940830Y-53179368D01*
X71931651Y-53159962D01*
X71924419Y-53139750D01*
X71919203Y-53118926D01*
X71916053Y-53097691D01*
X71915000Y-53076250D01*
X71915000Y-52638750D01*
X71916053Y-52617309D01*
X71919203Y-52596074D01*
X71924419Y-52575250D01*
X71931651Y-52555038D01*
X71940830Y-52535632D01*
X71951866Y-52517219D01*
X71964654Y-52499976D01*
X71979070Y-52484070D01*
X71994976Y-52469654D01*
X72012219Y-52456866D01*
X72030632Y-52445830D01*
X72050038Y-52436651D01*
X72070250Y-52429419D01*
X72091074Y-52424203D01*
X72112309Y-52421053D01*
X72133750Y-52420000D01*
X72646250Y-52420000D01*
X72667691Y-52421053D01*
G37*
G36*
X100607691Y-29256053D02*
G01*
X100628926Y-29259203D01*
X100649750Y-29264419D01*
X100669962Y-29271651D01*
X100689368Y-29280830D01*
X100707781Y-29291866D01*
X100725024Y-29304654D01*
X100740930Y-29319070D01*
X100755346Y-29334976D01*
X100768134Y-29352219D01*
X100779170Y-29370632D01*
X100788349Y-29390038D01*
X100795581Y-29410250D01*
X100800797Y-29431074D01*
X100803947Y-29452309D01*
X100805000Y-29473750D01*
X100805000Y-29911250D01*
X100803947Y-29932691D01*
X100800797Y-29953926D01*
X100795581Y-29974750D01*
X100788349Y-29994962D01*
X100779170Y-30014368D01*
X100768134Y-30032781D01*
X100755346Y-30050024D01*
X100740930Y-30065930D01*
X100725024Y-30080346D01*
X100707781Y-30093134D01*
X100689368Y-30104170D01*
X100669962Y-30113349D01*
X100649750Y-30120581D01*
X100628926Y-30125797D01*
X100607691Y-30128947D01*
X100586250Y-30130000D01*
X100073750Y-30130000D01*
X100052309Y-30128947D01*
X100031074Y-30125797D01*
X100010250Y-30120581D01*
X99990038Y-30113349D01*
X99970632Y-30104170D01*
X99952219Y-30093134D01*
X99934976Y-30080346D01*
X99919070Y-30065930D01*
X99904654Y-30050024D01*
X99891866Y-30032781D01*
X99880830Y-30014368D01*
X99871651Y-29994962D01*
X99864419Y-29974750D01*
X99859203Y-29953926D01*
X99856053Y-29932691D01*
X99855000Y-29911250D01*
X99855000Y-29473750D01*
X99856053Y-29452309D01*
X99859203Y-29431074D01*
X99864419Y-29410250D01*
X99871651Y-29390038D01*
X99880830Y-29370632D01*
X99891866Y-29352219D01*
X99904654Y-29334976D01*
X99919070Y-29319070D01*
X99934976Y-29304654D01*
X99952219Y-29291866D01*
X99970632Y-29280830D01*
X99990038Y-29271651D01*
X100010250Y-29264419D01*
X100031074Y-29259203D01*
X100052309Y-29256053D01*
X100073750Y-29255000D01*
X100586250Y-29255000D01*
X100607691Y-29256053D01*
G37*
G36*
X100607691Y-30831053D02*
G01*
X100628926Y-30834203D01*
X100649750Y-30839419D01*
X100669962Y-30846651D01*
X100689368Y-30855830D01*
X100707781Y-30866866D01*
X100725024Y-30879654D01*
X100740930Y-30894070D01*
X100755346Y-30909976D01*
X100768134Y-30927219D01*
X100779170Y-30945632D01*
X100788349Y-30965038D01*
X100795581Y-30985250D01*
X100800797Y-31006074D01*
X100803947Y-31027309D01*
X100805000Y-31048750D01*
X100805000Y-31486250D01*
X100803947Y-31507691D01*
X100800797Y-31528926D01*
X100795581Y-31549750D01*
X100788349Y-31569962D01*
X100779170Y-31589368D01*
X100768134Y-31607781D01*
X100755346Y-31625024D01*
X100740930Y-31640930D01*
X100725024Y-31655346D01*
X100707781Y-31668134D01*
X100689368Y-31679170D01*
X100669962Y-31688349D01*
X100649750Y-31695581D01*
X100628926Y-31700797D01*
X100607691Y-31703947D01*
X100586250Y-31705000D01*
X100073750Y-31705000D01*
X100052309Y-31703947D01*
X100031074Y-31700797D01*
X100010250Y-31695581D01*
X99990038Y-31688349D01*
X99970632Y-31679170D01*
X99952219Y-31668134D01*
X99934976Y-31655346D01*
X99919070Y-31640930D01*
X99904654Y-31625024D01*
X99891866Y-31607781D01*
X99880830Y-31589368D01*
X99871651Y-31569962D01*
X99864419Y-31549750D01*
X99859203Y-31528926D01*
X99856053Y-31507691D01*
X99855000Y-31486250D01*
X99855000Y-31048750D01*
X99856053Y-31027309D01*
X99859203Y-31006074D01*
X99864419Y-30985250D01*
X99871651Y-30965038D01*
X99880830Y-30945632D01*
X99891866Y-30927219D01*
X99904654Y-30909976D01*
X99919070Y-30894070D01*
X99934976Y-30879654D01*
X99952219Y-30866866D01*
X99970632Y-30855830D01*
X99990038Y-30846651D01*
X100010250Y-30839419D01*
X100031074Y-30834203D01*
X100052309Y-30831053D01*
X100073750Y-30830000D01*
X100586250Y-30830000D01*
X100607691Y-30831053D01*
G37*
G36*
X85367691Y-30831053D02*
G01*
X85388926Y-30834203D01*
X85409750Y-30839419D01*
X85429962Y-30846651D01*
X85449368Y-30855830D01*
X85467781Y-30866866D01*
X85485024Y-30879654D01*
X85500930Y-30894070D01*
X85515346Y-30909976D01*
X85528134Y-30927219D01*
X85539170Y-30945632D01*
X85548349Y-30965038D01*
X85555581Y-30985250D01*
X85560797Y-31006074D01*
X85563947Y-31027309D01*
X85565000Y-31048750D01*
X85565000Y-31486250D01*
X85563947Y-31507691D01*
X85560797Y-31528926D01*
X85555581Y-31549750D01*
X85548349Y-31569962D01*
X85539170Y-31589368D01*
X85528134Y-31607781D01*
X85515346Y-31625024D01*
X85500930Y-31640930D01*
X85485024Y-31655346D01*
X85467781Y-31668134D01*
X85449368Y-31679170D01*
X85429962Y-31688349D01*
X85409750Y-31695581D01*
X85388926Y-31700797D01*
X85367691Y-31703947D01*
X85346250Y-31705000D01*
X84833750Y-31705000D01*
X84812309Y-31703947D01*
X84791074Y-31700797D01*
X84770250Y-31695581D01*
X84750038Y-31688349D01*
X84730632Y-31679170D01*
X84712219Y-31668134D01*
X84694976Y-31655346D01*
X84679070Y-31640930D01*
X84664654Y-31625024D01*
X84651866Y-31607781D01*
X84640830Y-31589368D01*
X84631651Y-31569962D01*
X84624419Y-31549750D01*
X84619203Y-31528926D01*
X84616053Y-31507691D01*
X84615000Y-31486250D01*
X84615000Y-31048750D01*
X84616053Y-31027309D01*
X84619203Y-31006074D01*
X84624419Y-30985250D01*
X84631651Y-30965038D01*
X84640830Y-30945632D01*
X84651866Y-30927219D01*
X84664654Y-30909976D01*
X84679070Y-30894070D01*
X84694976Y-30879654D01*
X84712219Y-30866866D01*
X84730632Y-30855830D01*
X84750038Y-30846651D01*
X84770250Y-30839419D01*
X84791074Y-30834203D01*
X84812309Y-30831053D01*
X84833750Y-30830000D01*
X85346250Y-30830000D01*
X85367691Y-30831053D01*
G37*
G36*
X85367691Y-29256053D02*
G01*
X85388926Y-29259203D01*
X85409750Y-29264419D01*
X85429962Y-29271651D01*
X85449368Y-29280830D01*
X85467781Y-29291866D01*
X85485024Y-29304654D01*
X85500930Y-29319070D01*
X85515346Y-29334976D01*
X85528134Y-29352219D01*
X85539170Y-29370632D01*
X85548349Y-29390038D01*
X85555581Y-29410250D01*
X85560797Y-29431074D01*
X85563947Y-29452309D01*
X85565000Y-29473750D01*
X85565000Y-29911250D01*
X85563947Y-29932691D01*
X85560797Y-29953926D01*
X85555581Y-29974750D01*
X85548349Y-29994962D01*
X85539170Y-30014368D01*
X85528134Y-30032781D01*
X85515346Y-30050024D01*
X85500930Y-30065930D01*
X85485024Y-30080346D01*
X85467781Y-30093134D01*
X85449368Y-30104170D01*
X85429962Y-30113349D01*
X85409750Y-30120581D01*
X85388926Y-30125797D01*
X85367691Y-30128947D01*
X85346250Y-30130000D01*
X84833750Y-30130000D01*
X84812309Y-30128947D01*
X84791074Y-30125797D01*
X84770250Y-30120581D01*
X84750038Y-30113349D01*
X84730632Y-30104170D01*
X84712219Y-30093134D01*
X84694976Y-30080346D01*
X84679070Y-30065930D01*
X84664654Y-30050024D01*
X84651866Y-30032781D01*
X84640830Y-30014368D01*
X84631651Y-29994962D01*
X84624419Y-29974750D01*
X84619203Y-29953926D01*
X84616053Y-29932691D01*
X84615000Y-29911250D01*
X84615000Y-29473750D01*
X84616053Y-29452309D01*
X84619203Y-29431074D01*
X84624419Y-29410250D01*
X84631651Y-29390038D01*
X84640830Y-29370632D01*
X84651866Y-29352219D01*
X84664654Y-29334976D01*
X84679070Y-29319070D01*
X84694976Y-29304654D01*
X84712219Y-29291866D01*
X84730632Y-29280830D01*
X84750038Y-29271651D01*
X84770250Y-29264419D01*
X84791074Y-29259203D01*
X84812309Y-29256053D01*
X84833750Y-29255000D01*
X85346250Y-29255000D01*
X85367691Y-29256053D01*
G37*
G36*
X83199504Y-31256204D02*
G01*
X83223773Y-31259804D01*
X83247571Y-31265765D01*
X83270671Y-31274030D01*
X83292849Y-31284520D01*
X83313893Y-31297133D01*
X83333598Y-31311747D01*
X83351777Y-31328223D01*
X83368253Y-31346402D01*
X83382867Y-31366107D01*
X83395480Y-31387151D01*
X83405970Y-31409329D01*
X83414235Y-31432429D01*
X83420196Y-31456227D01*
X83423796Y-31480496D01*
X83425000Y-31505000D01*
X83425000Y-32255000D01*
X83423796Y-32279504D01*
X83420196Y-32303773D01*
X83414235Y-32327571D01*
X83405970Y-32350671D01*
X83395480Y-32372849D01*
X83382867Y-32393893D01*
X83368253Y-32413598D01*
X83351777Y-32431777D01*
X83333598Y-32448253D01*
X83313893Y-32462867D01*
X83292849Y-32475480D01*
X83270671Y-32485970D01*
X83247571Y-32494235D01*
X83223773Y-32500196D01*
X83199504Y-32503796D01*
X83175000Y-32505000D01*
X81925000Y-32505000D01*
X81900496Y-32503796D01*
X81876227Y-32500196D01*
X81852429Y-32494235D01*
X81829329Y-32485970D01*
X81807151Y-32475480D01*
X81786107Y-32462867D01*
X81766402Y-32448253D01*
X81748223Y-32431777D01*
X81731747Y-32413598D01*
X81717133Y-32393893D01*
X81704520Y-32372849D01*
X81694030Y-32350671D01*
X81685765Y-32327571D01*
X81679804Y-32303773D01*
X81676204Y-32279504D01*
X81675000Y-32255000D01*
X81675000Y-31505000D01*
X81676204Y-31480496D01*
X81679804Y-31456227D01*
X81685765Y-31432429D01*
X81694030Y-31409329D01*
X81704520Y-31387151D01*
X81717133Y-31366107D01*
X81731747Y-31346402D01*
X81748223Y-31328223D01*
X81766402Y-31311747D01*
X81786107Y-31297133D01*
X81807151Y-31284520D01*
X81829329Y-31274030D01*
X81852429Y-31265765D01*
X81876227Y-31259804D01*
X81900496Y-31256204D01*
X81925000Y-31255000D01*
X83175000Y-31255000D01*
X83199504Y-31256204D01*
G37*
G36*
X83199504Y-28456204D02*
G01*
X83223773Y-28459804D01*
X83247571Y-28465765D01*
X83270671Y-28474030D01*
X83292849Y-28484520D01*
X83313893Y-28497133D01*
X83333598Y-28511747D01*
X83351777Y-28528223D01*
X83368253Y-28546402D01*
X83382867Y-28566107D01*
X83395480Y-28587151D01*
X83405970Y-28609329D01*
X83414235Y-28632429D01*
X83420196Y-28656227D01*
X83423796Y-28680496D01*
X83425000Y-28705000D01*
X83425000Y-29455000D01*
X83423796Y-29479504D01*
X83420196Y-29503773D01*
X83414235Y-29527571D01*
X83405970Y-29550671D01*
X83395480Y-29572849D01*
X83382867Y-29593893D01*
X83368253Y-29613598D01*
X83351777Y-29631777D01*
X83333598Y-29648253D01*
X83313893Y-29662867D01*
X83292849Y-29675480D01*
X83270671Y-29685970D01*
X83247571Y-29694235D01*
X83223773Y-29700196D01*
X83199504Y-29703796D01*
X83175000Y-29705000D01*
X81925000Y-29705000D01*
X81900496Y-29703796D01*
X81876227Y-29700196D01*
X81852429Y-29694235D01*
X81829329Y-29685970D01*
X81807151Y-29675480D01*
X81786107Y-29662867D01*
X81766402Y-29648253D01*
X81748223Y-29631777D01*
X81731747Y-29613598D01*
X81717133Y-29593893D01*
X81704520Y-29572849D01*
X81694030Y-29550671D01*
X81685765Y-29527571D01*
X81679804Y-29503773D01*
X81676204Y-29479504D01*
X81675000Y-29455000D01*
X81675000Y-28705000D01*
X81676204Y-28680496D01*
X81679804Y-28656227D01*
X81685765Y-28632429D01*
X81694030Y-28609329D01*
X81704520Y-28587151D01*
X81717133Y-28566107D01*
X81731747Y-28546402D01*
X81748223Y-28528223D01*
X81766402Y-28511747D01*
X81786107Y-28497133D01*
X81807151Y-28484520D01*
X81829329Y-28474030D01*
X81852429Y-28465765D01*
X81876227Y-28459804D01*
X81900496Y-28456204D01*
X81925000Y-28455000D01*
X83175000Y-28455000D01*
X83199504Y-28456204D01*
G37*
D13*
X89710000Y-29170000D03*
X90210000Y-29170000D03*
X90710000Y-29170000D03*
X91210000Y-29170000D03*
X91710000Y-29170000D03*
X92210000Y-29170000D03*
X93210000Y-29170000D03*
X93710000Y-29170000D03*
X94210000Y-29170000D03*
X94710000Y-29170000D03*
X95210000Y-29170000D03*
X95710000Y-29170000D03*
D14*
X95810000Y-27870000D03*
D13*
X94960000Y-27870000D03*
X94460000Y-27870000D03*
X93960000Y-27870000D03*
X93460000Y-27870000D03*
X92960000Y-27870000D03*
X92460000Y-27870000D03*
X91960000Y-27870000D03*
X91460000Y-27870000D03*
X90960000Y-27870000D03*
X90460000Y-27870000D03*
D14*
X89610000Y-27870000D03*
D12*
G36*
X45997691Y-44801053D02*
G01*
X46018926Y-44804203D01*
X46039750Y-44809419D01*
X46059962Y-44816651D01*
X46079368Y-44825830D01*
X46097781Y-44836866D01*
X46115024Y-44849654D01*
X46130930Y-44864070D01*
X46145346Y-44879976D01*
X46158134Y-44897219D01*
X46169170Y-44915632D01*
X46178349Y-44935038D01*
X46185581Y-44955250D01*
X46190797Y-44976074D01*
X46193947Y-44997309D01*
X46195000Y-45018750D01*
X46195000Y-45456250D01*
X46193947Y-45477691D01*
X46190797Y-45498926D01*
X46185581Y-45519750D01*
X46178349Y-45539962D01*
X46169170Y-45559368D01*
X46158134Y-45577781D01*
X46145346Y-45595024D01*
X46130930Y-45610930D01*
X46115024Y-45625346D01*
X46097781Y-45638134D01*
X46079368Y-45649170D01*
X46059962Y-45658349D01*
X46039750Y-45665581D01*
X46018926Y-45670797D01*
X45997691Y-45673947D01*
X45976250Y-45675000D01*
X45463750Y-45675000D01*
X45442309Y-45673947D01*
X45421074Y-45670797D01*
X45400250Y-45665581D01*
X45380038Y-45658349D01*
X45360632Y-45649170D01*
X45342219Y-45638134D01*
X45324976Y-45625346D01*
X45309070Y-45610930D01*
X45294654Y-45595024D01*
X45281866Y-45577781D01*
X45270830Y-45559368D01*
X45261651Y-45539962D01*
X45254419Y-45519750D01*
X45249203Y-45498926D01*
X45246053Y-45477691D01*
X45245000Y-45456250D01*
X45245000Y-45018750D01*
X45246053Y-44997309D01*
X45249203Y-44976074D01*
X45254419Y-44955250D01*
X45261651Y-44935038D01*
X45270830Y-44915632D01*
X45281866Y-44897219D01*
X45294654Y-44879976D01*
X45309070Y-44864070D01*
X45324976Y-44849654D01*
X45342219Y-44836866D01*
X45360632Y-44825830D01*
X45380038Y-44816651D01*
X45400250Y-44809419D01*
X45421074Y-44804203D01*
X45442309Y-44801053D01*
X45463750Y-44800000D01*
X45976250Y-44800000D01*
X45997691Y-44801053D01*
G37*
G36*
X45997691Y-43226053D02*
G01*
X46018926Y-43229203D01*
X46039750Y-43234419D01*
X46059962Y-43241651D01*
X46079368Y-43250830D01*
X46097781Y-43261866D01*
X46115024Y-43274654D01*
X46130930Y-43289070D01*
X46145346Y-43304976D01*
X46158134Y-43322219D01*
X46169170Y-43340632D01*
X46178349Y-43360038D01*
X46185581Y-43380250D01*
X46190797Y-43401074D01*
X46193947Y-43422309D01*
X46195000Y-43443750D01*
X46195000Y-43881250D01*
X46193947Y-43902691D01*
X46190797Y-43923926D01*
X46185581Y-43944750D01*
X46178349Y-43964962D01*
X46169170Y-43984368D01*
X46158134Y-44002781D01*
X46145346Y-44020024D01*
X46130930Y-44035930D01*
X46115024Y-44050346D01*
X46097781Y-44063134D01*
X46079368Y-44074170D01*
X46059962Y-44083349D01*
X46039750Y-44090581D01*
X46018926Y-44095797D01*
X45997691Y-44098947D01*
X45976250Y-44100000D01*
X45463750Y-44100000D01*
X45442309Y-44098947D01*
X45421074Y-44095797D01*
X45400250Y-44090581D01*
X45380038Y-44083349D01*
X45360632Y-44074170D01*
X45342219Y-44063134D01*
X45324976Y-44050346D01*
X45309070Y-44035930D01*
X45294654Y-44020024D01*
X45281866Y-44002781D01*
X45270830Y-43984368D01*
X45261651Y-43964962D01*
X45254419Y-43944750D01*
X45249203Y-43923926D01*
X45246053Y-43902691D01*
X45245000Y-43881250D01*
X45245000Y-43443750D01*
X45246053Y-43422309D01*
X45249203Y-43401074D01*
X45254419Y-43380250D01*
X45261651Y-43360038D01*
X45270830Y-43340632D01*
X45281866Y-43322219D01*
X45294654Y-43304976D01*
X45309070Y-43289070D01*
X45324976Y-43274654D01*
X45342219Y-43261866D01*
X45360632Y-43250830D01*
X45380038Y-43241651D01*
X45400250Y-43234419D01*
X45421074Y-43229203D01*
X45442309Y-43226053D01*
X45463750Y-43225000D01*
X45976250Y-43225000D01*
X45997691Y-43226053D01*
G37*
G36*
X75207691Y-43226053D02*
G01*
X75228926Y-43229203D01*
X75249750Y-43234419D01*
X75269962Y-43241651D01*
X75289368Y-43250830D01*
X75307781Y-43261866D01*
X75325024Y-43274654D01*
X75340930Y-43289070D01*
X75355346Y-43304976D01*
X75368134Y-43322219D01*
X75379170Y-43340632D01*
X75388349Y-43360038D01*
X75395581Y-43380250D01*
X75400797Y-43401074D01*
X75403947Y-43422309D01*
X75405000Y-43443750D01*
X75405000Y-43881250D01*
X75403947Y-43902691D01*
X75400797Y-43923926D01*
X75395581Y-43944750D01*
X75388349Y-43964962D01*
X75379170Y-43984368D01*
X75368134Y-44002781D01*
X75355346Y-44020024D01*
X75340930Y-44035930D01*
X75325024Y-44050346D01*
X75307781Y-44063134D01*
X75289368Y-44074170D01*
X75269962Y-44083349D01*
X75249750Y-44090581D01*
X75228926Y-44095797D01*
X75207691Y-44098947D01*
X75186250Y-44100000D01*
X74673750Y-44100000D01*
X74652309Y-44098947D01*
X74631074Y-44095797D01*
X74610250Y-44090581D01*
X74590038Y-44083349D01*
X74570632Y-44074170D01*
X74552219Y-44063134D01*
X74534976Y-44050346D01*
X74519070Y-44035930D01*
X74504654Y-44020024D01*
X74491866Y-44002781D01*
X74480830Y-43984368D01*
X74471651Y-43964962D01*
X74464419Y-43944750D01*
X74459203Y-43923926D01*
X74456053Y-43902691D01*
X74455000Y-43881250D01*
X74455000Y-43443750D01*
X74456053Y-43422309D01*
X74459203Y-43401074D01*
X74464419Y-43380250D01*
X74471651Y-43360038D01*
X74480830Y-43340632D01*
X74491866Y-43322219D01*
X74504654Y-43304976D01*
X74519070Y-43289070D01*
X74534976Y-43274654D01*
X74552219Y-43261866D01*
X74570632Y-43250830D01*
X74590038Y-43241651D01*
X74610250Y-43234419D01*
X74631074Y-43229203D01*
X74652309Y-43226053D01*
X74673750Y-43225000D01*
X75186250Y-43225000D01*
X75207691Y-43226053D01*
G37*
G36*
X75207691Y-44801053D02*
G01*
X75228926Y-44804203D01*
X75249750Y-44809419D01*
X75269962Y-44816651D01*
X75289368Y-44825830D01*
X75307781Y-44836866D01*
X75325024Y-44849654D01*
X75340930Y-44864070D01*
X75355346Y-44879976D01*
X75368134Y-44897219D01*
X75379170Y-44915632D01*
X75388349Y-44935038D01*
X75395581Y-44955250D01*
X75400797Y-44976074D01*
X75403947Y-44997309D01*
X75405000Y-45018750D01*
X75405000Y-45456250D01*
X75403947Y-45477691D01*
X75400797Y-45498926D01*
X75395581Y-45519750D01*
X75388349Y-45539962D01*
X75379170Y-45559368D01*
X75368134Y-45577781D01*
X75355346Y-45595024D01*
X75340930Y-45610930D01*
X75325024Y-45625346D01*
X75307781Y-45638134D01*
X75289368Y-45649170D01*
X75269962Y-45658349D01*
X75249750Y-45665581D01*
X75228926Y-45670797D01*
X75207691Y-45673947D01*
X75186250Y-45675000D01*
X74673750Y-45675000D01*
X74652309Y-45673947D01*
X74631074Y-45670797D01*
X74610250Y-45665581D01*
X74590038Y-45658349D01*
X74570632Y-45649170D01*
X74552219Y-45638134D01*
X74534976Y-45625346D01*
X74519070Y-45610930D01*
X74504654Y-45595024D01*
X74491866Y-45577781D01*
X74480830Y-45559368D01*
X74471651Y-45539962D01*
X74464419Y-45519750D01*
X74459203Y-45498926D01*
X74456053Y-45477691D01*
X74455000Y-45456250D01*
X74455000Y-45018750D01*
X74456053Y-44997309D01*
X74459203Y-44976074D01*
X74464419Y-44955250D01*
X74471651Y-44935038D01*
X74480830Y-44915632D01*
X74491866Y-44897219D01*
X74504654Y-44879976D01*
X74519070Y-44864070D01*
X74534976Y-44849654D01*
X74552219Y-44836866D01*
X74570632Y-44825830D01*
X74590038Y-44816651D01*
X74610250Y-44809419D01*
X74631074Y-44804203D01*
X74652309Y-44801053D01*
X74673750Y-44800000D01*
X75186250Y-44800000D01*
X75207691Y-44801053D01*
G37*
G36*
X104417691Y-44013553D02*
G01*
X104438926Y-44016703D01*
X104459750Y-44021919D01*
X104479962Y-44029151D01*
X104499368Y-44038330D01*
X104517781Y-44049366D01*
X104535024Y-44062154D01*
X104550930Y-44076570D01*
X104565346Y-44092476D01*
X104578134Y-44109719D01*
X104589170Y-44128132D01*
X104598349Y-44147538D01*
X104605581Y-44167750D01*
X104610797Y-44188574D01*
X104613947Y-44209809D01*
X104615000Y-44231250D01*
X104615000Y-44668750D01*
X104613947Y-44690191D01*
X104610797Y-44711426D01*
X104605581Y-44732250D01*
X104598349Y-44752462D01*
X104589170Y-44771868D01*
X104578134Y-44790281D01*
X104565346Y-44807524D01*
X104550930Y-44823430D01*
X104535024Y-44837846D01*
X104517781Y-44850634D01*
X104499368Y-44861670D01*
X104479962Y-44870849D01*
X104459750Y-44878081D01*
X104438926Y-44883297D01*
X104417691Y-44886447D01*
X104396250Y-44887500D01*
X103883750Y-44887500D01*
X103862309Y-44886447D01*
X103841074Y-44883297D01*
X103820250Y-44878081D01*
X103800038Y-44870849D01*
X103780632Y-44861670D01*
X103762219Y-44850634D01*
X103744976Y-44837846D01*
X103729070Y-44823430D01*
X103714654Y-44807524D01*
X103701866Y-44790281D01*
X103690830Y-44771868D01*
X103681651Y-44752462D01*
X103674419Y-44732250D01*
X103669203Y-44711426D01*
X103666053Y-44690191D01*
X103665000Y-44668750D01*
X103665000Y-44231250D01*
X103666053Y-44209809D01*
X103669203Y-44188574D01*
X103674419Y-44167750D01*
X103681651Y-44147538D01*
X103690830Y-44128132D01*
X103701866Y-44109719D01*
X103714654Y-44092476D01*
X103729070Y-44076570D01*
X103744976Y-44062154D01*
X103762219Y-44049366D01*
X103780632Y-44038330D01*
X103800038Y-44029151D01*
X103820250Y-44021919D01*
X103841074Y-44016703D01*
X103862309Y-44013553D01*
X103883750Y-44012500D01*
X104396250Y-44012500D01*
X104417691Y-44013553D01*
G37*
G36*
X104417691Y-42438553D02*
G01*
X104438926Y-42441703D01*
X104459750Y-42446919D01*
X104479962Y-42454151D01*
X104499368Y-42463330D01*
X104517781Y-42474366D01*
X104535024Y-42487154D01*
X104550930Y-42501570D01*
X104565346Y-42517476D01*
X104578134Y-42534719D01*
X104589170Y-42553132D01*
X104598349Y-42572538D01*
X104605581Y-42592750D01*
X104610797Y-42613574D01*
X104613947Y-42634809D01*
X104615000Y-42656250D01*
X104615000Y-43093750D01*
X104613947Y-43115191D01*
X104610797Y-43136426D01*
X104605581Y-43157250D01*
X104598349Y-43177462D01*
X104589170Y-43196868D01*
X104578134Y-43215281D01*
X104565346Y-43232524D01*
X104550930Y-43248430D01*
X104535024Y-43262846D01*
X104517781Y-43275634D01*
X104499368Y-43286670D01*
X104479962Y-43295849D01*
X104459750Y-43303081D01*
X104438926Y-43308297D01*
X104417691Y-43311447D01*
X104396250Y-43312500D01*
X103883750Y-43312500D01*
X103862309Y-43311447D01*
X103841074Y-43308297D01*
X103820250Y-43303081D01*
X103800038Y-43295849D01*
X103780632Y-43286670D01*
X103762219Y-43275634D01*
X103744976Y-43262846D01*
X103729070Y-43248430D01*
X103714654Y-43232524D01*
X103701866Y-43215281D01*
X103690830Y-43196868D01*
X103681651Y-43177462D01*
X103674419Y-43157250D01*
X103669203Y-43136426D01*
X103666053Y-43115191D01*
X103665000Y-43093750D01*
X103665000Y-42656250D01*
X103666053Y-42634809D01*
X103669203Y-42613574D01*
X103674419Y-42592750D01*
X103681651Y-42572538D01*
X103690830Y-42553132D01*
X103701866Y-42534719D01*
X103714654Y-42517476D01*
X103729070Y-42501570D01*
X103744976Y-42487154D01*
X103762219Y-42474366D01*
X103780632Y-42463330D01*
X103800038Y-42454151D01*
X103820250Y-42446919D01*
X103841074Y-42441703D01*
X103862309Y-42438553D01*
X103883750Y-42437500D01*
X104396250Y-42437500D01*
X104417691Y-42438553D01*
G37*
G36*
X133627691Y-43226053D02*
G01*
X133648926Y-43229203D01*
X133669750Y-43234419D01*
X133689962Y-43241651D01*
X133709368Y-43250830D01*
X133727781Y-43261866D01*
X133745024Y-43274654D01*
X133760930Y-43289070D01*
X133775346Y-43304976D01*
X133788134Y-43322219D01*
X133799170Y-43340632D01*
X133808349Y-43360038D01*
X133815581Y-43380250D01*
X133820797Y-43401074D01*
X133823947Y-43422309D01*
X133825000Y-43443750D01*
X133825000Y-43881250D01*
X133823947Y-43902691D01*
X133820797Y-43923926D01*
X133815581Y-43944750D01*
X133808349Y-43964962D01*
X133799170Y-43984368D01*
X133788134Y-44002781D01*
X133775346Y-44020024D01*
X133760930Y-44035930D01*
X133745024Y-44050346D01*
X133727781Y-44063134D01*
X133709368Y-44074170D01*
X133689962Y-44083349D01*
X133669750Y-44090581D01*
X133648926Y-44095797D01*
X133627691Y-44098947D01*
X133606250Y-44100000D01*
X133093750Y-44100000D01*
X133072309Y-44098947D01*
X133051074Y-44095797D01*
X133030250Y-44090581D01*
X133010038Y-44083349D01*
X132990632Y-44074170D01*
X132972219Y-44063134D01*
X132954976Y-44050346D01*
X132939070Y-44035930D01*
X132924654Y-44020024D01*
X132911866Y-44002781D01*
X132900830Y-43984368D01*
X132891651Y-43964962D01*
X132884419Y-43944750D01*
X132879203Y-43923926D01*
X132876053Y-43902691D01*
X132875000Y-43881250D01*
X132875000Y-43443750D01*
X132876053Y-43422309D01*
X132879203Y-43401074D01*
X132884419Y-43380250D01*
X132891651Y-43360038D01*
X132900830Y-43340632D01*
X132911866Y-43322219D01*
X132924654Y-43304976D01*
X132939070Y-43289070D01*
X132954976Y-43274654D01*
X132972219Y-43261866D01*
X132990632Y-43250830D01*
X133010038Y-43241651D01*
X133030250Y-43234419D01*
X133051074Y-43229203D01*
X133072309Y-43226053D01*
X133093750Y-43225000D01*
X133606250Y-43225000D01*
X133627691Y-43226053D01*
G37*
G36*
X133627691Y-44801053D02*
G01*
X133648926Y-44804203D01*
X133669750Y-44809419D01*
X133689962Y-44816651D01*
X133709368Y-44825830D01*
X133727781Y-44836866D01*
X133745024Y-44849654D01*
X133760930Y-44864070D01*
X133775346Y-44879976D01*
X133788134Y-44897219D01*
X133799170Y-44915632D01*
X133808349Y-44935038D01*
X133815581Y-44955250D01*
X133820797Y-44976074D01*
X133823947Y-44997309D01*
X133825000Y-45018750D01*
X133825000Y-45456250D01*
X133823947Y-45477691D01*
X133820797Y-45498926D01*
X133815581Y-45519750D01*
X133808349Y-45539962D01*
X133799170Y-45559368D01*
X133788134Y-45577781D01*
X133775346Y-45595024D01*
X133760930Y-45610930D01*
X133745024Y-45625346D01*
X133727781Y-45638134D01*
X133709368Y-45649170D01*
X133689962Y-45658349D01*
X133669750Y-45665581D01*
X133648926Y-45670797D01*
X133627691Y-45673947D01*
X133606250Y-45675000D01*
X133093750Y-45675000D01*
X133072309Y-45673947D01*
X133051074Y-45670797D01*
X133030250Y-45665581D01*
X133010038Y-45658349D01*
X132990632Y-45649170D01*
X132972219Y-45638134D01*
X132954976Y-45625346D01*
X132939070Y-45610930D01*
X132924654Y-45595024D01*
X132911866Y-45577781D01*
X132900830Y-45559368D01*
X132891651Y-45539962D01*
X132884419Y-45519750D01*
X132879203Y-45498926D01*
X132876053Y-45477691D01*
X132875000Y-45456250D01*
X132875000Y-45018750D01*
X132876053Y-44997309D01*
X132879203Y-44976074D01*
X132884419Y-44955250D01*
X132891651Y-44935038D01*
X132900830Y-44915632D01*
X132911866Y-44897219D01*
X132924654Y-44879976D01*
X132939070Y-44864070D01*
X132954976Y-44849654D01*
X132972219Y-44836866D01*
X132990632Y-44825830D01*
X133010038Y-44816651D01*
X133030250Y-44809419D01*
X133051074Y-44804203D01*
X133072309Y-44801053D01*
X133093750Y-44800000D01*
X133606250Y-44800000D01*
X133627691Y-44801053D01*
G37*
G36*
X45997691Y-68931053D02*
G01*
X46018926Y-68934203D01*
X46039750Y-68939419D01*
X46059962Y-68946651D01*
X46079368Y-68955830D01*
X46097781Y-68966866D01*
X46115024Y-68979654D01*
X46130930Y-68994070D01*
X46145346Y-69009976D01*
X46158134Y-69027219D01*
X46169170Y-69045632D01*
X46178349Y-69065038D01*
X46185581Y-69085250D01*
X46190797Y-69106074D01*
X46193947Y-69127309D01*
X46195000Y-69148750D01*
X46195000Y-69586250D01*
X46193947Y-69607691D01*
X46190797Y-69628926D01*
X46185581Y-69649750D01*
X46178349Y-69669962D01*
X46169170Y-69689368D01*
X46158134Y-69707781D01*
X46145346Y-69725024D01*
X46130930Y-69740930D01*
X46115024Y-69755346D01*
X46097781Y-69768134D01*
X46079368Y-69779170D01*
X46059962Y-69788349D01*
X46039750Y-69795581D01*
X46018926Y-69800797D01*
X45997691Y-69803947D01*
X45976250Y-69805000D01*
X45463750Y-69805000D01*
X45442309Y-69803947D01*
X45421074Y-69800797D01*
X45400250Y-69795581D01*
X45380038Y-69788349D01*
X45360632Y-69779170D01*
X45342219Y-69768134D01*
X45324976Y-69755346D01*
X45309070Y-69740930D01*
X45294654Y-69725024D01*
X45281866Y-69707781D01*
X45270830Y-69689368D01*
X45261651Y-69669962D01*
X45254419Y-69649750D01*
X45249203Y-69628926D01*
X45246053Y-69607691D01*
X45245000Y-69586250D01*
X45245000Y-69148750D01*
X45246053Y-69127309D01*
X45249203Y-69106074D01*
X45254419Y-69085250D01*
X45261651Y-69065038D01*
X45270830Y-69045632D01*
X45281866Y-69027219D01*
X45294654Y-69009976D01*
X45309070Y-68994070D01*
X45324976Y-68979654D01*
X45342219Y-68966866D01*
X45360632Y-68955830D01*
X45380038Y-68946651D01*
X45400250Y-68939419D01*
X45421074Y-68934203D01*
X45442309Y-68931053D01*
X45463750Y-68930000D01*
X45976250Y-68930000D01*
X45997691Y-68931053D01*
G37*
G36*
X45997691Y-67356053D02*
G01*
X46018926Y-67359203D01*
X46039750Y-67364419D01*
X46059962Y-67371651D01*
X46079368Y-67380830D01*
X46097781Y-67391866D01*
X46115024Y-67404654D01*
X46130930Y-67419070D01*
X46145346Y-67434976D01*
X46158134Y-67452219D01*
X46169170Y-67470632D01*
X46178349Y-67490038D01*
X46185581Y-67510250D01*
X46190797Y-67531074D01*
X46193947Y-67552309D01*
X46195000Y-67573750D01*
X46195000Y-68011250D01*
X46193947Y-68032691D01*
X46190797Y-68053926D01*
X46185581Y-68074750D01*
X46178349Y-68094962D01*
X46169170Y-68114368D01*
X46158134Y-68132781D01*
X46145346Y-68150024D01*
X46130930Y-68165930D01*
X46115024Y-68180346D01*
X46097781Y-68193134D01*
X46079368Y-68204170D01*
X46059962Y-68213349D01*
X46039750Y-68220581D01*
X46018926Y-68225797D01*
X45997691Y-68228947D01*
X45976250Y-68230000D01*
X45463750Y-68230000D01*
X45442309Y-68228947D01*
X45421074Y-68225797D01*
X45400250Y-68220581D01*
X45380038Y-68213349D01*
X45360632Y-68204170D01*
X45342219Y-68193134D01*
X45324976Y-68180346D01*
X45309070Y-68165930D01*
X45294654Y-68150024D01*
X45281866Y-68132781D01*
X45270830Y-68114368D01*
X45261651Y-68094962D01*
X45254419Y-68074750D01*
X45249203Y-68053926D01*
X45246053Y-68032691D01*
X45245000Y-68011250D01*
X45245000Y-67573750D01*
X45246053Y-67552309D01*
X45249203Y-67531074D01*
X45254419Y-67510250D01*
X45261651Y-67490038D01*
X45270830Y-67470632D01*
X45281866Y-67452219D01*
X45294654Y-67434976D01*
X45309070Y-67419070D01*
X45324976Y-67404654D01*
X45342219Y-67391866D01*
X45360632Y-67380830D01*
X45380038Y-67371651D01*
X45400250Y-67364419D01*
X45421074Y-67359203D01*
X45442309Y-67356053D01*
X45463750Y-67355000D01*
X45976250Y-67355000D01*
X45997691Y-67356053D01*
G37*
G36*
X67067691Y-63026053D02*
G01*
X67088926Y-63029203D01*
X67109750Y-63034419D01*
X67129962Y-63041651D01*
X67149368Y-63050830D01*
X67167781Y-63061866D01*
X67185024Y-63074654D01*
X67200930Y-63089070D01*
X67215346Y-63104976D01*
X67228134Y-63122219D01*
X67239170Y-63140632D01*
X67248349Y-63160038D01*
X67255581Y-63180250D01*
X67260797Y-63201074D01*
X67263947Y-63222309D01*
X67265000Y-63243750D01*
X67265000Y-63756250D01*
X67263947Y-63777691D01*
X67260797Y-63798926D01*
X67255581Y-63819750D01*
X67248349Y-63839962D01*
X67239170Y-63859368D01*
X67228134Y-63877781D01*
X67215346Y-63895024D01*
X67200930Y-63910930D01*
X67185024Y-63925346D01*
X67167781Y-63938134D01*
X67149368Y-63949170D01*
X67129962Y-63958349D01*
X67109750Y-63965581D01*
X67088926Y-63970797D01*
X67067691Y-63973947D01*
X67046250Y-63975000D01*
X66608750Y-63975000D01*
X66587309Y-63973947D01*
X66566074Y-63970797D01*
X66545250Y-63965581D01*
X66525038Y-63958349D01*
X66505632Y-63949170D01*
X66487219Y-63938134D01*
X66469976Y-63925346D01*
X66454070Y-63910930D01*
X66439654Y-63895024D01*
X66426866Y-63877781D01*
X66415830Y-63859368D01*
X66406651Y-63839962D01*
X66399419Y-63819750D01*
X66394203Y-63798926D01*
X66391053Y-63777691D01*
X66390000Y-63756250D01*
X66390000Y-63243750D01*
X66391053Y-63222309D01*
X66394203Y-63201074D01*
X66399419Y-63180250D01*
X66406651Y-63160038D01*
X66415830Y-63140632D01*
X66426866Y-63122219D01*
X66439654Y-63104976D01*
X66454070Y-63089070D01*
X66469976Y-63074654D01*
X66487219Y-63061866D01*
X66505632Y-63050830D01*
X66525038Y-63041651D01*
X66545250Y-63034419D01*
X66566074Y-63029203D01*
X66587309Y-63026053D01*
X66608750Y-63025000D01*
X67046250Y-63025000D01*
X67067691Y-63026053D01*
G37*
G36*
X65492691Y-63026053D02*
G01*
X65513926Y-63029203D01*
X65534750Y-63034419D01*
X65554962Y-63041651D01*
X65574368Y-63050830D01*
X65592781Y-63061866D01*
X65610024Y-63074654D01*
X65625930Y-63089070D01*
X65640346Y-63104976D01*
X65653134Y-63122219D01*
X65664170Y-63140632D01*
X65673349Y-63160038D01*
X65680581Y-63180250D01*
X65685797Y-63201074D01*
X65688947Y-63222309D01*
X65690000Y-63243750D01*
X65690000Y-63756250D01*
X65688947Y-63777691D01*
X65685797Y-63798926D01*
X65680581Y-63819750D01*
X65673349Y-63839962D01*
X65664170Y-63859368D01*
X65653134Y-63877781D01*
X65640346Y-63895024D01*
X65625930Y-63910930D01*
X65610024Y-63925346D01*
X65592781Y-63938134D01*
X65574368Y-63949170D01*
X65554962Y-63958349D01*
X65534750Y-63965581D01*
X65513926Y-63970797D01*
X65492691Y-63973947D01*
X65471250Y-63975000D01*
X65033750Y-63975000D01*
X65012309Y-63973947D01*
X64991074Y-63970797D01*
X64970250Y-63965581D01*
X64950038Y-63958349D01*
X64930632Y-63949170D01*
X64912219Y-63938134D01*
X64894976Y-63925346D01*
X64879070Y-63910930D01*
X64864654Y-63895024D01*
X64851866Y-63877781D01*
X64840830Y-63859368D01*
X64831651Y-63839962D01*
X64824419Y-63819750D01*
X64819203Y-63798926D01*
X64816053Y-63777691D01*
X64815000Y-63756250D01*
X64815000Y-63243750D01*
X64816053Y-63222309D01*
X64819203Y-63201074D01*
X64824419Y-63180250D01*
X64831651Y-63160038D01*
X64840830Y-63140632D01*
X64851866Y-63122219D01*
X64864654Y-63104976D01*
X64879070Y-63089070D01*
X64894976Y-63074654D01*
X64912219Y-63061866D01*
X64930632Y-63050830D01*
X64950038Y-63041651D01*
X64970250Y-63034419D01*
X64991074Y-63029203D01*
X65012309Y-63026053D01*
X65033750Y-63025000D01*
X65471250Y-63025000D01*
X65492691Y-63026053D01*
G37*
G36*
X104417691Y-67356053D02*
G01*
X104438926Y-67359203D01*
X104459750Y-67364419D01*
X104479962Y-67371651D01*
X104499368Y-67380830D01*
X104517781Y-67391866D01*
X104535024Y-67404654D01*
X104550930Y-67419070D01*
X104565346Y-67434976D01*
X104578134Y-67452219D01*
X104589170Y-67470632D01*
X104598349Y-67490038D01*
X104605581Y-67510250D01*
X104610797Y-67531074D01*
X104613947Y-67552309D01*
X104615000Y-67573750D01*
X104615000Y-68011250D01*
X104613947Y-68032691D01*
X104610797Y-68053926D01*
X104605581Y-68074750D01*
X104598349Y-68094962D01*
X104589170Y-68114368D01*
X104578134Y-68132781D01*
X104565346Y-68150024D01*
X104550930Y-68165930D01*
X104535024Y-68180346D01*
X104517781Y-68193134D01*
X104499368Y-68204170D01*
X104479962Y-68213349D01*
X104459750Y-68220581D01*
X104438926Y-68225797D01*
X104417691Y-68228947D01*
X104396250Y-68230000D01*
X103883750Y-68230000D01*
X103862309Y-68228947D01*
X103841074Y-68225797D01*
X103820250Y-68220581D01*
X103800038Y-68213349D01*
X103780632Y-68204170D01*
X103762219Y-68193134D01*
X103744976Y-68180346D01*
X103729070Y-68165930D01*
X103714654Y-68150024D01*
X103701866Y-68132781D01*
X103690830Y-68114368D01*
X103681651Y-68094962D01*
X103674419Y-68074750D01*
X103669203Y-68053926D01*
X103666053Y-68032691D01*
X103665000Y-68011250D01*
X103665000Y-67573750D01*
X103666053Y-67552309D01*
X103669203Y-67531074D01*
X103674419Y-67510250D01*
X103681651Y-67490038D01*
X103690830Y-67470632D01*
X103701866Y-67452219D01*
X103714654Y-67434976D01*
X103729070Y-67419070D01*
X103744976Y-67404654D01*
X103762219Y-67391866D01*
X103780632Y-67380830D01*
X103800038Y-67371651D01*
X103820250Y-67364419D01*
X103841074Y-67359203D01*
X103862309Y-67356053D01*
X103883750Y-67355000D01*
X104396250Y-67355000D01*
X104417691Y-67356053D01*
G37*
G36*
X104417691Y-68931053D02*
G01*
X104438926Y-68934203D01*
X104459750Y-68939419D01*
X104479962Y-68946651D01*
X104499368Y-68955830D01*
X104517781Y-68966866D01*
X104535024Y-68979654D01*
X104550930Y-68994070D01*
X104565346Y-69009976D01*
X104578134Y-69027219D01*
X104589170Y-69045632D01*
X104598349Y-69065038D01*
X104605581Y-69085250D01*
X104610797Y-69106074D01*
X104613947Y-69127309D01*
X104615000Y-69148750D01*
X104615000Y-69586250D01*
X104613947Y-69607691D01*
X104610797Y-69628926D01*
X104605581Y-69649750D01*
X104598349Y-69669962D01*
X104589170Y-69689368D01*
X104578134Y-69707781D01*
X104565346Y-69725024D01*
X104550930Y-69740930D01*
X104535024Y-69755346D01*
X104517781Y-69768134D01*
X104499368Y-69779170D01*
X104479962Y-69788349D01*
X104459750Y-69795581D01*
X104438926Y-69800797D01*
X104417691Y-69803947D01*
X104396250Y-69805000D01*
X103883750Y-69805000D01*
X103862309Y-69803947D01*
X103841074Y-69800797D01*
X103820250Y-69795581D01*
X103800038Y-69788349D01*
X103780632Y-69779170D01*
X103762219Y-69768134D01*
X103744976Y-69755346D01*
X103729070Y-69740930D01*
X103714654Y-69725024D01*
X103701866Y-69707781D01*
X103690830Y-69689368D01*
X103681651Y-69669962D01*
X103674419Y-69649750D01*
X103669203Y-69628926D01*
X103666053Y-69607691D01*
X103665000Y-69586250D01*
X103665000Y-69148750D01*
X103666053Y-69127309D01*
X103669203Y-69106074D01*
X103674419Y-69085250D01*
X103681651Y-69065038D01*
X103690830Y-69045632D01*
X103701866Y-69027219D01*
X103714654Y-69009976D01*
X103729070Y-68994070D01*
X103744976Y-68979654D01*
X103762219Y-68966866D01*
X103780632Y-68955830D01*
X103800038Y-68946651D01*
X103820250Y-68939419D01*
X103841074Y-68934203D01*
X103862309Y-68931053D01*
X103883750Y-68930000D01*
X104396250Y-68930000D01*
X104417691Y-68931053D01*
G37*
G36*
X133627691Y-67356053D02*
G01*
X133648926Y-67359203D01*
X133669750Y-67364419D01*
X133689962Y-67371651D01*
X133709368Y-67380830D01*
X133727781Y-67391866D01*
X133745024Y-67404654D01*
X133760930Y-67419070D01*
X133775346Y-67434976D01*
X133788134Y-67452219D01*
X133799170Y-67470632D01*
X133808349Y-67490038D01*
X133815581Y-67510250D01*
X133820797Y-67531074D01*
X133823947Y-67552309D01*
X133825000Y-67573750D01*
X133825000Y-68011250D01*
X133823947Y-68032691D01*
X133820797Y-68053926D01*
X133815581Y-68074750D01*
X133808349Y-68094962D01*
X133799170Y-68114368D01*
X133788134Y-68132781D01*
X133775346Y-68150024D01*
X133760930Y-68165930D01*
X133745024Y-68180346D01*
X133727781Y-68193134D01*
X133709368Y-68204170D01*
X133689962Y-68213349D01*
X133669750Y-68220581D01*
X133648926Y-68225797D01*
X133627691Y-68228947D01*
X133606250Y-68230000D01*
X133093750Y-68230000D01*
X133072309Y-68228947D01*
X133051074Y-68225797D01*
X133030250Y-68220581D01*
X133010038Y-68213349D01*
X132990632Y-68204170D01*
X132972219Y-68193134D01*
X132954976Y-68180346D01*
X132939070Y-68165930D01*
X132924654Y-68150024D01*
X132911866Y-68132781D01*
X132900830Y-68114368D01*
X132891651Y-68094962D01*
X132884419Y-68074750D01*
X132879203Y-68053926D01*
X132876053Y-68032691D01*
X132875000Y-68011250D01*
X132875000Y-67573750D01*
X132876053Y-67552309D01*
X132879203Y-67531074D01*
X132884419Y-67510250D01*
X132891651Y-67490038D01*
X132900830Y-67470632D01*
X132911866Y-67452219D01*
X132924654Y-67434976D01*
X132939070Y-67419070D01*
X132954976Y-67404654D01*
X132972219Y-67391866D01*
X132990632Y-67380830D01*
X133010038Y-67371651D01*
X133030250Y-67364419D01*
X133051074Y-67359203D01*
X133072309Y-67356053D01*
X133093750Y-67355000D01*
X133606250Y-67355000D01*
X133627691Y-67356053D01*
G37*
G36*
X133627691Y-68931053D02*
G01*
X133648926Y-68934203D01*
X133669750Y-68939419D01*
X133689962Y-68946651D01*
X133709368Y-68955830D01*
X133727781Y-68966866D01*
X133745024Y-68979654D01*
X133760930Y-68994070D01*
X133775346Y-69009976D01*
X133788134Y-69027219D01*
X133799170Y-69045632D01*
X133808349Y-69065038D01*
X133815581Y-69085250D01*
X133820797Y-69106074D01*
X133823947Y-69127309D01*
X133825000Y-69148750D01*
X133825000Y-69586250D01*
X133823947Y-69607691D01*
X133820797Y-69628926D01*
X133815581Y-69649750D01*
X133808349Y-69669962D01*
X133799170Y-69689368D01*
X133788134Y-69707781D01*
X133775346Y-69725024D01*
X133760930Y-69740930D01*
X133745024Y-69755346D01*
X133727781Y-69768134D01*
X133709368Y-69779170D01*
X133689962Y-69788349D01*
X133669750Y-69795581D01*
X133648926Y-69800797D01*
X133627691Y-69803947D01*
X133606250Y-69805000D01*
X133093750Y-69805000D01*
X133072309Y-69803947D01*
X133051074Y-69800797D01*
X133030250Y-69795581D01*
X133010038Y-69788349D01*
X132990632Y-69779170D01*
X132972219Y-69768134D01*
X132954976Y-69755346D01*
X132939070Y-69740930D01*
X132924654Y-69725024D01*
X132911866Y-69707781D01*
X132900830Y-69689368D01*
X132891651Y-69669962D01*
X132884419Y-69649750D01*
X132879203Y-69628926D01*
X132876053Y-69607691D01*
X132875000Y-69586250D01*
X132875000Y-69148750D01*
X132876053Y-69127309D01*
X132879203Y-69106074D01*
X132884419Y-69085250D01*
X132891651Y-69065038D01*
X132900830Y-69045632D01*
X132911866Y-69027219D01*
X132924654Y-69009976D01*
X132939070Y-68994070D01*
X132954976Y-68979654D01*
X132972219Y-68966866D01*
X132990632Y-68955830D01*
X133010038Y-68946651D01*
X133030250Y-68939419D01*
X133051074Y-68934203D01*
X133072309Y-68931053D01*
X133093750Y-68930000D01*
X133606250Y-68930000D01*
X133627691Y-68931053D01*
G37*
G36*
X65492691Y-61121053D02*
G01*
X65513926Y-61124203D01*
X65534750Y-61129419D01*
X65554962Y-61136651D01*
X65574368Y-61145830D01*
X65592781Y-61156866D01*
X65610024Y-61169654D01*
X65625930Y-61184070D01*
X65640346Y-61199976D01*
X65653134Y-61217219D01*
X65664170Y-61235632D01*
X65673349Y-61255038D01*
X65680581Y-61275250D01*
X65685797Y-61296074D01*
X65688947Y-61317309D01*
X65690000Y-61338750D01*
X65690000Y-61851250D01*
X65688947Y-61872691D01*
X65685797Y-61893926D01*
X65680581Y-61914750D01*
X65673349Y-61934962D01*
X65664170Y-61954368D01*
X65653134Y-61972781D01*
X65640346Y-61990024D01*
X65625930Y-62005930D01*
X65610024Y-62020346D01*
X65592781Y-62033134D01*
X65574368Y-62044170D01*
X65554962Y-62053349D01*
X65534750Y-62060581D01*
X65513926Y-62065797D01*
X65492691Y-62068947D01*
X65471250Y-62070000D01*
X65033750Y-62070000D01*
X65012309Y-62068947D01*
X64991074Y-62065797D01*
X64970250Y-62060581D01*
X64950038Y-62053349D01*
X64930632Y-62044170D01*
X64912219Y-62033134D01*
X64894976Y-62020346D01*
X64879070Y-62005930D01*
X64864654Y-61990024D01*
X64851866Y-61972781D01*
X64840830Y-61954368D01*
X64831651Y-61934962D01*
X64824419Y-61914750D01*
X64819203Y-61893926D01*
X64816053Y-61872691D01*
X64815000Y-61851250D01*
X64815000Y-61338750D01*
X64816053Y-61317309D01*
X64819203Y-61296074D01*
X64824419Y-61275250D01*
X64831651Y-61255038D01*
X64840830Y-61235632D01*
X64851866Y-61217219D01*
X64864654Y-61199976D01*
X64879070Y-61184070D01*
X64894976Y-61169654D01*
X64912219Y-61156866D01*
X64930632Y-61145830D01*
X64950038Y-61136651D01*
X64970250Y-61129419D01*
X64991074Y-61124203D01*
X65012309Y-61121053D01*
X65033750Y-61120000D01*
X65471250Y-61120000D01*
X65492691Y-61121053D01*
G37*
G36*
X67067691Y-61121053D02*
G01*
X67088926Y-61124203D01*
X67109750Y-61129419D01*
X67129962Y-61136651D01*
X67149368Y-61145830D01*
X67167781Y-61156866D01*
X67185024Y-61169654D01*
X67200930Y-61184070D01*
X67215346Y-61199976D01*
X67228134Y-61217219D01*
X67239170Y-61235632D01*
X67248349Y-61255038D01*
X67255581Y-61275250D01*
X67260797Y-61296074D01*
X67263947Y-61317309D01*
X67265000Y-61338750D01*
X67265000Y-61851250D01*
X67263947Y-61872691D01*
X67260797Y-61893926D01*
X67255581Y-61914750D01*
X67248349Y-61934962D01*
X67239170Y-61954368D01*
X67228134Y-61972781D01*
X67215346Y-61990024D01*
X67200930Y-62005930D01*
X67185024Y-62020346D01*
X67167781Y-62033134D01*
X67149368Y-62044170D01*
X67129962Y-62053349D01*
X67109750Y-62060581D01*
X67088926Y-62065797D01*
X67067691Y-62068947D01*
X67046250Y-62070000D01*
X66608750Y-62070000D01*
X66587309Y-62068947D01*
X66566074Y-62065797D01*
X66545250Y-62060581D01*
X66525038Y-62053349D01*
X66505632Y-62044170D01*
X66487219Y-62033134D01*
X66469976Y-62020346D01*
X66454070Y-62005930D01*
X66439654Y-61990024D01*
X66426866Y-61972781D01*
X66415830Y-61954368D01*
X66406651Y-61934962D01*
X66399419Y-61914750D01*
X66394203Y-61893926D01*
X66391053Y-61872691D01*
X66390000Y-61851250D01*
X66390000Y-61338750D01*
X66391053Y-61317309D01*
X66394203Y-61296074D01*
X66399419Y-61275250D01*
X66406651Y-61255038D01*
X66415830Y-61235632D01*
X66426866Y-61217219D01*
X66439654Y-61199976D01*
X66454070Y-61184070D01*
X66469976Y-61169654D01*
X66487219Y-61156866D01*
X66505632Y-61145830D01*
X66525038Y-61136651D01*
X66545250Y-61129419D01*
X66566074Y-61124203D01*
X66587309Y-61121053D01*
X66608750Y-61120000D01*
X67046250Y-61120000D01*
X67067691Y-61121053D01*
G37*
G36*
X55637691Y-47786053D02*
G01*
X55658926Y-47789203D01*
X55679750Y-47794419D01*
X55699962Y-47801651D01*
X55719368Y-47810830D01*
X55737781Y-47821866D01*
X55755024Y-47834654D01*
X55770930Y-47849070D01*
X55785346Y-47864976D01*
X55798134Y-47882219D01*
X55809170Y-47900632D01*
X55818349Y-47920038D01*
X55825581Y-47940250D01*
X55830797Y-47961074D01*
X55833947Y-47982309D01*
X55835000Y-48003750D01*
X55835000Y-48516250D01*
X55833947Y-48537691D01*
X55830797Y-48558926D01*
X55825581Y-48579750D01*
X55818349Y-48599962D01*
X55809170Y-48619368D01*
X55798134Y-48637781D01*
X55785346Y-48655024D01*
X55770930Y-48670930D01*
X55755024Y-48685346D01*
X55737781Y-48698134D01*
X55719368Y-48709170D01*
X55699962Y-48718349D01*
X55679750Y-48725581D01*
X55658926Y-48730797D01*
X55637691Y-48733947D01*
X55616250Y-48735000D01*
X55178750Y-48735000D01*
X55157309Y-48733947D01*
X55136074Y-48730797D01*
X55115250Y-48725581D01*
X55095038Y-48718349D01*
X55075632Y-48709170D01*
X55057219Y-48698134D01*
X55039976Y-48685346D01*
X55024070Y-48670930D01*
X55009654Y-48655024D01*
X54996866Y-48637781D01*
X54985830Y-48619368D01*
X54976651Y-48599962D01*
X54969419Y-48579750D01*
X54964203Y-48558926D01*
X54961053Y-48537691D01*
X54960000Y-48516250D01*
X54960000Y-48003750D01*
X54961053Y-47982309D01*
X54964203Y-47961074D01*
X54969419Y-47940250D01*
X54976651Y-47920038D01*
X54985830Y-47900632D01*
X54996866Y-47882219D01*
X55009654Y-47864976D01*
X55024070Y-47849070D01*
X55039976Y-47834654D01*
X55057219Y-47821866D01*
X55075632Y-47810830D01*
X55095038Y-47801651D01*
X55115250Y-47794419D01*
X55136074Y-47789203D01*
X55157309Y-47786053D01*
X55178750Y-47785000D01*
X55616250Y-47785000D01*
X55637691Y-47786053D01*
G37*
G36*
X54062691Y-47786053D02*
G01*
X54083926Y-47789203D01*
X54104750Y-47794419D01*
X54124962Y-47801651D01*
X54144368Y-47810830D01*
X54162781Y-47821866D01*
X54180024Y-47834654D01*
X54195930Y-47849070D01*
X54210346Y-47864976D01*
X54223134Y-47882219D01*
X54234170Y-47900632D01*
X54243349Y-47920038D01*
X54250581Y-47940250D01*
X54255797Y-47961074D01*
X54258947Y-47982309D01*
X54260000Y-48003750D01*
X54260000Y-48516250D01*
X54258947Y-48537691D01*
X54255797Y-48558926D01*
X54250581Y-48579750D01*
X54243349Y-48599962D01*
X54234170Y-48619368D01*
X54223134Y-48637781D01*
X54210346Y-48655024D01*
X54195930Y-48670930D01*
X54180024Y-48685346D01*
X54162781Y-48698134D01*
X54144368Y-48709170D01*
X54124962Y-48718349D01*
X54104750Y-48725581D01*
X54083926Y-48730797D01*
X54062691Y-48733947D01*
X54041250Y-48735000D01*
X53603750Y-48735000D01*
X53582309Y-48733947D01*
X53561074Y-48730797D01*
X53540250Y-48725581D01*
X53520038Y-48718349D01*
X53500632Y-48709170D01*
X53482219Y-48698134D01*
X53464976Y-48685346D01*
X53449070Y-48670930D01*
X53434654Y-48655024D01*
X53421866Y-48637781D01*
X53410830Y-48619368D01*
X53401651Y-48599962D01*
X53394419Y-48579750D01*
X53389203Y-48558926D01*
X53386053Y-48537691D01*
X53385000Y-48516250D01*
X53385000Y-48003750D01*
X53386053Y-47982309D01*
X53389203Y-47961074D01*
X53394419Y-47940250D01*
X53401651Y-47920038D01*
X53410830Y-47900632D01*
X53421866Y-47882219D01*
X53434654Y-47864976D01*
X53449070Y-47849070D01*
X53464976Y-47834654D01*
X53482219Y-47821866D01*
X53500632Y-47810830D01*
X53520038Y-47801651D01*
X53540250Y-47794419D01*
X53561074Y-47789203D01*
X53582309Y-47786053D01*
X53603750Y-47785000D01*
X54041250Y-47785000D01*
X54062691Y-47786053D01*
G37*
G36*
X88657691Y-35086053D02*
G01*
X88678926Y-35089203D01*
X88699750Y-35094419D01*
X88719962Y-35101651D01*
X88739368Y-35110830D01*
X88757781Y-35121866D01*
X88775024Y-35134654D01*
X88790930Y-35149070D01*
X88805346Y-35164976D01*
X88818134Y-35182219D01*
X88829170Y-35200632D01*
X88838349Y-35220038D01*
X88845581Y-35240250D01*
X88850797Y-35261074D01*
X88853947Y-35282309D01*
X88855000Y-35303750D01*
X88855000Y-35816250D01*
X88853947Y-35837691D01*
X88850797Y-35858926D01*
X88845581Y-35879750D01*
X88838349Y-35899962D01*
X88829170Y-35919368D01*
X88818134Y-35937781D01*
X88805346Y-35955024D01*
X88790930Y-35970930D01*
X88775024Y-35985346D01*
X88757781Y-35998134D01*
X88739368Y-36009170D01*
X88719962Y-36018349D01*
X88699750Y-36025581D01*
X88678926Y-36030797D01*
X88657691Y-36033947D01*
X88636250Y-36035000D01*
X88198750Y-36035000D01*
X88177309Y-36033947D01*
X88156074Y-36030797D01*
X88135250Y-36025581D01*
X88115038Y-36018349D01*
X88095632Y-36009170D01*
X88077219Y-35998134D01*
X88059976Y-35985346D01*
X88044070Y-35970930D01*
X88029654Y-35955024D01*
X88016866Y-35937781D01*
X88005830Y-35919368D01*
X87996651Y-35899962D01*
X87989419Y-35879750D01*
X87984203Y-35858926D01*
X87981053Y-35837691D01*
X87980000Y-35816250D01*
X87980000Y-35303750D01*
X87981053Y-35282309D01*
X87984203Y-35261074D01*
X87989419Y-35240250D01*
X87996651Y-35220038D01*
X88005830Y-35200632D01*
X88016866Y-35182219D01*
X88029654Y-35164976D01*
X88044070Y-35149070D01*
X88059976Y-35134654D01*
X88077219Y-35121866D01*
X88095632Y-35110830D01*
X88115038Y-35101651D01*
X88135250Y-35094419D01*
X88156074Y-35089203D01*
X88177309Y-35086053D01*
X88198750Y-35085000D01*
X88636250Y-35085000D01*
X88657691Y-35086053D01*
G37*
G36*
X87082691Y-35086053D02*
G01*
X87103926Y-35089203D01*
X87124750Y-35094419D01*
X87144962Y-35101651D01*
X87164368Y-35110830D01*
X87182781Y-35121866D01*
X87200024Y-35134654D01*
X87215930Y-35149070D01*
X87230346Y-35164976D01*
X87243134Y-35182219D01*
X87254170Y-35200632D01*
X87263349Y-35220038D01*
X87270581Y-35240250D01*
X87275797Y-35261074D01*
X87278947Y-35282309D01*
X87280000Y-35303750D01*
X87280000Y-35816250D01*
X87278947Y-35837691D01*
X87275797Y-35858926D01*
X87270581Y-35879750D01*
X87263349Y-35899962D01*
X87254170Y-35919368D01*
X87243134Y-35937781D01*
X87230346Y-35955024D01*
X87215930Y-35970930D01*
X87200024Y-35985346D01*
X87182781Y-35998134D01*
X87164368Y-36009170D01*
X87144962Y-36018349D01*
X87124750Y-36025581D01*
X87103926Y-36030797D01*
X87082691Y-36033947D01*
X87061250Y-36035000D01*
X86623750Y-36035000D01*
X86602309Y-36033947D01*
X86581074Y-36030797D01*
X86560250Y-36025581D01*
X86540038Y-36018349D01*
X86520632Y-36009170D01*
X86502219Y-35998134D01*
X86484976Y-35985346D01*
X86469070Y-35970930D01*
X86454654Y-35955024D01*
X86441866Y-35937781D01*
X86430830Y-35919368D01*
X86421651Y-35899962D01*
X86414419Y-35879750D01*
X86409203Y-35858926D01*
X86406053Y-35837691D01*
X86405000Y-35816250D01*
X86405000Y-35303750D01*
X86406053Y-35282309D01*
X86409203Y-35261074D01*
X86414419Y-35240250D01*
X86421651Y-35220038D01*
X86430830Y-35200632D01*
X86441866Y-35182219D01*
X86454654Y-35164976D01*
X86469070Y-35149070D01*
X86484976Y-35134654D01*
X86502219Y-35121866D01*
X86520632Y-35110830D01*
X86540038Y-35101651D01*
X86560250Y-35094419D01*
X86581074Y-35089203D01*
X86602309Y-35086053D01*
X86623750Y-35085000D01*
X87061250Y-35085000D01*
X87082691Y-35086053D01*
G37*
G36*
X95527691Y-37181053D02*
G01*
X95548926Y-37184203D01*
X95569750Y-37189419D01*
X95589962Y-37196651D01*
X95609368Y-37205830D01*
X95627781Y-37216866D01*
X95645024Y-37229654D01*
X95660930Y-37244070D01*
X95675346Y-37259976D01*
X95688134Y-37277219D01*
X95699170Y-37295632D01*
X95708349Y-37315038D01*
X95715581Y-37335250D01*
X95720797Y-37356074D01*
X95723947Y-37377309D01*
X95725000Y-37398750D01*
X95725000Y-37836250D01*
X95723947Y-37857691D01*
X95720797Y-37878926D01*
X95715581Y-37899750D01*
X95708349Y-37919962D01*
X95699170Y-37939368D01*
X95688134Y-37957781D01*
X95675346Y-37975024D01*
X95660930Y-37990930D01*
X95645024Y-38005346D01*
X95627781Y-38018134D01*
X95609368Y-38029170D01*
X95589962Y-38038349D01*
X95569750Y-38045581D01*
X95548926Y-38050797D01*
X95527691Y-38053947D01*
X95506250Y-38055000D01*
X94993750Y-38055000D01*
X94972309Y-38053947D01*
X94951074Y-38050797D01*
X94930250Y-38045581D01*
X94910038Y-38038349D01*
X94890632Y-38029170D01*
X94872219Y-38018134D01*
X94854976Y-38005346D01*
X94839070Y-37990930D01*
X94824654Y-37975024D01*
X94811866Y-37957781D01*
X94800830Y-37939368D01*
X94791651Y-37919962D01*
X94784419Y-37899750D01*
X94779203Y-37878926D01*
X94776053Y-37857691D01*
X94775000Y-37836250D01*
X94775000Y-37398750D01*
X94776053Y-37377309D01*
X94779203Y-37356074D01*
X94784419Y-37335250D01*
X94791651Y-37315038D01*
X94800830Y-37295632D01*
X94811866Y-37277219D01*
X94824654Y-37259976D01*
X94839070Y-37244070D01*
X94854976Y-37229654D01*
X94872219Y-37216866D01*
X94890632Y-37205830D01*
X94910038Y-37196651D01*
X94930250Y-37189419D01*
X94951074Y-37184203D01*
X94972309Y-37181053D01*
X94993750Y-37180000D01*
X95506250Y-37180000D01*
X95527691Y-37181053D01*
G37*
G36*
X95527691Y-35606053D02*
G01*
X95548926Y-35609203D01*
X95569750Y-35614419D01*
X95589962Y-35621651D01*
X95609368Y-35630830D01*
X95627781Y-35641866D01*
X95645024Y-35654654D01*
X95660930Y-35669070D01*
X95675346Y-35684976D01*
X95688134Y-35702219D01*
X95699170Y-35720632D01*
X95708349Y-35740038D01*
X95715581Y-35760250D01*
X95720797Y-35781074D01*
X95723947Y-35802309D01*
X95725000Y-35823750D01*
X95725000Y-36261250D01*
X95723947Y-36282691D01*
X95720797Y-36303926D01*
X95715581Y-36324750D01*
X95708349Y-36344962D01*
X95699170Y-36364368D01*
X95688134Y-36382781D01*
X95675346Y-36400024D01*
X95660930Y-36415930D01*
X95645024Y-36430346D01*
X95627781Y-36443134D01*
X95609368Y-36454170D01*
X95589962Y-36463349D01*
X95569750Y-36470581D01*
X95548926Y-36475797D01*
X95527691Y-36478947D01*
X95506250Y-36480000D01*
X94993750Y-36480000D01*
X94972309Y-36478947D01*
X94951074Y-36475797D01*
X94930250Y-36470581D01*
X94910038Y-36463349D01*
X94890632Y-36454170D01*
X94872219Y-36443134D01*
X94854976Y-36430346D01*
X94839070Y-36415930D01*
X94824654Y-36400024D01*
X94811866Y-36382781D01*
X94800830Y-36364368D01*
X94791651Y-36344962D01*
X94784419Y-36324750D01*
X94779203Y-36303926D01*
X94776053Y-36282691D01*
X94775000Y-36261250D01*
X94775000Y-35823750D01*
X94776053Y-35802309D01*
X94779203Y-35781074D01*
X94784419Y-35760250D01*
X94791651Y-35740038D01*
X94800830Y-35720632D01*
X94811866Y-35702219D01*
X94824654Y-35684976D01*
X94839070Y-35669070D01*
X94854976Y-35654654D01*
X94872219Y-35641866D01*
X94890632Y-35630830D01*
X94910038Y-35621651D01*
X94930250Y-35614419D01*
X94951074Y-35609203D01*
X94972309Y-35606053D01*
X94993750Y-35605000D01*
X95506250Y-35605000D01*
X95527691Y-35606053D01*
G37*
G36*
X93622691Y-35606053D02*
G01*
X93643926Y-35609203D01*
X93664750Y-35614419D01*
X93684962Y-35621651D01*
X93704368Y-35630830D01*
X93722781Y-35641866D01*
X93740024Y-35654654D01*
X93755930Y-35669070D01*
X93770346Y-35684976D01*
X93783134Y-35702219D01*
X93794170Y-35720632D01*
X93803349Y-35740038D01*
X93810581Y-35760250D01*
X93815797Y-35781074D01*
X93818947Y-35802309D01*
X93820000Y-35823750D01*
X93820000Y-36261250D01*
X93818947Y-36282691D01*
X93815797Y-36303926D01*
X93810581Y-36324750D01*
X93803349Y-36344962D01*
X93794170Y-36364368D01*
X93783134Y-36382781D01*
X93770346Y-36400024D01*
X93755930Y-36415930D01*
X93740024Y-36430346D01*
X93722781Y-36443134D01*
X93704368Y-36454170D01*
X93684962Y-36463349D01*
X93664750Y-36470581D01*
X93643926Y-36475797D01*
X93622691Y-36478947D01*
X93601250Y-36480000D01*
X93088750Y-36480000D01*
X93067309Y-36478947D01*
X93046074Y-36475797D01*
X93025250Y-36470581D01*
X93005038Y-36463349D01*
X92985632Y-36454170D01*
X92967219Y-36443134D01*
X92949976Y-36430346D01*
X92934070Y-36415930D01*
X92919654Y-36400024D01*
X92906866Y-36382781D01*
X92895830Y-36364368D01*
X92886651Y-36344962D01*
X92879419Y-36324750D01*
X92874203Y-36303926D01*
X92871053Y-36282691D01*
X92870000Y-36261250D01*
X92870000Y-35823750D01*
X92871053Y-35802309D01*
X92874203Y-35781074D01*
X92879419Y-35760250D01*
X92886651Y-35740038D01*
X92895830Y-35720632D01*
X92906866Y-35702219D01*
X92919654Y-35684976D01*
X92934070Y-35669070D01*
X92949976Y-35654654D01*
X92967219Y-35641866D01*
X92985632Y-35630830D01*
X93005038Y-35621651D01*
X93025250Y-35614419D01*
X93046074Y-35609203D01*
X93067309Y-35606053D01*
X93088750Y-35605000D01*
X93601250Y-35605000D01*
X93622691Y-35606053D01*
G37*
G36*
X93622691Y-37181053D02*
G01*
X93643926Y-37184203D01*
X93664750Y-37189419D01*
X93684962Y-37196651D01*
X93704368Y-37205830D01*
X93722781Y-37216866D01*
X93740024Y-37229654D01*
X93755930Y-37244070D01*
X93770346Y-37259976D01*
X93783134Y-37277219D01*
X93794170Y-37295632D01*
X93803349Y-37315038D01*
X93810581Y-37335250D01*
X93815797Y-37356074D01*
X93818947Y-37377309D01*
X93820000Y-37398750D01*
X93820000Y-37836250D01*
X93818947Y-37857691D01*
X93815797Y-37878926D01*
X93810581Y-37899750D01*
X93803349Y-37919962D01*
X93794170Y-37939368D01*
X93783134Y-37957781D01*
X93770346Y-37975024D01*
X93755930Y-37990930D01*
X93740024Y-38005346D01*
X93722781Y-38018134D01*
X93704368Y-38029170D01*
X93684962Y-38038349D01*
X93664750Y-38045581D01*
X93643926Y-38050797D01*
X93622691Y-38053947D01*
X93601250Y-38055000D01*
X93088750Y-38055000D01*
X93067309Y-38053947D01*
X93046074Y-38050797D01*
X93025250Y-38045581D01*
X93005038Y-38038349D01*
X92985632Y-38029170D01*
X92967219Y-38018134D01*
X92949976Y-38005346D01*
X92934070Y-37990930D01*
X92919654Y-37975024D01*
X92906866Y-37957781D01*
X92895830Y-37939368D01*
X92886651Y-37919962D01*
X92879419Y-37899750D01*
X92874203Y-37878926D01*
X92871053Y-37857691D01*
X92870000Y-37836250D01*
X92870000Y-37398750D01*
X92871053Y-37377309D01*
X92874203Y-37356074D01*
X92879419Y-37335250D01*
X92886651Y-37315038D01*
X92895830Y-37295632D01*
X92906866Y-37277219D01*
X92919654Y-37259976D01*
X92934070Y-37244070D01*
X92949976Y-37229654D01*
X92967219Y-37216866D01*
X92985632Y-37205830D01*
X93005038Y-37196651D01*
X93025250Y-37189419D01*
X93046074Y-37184203D01*
X93067309Y-37181053D01*
X93088750Y-37180000D01*
X93601250Y-37180000D01*
X93622691Y-37181053D01*
G37*
G36*
X96162691Y-59736053D02*
G01*
X96183926Y-59739203D01*
X96204750Y-59744419D01*
X96224962Y-59751651D01*
X96244368Y-59760830D01*
X96262781Y-59771866D01*
X96280024Y-59784654D01*
X96295930Y-59799070D01*
X96310346Y-59814976D01*
X96323134Y-59832219D01*
X96334170Y-59850632D01*
X96343349Y-59870038D01*
X96350581Y-59890250D01*
X96355797Y-59911074D01*
X96358947Y-59932309D01*
X96360000Y-59953750D01*
X96360000Y-60391250D01*
X96358947Y-60412691D01*
X96355797Y-60433926D01*
X96350581Y-60454750D01*
X96343349Y-60474962D01*
X96334170Y-60494368D01*
X96323134Y-60512781D01*
X96310346Y-60530024D01*
X96295930Y-60545930D01*
X96280024Y-60560346D01*
X96262781Y-60573134D01*
X96244368Y-60584170D01*
X96224962Y-60593349D01*
X96204750Y-60600581D01*
X96183926Y-60605797D01*
X96162691Y-60608947D01*
X96141250Y-60610000D01*
X95628750Y-60610000D01*
X95607309Y-60608947D01*
X95586074Y-60605797D01*
X95565250Y-60600581D01*
X95545038Y-60593349D01*
X95525632Y-60584170D01*
X95507219Y-60573134D01*
X95489976Y-60560346D01*
X95474070Y-60545930D01*
X95459654Y-60530024D01*
X95446866Y-60512781D01*
X95435830Y-60494368D01*
X95426651Y-60474962D01*
X95419419Y-60454750D01*
X95414203Y-60433926D01*
X95411053Y-60412691D01*
X95410000Y-60391250D01*
X95410000Y-59953750D01*
X95411053Y-59932309D01*
X95414203Y-59911074D01*
X95419419Y-59890250D01*
X95426651Y-59870038D01*
X95435830Y-59850632D01*
X95446866Y-59832219D01*
X95459654Y-59814976D01*
X95474070Y-59799070D01*
X95489976Y-59784654D01*
X95507219Y-59771866D01*
X95525632Y-59760830D01*
X95545038Y-59751651D01*
X95565250Y-59744419D01*
X95586074Y-59739203D01*
X95607309Y-59736053D01*
X95628750Y-59735000D01*
X96141250Y-59735000D01*
X96162691Y-59736053D01*
G37*
G36*
X96162691Y-61311053D02*
G01*
X96183926Y-61314203D01*
X96204750Y-61319419D01*
X96224962Y-61326651D01*
X96244368Y-61335830D01*
X96262781Y-61346866D01*
X96280024Y-61359654D01*
X96295930Y-61374070D01*
X96310346Y-61389976D01*
X96323134Y-61407219D01*
X96334170Y-61425632D01*
X96343349Y-61445038D01*
X96350581Y-61465250D01*
X96355797Y-61486074D01*
X96358947Y-61507309D01*
X96360000Y-61528750D01*
X96360000Y-61966250D01*
X96358947Y-61987691D01*
X96355797Y-62008926D01*
X96350581Y-62029750D01*
X96343349Y-62049962D01*
X96334170Y-62069368D01*
X96323134Y-62087781D01*
X96310346Y-62105024D01*
X96295930Y-62120930D01*
X96280024Y-62135346D01*
X96262781Y-62148134D01*
X96244368Y-62159170D01*
X96224962Y-62168349D01*
X96204750Y-62175581D01*
X96183926Y-62180797D01*
X96162691Y-62183947D01*
X96141250Y-62185000D01*
X95628750Y-62185000D01*
X95607309Y-62183947D01*
X95586074Y-62180797D01*
X95565250Y-62175581D01*
X95545038Y-62168349D01*
X95525632Y-62159170D01*
X95507219Y-62148134D01*
X95489976Y-62135346D01*
X95474070Y-62120930D01*
X95459654Y-62105024D01*
X95446866Y-62087781D01*
X95435830Y-62069368D01*
X95426651Y-62049962D01*
X95419419Y-62029750D01*
X95414203Y-62008926D01*
X95411053Y-61987691D01*
X95410000Y-61966250D01*
X95410000Y-61528750D01*
X95411053Y-61507309D01*
X95414203Y-61486074D01*
X95419419Y-61465250D01*
X95426651Y-61445038D01*
X95435830Y-61425632D01*
X95446866Y-61407219D01*
X95459654Y-61389976D01*
X95474070Y-61374070D01*
X95489976Y-61359654D01*
X95507219Y-61346866D01*
X95525632Y-61335830D01*
X95545038Y-61326651D01*
X95565250Y-61319419D01*
X95586074Y-61314203D01*
X95607309Y-61311053D01*
X95628750Y-61310000D01*
X96141250Y-61310000D01*
X96162691Y-61311053D01*
G37*
G36*
X92467691Y-38896053D02*
G01*
X92488926Y-38899203D01*
X92509750Y-38904419D01*
X92529962Y-38911651D01*
X92549368Y-38920830D01*
X92567781Y-38931866D01*
X92585024Y-38944654D01*
X92600930Y-38959070D01*
X92615346Y-38974976D01*
X92628134Y-38992219D01*
X92639170Y-39010632D01*
X92648349Y-39030038D01*
X92655581Y-39050250D01*
X92660797Y-39071074D01*
X92663947Y-39092309D01*
X92665000Y-39113750D01*
X92665000Y-39626250D01*
X92663947Y-39647691D01*
X92660797Y-39668926D01*
X92655581Y-39689750D01*
X92648349Y-39709962D01*
X92639170Y-39729368D01*
X92628134Y-39747781D01*
X92615346Y-39765024D01*
X92600930Y-39780930D01*
X92585024Y-39795346D01*
X92567781Y-39808134D01*
X92549368Y-39819170D01*
X92529962Y-39828349D01*
X92509750Y-39835581D01*
X92488926Y-39840797D01*
X92467691Y-39843947D01*
X92446250Y-39845000D01*
X92008750Y-39845000D01*
X91987309Y-39843947D01*
X91966074Y-39840797D01*
X91945250Y-39835581D01*
X91925038Y-39828349D01*
X91905632Y-39819170D01*
X91887219Y-39808134D01*
X91869976Y-39795346D01*
X91854070Y-39780930D01*
X91839654Y-39765024D01*
X91826866Y-39747781D01*
X91815830Y-39729368D01*
X91806651Y-39709962D01*
X91799419Y-39689750D01*
X91794203Y-39668926D01*
X91791053Y-39647691D01*
X91790000Y-39626250D01*
X91790000Y-39113750D01*
X91791053Y-39092309D01*
X91794203Y-39071074D01*
X91799419Y-39050250D01*
X91806651Y-39030038D01*
X91815830Y-39010632D01*
X91826866Y-38992219D01*
X91839654Y-38974976D01*
X91854070Y-38959070D01*
X91869976Y-38944654D01*
X91887219Y-38931866D01*
X91905632Y-38920830D01*
X91925038Y-38911651D01*
X91945250Y-38904419D01*
X91966074Y-38899203D01*
X91987309Y-38896053D01*
X92008750Y-38895000D01*
X92446250Y-38895000D01*
X92467691Y-38896053D01*
G37*
G36*
X90892691Y-38896053D02*
G01*
X90913926Y-38899203D01*
X90934750Y-38904419D01*
X90954962Y-38911651D01*
X90974368Y-38920830D01*
X90992781Y-38931866D01*
X91010024Y-38944654D01*
X91025930Y-38959070D01*
X91040346Y-38974976D01*
X91053134Y-38992219D01*
X91064170Y-39010632D01*
X91073349Y-39030038D01*
X91080581Y-39050250D01*
X91085797Y-39071074D01*
X91088947Y-39092309D01*
X91090000Y-39113750D01*
X91090000Y-39626250D01*
X91088947Y-39647691D01*
X91085797Y-39668926D01*
X91080581Y-39689750D01*
X91073349Y-39709962D01*
X91064170Y-39729368D01*
X91053134Y-39747781D01*
X91040346Y-39765024D01*
X91025930Y-39780930D01*
X91010024Y-39795346D01*
X90992781Y-39808134D01*
X90974368Y-39819170D01*
X90954962Y-39828349D01*
X90934750Y-39835581D01*
X90913926Y-39840797D01*
X90892691Y-39843947D01*
X90871250Y-39845000D01*
X90433750Y-39845000D01*
X90412309Y-39843947D01*
X90391074Y-39840797D01*
X90370250Y-39835581D01*
X90350038Y-39828349D01*
X90330632Y-39819170D01*
X90312219Y-39808134D01*
X90294976Y-39795346D01*
X90279070Y-39780930D01*
X90264654Y-39765024D01*
X90251866Y-39747781D01*
X90240830Y-39729368D01*
X90231651Y-39709962D01*
X90224419Y-39689750D01*
X90219203Y-39668926D01*
X90216053Y-39647691D01*
X90215000Y-39626250D01*
X90215000Y-39113750D01*
X90216053Y-39092309D01*
X90219203Y-39071074D01*
X90224419Y-39050250D01*
X90231651Y-39030038D01*
X90240830Y-39010632D01*
X90251866Y-38992219D01*
X90264654Y-38974976D01*
X90279070Y-38959070D01*
X90294976Y-38944654D01*
X90312219Y-38931866D01*
X90330632Y-38920830D01*
X90350038Y-38911651D01*
X90370250Y-38904419D01*
X90391074Y-38899203D01*
X90412309Y-38896053D01*
X90433750Y-38895000D01*
X90871250Y-38895000D01*
X90892691Y-38896053D01*
G37*
G36*
X98182691Y-38896053D02*
G01*
X98203926Y-38899203D01*
X98224750Y-38904419D01*
X98244962Y-38911651D01*
X98264368Y-38920830D01*
X98282781Y-38931866D01*
X98300024Y-38944654D01*
X98315930Y-38959070D01*
X98330346Y-38974976D01*
X98343134Y-38992219D01*
X98354170Y-39010632D01*
X98363349Y-39030038D01*
X98370581Y-39050250D01*
X98375797Y-39071074D01*
X98378947Y-39092309D01*
X98380000Y-39113750D01*
X98380000Y-39626250D01*
X98378947Y-39647691D01*
X98375797Y-39668926D01*
X98370581Y-39689750D01*
X98363349Y-39709962D01*
X98354170Y-39729368D01*
X98343134Y-39747781D01*
X98330346Y-39765024D01*
X98315930Y-39780930D01*
X98300024Y-39795346D01*
X98282781Y-39808134D01*
X98264368Y-39819170D01*
X98244962Y-39828349D01*
X98224750Y-39835581D01*
X98203926Y-39840797D01*
X98182691Y-39843947D01*
X98161250Y-39845000D01*
X97723750Y-39845000D01*
X97702309Y-39843947D01*
X97681074Y-39840797D01*
X97660250Y-39835581D01*
X97640038Y-39828349D01*
X97620632Y-39819170D01*
X97602219Y-39808134D01*
X97584976Y-39795346D01*
X97569070Y-39780930D01*
X97554654Y-39765024D01*
X97541866Y-39747781D01*
X97530830Y-39729368D01*
X97521651Y-39709962D01*
X97514419Y-39689750D01*
X97509203Y-39668926D01*
X97506053Y-39647691D01*
X97505000Y-39626250D01*
X97505000Y-39113750D01*
X97506053Y-39092309D01*
X97509203Y-39071074D01*
X97514419Y-39050250D01*
X97521651Y-39030038D01*
X97530830Y-39010632D01*
X97541866Y-38992219D01*
X97554654Y-38974976D01*
X97569070Y-38959070D01*
X97584976Y-38944654D01*
X97602219Y-38931866D01*
X97620632Y-38920830D01*
X97640038Y-38911651D01*
X97660250Y-38904419D01*
X97681074Y-38899203D01*
X97702309Y-38896053D01*
X97723750Y-38895000D01*
X98161250Y-38895000D01*
X98182691Y-38896053D01*
G37*
G36*
X96607691Y-38896053D02*
G01*
X96628926Y-38899203D01*
X96649750Y-38904419D01*
X96669962Y-38911651D01*
X96689368Y-38920830D01*
X96707781Y-38931866D01*
X96725024Y-38944654D01*
X96740930Y-38959070D01*
X96755346Y-38974976D01*
X96768134Y-38992219D01*
X96779170Y-39010632D01*
X96788349Y-39030038D01*
X96795581Y-39050250D01*
X96800797Y-39071074D01*
X96803947Y-39092309D01*
X96805000Y-39113750D01*
X96805000Y-39626250D01*
X96803947Y-39647691D01*
X96800797Y-39668926D01*
X96795581Y-39689750D01*
X96788349Y-39709962D01*
X96779170Y-39729368D01*
X96768134Y-39747781D01*
X96755346Y-39765024D01*
X96740930Y-39780930D01*
X96725024Y-39795346D01*
X96707781Y-39808134D01*
X96689368Y-39819170D01*
X96669962Y-39828349D01*
X96649750Y-39835581D01*
X96628926Y-39840797D01*
X96607691Y-39843947D01*
X96586250Y-39845000D01*
X96148750Y-39845000D01*
X96127309Y-39843947D01*
X96106074Y-39840797D01*
X96085250Y-39835581D01*
X96065038Y-39828349D01*
X96045632Y-39819170D01*
X96027219Y-39808134D01*
X96009976Y-39795346D01*
X95994070Y-39780930D01*
X95979654Y-39765024D01*
X95966866Y-39747781D01*
X95955830Y-39729368D01*
X95946651Y-39709962D01*
X95939419Y-39689750D01*
X95934203Y-39668926D01*
X95931053Y-39647691D01*
X95930000Y-39626250D01*
X95930000Y-39113750D01*
X95931053Y-39092309D01*
X95934203Y-39071074D01*
X95939419Y-39050250D01*
X95946651Y-39030038D01*
X95955830Y-39010632D01*
X95966866Y-38992219D01*
X95979654Y-38974976D01*
X95994070Y-38959070D01*
X96009976Y-38944654D01*
X96027219Y-38931866D01*
X96045632Y-38920830D01*
X96065038Y-38911651D01*
X96085250Y-38904419D01*
X96106074Y-38899203D01*
X96127309Y-38896053D01*
X96148750Y-38895000D01*
X96586250Y-38895000D01*
X96607691Y-38896053D01*
G37*
D15*
X69317500Y-69850000D03*
X55142500Y-69850000D03*
M02*
