M48
; DRILL file {KiCad (5.1.5)-3} date 15.04.2020 22:50:00
; FORMAT={-:-/ absolute / inch / decimal}
; #@! TF.CreationDate,2020-04-15T22:50:00+02:00
; #@! TF.GenerationSoftware,Kicad,Pcbnew,(5.1.5)-3
; #@! TF.FileFunction,Plated,1,2,PTH
FMAT,2
INCH
T1C0.0157
T2C0.0236
T3C0.0394
T4C0.0591
T5C0.1260
%
G90
G05
T1
X1.9062Y-2.9562
X1.9281Y-1.9781
X1.95Y-3.0
X1.975Y-2.025
X2.2Y-2.275
X2.425Y-1.925
X2.425Y-2.375
X2.425Y-2.45
X2.475Y-2.0
X2.475Y-2.9
X2.575Y-2.125
X2.8492Y-1.9242
X2.975Y-2.7
X3.05Y-2.775
X3.0781Y-1.9781
X3.0781Y-2.9281
X3.1219Y-2.0219
X3.1219Y-2.9719
X3.4Y-2.4
X3.425Y-2.2285
X3.475Y-1.2
X3.5231Y-1.1981
X3.575Y-1.3
X3.9Y-2.4
X4.2281Y-1.9781
X4.2281Y-2.9281
X4.2719Y-2.0219
X4.2719Y-2.9719
X4.975Y-1.15
X5.15Y-1.15
X5.3781Y-1.9781
X5.3781Y-2.9281
X5.4219Y-2.0219
X5.4219Y-2.9719
T3
X2.25Y-1.45
X2.35Y-1.45
X2.45Y-1.45
X2.55Y-1.45
X2.65Y-1.45
X2.75Y-1.45
X3.575Y-2.05
X3.575Y-2.15
X3.675Y-2.05
X3.675Y-2.15
X3.775Y-2.05
X3.775Y-2.15
T4
X1.8Y-1.5
X2.05Y-1.4
X5.25Y-2.45
X5.5Y-2.35
X2.95Y-1.5
X3.2Y-1.4
X2.95Y-2.45
X3.2Y-2.35
X4.1Y-2.45
X4.35Y-2.35
X1.8Y-2.45
X2.05Y-2.35
X5.25Y-1.5
X5.5Y-1.4
X4.1Y-1.5
X4.35Y-1.4
T5
X6.05Y-2.95
X1.35Y-2.95
X1.35Y-1.1
X6.05Y-1.1
T2
G00X3.4799Y-0.8917
M15
G01X3.4799Y-0.9508
M16
G05
G00X3.4799Y-1.1126
M15
G01X3.4799Y-1.152
M16
G05
G00X3.8201Y-0.8917
M15
G01X3.8201Y-0.9508
M16
G05
G00X3.8201Y-1.1126
M15
G01X3.8201Y-1.152
M16
G05
T0
M30
