G04 #@! TF.GenerationSoftware,KiCad,Pcbnew,(5.1.5)-3*
G04 #@! TF.CreationDate,2020-04-15T22:49:56+02:00*
G04 #@! TF.ProjectId,makroboard,6d616b72-6f62-46f6-9172-642e6b696361,rev?*
G04 #@! TF.SameCoordinates,Original*
G04 #@! TF.FileFunction,Copper,L1,Top*
G04 #@! TF.FilePolarity,Positive*
%FSLAX46Y46*%
G04 Gerber Fmt 4.6, Leading zero omitted, Abs format (unit mm)*
G04 Created by KiCad (PCBNEW (5.1.5)-3) date 2020-04-15 22:49:56*
%MOMM*%
%LPD*%
G04 APERTURE LIST*
%ADD10C,2.200000*%
%ADD11R,1.500000X1.000000*%
%ADD12C,6.400000*%
%ADD13O,1.100000X2.200000*%
%ADD14O,1.300000X2.600000*%
%ADD15R,1.700000X1.700000*%
%ADD16O,1.700000X1.700000*%
%ADD17C,0.800000*%
%ADD18C,0.250000*%
%ADD19C,0.500000*%
%ADD20C,0.254000*%
G04 APERTURE END LIST*
D10*
X52070000Y-59690000D03*
X45720000Y-62230000D03*
X74930000Y-62230000D03*
X81280000Y-59690000D03*
X81280000Y-35560000D03*
X74930000Y-38100000D03*
D11*
X47080000Y-49200000D03*
X47080000Y-52400000D03*
X51980000Y-49200000D03*
X51980000Y-52400000D03*
X47080000Y-73330000D03*
X47080000Y-76530000D03*
X51980000Y-73330000D03*
X51980000Y-76530000D03*
X81190000Y-52400000D03*
X81190000Y-49200000D03*
X76290000Y-52400000D03*
X76290000Y-49200000D03*
X81190000Y-76530000D03*
X81190000Y-73330000D03*
X76290000Y-76530000D03*
X76290000Y-73330000D03*
X105500000Y-49200000D03*
X105500000Y-52400000D03*
X110400000Y-49200000D03*
X110400000Y-52400000D03*
X110400000Y-76530000D03*
X110400000Y-73330000D03*
X105500000Y-76530000D03*
X105500000Y-73330000D03*
X139610000Y-52400000D03*
X139610000Y-49200000D03*
X134710000Y-52400000D03*
X134710000Y-49200000D03*
X134710000Y-73330000D03*
X134710000Y-76530000D03*
X139610000Y-73330000D03*
X139610000Y-76530000D03*
D12*
X153670000Y-74930000D03*
X153670000Y-27940000D03*
X34290000Y-27940000D03*
X34290000Y-74930000D03*
D13*
X88390000Y-28760000D03*
X97030000Y-28760000D03*
D14*
X88390000Y-23400000D03*
X97030000Y-23400000D03*
D15*
X95885000Y-52070000D03*
D16*
X95885000Y-54610000D03*
X93345000Y-52070000D03*
X93345000Y-54610000D03*
X90805000Y-52070000D03*
X90805000Y-54610000D03*
D15*
X57150000Y-36830000D03*
D16*
X59690000Y-36830000D03*
X62230000Y-36830000D03*
X64770000Y-36830000D03*
X67310000Y-36830000D03*
X69850000Y-36830000D03*
D10*
X45720000Y-38100000D03*
X52070000Y-35560000D03*
X110490000Y-35560000D03*
X104140000Y-38100000D03*
X110490000Y-59690000D03*
X104140000Y-62230000D03*
X133350000Y-38100000D03*
X139700000Y-35560000D03*
X133350000Y-62230000D03*
X139700000Y-59690000D03*
D17*
X88265000Y-30480000D03*
X90805000Y-33020000D03*
X130810000Y-29210000D03*
X126365000Y-29210000D03*
X50165000Y-51435000D03*
X49530000Y-76200000D03*
X79296847Y-75486847D03*
X108506847Y-75486847D03*
X137716847Y-75486847D03*
X137716847Y-51356847D03*
X108506847Y-51356847D03*
X79296847Y-51356847D03*
X65405000Y-53975000D03*
X55880000Y-57785000D03*
X89487169Y-30432169D03*
X62865000Y-73660000D03*
X48973153Y-50243153D03*
X48416306Y-75086306D03*
X78183153Y-74373153D03*
X107393153Y-74373153D03*
X136603153Y-74373153D03*
X136603153Y-50243153D03*
X107393153Y-50243153D03*
X78183153Y-50243153D03*
X72370925Y-48875925D03*
X75565000Y-68580000D03*
X77470000Y-70485000D03*
X62865000Y-50800000D03*
X86995000Y-56605000D03*
X86360000Y-60960000D03*
X99060000Y-60960000D03*
X61595000Y-62230000D03*
X61595000Y-60325000D03*
X61595000Y-48895000D03*
D18*
X51765000Y-51435000D02*
X51980000Y-51650000D01*
X51980000Y-51650000D02*
X51980000Y-52400000D01*
X50165000Y-51435000D02*
X51765000Y-51435000D01*
X51980000Y-76530000D02*
X49860000Y-76530000D01*
X49860000Y-76530000D02*
X49530000Y-76200000D01*
X80896847Y-75486847D02*
X79296847Y-75486847D01*
X81190000Y-75780000D02*
X80896847Y-75486847D01*
X81190000Y-76530000D02*
X81190000Y-75780000D01*
X110106847Y-75486847D02*
X108506847Y-75486847D01*
X110400000Y-75780000D02*
X110106847Y-75486847D01*
X110400000Y-76530000D02*
X110400000Y-75780000D01*
X139316847Y-75486847D02*
X137716847Y-75486847D01*
X139610000Y-75780000D02*
X139316847Y-75486847D01*
X139610000Y-76530000D02*
X139610000Y-75780000D01*
X139316847Y-51356847D02*
X137716847Y-51356847D01*
X139610000Y-51650000D02*
X139316847Y-51356847D01*
X139610000Y-52400000D02*
X139610000Y-51650000D01*
X109400000Y-52400000D02*
X108585000Y-51585000D01*
X110400000Y-52400000D02*
X109400000Y-52400000D01*
X108585000Y-51585000D02*
X108585000Y-51435000D01*
X108585000Y-51435000D02*
X108506847Y-51356847D01*
X81190000Y-51650000D02*
X80896847Y-51356847D01*
X80896847Y-51356847D02*
X79296847Y-51356847D01*
X81190000Y-52400000D02*
X81190000Y-51650000D01*
D19*
X53230000Y-76530000D02*
X55880000Y-73880000D01*
X51980000Y-76530000D02*
X53230000Y-76530000D01*
X111650000Y-76530000D02*
X113665000Y-74515000D01*
X110400000Y-76530000D02*
X111650000Y-76530000D01*
X140860000Y-76530000D02*
X142875000Y-74515000D01*
X139610000Y-76530000D02*
X140860000Y-76530000D01*
X82440000Y-76530000D02*
X84455000Y-74515000D01*
X81190000Y-76530000D02*
X82440000Y-76530000D01*
D18*
X47080000Y-49950000D02*
X47373153Y-50243153D01*
X47373153Y-50243153D02*
X48973153Y-50243153D01*
X47080000Y-49200000D02*
X47080000Y-49950000D01*
X48416306Y-73666306D02*
X48416306Y-75086306D01*
X48080000Y-73330000D02*
X48416306Y-73666306D01*
X47080000Y-73330000D02*
X48080000Y-73330000D01*
X76290000Y-74080000D02*
X76583153Y-74373153D01*
X76583153Y-74373153D02*
X78183153Y-74373153D01*
X76290000Y-73330000D02*
X76290000Y-74080000D01*
X105793153Y-74373153D02*
X107393153Y-74373153D01*
X105500000Y-74080000D02*
X105793153Y-74373153D01*
X105500000Y-73330000D02*
X105500000Y-74080000D01*
X135003153Y-74373153D02*
X136603153Y-74373153D01*
X134710000Y-74080000D02*
X135003153Y-74373153D01*
X134710000Y-73330000D02*
X134710000Y-74080000D01*
X135003153Y-50243153D02*
X136603153Y-50243153D01*
X134710000Y-49950000D02*
X135003153Y-50243153D01*
X134710000Y-49200000D02*
X134710000Y-49950000D01*
X105793153Y-50243153D02*
X107393153Y-50243153D01*
X105500000Y-49950000D02*
X105793153Y-50243153D01*
X105500000Y-49200000D02*
X105500000Y-49950000D01*
X76583153Y-50243153D02*
X78183153Y-50243153D01*
X76290000Y-49950000D02*
X76583153Y-50243153D01*
X76290000Y-49200000D02*
X76290000Y-49950000D01*
X75965925Y-48875925D02*
X76290000Y-49200000D01*
X72370925Y-48875925D02*
X75965925Y-48875925D01*
D19*
X75565000Y-68580000D02*
X77470000Y-70485000D01*
D18*
X47080000Y-53150000D02*
X47905000Y-53975000D01*
X47080000Y-52400000D02*
X47080000Y-53150000D01*
X47905000Y-53975000D02*
X60960000Y-53975000D01*
X60960000Y-53975000D02*
X67310000Y-47625000D01*
X81190000Y-48450000D02*
X81190000Y-49200000D01*
X80365000Y-47625000D02*
X81190000Y-48450000D01*
X67310000Y-47625000D02*
X80365000Y-47625000D01*
X62865000Y-50800000D02*
X55245000Y-50800000D01*
X53645000Y-49200000D02*
X51980000Y-49200000D01*
X55245000Y-50800000D02*
X53645000Y-49200000D01*
X47080000Y-77280000D02*
X47905000Y-78105000D01*
X47080000Y-76530000D02*
X47080000Y-77280000D01*
X47905000Y-78105000D02*
X68580000Y-78105000D01*
X68580000Y-78105000D02*
X74930000Y-71755000D01*
X74930000Y-71755000D02*
X80645000Y-71755000D01*
X81190000Y-72300000D02*
X81190000Y-73330000D01*
X80645000Y-71755000D02*
X81190000Y-72300000D01*
X52980000Y-73330000D02*
X65985000Y-60325000D01*
X51980000Y-73330000D02*
X52980000Y-73330000D01*
X65985000Y-60325000D02*
X76835000Y-60325000D01*
X80223589Y-62444999D02*
X80643590Y-62865000D01*
X76835000Y-60325000D02*
X78954999Y-62444999D01*
X78954999Y-62444999D02*
X80223589Y-62444999D01*
X101833601Y-67545011D02*
X134384989Y-67545011D01*
X80643590Y-62865000D02*
X97153590Y-62865000D01*
X97153590Y-62865000D02*
X101833601Y-67545011D01*
X134710000Y-53150000D02*
X134710000Y-52400000D01*
X134775001Y-53215001D02*
X134710000Y-53150000D01*
X134775001Y-67154999D02*
X134775001Y-53215001D01*
X134384989Y-67545011D02*
X134775001Y-67154999D01*
X76290000Y-53150000D02*
X77115000Y-53975000D01*
X76290000Y-52400000D02*
X76290000Y-53150000D01*
X77115000Y-53975000D02*
X86995000Y-53975000D01*
X86995000Y-53975000D02*
X88900000Y-52070000D01*
X88900000Y-52070000D02*
X88900000Y-49530000D01*
X88900000Y-49530000D02*
X90805000Y-47625000D01*
X110400000Y-48450000D02*
X110400000Y-49200000D01*
X109575000Y-47625000D02*
X110400000Y-48450000D01*
X90805000Y-47625000D02*
X109575000Y-47625000D01*
X76290000Y-77280000D02*
X77115000Y-78105000D01*
X76290000Y-76530000D02*
X76290000Y-77280000D01*
X77115000Y-78105000D02*
X97155000Y-78105000D01*
X97155000Y-78105000D02*
X103505000Y-71755000D01*
X103505000Y-71755000D02*
X109855000Y-71755000D01*
X110400000Y-72300000D02*
X110400000Y-73330000D01*
X109855000Y-71755000D02*
X110400000Y-72300000D01*
X105500000Y-53150000D02*
X106325000Y-53975000D01*
X105500000Y-52400000D02*
X105500000Y-53150000D01*
X106325000Y-53975000D02*
X113030000Y-53975000D01*
X113030000Y-53975000D02*
X119380000Y-47625000D01*
X139610000Y-48450000D02*
X139610000Y-49200000D01*
X138785000Y-47625000D02*
X139610000Y-48450000D01*
X119380000Y-47625000D02*
X138785000Y-47625000D01*
X105500000Y-77280000D02*
X106325000Y-78105000D01*
X105500000Y-76530000D02*
X105500000Y-77280000D01*
X106325000Y-78105000D02*
X127000000Y-78105000D01*
X127000000Y-78105000D02*
X133350000Y-71755000D01*
X139610000Y-72580000D02*
X139610000Y-73330000D01*
X138785000Y-71755000D02*
X139610000Y-72580000D01*
X133350000Y-71755000D02*
X138785000Y-71755000D01*
X86995000Y-55880000D02*
X90805000Y-52070000D01*
X86995000Y-56605000D02*
X86995000Y-55880000D01*
X86995000Y-56605000D02*
X86995000Y-56515000D01*
X86360000Y-60960000D02*
X99060000Y-60960000D01*
X61595000Y-62230000D02*
X64770000Y-59055000D01*
X64770000Y-59055000D02*
X77470000Y-59055000D01*
X77470000Y-59055000D02*
X80645000Y-62230000D01*
X80645000Y-62230000D02*
X97155000Y-62230000D01*
X102020001Y-67095001D02*
X124674999Y-67095001D01*
X97155000Y-62230000D02*
X102020001Y-67095001D01*
X129540000Y-62230000D02*
X133350000Y-62230000D01*
X124674999Y-67095001D02*
X129540000Y-62230000D01*
X61595000Y-60325000D02*
X64135000Y-57785000D01*
X99695000Y-57785000D02*
X104140000Y-62230000D01*
X64135000Y-57785000D02*
X99695000Y-57785000D01*
X64770000Y-43815000D02*
X61595000Y-46990000D01*
X61595000Y-46990000D02*
X61595000Y-48895000D01*
X126079366Y-43815000D02*
X64770000Y-43815000D01*
X133350000Y-38100000D02*
X131794366Y-38100000D01*
X131794366Y-38100000D02*
X126079366Y-43815000D01*
D20*
G36*
X87205000Y-28151794D02*
G01*
X87205000Y-29368207D01*
X87222147Y-29542300D01*
X87289906Y-29765674D01*
X87399943Y-29971536D01*
X87548026Y-30151975D01*
X87728465Y-30300058D01*
X87934327Y-30410094D01*
X88157701Y-30477853D01*
X88390000Y-30500733D01*
X88622300Y-30477853D01*
X88845674Y-30410094D01*
X89051536Y-30300058D01*
X89231975Y-30151975D01*
X89380058Y-29971536D01*
X89490094Y-29765674D01*
X89557853Y-29542300D01*
X89575000Y-29368207D01*
X89575000Y-28151793D01*
X89566648Y-28067000D01*
X95853352Y-28067000D01*
X95845000Y-28151794D01*
X95845000Y-29368207D01*
X95862147Y-29542300D01*
X95929906Y-29765674D01*
X96039943Y-29971536D01*
X96188026Y-30151975D01*
X96368465Y-30300058D01*
X96574327Y-30410094D01*
X96797701Y-30477853D01*
X97030000Y-30500733D01*
X97262300Y-30477853D01*
X97485674Y-30410094D01*
X97691536Y-30300058D01*
X97871975Y-30151975D01*
X98020058Y-29971536D01*
X98130094Y-29765674D01*
X98197853Y-29542300D01*
X98215000Y-29368207D01*
X98215000Y-28151793D01*
X98206648Y-28067000D01*
X149835000Y-28067000D01*
X149835000Y-28317715D01*
X149982377Y-29058628D01*
X150271467Y-29756554D01*
X150691161Y-30384670D01*
X151225330Y-30918839D01*
X151853446Y-31338533D01*
X152551372Y-31627623D01*
X153292285Y-31775000D01*
X153543000Y-31775000D01*
X153543000Y-71095000D01*
X153292285Y-71095000D01*
X152551372Y-71242377D01*
X151853446Y-71531467D01*
X151225330Y-71951161D01*
X150691161Y-72485330D01*
X150271467Y-73113446D01*
X149982377Y-73811372D01*
X149835000Y-74552285D01*
X149835000Y-74803000D01*
X137545380Y-74803000D01*
X137598379Y-74675051D01*
X137638153Y-74475092D01*
X137638153Y-74271214D01*
X137598379Y-74071255D01*
X137520358Y-73882897D01*
X137407090Y-73713379D01*
X137262927Y-73569216D01*
X137093409Y-73455948D01*
X136905051Y-73377927D01*
X136705092Y-73338153D01*
X136501214Y-73338153D01*
X136301255Y-73377927D01*
X136112897Y-73455948D01*
X136098072Y-73465854D01*
X136098072Y-72830000D01*
X136085812Y-72705518D01*
X136049502Y-72585820D01*
X136011647Y-72515000D01*
X138308353Y-72515000D01*
X138270498Y-72585820D01*
X138234188Y-72705518D01*
X138221928Y-72830000D01*
X138221928Y-73830000D01*
X138234188Y-73954482D01*
X138270498Y-74074180D01*
X138329463Y-74184494D01*
X138408815Y-74281185D01*
X138505506Y-74360537D01*
X138615820Y-74419502D01*
X138735518Y-74455812D01*
X138860000Y-74468072D01*
X140360000Y-74468072D01*
X140484482Y-74455812D01*
X140604180Y-74419502D01*
X140714494Y-74360537D01*
X140811185Y-74281185D01*
X140890537Y-74184494D01*
X140949502Y-74074180D01*
X140985812Y-73954482D01*
X140998072Y-73830000D01*
X140998072Y-72830000D01*
X140985812Y-72705518D01*
X140949502Y-72585820D01*
X140890537Y-72475506D01*
X140811185Y-72378815D01*
X140714494Y-72299463D01*
X140604180Y-72240498D01*
X140484482Y-72204188D01*
X140360000Y-72191928D01*
X140264326Y-72191928D01*
X140244974Y-72155724D01*
X140150001Y-72039999D01*
X140121004Y-72016202D01*
X139348803Y-71244002D01*
X139325001Y-71214999D01*
X139209276Y-71120026D01*
X139077247Y-71049454D01*
X138933986Y-71005997D01*
X138822333Y-70995000D01*
X138822322Y-70995000D01*
X138785000Y-70991324D01*
X138747678Y-70995000D01*
X133387322Y-70995000D01*
X133349999Y-70991324D01*
X133312676Y-70995000D01*
X133312667Y-70995000D01*
X133201014Y-71005997D01*
X133057753Y-71049454D01*
X132925723Y-71120026D01*
X132895568Y-71144774D01*
X132809999Y-71214999D01*
X132786201Y-71243997D01*
X129227199Y-74803000D01*
X108335380Y-74803000D01*
X108388379Y-74675051D01*
X108428153Y-74475092D01*
X108428153Y-74271214D01*
X108388379Y-74071255D01*
X108310358Y-73882897D01*
X108197090Y-73713379D01*
X108052927Y-73569216D01*
X107883409Y-73455948D01*
X107695051Y-73377927D01*
X107495092Y-73338153D01*
X107291214Y-73338153D01*
X107091255Y-73377927D01*
X106902897Y-73455948D01*
X106888072Y-73465854D01*
X106888072Y-72830000D01*
X106875812Y-72705518D01*
X106839502Y-72585820D01*
X106801647Y-72515000D01*
X109098353Y-72515000D01*
X109060498Y-72585820D01*
X109024188Y-72705518D01*
X109011928Y-72830000D01*
X109011928Y-73830000D01*
X109024188Y-73954482D01*
X109060498Y-74074180D01*
X109119463Y-74184494D01*
X109198815Y-74281185D01*
X109295506Y-74360537D01*
X109405820Y-74419502D01*
X109525518Y-74455812D01*
X109650000Y-74468072D01*
X111150000Y-74468072D01*
X111274482Y-74455812D01*
X111394180Y-74419502D01*
X111504494Y-74360537D01*
X111601185Y-74281185D01*
X111680537Y-74184494D01*
X111739502Y-74074180D01*
X111775812Y-73954482D01*
X111788072Y-73830000D01*
X111788072Y-72830000D01*
X111775812Y-72705518D01*
X111739502Y-72585820D01*
X111680537Y-72475506D01*
X111601185Y-72378815D01*
X111504494Y-72299463D01*
X111394180Y-72240498D01*
X111274482Y-72204188D01*
X111153062Y-72192230D01*
X111149003Y-72151014D01*
X111105546Y-72007753D01*
X111034974Y-71875724D01*
X110986225Y-71816323D01*
X110963799Y-71788996D01*
X110963795Y-71788992D01*
X110940001Y-71759999D01*
X110911009Y-71736206D01*
X110418803Y-71244002D01*
X110395001Y-71214999D01*
X110279276Y-71120026D01*
X110147247Y-71049454D01*
X110003986Y-71005997D01*
X109892333Y-70995000D01*
X109892322Y-70995000D01*
X109855000Y-70991324D01*
X109817678Y-70995000D01*
X103542322Y-70995000D01*
X103504999Y-70991324D01*
X103467676Y-70995000D01*
X103467667Y-70995000D01*
X103356014Y-71005997D01*
X103212753Y-71049454D01*
X103080723Y-71120026D01*
X103050568Y-71144774D01*
X102964999Y-71214999D01*
X102941201Y-71243997D01*
X99382199Y-74803000D01*
X79125380Y-74803000D01*
X79178379Y-74675051D01*
X79218153Y-74475092D01*
X79218153Y-74271214D01*
X79178379Y-74071255D01*
X79100358Y-73882897D01*
X78987090Y-73713379D01*
X78842927Y-73569216D01*
X78673409Y-73455948D01*
X78485051Y-73377927D01*
X78285092Y-73338153D01*
X78081214Y-73338153D01*
X77881255Y-73377927D01*
X77692897Y-73455948D01*
X77678072Y-73465854D01*
X77678072Y-72830000D01*
X77665812Y-72705518D01*
X77629502Y-72585820D01*
X77591647Y-72515000D01*
X79888353Y-72515000D01*
X79850498Y-72585820D01*
X79814188Y-72705518D01*
X79801928Y-72830000D01*
X79801928Y-73830000D01*
X79814188Y-73954482D01*
X79850498Y-74074180D01*
X79909463Y-74184494D01*
X79988815Y-74281185D01*
X80085506Y-74360537D01*
X80195820Y-74419502D01*
X80315518Y-74455812D01*
X80440000Y-74468072D01*
X81940000Y-74468072D01*
X82064482Y-74455812D01*
X82184180Y-74419502D01*
X82294494Y-74360537D01*
X82391185Y-74281185D01*
X82470537Y-74184494D01*
X82529502Y-74074180D01*
X82565812Y-73954482D01*
X82578072Y-73830000D01*
X82578072Y-72830000D01*
X82565812Y-72705518D01*
X82529502Y-72585820D01*
X82470537Y-72475506D01*
X82391185Y-72378815D01*
X82294494Y-72299463D01*
X82184180Y-72240498D01*
X82064482Y-72204188D01*
X81943062Y-72192230D01*
X81939003Y-72151014D01*
X81895546Y-72007753D01*
X81824974Y-71875724D01*
X81776225Y-71816323D01*
X81753799Y-71788996D01*
X81753795Y-71788992D01*
X81730001Y-71759999D01*
X81701009Y-71736206D01*
X81208803Y-71244002D01*
X81185001Y-71214999D01*
X81069276Y-71120026D01*
X80937247Y-71049454D01*
X80793986Y-71005997D01*
X80682333Y-70995000D01*
X80682322Y-70995000D01*
X80645000Y-70991324D01*
X80607678Y-70995000D01*
X78374013Y-70995000D01*
X78387205Y-70975256D01*
X78465226Y-70786898D01*
X78505000Y-70586939D01*
X78505000Y-70383061D01*
X78465226Y-70183102D01*
X78387205Y-69994744D01*
X78273937Y-69825226D01*
X78129774Y-69681063D01*
X77960256Y-69567795D01*
X77771898Y-69489774D01*
X77715044Y-69478465D01*
X76571535Y-68334957D01*
X76560226Y-68278102D01*
X76482205Y-68089744D01*
X76368937Y-67920226D01*
X76224774Y-67776063D01*
X76055256Y-67662795D01*
X75866898Y-67584774D01*
X75666939Y-67545000D01*
X75463061Y-67545000D01*
X75263102Y-67584774D01*
X75074744Y-67662795D01*
X74905226Y-67776063D01*
X74761063Y-67920226D01*
X74647795Y-68089744D01*
X74569774Y-68278102D01*
X74530000Y-68478061D01*
X74530000Y-68681939D01*
X74569774Y-68881898D01*
X74647795Y-69070256D01*
X74761063Y-69239774D01*
X74905226Y-69383937D01*
X75074744Y-69497205D01*
X75263102Y-69575226D01*
X75319957Y-69586535D01*
X76463465Y-70730044D01*
X76474774Y-70786898D01*
X76552795Y-70975256D01*
X76565987Y-70995000D01*
X74967322Y-70995000D01*
X74929999Y-70991324D01*
X74892676Y-70995000D01*
X74892667Y-70995000D01*
X74781014Y-71005997D01*
X74637753Y-71049454D01*
X74505723Y-71120026D01*
X74475568Y-71144774D01*
X74389999Y-71214999D01*
X74366201Y-71243997D01*
X70807199Y-74803000D01*
X49415230Y-74803000D01*
X49411532Y-74784408D01*
X49333511Y-74596050D01*
X49220243Y-74426532D01*
X49176306Y-74382595D01*
X49176306Y-73703639D01*
X49179983Y-73666306D01*
X49165309Y-73517320D01*
X49121852Y-73374059D01*
X49105612Y-73343676D01*
X49051280Y-73242030D01*
X48956307Y-73126305D01*
X48927304Y-73102503D01*
X48654801Y-72830000D01*
X50591928Y-72830000D01*
X50591928Y-73830000D01*
X50604188Y-73954482D01*
X50640498Y-74074180D01*
X50699463Y-74184494D01*
X50778815Y-74281185D01*
X50875506Y-74360537D01*
X50985820Y-74419502D01*
X51105518Y-74455812D01*
X51230000Y-74468072D01*
X52730000Y-74468072D01*
X52854482Y-74455812D01*
X52974180Y-74419502D01*
X53084494Y-74360537D01*
X53181185Y-74281185D01*
X53260537Y-74184494D01*
X53319502Y-74074180D01*
X53342634Y-73997923D01*
X53404276Y-73964974D01*
X53520001Y-73870001D01*
X53543804Y-73840997D01*
X66299803Y-61085000D01*
X73621339Y-61085000D01*
X73582337Y-61124002D01*
X73392463Y-61408169D01*
X73261675Y-61723919D01*
X73195000Y-62059117D01*
X73195000Y-62400883D01*
X73261675Y-62736081D01*
X73392463Y-63051831D01*
X73548261Y-63285000D01*
X73513740Y-63285000D01*
X73226842Y-63342068D01*
X72956589Y-63454010D01*
X72713368Y-63616525D01*
X72506525Y-63823368D01*
X72344010Y-64066589D01*
X72232068Y-64336842D01*
X72175000Y-64623740D01*
X72175000Y-64916260D01*
X72232068Y-65203158D01*
X72344010Y-65473411D01*
X72506525Y-65716632D01*
X72713368Y-65923475D01*
X72956589Y-66085990D01*
X73226842Y-66197932D01*
X73513740Y-66255000D01*
X73806260Y-66255000D01*
X74093158Y-66197932D01*
X74363411Y-66085990D01*
X74606632Y-65923475D01*
X74813475Y-65716632D01*
X74975990Y-65473411D01*
X75087932Y-65203158D01*
X75145000Y-64916260D01*
X75145000Y-64623740D01*
X75087932Y-64336842D01*
X74975990Y-64066589D01*
X74908110Y-63965000D01*
X75100883Y-63965000D01*
X75436081Y-63898325D01*
X75751831Y-63767537D01*
X76035998Y-63577663D01*
X76277663Y-63335998D01*
X76467537Y-63051831D01*
X76598325Y-62736081D01*
X76665000Y-62400883D01*
X76665000Y-62059117D01*
X76598325Y-61723919D01*
X76467537Y-61408169D01*
X76277663Y-61124002D01*
X76238661Y-61085000D01*
X76520199Y-61085000D01*
X77759310Y-62324111D01*
X77491859Y-62434893D01*
X77060285Y-62723262D01*
X76693262Y-63090285D01*
X76404893Y-63521859D01*
X76206261Y-64001399D01*
X76105000Y-64510475D01*
X76105000Y-65029525D01*
X76206261Y-65538601D01*
X76404893Y-66018141D01*
X76693262Y-66449715D01*
X77060285Y-66816738D01*
X77491859Y-67105107D01*
X77971399Y-67303739D01*
X78480475Y-67405000D01*
X78999525Y-67405000D01*
X79508601Y-67303739D01*
X79988141Y-67105107D01*
X80419715Y-66816738D01*
X80786738Y-66449715D01*
X81075107Y-66018141D01*
X81273739Y-65538601D01*
X81375000Y-65029525D01*
X81375000Y-64510475D01*
X81273739Y-64001399D01*
X81117829Y-63625000D01*
X82864893Y-63625000D01*
X82666525Y-63823368D01*
X82504010Y-64066589D01*
X82392068Y-64336842D01*
X82335000Y-64623740D01*
X82335000Y-64916260D01*
X82392068Y-65203158D01*
X82504010Y-65473411D01*
X82666525Y-65716632D01*
X82873368Y-65923475D01*
X83116589Y-66085990D01*
X83386842Y-66197932D01*
X83673740Y-66255000D01*
X83966260Y-66255000D01*
X84253158Y-66197932D01*
X84523411Y-66085990D01*
X84766632Y-65923475D01*
X84973475Y-65716632D01*
X85135990Y-65473411D01*
X85247932Y-65203158D01*
X85305000Y-64916260D01*
X85305000Y-64623740D01*
X85247932Y-64336842D01*
X85135990Y-64066589D01*
X84973475Y-63823368D01*
X84775107Y-63625000D01*
X96838789Y-63625000D01*
X101269802Y-68056014D01*
X101293600Y-68085012D01*
X101322598Y-68108810D01*
X101409324Y-68179985D01*
X101521018Y-68239687D01*
X101541354Y-68250557D01*
X101684615Y-68294014D01*
X101796268Y-68305011D01*
X101796277Y-68305011D01*
X101833600Y-68308687D01*
X101870923Y-68305011D01*
X134347667Y-68305011D01*
X134384989Y-68308687D01*
X134422311Y-68305011D01*
X134422322Y-68305011D01*
X134533975Y-68294014D01*
X134677236Y-68250557D01*
X134809265Y-68179985D01*
X134924990Y-68085012D01*
X134948793Y-68056008D01*
X135285999Y-67718802D01*
X135315002Y-67695000D01*
X135409975Y-67579275D01*
X135480547Y-67447246D01*
X135524004Y-67303985D01*
X135535001Y-67192332D01*
X135535001Y-67192323D01*
X135538677Y-67155000D01*
X135535001Y-67117677D01*
X135535001Y-66853298D01*
X135911859Y-67105107D01*
X136391399Y-67303739D01*
X136900475Y-67405000D01*
X137419525Y-67405000D01*
X137928601Y-67303739D01*
X138408141Y-67105107D01*
X138839715Y-66816738D01*
X139206738Y-66449715D01*
X139495107Y-66018141D01*
X139693739Y-65538601D01*
X139795000Y-65029525D01*
X139795000Y-64623740D01*
X140755000Y-64623740D01*
X140755000Y-64916260D01*
X140812068Y-65203158D01*
X140924010Y-65473411D01*
X141086525Y-65716632D01*
X141293368Y-65923475D01*
X141536589Y-66085990D01*
X141806842Y-66197932D01*
X142093740Y-66255000D01*
X142386260Y-66255000D01*
X142673158Y-66197932D01*
X142943411Y-66085990D01*
X143186632Y-65923475D01*
X143393475Y-65716632D01*
X143555990Y-65473411D01*
X143667932Y-65203158D01*
X143725000Y-64916260D01*
X143725000Y-64623740D01*
X143667932Y-64336842D01*
X143555990Y-64066589D01*
X143393475Y-63823368D01*
X143186632Y-63616525D01*
X142943411Y-63454010D01*
X142673158Y-63342068D01*
X142386260Y-63285000D01*
X142093740Y-63285000D01*
X141806842Y-63342068D01*
X141536589Y-63454010D01*
X141293368Y-63616525D01*
X141086525Y-63823368D01*
X140924010Y-64066589D01*
X140812068Y-64336842D01*
X140755000Y-64623740D01*
X139795000Y-64623740D01*
X139795000Y-64510475D01*
X139693739Y-64001399D01*
X139495107Y-63521859D01*
X139206738Y-63090285D01*
X138839715Y-62723262D01*
X138408141Y-62434893D01*
X137928601Y-62236261D01*
X137419525Y-62135000D01*
X136900475Y-62135000D01*
X136391399Y-62236261D01*
X135911859Y-62434893D01*
X135535001Y-62686702D01*
X135535001Y-60896712D01*
X138672893Y-60896712D01*
X138780726Y-61171338D01*
X139087384Y-61322216D01*
X139417585Y-61410369D01*
X139758639Y-61432409D01*
X140097439Y-61387489D01*
X140420966Y-61277336D01*
X140619274Y-61171338D01*
X140727107Y-60896712D01*
X139700000Y-59869605D01*
X138672893Y-60896712D01*
X135535001Y-60896712D01*
X135535001Y-59748639D01*
X137957591Y-59748639D01*
X138002511Y-60087439D01*
X138112664Y-60410966D01*
X138218662Y-60609274D01*
X138493288Y-60717107D01*
X139520395Y-59690000D01*
X139879605Y-59690000D01*
X140906712Y-60717107D01*
X141181338Y-60609274D01*
X141332216Y-60302616D01*
X141420369Y-59972415D01*
X141442409Y-59631361D01*
X141397489Y-59292561D01*
X141287336Y-58969034D01*
X141181338Y-58770726D01*
X140906712Y-58662893D01*
X139879605Y-59690000D01*
X139520395Y-59690000D01*
X138493288Y-58662893D01*
X138218662Y-58770726D01*
X138067784Y-59077384D01*
X137979631Y-59407585D01*
X137957591Y-59748639D01*
X135535001Y-59748639D01*
X135535001Y-58483288D01*
X138672893Y-58483288D01*
X139700000Y-59510395D01*
X140727107Y-58483288D01*
X140619274Y-58208662D01*
X140312616Y-58057784D01*
X139982415Y-57969631D01*
X139641361Y-57947591D01*
X139302561Y-57992511D01*
X138979034Y-58102664D01*
X138780726Y-58208662D01*
X138672893Y-58483288D01*
X135535001Y-58483288D01*
X135535001Y-53530685D01*
X135584482Y-53525812D01*
X135704180Y-53489502D01*
X135814494Y-53430537D01*
X135911185Y-53351185D01*
X135990537Y-53254494D01*
X136049502Y-53144180D01*
X136085812Y-53024482D01*
X136098072Y-52900000D01*
X138221928Y-52900000D01*
X138234188Y-53024482D01*
X138270498Y-53144180D01*
X138329463Y-53254494D01*
X138408815Y-53351185D01*
X138505506Y-53430537D01*
X138615820Y-53489502D01*
X138735518Y-53525812D01*
X138860000Y-53538072D01*
X139324250Y-53535000D01*
X139483000Y-53376250D01*
X139483000Y-52527000D01*
X139737000Y-52527000D01*
X139737000Y-53376250D01*
X139895750Y-53535000D01*
X140360000Y-53538072D01*
X140484482Y-53525812D01*
X140604180Y-53489502D01*
X140714494Y-53430537D01*
X140811185Y-53351185D01*
X140890537Y-53254494D01*
X140949502Y-53144180D01*
X140985812Y-53024482D01*
X140998072Y-52900000D01*
X140995000Y-52685750D01*
X140836250Y-52527000D01*
X139737000Y-52527000D01*
X139483000Y-52527000D01*
X138383750Y-52527000D01*
X138225000Y-52685750D01*
X138221928Y-52900000D01*
X136098072Y-52900000D01*
X136098072Y-51900000D01*
X138221928Y-51900000D01*
X138225000Y-52114250D01*
X138383750Y-52273000D01*
X139483000Y-52273000D01*
X139483000Y-51423750D01*
X139737000Y-51423750D01*
X139737000Y-52273000D01*
X140836250Y-52273000D01*
X140995000Y-52114250D01*
X140998072Y-51900000D01*
X140985812Y-51775518D01*
X140949502Y-51655820D01*
X140890537Y-51545506D01*
X140811185Y-51448815D01*
X140714494Y-51369463D01*
X140604180Y-51310498D01*
X140484482Y-51274188D01*
X140360000Y-51261928D01*
X139895750Y-51265000D01*
X139737000Y-51423750D01*
X139483000Y-51423750D01*
X139324250Y-51265000D01*
X138860000Y-51261928D01*
X138735518Y-51274188D01*
X138615820Y-51310498D01*
X138505506Y-51369463D01*
X138408815Y-51448815D01*
X138329463Y-51545506D01*
X138270498Y-51655820D01*
X138234188Y-51775518D01*
X138221928Y-51900000D01*
X136098072Y-51900000D01*
X136085812Y-51775518D01*
X136049502Y-51655820D01*
X135990537Y-51545506D01*
X135911185Y-51448815D01*
X135814494Y-51369463D01*
X135704180Y-51310498D01*
X135584482Y-51274188D01*
X135460000Y-51261928D01*
X133960000Y-51261928D01*
X133835518Y-51274188D01*
X133715820Y-51310498D01*
X133605506Y-51369463D01*
X133508815Y-51448815D01*
X133429463Y-51545506D01*
X133370498Y-51655820D01*
X133334188Y-51775518D01*
X133321928Y-51900000D01*
X133321928Y-52900000D01*
X133334188Y-53024482D01*
X133370498Y-53144180D01*
X133429463Y-53254494D01*
X133508815Y-53351185D01*
X133605506Y-53430537D01*
X133715820Y-53489502D01*
X133835518Y-53525812D01*
X133960000Y-53538072D01*
X134015002Y-53538072D01*
X134015001Y-60627502D01*
X133856081Y-60561675D01*
X133520883Y-60495000D01*
X133179117Y-60495000D01*
X132843919Y-60561675D01*
X132528169Y-60692463D01*
X132244002Y-60882337D01*
X132002337Y-61124002D01*
X131812463Y-61408169D01*
X131786852Y-61470000D01*
X129577322Y-61470000D01*
X129539999Y-61466324D01*
X129502676Y-61470000D01*
X129502667Y-61470000D01*
X129391014Y-61480997D01*
X129247753Y-61524454D01*
X129115724Y-61595026D01*
X129115722Y-61595027D01*
X129115723Y-61595027D01*
X129028996Y-61666201D01*
X129028992Y-61666205D01*
X128999999Y-61689999D01*
X128976205Y-61718992D01*
X124360198Y-66335001D01*
X110073388Y-66335001D01*
X110285107Y-66018141D01*
X110483739Y-65538601D01*
X110585000Y-65029525D01*
X110585000Y-64623740D01*
X111545000Y-64623740D01*
X111545000Y-64916260D01*
X111602068Y-65203158D01*
X111714010Y-65473411D01*
X111876525Y-65716632D01*
X112083368Y-65923475D01*
X112326589Y-66085990D01*
X112596842Y-66197932D01*
X112883740Y-66255000D01*
X113176260Y-66255000D01*
X113463158Y-66197932D01*
X113733411Y-66085990D01*
X113976632Y-65923475D01*
X114183475Y-65716632D01*
X114345990Y-65473411D01*
X114457932Y-65203158D01*
X114515000Y-64916260D01*
X114515000Y-64623740D01*
X114457932Y-64336842D01*
X114345990Y-64066589D01*
X114183475Y-63823368D01*
X113976632Y-63616525D01*
X113733411Y-63454010D01*
X113463158Y-63342068D01*
X113176260Y-63285000D01*
X112883740Y-63285000D01*
X112596842Y-63342068D01*
X112326589Y-63454010D01*
X112083368Y-63616525D01*
X111876525Y-63823368D01*
X111714010Y-64066589D01*
X111602068Y-64336842D01*
X111545000Y-64623740D01*
X110585000Y-64623740D01*
X110585000Y-64510475D01*
X110483739Y-64001399D01*
X110285107Y-63521859D01*
X109996738Y-63090285D01*
X109629715Y-62723262D01*
X109198141Y-62434893D01*
X108718601Y-62236261D01*
X108209525Y-62135000D01*
X107690475Y-62135000D01*
X107181399Y-62236261D01*
X106701859Y-62434893D01*
X106270285Y-62723262D01*
X105903262Y-63090285D01*
X105614893Y-63521859D01*
X105416261Y-64001399D01*
X105315000Y-64510475D01*
X105315000Y-65029525D01*
X105416261Y-65538601D01*
X105614893Y-66018141D01*
X105826612Y-66335001D01*
X102334804Y-66335001D01*
X97719801Y-61720000D01*
X98356289Y-61720000D01*
X98400226Y-61763937D01*
X98569744Y-61877205D01*
X98758102Y-61955226D01*
X98958061Y-61995000D01*
X99161939Y-61995000D01*
X99361898Y-61955226D01*
X99550256Y-61877205D01*
X99719774Y-61763937D01*
X99863937Y-61619774D01*
X99977205Y-61450256D01*
X100055226Y-61261898D01*
X100095000Y-61061939D01*
X100095000Y-60858061D01*
X100055226Y-60658102D01*
X99977205Y-60469744D01*
X99863937Y-60300226D01*
X99719774Y-60156063D01*
X99550256Y-60042795D01*
X99361898Y-59964774D01*
X99161939Y-59925000D01*
X98958061Y-59925000D01*
X98758102Y-59964774D01*
X98569744Y-60042795D01*
X98400226Y-60156063D01*
X98356289Y-60200000D01*
X87063711Y-60200000D01*
X87019774Y-60156063D01*
X86850256Y-60042795D01*
X86661898Y-59964774D01*
X86461939Y-59925000D01*
X86258061Y-59925000D01*
X86058102Y-59964774D01*
X85869744Y-60042795D01*
X85700226Y-60156063D01*
X85556063Y-60300226D01*
X85442795Y-60469744D01*
X85364774Y-60658102D01*
X85325000Y-60858061D01*
X85325000Y-61061939D01*
X85364774Y-61261898D01*
X85442795Y-61450256D01*
X85455987Y-61470000D01*
X80959802Y-61470000D01*
X80864693Y-61374891D01*
X80997585Y-61410369D01*
X81338639Y-61432409D01*
X81677439Y-61387489D01*
X82000966Y-61277336D01*
X82199274Y-61171338D01*
X82307107Y-60896712D01*
X81280000Y-59869605D01*
X81265858Y-59883748D01*
X81086253Y-59704143D01*
X81100395Y-59690000D01*
X81086253Y-59675858D01*
X81265858Y-59496253D01*
X81280000Y-59510395D01*
X81294143Y-59496253D01*
X81473748Y-59675858D01*
X81459605Y-59690000D01*
X82486712Y-60717107D01*
X82761338Y-60609274D01*
X82912216Y-60302616D01*
X83000369Y-59972415D01*
X83022409Y-59631361D01*
X82977489Y-59292561D01*
X82867336Y-58969034D01*
X82761338Y-58770726D01*
X82486714Y-58662894D01*
X82602136Y-58547472D01*
X82599664Y-58545000D01*
X99380199Y-58545000D01*
X102497286Y-61662088D01*
X102471675Y-61723919D01*
X102405000Y-62059117D01*
X102405000Y-62400883D01*
X102471675Y-62736081D01*
X102602463Y-63051831D01*
X102758261Y-63285000D01*
X102723740Y-63285000D01*
X102436842Y-63342068D01*
X102166589Y-63454010D01*
X101923368Y-63616525D01*
X101716525Y-63823368D01*
X101554010Y-64066589D01*
X101442068Y-64336842D01*
X101385000Y-64623740D01*
X101385000Y-64916260D01*
X101442068Y-65203158D01*
X101554010Y-65473411D01*
X101716525Y-65716632D01*
X101923368Y-65923475D01*
X102166589Y-66085990D01*
X102436842Y-66197932D01*
X102723740Y-66255000D01*
X103016260Y-66255000D01*
X103303158Y-66197932D01*
X103573411Y-66085990D01*
X103816632Y-65923475D01*
X104023475Y-65716632D01*
X104185990Y-65473411D01*
X104297932Y-65203158D01*
X104355000Y-64916260D01*
X104355000Y-64623740D01*
X104297932Y-64336842D01*
X104185990Y-64066589D01*
X104118110Y-63965000D01*
X104310883Y-63965000D01*
X104646081Y-63898325D01*
X104961831Y-63767537D01*
X105245998Y-63577663D01*
X105487663Y-63335998D01*
X105677537Y-63051831D01*
X105808325Y-62736081D01*
X105875000Y-62400883D01*
X105875000Y-62059117D01*
X105808325Y-61723919D01*
X105677537Y-61408169D01*
X105487663Y-61124002D01*
X105260373Y-60896712D01*
X109462893Y-60896712D01*
X109570726Y-61171338D01*
X109877384Y-61322216D01*
X110207585Y-61410369D01*
X110548639Y-61432409D01*
X110887439Y-61387489D01*
X111210966Y-61277336D01*
X111409274Y-61171338D01*
X111517107Y-60896712D01*
X110490000Y-59869605D01*
X109462893Y-60896712D01*
X105260373Y-60896712D01*
X105245998Y-60882337D01*
X104961831Y-60692463D01*
X104646081Y-60561675D01*
X104310883Y-60495000D01*
X103969117Y-60495000D01*
X103633919Y-60561675D01*
X103572088Y-60587286D01*
X102733441Y-59748639D01*
X108747591Y-59748639D01*
X108792511Y-60087439D01*
X108902664Y-60410966D01*
X109008662Y-60609274D01*
X109283288Y-60717107D01*
X110310395Y-59690000D01*
X110669605Y-59690000D01*
X111696712Y-60717107D01*
X111971338Y-60609274D01*
X112122216Y-60302616D01*
X112210369Y-59972415D01*
X112232409Y-59631361D01*
X112187489Y-59292561D01*
X112077336Y-58969034D01*
X111971338Y-58770726D01*
X111696712Y-58662893D01*
X110669605Y-59690000D01*
X110310395Y-59690000D01*
X109283288Y-58662893D01*
X109008662Y-58770726D01*
X108857784Y-59077384D01*
X108769631Y-59407585D01*
X108747591Y-59748639D01*
X102733441Y-59748639D01*
X101468090Y-58483288D01*
X109462893Y-58483288D01*
X110490000Y-59510395D01*
X111517107Y-58483288D01*
X111409274Y-58208662D01*
X111102616Y-58057784D01*
X110772415Y-57969631D01*
X110431361Y-57947591D01*
X110092561Y-57992511D01*
X109769034Y-58102664D01*
X109570726Y-58208662D01*
X109462893Y-58483288D01*
X101468090Y-58483288D01*
X100258804Y-57274003D01*
X100235001Y-57244999D01*
X100119276Y-57150026D01*
X99987247Y-57079454D01*
X99843986Y-57035997D01*
X99732333Y-57025000D01*
X99732322Y-57025000D01*
X99695000Y-57021324D01*
X99657678Y-57025000D01*
X87941306Y-57025000D01*
X87990226Y-56906898D01*
X88030000Y-56706939D01*
X88030000Y-56503061D01*
X87990226Y-56303102D01*
X87912205Y-56114744D01*
X87881304Y-56068497D01*
X89320000Y-54629801D01*
X89320000Y-54737002D01*
X89484185Y-54737002D01*
X89363519Y-54966891D01*
X89460843Y-55241252D01*
X89609822Y-55491355D01*
X89804731Y-55707588D01*
X90038080Y-55881641D01*
X90300901Y-56006825D01*
X90448110Y-56051476D01*
X90678000Y-55930155D01*
X90678000Y-54737000D01*
X90658000Y-54737000D01*
X90658000Y-54483000D01*
X90678000Y-54483000D01*
X90678000Y-54463000D01*
X90932000Y-54463000D01*
X90932000Y-54483000D01*
X90952000Y-54483000D01*
X90952000Y-54737000D01*
X90932000Y-54737000D01*
X90932000Y-55930155D01*
X91161890Y-56051476D01*
X91309099Y-56006825D01*
X91571920Y-55881641D01*
X91805269Y-55707588D01*
X92000178Y-55491355D01*
X92069805Y-55374466D01*
X92191525Y-55556632D01*
X92398368Y-55763475D01*
X92641589Y-55925990D01*
X92911842Y-56037932D01*
X93198740Y-56095000D01*
X93491260Y-56095000D01*
X93778158Y-56037932D01*
X94048411Y-55925990D01*
X94291632Y-55763475D01*
X94498475Y-55556632D01*
X94615000Y-55382240D01*
X94731525Y-55556632D01*
X94938368Y-55763475D01*
X95181589Y-55925990D01*
X95451842Y-56037932D01*
X95738740Y-56095000D01*
X96031260Y-56095000D01*
X96318158Y-56037932D01*
X96588411Y-55925990D01*
X96831632Y-55763475D01*
X97038475Y-55556632D01*
X97200990Y-55313411D01*
X97312932Y-55043158D01*
X97370000Y-54756260D01*
X97370000Y-54463740D01*
X97312932Y-54176842D01*
X97200990Y-53906589D01*
X97038475Y-53663368D01*
X96906620Y-53531513D01*
X96979180Y-53509502D01*
X97089494Y-53450537D01*
X97186185Y-53371185D01*
X97265537Y-53274494D01*
X97324502Y-53164180D01*
X97360812Y-53044482D01*
X97373072Y-52920000D01*
X97373072Y-51900000D01*
X104111928Y-51900000D01*
X104111928Y-52900000D01*
X104124188Y-53024482D01*
X104160498Y-53144180D01*
X104219463Y-53254494D01*
X104298815Y-53351185D01*
X104395506Y-53430537D01*
X104505820Y-53489502D01*
X104625518Y-53525812D01*
X104750000Y-53538072D01*
X104845674Y-53538072D01*
X104865026Y-53574276D01*
X104918371Y-53639276D01*
X104960000Y-53690001D01*
X104988998Y-53713799D01*
X105761201Y-54486002D01*
X105784999Y-54515001D01*
X105900724Y-54609974D01*
X106032753Y-54680546D01*
X106176014Y-54724003D01*
X106287667Y-54735000D01*
X106287676Y-54735000D01*
X106324999Y-54738676D01*
X106362322Y-54735000D01*
X112992678Y-54735000D01*
X113030000Y-54738676D01*
X113067322Y-54735000D01*
X113067333Y-54735000D01*
X113178986Y-54724003D01*
X113322247Y-54680546D01*
X113454276Y-54609974D01*
X113570001Y-54515001D01*
X113593804Y-54485997D01*
X119694802Y-48385000D01*
X133408353Y-48385000D01*
X133370498Y-48455820D01*
X133334188Y-48575518D01*
X133321928Y-48700000D01*
X133321928Y-49700000D01*
X133334188Y-49824482D01*
X133370498Y-49944180D01*
X133429463Y-50054494D01*
X133508815Y-50151185D01*
X133605506Y-50230537D01*
X133715820Y-50289502D01*
X133835518Y-50325812D01*
X133960000Y-50338072D01*
X134055674Y-50338072D01*
X134075026Y-50374276D01*
X134146201Y-50461002D01*
X134170000Y-50490001D01*
X134198998Y-50513799D01*
X134439349Y-50754150D01*
X134463152Y-50783154D01*
X134578877Y-50878127D01*
X134710906Y-50948699D01*
X134854167Y-50992156D01*
X134965820Y-51003153D01*
X134965830Y-51003153D01*
X135003153Y-51006829D01*
X135040476Y-51003153D01*
X135899442Y-51003153D01*
X135943379Y-51047090D01*
X136112897Y-51160358D01*
X136301255Y-51238379D01*
X136501214Y-51278153D01*
X136705092Y-51278153D01*
X136905051Y-51238379D01*
X137093409Y-51160358D01*
X137262927Y-51047090D01*
X137407090Y-50902927D01*
X137520358Y-50733409D01*
X137598379Y-50545051D01*
X137638153Y-50345092D01*
X137638153Y-50141214D01*
X137598379Y-49941255D01*
X137520358Y-49752897D01*
X137407090Y-49583379D01*
X137262927Y-49439216D01*
X137093409Y-49325948D01*
X136905051Y-49247927D01*
X136705092Y-49208153D01*
X136501214Y-49208153D01*
X136301255Y-49247927D01*
X136112897Y-49325948D01*
X136098072Y-49335854D01*
X136098072Y-48700000D01*
X136085812Y-48575518D01*
X136049502Y-48455820D01*
X136011647Y-48385000D01*
X138308353Y-48385000D01*
X138270498Y-48455820D01*
X138234188Y-48575518D01*
X138221928Y-48700000D01*
X138221928Y-49700000D01*
X138234188Y-49824482D01*
X138270498Y-49944180D01*
X138329463Y-50054494D01*
X138408815Y-50151185D01*
X138505506Y-50230537D01*
X138615820Y-50289502D01*
X138735518Y-50325812D01*
X138860000Y-50338072D01*
X140360000Y-50338072D01*
X140484482Y-50325812D01*
X140604180Y-50289502D01*
X140714494Y-50230537D01*
X140811185Y-50151185D01*
X140890537Y-50054494D01*
X140949502Y-49944180D01*
X140985812Y-49824482D01*
X140998072Y-49700000D01*
X140998072Y-48700000D01*
X140985812Y-48575518D01*
X140949502Y-48455820D01*
X140890537Y-48345506D01*
X140811185Y-48248815D01*
X140714494Y-48169463D01*
X140604180Y-48110498D01*
X140484482Y-48074188D01*
X140360000Y-48061928D01*
X140264326Y-48061928D01*
X140244974Y-48025724D01*
X140150001Y-47909999D01*
X140121004Y-47886202D01*
X139348803Y-47114002D01*
X139325001Y-47084999D01*
X139209276Y-46990026D01*
X139077247Y-46919454D01*
X138933986Y-46875997D01*
X138822333Y-46865000D01*
X138822322Y-46865000D01*
X138785000Y-46861324D01*
X138747678Y-46865000D01*
X119417322Y-46865000D01*
X119379999Y-46861324D01*
X119342676Y-46865000D01*
X119342667Y-46865000D01*
X119231014Y-46875997D01*
X119087753Y-46919454D01*
X118955723Y-46990026D01*
X118872083Y-47058668D01*
X118839999Y-47084999D01*
X118816201Y-47113997D01*
X112715199Y-53215000D01*
X111701647Y-53215000D01*
X111739502Y-53144180D01*
X111775812Y-53024482D01*
X111788072Y-52900000D01*
X111785000Y-52685750D01*
X111626250Y-52527000D01*
X110527000Y-52527000D01*
X110527000Y-52547000D01*
X110273000Y-52547000D01*
X110273000Y-52527000D01*
X109173750Y-52527000D01*
X109015000Y-52685750D01*
X109011928Y-52900000D01*
X109024188Y-53024482D01*
X109060498Y-53144180D01*
X109098353Y-53215000D01*
X106801647Y-53215000D01*
X106839502Y-53144180D01*
X106875812Y-53024482D01*
X106888072Y-52900000D01*
X106888072Y-51900000D01*
X109011928Y-51900000D01*
X109015000Y-52114250D01*
X109173750Y-52273000D01*
X110273000Y-52273000D01*
X110273000Y-51423750D01*
X110527000Y-51423750D01*
X110527000Y-52273000D01*
X111626250Y-52273000D01*
X111785000Y-52114250D01*
X111788072Y-51900000D01*
X111775812Y-51775518D01*
X111739502Y-51655820D01*
X111680537Y-51545506D01*
X111601185Y-51448815D01*
X111504494Y-51369463D01*
X111394180Y-51310498D01*
X111274482Y-51274188D01*
X111150000Y-51261928D01*
X110685750Y-51265000D01*
X110527000Y-51423750D01*
X110273000Y-51423750D01*
X110114250Y-51265000D01*
X109650000Y-51261928D01*
X109525518Y-51274188D01*
X109405820Y-51310498D01*
X109295506Y-51369463D01*
X109198815Y-51448815D01*
X109119463Y-51545506D01*
X109060498Y-51655820D01*
X109024188Y-51775518D01*
X109011928Y-51900000D01*
X106888072Y-51900000D01*
X106875812Y-51775518D01*
X106839502Y-51655820D01*
X106780537Y-51545506D01*
X106701185Y-51448815D01*
X106604494Y-51369463D01*
X106494180Y-51310498D01*
X106374482Y-51274188D01*
X106250000Y-51261928D01*
X104750000Y-51261928D01*
X104625518Y-51274188D01*
X104505820Y-51310498D01*
X104395506Y-51369463D01*
X104298815Y-51448815D01*
X104219463Y-51545506D01*
X104160498Y-51655820D01*
X104124188Y-51775518D01*
X104111928Y-51900000D01*
X97373072Y-51900000D01*
X97373072Y-51220000D01*
X97360812Y-51095518D01*
X97324502Y-50975820D01*
X97265537Y-50865506D01*
X97186185Y-50768815D01*
X97089494Y-50689463D01*
X96979180Y-50630498D01*
X96859482Y-50594188D01*
X96735000Y-50581928D01*
X95035000Y-50581928D01*
X94910518Y-50594188D01*
X94790820Y-50630498D01*
X94680506Y-50689463D01*
X94583815Y-50768815D01*
X94504463Y-50865506D01*
X94445498Y-50975820D01*
X94423487Y-51048380D01*
X94291632Y-50916525D01*
X94048411Y-50754010D01*
X93778158Y-50642068D01*
X93491260Y-50585000D01*
X93198740Y-50585000D01*
X92911842Y-50642068D01*
X92641589Y-50754010D01*
X92398368Y-50916525D01*
X92191525Y-51123368D01*
X92075000Y-51297760D01*
X91958475Y-51123368D01*
X91751632Y-50916525D01*
X91508411Y-50754010D01*
X91238158Y-50642068D01*
X90951260Y-50585000D01*
X90658740Y-50585000D01*
X90371842Y-50642068D01*
X90101589Y-50754010D01*
X89858368Y-50916525D01*
X89660000Y-51114893D01*
X89660000Y-49844801D01*
X91119802Y-48385000D01*
X104198353Y-48385000D01*
X104160498Y-48455820D01*
X104124188Y-48575518D01*
X104111928Y-48700000D01*
X104111928Y-49700000D01*
X104124188Y-49824482D01*
X104160498Y-49944180D01*
X104219463Y-50054494D01*
X104298815Y-50151185D01*
X104395506Y-50230537D01*
X104505820Y-50289502D01*
X104625518Y-50325812D01*
X104750000Y-50338072D01*
X104845674Y-50338072D01*
X104865026Y-50374276D01*
X104936201Y-50461002D01*
X104960000Y-50490001D01*
X104988998Y-50513799D01*
X105229349Y-50754150D01*
X105253152Y-50783154D01*
X105368877Y-50878127D01*
X105500906Y-50948699D01*
X105644167Y-50992156D01*
X105755820Y-51003153D01*
X105755830Y-51003153D01*
X105793153Y-51006829D01*
X105830476Y-51003153D01*
X106689442Y-51003153D01*
X106733379Y-51047090D01*
X106902897Y-51160358D01*
X107091255Y-51238379D01*
X107291214Y-51278153D01*
X107495092Y-51278153D01*
X107695051Y-51238379D01*
X107883409Y-51160358D01*
X108052927Y-51047090D01*
X108197090Y-50902927D01*
X108310358Y-50733409D01*
X108388379Y-50545051D01*
X108428153Y-50345092D01*
X108428153Y-50141214D01*
X108388379Y-49941255D01*
X108310358Y-49752897D01*
X108197090Y-49583379D01*
X108052927Y-49439216D01*
X107883409Y-49325948D01*
X107695051Y-49247927D01*
X107495092Y-49208153D01*
X107291214Y-49208153D01*
X107091255Y-49247927D01*
X106902897Y-49325948D01*
X106888072Y-49335854D01*
X106888072Y-48700000D01*
X106875812Y-48575518D01*
X106839502Y-48455820D01*
X106801647Y-48385000D01*
X109098353Y-48385000D01*
X109060498Y-48455820D01*
X109024188Y-48575518D01*
X109011928Y-48700000D01*
X109011928Y-49700000D01*
X109024188Y-49824482D01*
X109060498Y-49944180D01*
X109119463Y-50054494D01*
X109198815Y-50151185D01*
X109295506Y-50230537D01*
X109405820Y-50289502D01*
X109525518Y-50325812D01*
X109650000Y-50338072D01*
X111150000Y-50338072D01*
X111274482Y-50325812D01*
X111394180Y-50289502D01*
X111504494Y-50230537D01*
X111601185Y-50151185D01*
X111680537Y-50054494D01*
X111739502Y-49944180D01*
X111775812Y-49824482D01*
X111788072Y-49700000D01*
X111788072Y-48700000D01*
X111775812Y-48575518D01*
X111739502Y-48455820D01*
X111680537Y-48345506D01*
X111601185Y-48248815D01*
X111504494Y-48169463D01*
X111394180Y-48110498D01*
X111274482Y-48074188D01*
X111150000Y-48061928D01*
X111054326Y-48061928D01*
X111034974Y-48025724D01*
X110940001Y-47909999D01*
X110911004Y-47886202D01*
X110138803Y-47114002D01*
X110115001Y-47084999D01*
X109999276Y-46990026D01*
X109867247Y-46919454D01*
X109723986Y-46875997D01*
X109612333Y-46865000D01*
X109612322Y-46865000D01*
X109575000Y-46861324D01*
X109537678Y-46865000D01*
X90842323Y-46865000D01*
X90805000Y-46861324D01*
X90767677Y-46865000D01*
X90767667Y-46865000D01*
X90656014Y-46875997D01*
X90512753Y-46919454D01*
X90380724Y-46990026D01*
X90264999Y-47084999D01*
X90241201Y-47113997D01*
X88388998Y-48966201D01*
X88360000Y-48989999D01*
X88336202Y-49018997D01*
X88336201Y-49018998D01*
X88265026Y-49105724D01*
X88194454Y-49237754D01*
X88175512Y-49300201D01*
X88150998Y-49381014D01*
X88140042Y-49492247D01*
X88136324Y-49530000D01*
X88140001Y-49567332D01*
X88140000Y-51755198D01*
X86680199Y-53215000D01*
X82491647Y-53215000D01*
X82529502Y-53144180D01*
X82565812Y-53024482D01*
X82578072Y-52900000D01*
X82575000Y-52685750D01*
X82416250Y-52527000D01*
X81317000Y-52527000D01*
X81317000Y-52547000D01*
X81063000Y-52547000D01*
X81063000Y-52527000D01*
X79963750Y-52527000D01*
X79805000Y-52685750D01*
X79801928Y-52900000D01*
X79814188Y-53024482D01*
X79850498Y-53144180D01*
X79888353Y-53215000D01*
X77591647Y-53215000D01*
X77629502Y-53144180D01*
X77665812Y-53024482D01*
X77678072Y-52900000D01*
X77678072Y-51900000D01*
X79801928Y-51900000D01*
X79805000Y-52114250D01*
X79963750Y-52273000D01*
X81063000Y-52273000D01*
X81063000Y-51423750D01*
X81317000Y-51423750D01*
X81317000Y-52273000D01*
X82416250Y-52273000D01*
X82575000Y-52114250D01*
X82578072Y-51900000D01*
X82565812Y-51775518D01*
X82529502Y-51655820D01*
X82470537Y-51545506D01*
X82391185Y-51448815D01*
X82294494Y-51369463D01*
X82184180Y-51310498D01*
X82064482Y-51274188D01*
X81940000Y-51261928D01*
X81475750Y-51265000D01*
X81317000Y-51423750D01*
X81063000Y-51423750D01*
X80904250Y-51265000D01*
X80440000Y-51261928D01*
X80315518Y-51274188D01*
X80195820Y-51310498D01*
X80085506Y-51369463D01*
X79988815Y-51448815D01*
X79909463Y-51545506D01*
X79850498Y-51655820D01*
X79814188Y-51775518D01*
X79801928Y-51900000D01*
X77678072Y-51900000D01*
X77665812Y-51775518D01*
X77629502Y-51655820D01*
X77570537Y-51545506D01*
X77491185Y-51448815D01*
X77394494Y-51369463D01*
X77284180Y-51310498D01*
X77164482Y-51274188D01*
X77040000Y-51261928D01*
X75540000Y-51261928D01*
X75415518Y-51274188D01*
X75295820Y-51310498D01*
X75185506Y-51369463D01*
X75088815Y-51448815D01*
X75009463Y-51545506D01*
X74950498Y-51655820D01*
X74914188Y-51775518D01*
X74901928Y-51900000D01*
X74901928Y-52900000D01*
X74914188Y-53024482D01*
X74950498Y-53144180D01*
X75009463Y-53254494D01*
X75088815Y-53351185D01*
X75185506Y-53430537D01*
X75295820Y-53489502D01*
X75415518Y-53525812D01*
X75540000Y-53538072D01*
X75635674Y-53538072D01*
X75655026Y-53574276D01*
X75708371Y-53639276D01*
X75750000Y-53690001D01*
X75778998Y-53713799D01*
X76551201Y-54486002D01*
X76574999Y-54515001D01*
X76690724Y-54609974D01*
X76822753Y-54680546D01*
X76966014Y-54724003D01*
X77077667Y-54735000D01*
X77077676Y-54735000D01*
X77114999Y-54738676D01*
X77152322Y-54735000D01*
X86957678Y-54735000D01*
X86995000Y-54738676D01*
X87032322Y-54735000D01*
X87032333Y-54735000D01*
X87068790Y-54731409D01*
X86483998Y-55316201D01*
X86455000Y-55339999D01*
X86431202Y-55368997D01*
X86431201Y-55368998D01*
X86360026Y-55455724D01*
X86289454Y-55587754D01*
X86282775Y-55609774D01*
X86245997Y-55731014D01*
X86235000Y-55842667D01*
X86235000Y-55842678D01*
X86231324Y-55880000D01*
X86233562Y-55902727D01*
X86191063Y-55945226D01*
X86077795Y-56114744D01*
X85999774Y-56303102D01*
X85960000Y-56503061D01*
X85960000Y-56706939D01*
X85999774Y-56906898D01*
X86048694Y-57025000D01*
X64172322Y-57025000D01*
X64134999Y-57021324D01*
X64097676Y-57025000D01*
X64097667Y-57025000D01*
X63986014Y-57035997D01*
X63842753Y-57079454D01*
X63710724Y-57150026D01*
X63710722Y-57150027D01*
X63710723Y-57150027D01*
X63623996Y-57221201D01*
X63623992Y-57221205D01*
X63594999Y-57244999D01*
X63571205Y-57273992D01*
X61555199Y-59290000D01*
X61493061Y-59290000D01*
X61293102Y-59329774D01*
X61104744Y-59407795D01*
X60935226Y-59521063D01*
X60791063Y-59665226D01*
X60677795Y-59834744D01*
X60599774Y-60023102D01*
X60560000Y-60223061D01*
X60560000Y-60426939D01*
X60599774Y-60626898D01*
X60677795Y-60815256D01*
X60791063Y-60984774D01*
X60935226Y-61128937D01*
X61104744Y-61242205D01*
X61189953Y-61277500D01*
X61104744Y-61312795D01*
X60935226Y-61426063D01*
X60791063Y-61570226D01*
X60677795Y-61739744D01*
X60599774Y-61928102D01*
X60560000Y-62128061D01*
X60560000Y-62331939D01*
X60599774Y-62531898D01*
X60677795Y-62720256D01*
X60791063Y-62889774D01*
X60935226Y-63033937D01*
X61104744Y-63147205D01*
X61293102Y-63225226D01*
X61493061Y-63265000D01*
X61696939Y-63265000D01*
X61896898Y-63225226D01*
X62085256Y-63147205D01*
X62093503Y-63141695D01*
X52987553Y-72247646D01*
X52974180Y-72240498D01*
X52854482Y-72204188D01*
X52730000Y-72191928D01*
X51230000Y-72191928D01*
X51105518Y-72204188D01*
X50985820Y-72240498D01*
X50875506Y-72299463D01*
X50778815Y-72378815D01*
X50699463Y-72475506D01*
X50640498Y-72585820D01*
X50604188Y-72705518D01*
X50591928Y-72830000D01*
X48654801Y-72830000D01*
X48643804Y-72819003D01*
X48620001Y-72789999D01*
X48504276Y-72695026D01*
X48442634Y-72662077D01*
X48419502Y-72585820D01*
X48360537Y-72475506D01*
X48281185Y-72378815D01*
X48184494Y-72299463D01*
X48074180Y-72240498D01*
X47954482Y-72204188D01*
X47830000Y-72191928D01*
X46330000Y-72191928D01*
X46205518Y-72204188D01*
X46085820Y-72240498D01*
X45975506Y-72299463D01*
X45878815Y-72378815D01*
X45799463Y-72475506D01*
X45740498Y-72585820D01*
X45704188Y-72705518D01*
X45691928Y-72830000D01*
X45691928Y-73830000D01*
X45704188Y-73954482D01*
X45740498Y-74074180D01*
X45799463Y-74184494D01*
X45878815Y-74281185D01*
X45975506Y-74360537D01*
X46085820Y-74419502D01*
X46205518Y-74455812D01*
X46330000Y-74468072D01*
X47584613Y-74468072D01*
X47499101Y-74596050D01*
X47421080Y-74784408D01*
X47417382Y-74803000D01*
X38125000Y-74803000D01*
X38125000Y-74552285D01*
X37977623Y-73811372D01*
X37688533Y-73113446D01*
X37268839Y-72485330D01*
X36734670Y-71951161D01*
X36106554Y-71531467D01*
X35408628Y-71242377D01*
X34667715Y-71095000D01*
X34417000Y-71095000D01*
X34417000Y-64623740D01*
X42965000Y-64623740D01*
X42965000Y-64916260D01*
X43022068Y-65203158D01*
X43134010Y-65473411D01*
X43296525Y-65716632D01*
X43503368Y-65923475D01*
X43746589Y-66085990D01*
X44016842Y-66197932D01*
X44303740Y-66255000D01*
X44596260Y-66255000D01*
X44883158Y-66197932D01*
X45153411Y-66085990D01*
X45396632Y-65923475D01*
X45603475Y-65716632D01*
X45765990Y-65473411D01*
X45877932Y-65203158D01*
X45935000Y-64916260D01*
X45935000Y-64623740D01*
X45912471Y-64510475D01*
X46895000Y-64510475D01*
X46895000Y-65029525D01*
X46996261Y-65538601D01*
X47194893Y-66018141D01*
X47483262Y-66449715D01*
X47850285Y-66816738D01*
X48281859Y-67105107D01*
X48761399Y-67303739D01*
X49270475Y-67405000D01*
X49789525Y-67405000D01*
X50298601Y-67303739D01*
X50778141Y-67105107D01*
X51209715Y-66816738D01*
X51576738Y-66449715D01*
X51865107Y-66018141D01*
X52063739Y-65538601D01*
X52165000Y-65029525D01*
X52165000Y-64623740D01*
X53125000Y-64623740D01*
X53125000Y-64916260D01*
X53182068Y-65203158D01*
X53294010Y-65473411D01*
X53456525Y-65716632D01*
X53663368Y-65923475D01*
X53906589Y-66085990D01*
X54176842Y-66197932D01*
X54463740Y-66255000D01*
X54756260Y-66255000D01*
X55043158Y-66197932D01*
X55313411Y-66085990D01*
X55556632Y-65923475D01*
X55763475Y-65716632D01*
X55925990Y-65473411D01*
X56037932Y-65203158D01*
X56095000Y-64916260D01*
X56095000Y-64623740D01*
X56037932Y-64336842D01*
X55925990Y-64066589D01*
X55763475Y-63823368D01*
X55556632Y-63616525D01*
X55313411Y-63454010D01*
X55043158Y-63342068D01*
X54756260Y-63285000D01*
X54463740Y-63285000D01*
X54176842Y-63342068D01*
X53906589Y-63454010D01*
X53663368Y-63616525D01*
X53456525Y-63823368D01*
X53294010Y-64066589D01*
X53182068Y-64336842D01*
X53125000Y-64623740D01*
X52165000Y-64623740D01*
X52165000Y-64510475D01*
X52063739Y-64001399D01*
X51865107Y-63521859D01*
X51576738Y-63090285D01*
X51209715Y-62723262D01*
X50778141Y-62434893D01*
X50298601Y-62236261D01*
X49789525Y-62135000D01*
X49270475Y-62135000D01*
X48761399Y-62236261D01*
X48281859Y-62434893D01*
X47850285Y-62723262D01*
X47483262Y-63090285D01*
X47194893Y-63521859D01*
X46996261Y-64001399D01*
X46895000Y-64510475D01*
X45912471Y-64510475D01*
X45877932Y-64336842D01*
X45765990Y-64066589D01*
X45698110Y-63965000D01*
X45890883Y-63965000D01*
X46226081Y-63898325D01*
X46541831Y-63767537D01*
X46825998Y-63577663D01*
X47067663Y-63335998D01*
X47257537Y-63051831D01*
X47388325Y-62736081D01*
X47455000Y-62400883D01*
X47455000Y-62059117D01*
X47388325Y-61723919D01*
X47257537Y-61408169D01*
X47067663Y-61124002D01*
X46840373Y-60896712D01*
X51042893Y-60896712D01*
X51150726Y-61171338D01*
X51457384Y-61322216D01*
X51787585Y-61410369D01*
X52128639Y-61432409D01*
X52467439Y-61387489D01*
X52790966Y-61277336D01*
X52989274Y-61171338D01*
X53097107Y-60896712D01*
X52070000Y-59869605D01*
X51042893Y-60896712D01*
X46840373Y-60896712D01*
X46825998Y-60882337D01*
X46541831Y-60692463D01*
X46226081Y-60561675D01*
X45890883Y-60495000D01*
X45549117Y-60495000D01*
X45213919Y-60561675D01*
X44898169Y-60692463D01*
X44614002Y-60882337D01*
X44372337Y-61124002D01*
X44182463Y-61408169D01*
X44051675Y-61723919D01*
X43985000Y-62059117D01*
X43985000Y-62400883D01*
X44051675Y-62736081D01*
X44182463Y-63051831D01*
X44338261Y-63285000D01*
X44303740Y-63285000D01*
X44016842Y-63342068D01*
X43746589Y-63454010D01*
X43503368Y-63616525D01*
X43296525Y-63823368D01*
X43134010Y-64066589D01*
X43022068Y-64336842D01*
X42965000Y-64623740D01*
X34417000Y-64623740D01*
X34417000Y-59748639D01*
X50327591Y-59748639D01*
X50372511Y-60087439D01*
X50482664Y-60410966D01*
X50588662Y-60609274D01*
X50863288Y-60717107D01*
X51890395Y-59690000D01*
X52249605Y-59690000D01*
X53276712Y-60717107D01*
X53551338Y-60609274D01*
X53702216Y-60302616D01*
X53790369Y-59972415D01*
X53812409Y-59631361D01*
X53767489Y-59292561D01*
X53657336Y-58969034D01*
X53551338Y-58770726D01*
X53276712Y-58662893D01*
X52249605Y-59690000D01*
X51890395Y-59690000D01*
X50863288Y-58662893D01*
X50588662Y-58770726D01*
X50437784Y-59077384D01*
X50349631Y-59407585D01*
X50327591Y-59748639D01*
X34417000Y-59748639D01*
X34417000Y-58483288D01*
X51042893Y-58483288D01*
X52070000Y-59510395D01*
X53097107Y-58483288D01*
X52989274Y-58208662D01*
X52682616Y-58057784D01*
X52352415Y-57969631D01*
X52011361Y-57947591D01*
X51672561Y-57992511D01*
X51349034Y-58102664D01*
X51150726Y-58208662D01*
X51042893Y-58483288D01*
X34417000Y-58483288D01*
X34417000Y-51900000D01*
X45691928Y-51900000D01*
X45691928Y-52900000D01*
X45704188Y-53024482D01*
X45740498Y-53144180D01*
X45799463Y-53254494D01*
X45878815Y-53351185D01*
X45975506Y-53430537D01*
X46085820Y-53489502D01*
X46205518Y-53525812D01*
X46330000Y-53538072D01*
X46425674Y-53538072D01*
X46445026Y-53574276D01*
X46498371Y-53639276D01*
X46540000Y-53690001D01*
X46568998Y-53713799D01*
X47341201Y-54486002D01*
X47364999Y-54515001D01*
X47480724Y-54609974D01*
X47612753Y-54680546D01*
X47756014Y-54724003D01*
X47867667Y-54735000D01*
X47867676Y-54735000D01*
X47904999Y-54738676D01*
X47942322Y-54735000D01*
X60922678Y-54735000D01*
X60960000Y-54738676D01*
X60997322Y-54735000D01*
X60997333Y-54735000D01*
X61108986Y-54724003D01*
X61252247Y-54680546D01*
X61384276Y-54609974D01*
X61500001Y-54515001D01*
X61523804Y-54485997D01*
X67624802Y-48385000D01*
X71454167Y-48385000D01*
X71453720Y-48385669D01*
X71375699Y-48574027D01*
X71335925Y-48773986D01*
X71335925Y-48977864D01*
X71375699Y-49177823D01*
X71453720Y-49366181D01*
X71566988Y-49535699D01*
X71711151Y-49679862D01*
X71880669Y-49793130D01*
X72069027Y-49871151D01*
X72268986Y-49910925D01*
X72472864Y-49910925D01*
X72672823Y-49871151D01*
X72861181Y-49793130D01*
X73030699Y-49679862D01*
X73074636Y-49635925D01*
X74901928Y-49635925D01*
X74901928Y-49700000D01*
X74914188Y-49824482D01*
X74950498Y-49944180D01*
X75009463Y-50054494D01*
X75088815Y-50151185D01*
X75185506Y-50230537D01*
X75295820Y-50289502D01*
X75415518Y-50325812D01*
X75540000Y-50338072D01*
X75635674Y-50338072D01*
X75655026Y-50374276D01*
X75726201Y-50461002D01*
X75750000Y-50490001D01*
X75778998Y-50513799D01*
X76019349Y-50754150D01*
X76043152Y-50783154D01*
X76158877Y-50878127D01*
X76290906Y-50948699D01*
X76434167Y-50992156D01*
X76545820Y-51003153D01*
X76545830Y-51003153D01*
X76583153Y-51006829D01*
X76620476Y-51003153D01*
X77479442Y-51003153D01*
X77523379Y-51047090D01*
X77692897Y-51160358D01*
X77881255Y-51238379D01*
X78081214Y-51278153D01*
X78285092Y-51278153D01*
X78485051Y-51238379D01*
X78673409Y-51160358D01*
X78842927Y-51047090D01*
X78987090Y-50902927D01*
X79100358Y-50733409D01*
X79178379Y-50545051D01*
X79218153Y-50345092D01*
X79218153Y-50141214D01*
X79178379Y-49941255D01*
X79100358Y-49752897D01*
X78987090Y-49583379D01*
X78842927Y-49439216D01*
X78673409Y-49325948D01*
X78485051Y-49247927D01*
X78285092Y-49208153D01*
X78081214Y-49208153D01*
X77881255Y-49247927D01*
X77692897Y-49325948D01*
X77678072Y-49335854D01*
X77678072Y-48700000D01*
X77665812Y-48575518D01*
X77629502Y-48455820D01*
X77591647Y-48385000D01*
X79888353Y-48385000D01*
X79850498Y-48455820D01*
X79814188Y-48575518D01*
X79801928Y-48700000D01*
X79801928Y-49700000D01*
X79814188Y-49824482D01*
X79850498Y-49944180D01*
X79909463Y-50054494D01*
X79988815Y-50151185D01*
X80085506Y-50230537D01*
X80195820Y-50289502D01*
X80315518Y-50325812D01*
X80440000Y-50338072D01*
X81940000Y-50338072D01*
X82064482Y-50325812D01*
X82184180Y-50289502D01*
X82294494Y-50230537D01*
X82391185Y-50151185D01*
X82470537Y-50054494D01*
X82529502Y-49944180D01*
X82565812Y-49824482D01*
X82578072Y-49700000D01*
X82578072Y-48700000D01*
X82565812Y-48575518D01*
X82529502Y-48455820D01*
X82470537Y-48345506D01*
X82391185Y-48248815D01*
X82294494Y-48169463D01*
X82184180Y-48110498D01*
X82064482Y-48074188D01*
X81940000Y-48061928D01*
X81844326Y-48061928D01*
X81824974Y-48025724D01*
X81730001Y-47909999D01*
X81701004Y-47886202D01*
X80928803Y-47114002D01*
X80905001Y-47084999D01*
X80789276Y-46990026D01*
X80657247Y-46919454D01*
X80513986Y-46875997D01*
X80402333Y-46865000D01*
X80402322Y-46865000D01*
X80365000Y-46861324D01*
X80327678Y-46865000D01*
X67347322Y-46865000D01*
X67309999Y-46861324D01*
X67272676Y-46865000D01*
X67272667Y-46865000D01*
X67161014Y-46875997D01*
X67017753Y-46919454D01*
X66885723Y-46990026D01*
X66802083Y-47058668D01*
X66769999Y-47084999D01*
X66746201Y-47113997D01*
X63689379Y-50170820D01*
X63668937Y-50140226D01*
X63524774Y-49996063D01*
X63355256Y-49882795D01*
X63166898Y-49804774D01*
X62966939Y-49765000D01*
X62763061Y-49765000D01*
X62563102Y-49804774D01*
X62374744Y-49882795D01*
X62205226Y-49996063D01*
X62161289Y-50040000D01*
X55559802Y-50040000D01*
X54312863Y-48793061D01*
X60560000Y-48793061D01*
X60560000Y-48996939D01*
X60599774Y-49196898D01*
X60677795Y-49385256D01*
X60791063Y-49554774D01*
X60935226Y-49698937D01*
X61104744Y-49812205D01*
X61293102Y-49890226D01*
X61493061Y-49930000D01*
X61696939Y-49930000D01*
X61896898Y-49890226D01*
X62085256Y-49812205D01*
X62254774Y-49698937D01*
X62398937Y-49554774D01*
X62512205Y-49385256D01*
X62590226Y-49196898D01*
X62630000Y-48996939D01*
X62630000Y-48793061D01*
X62590226Y-48593102D01*
X62512205Y-48404744D01*
X62398937Y-48235226D01*
X62355000Y-48191289D01*
X62355000Y-47304801D01*
X65084802Y-44575000D01*
X126042044Y-44575000D01*
X126079366Y-44578676D01*
X126116688Y-44575000D01*
X126116699Y-44575000D01*
X126228352Y-44564003D01*
X126371613Y-44520546D01*
X126503642Y-44449974D01*
X126619367Y-44355001D01*
X126643170Y-44325997D01*
X130624690Y-40344477D01*
X130595000Y-40493740D01*
X130595000Y-40786260D01*
X130652068Y-41073158D01*
X130764010Y-41343411D01*
X130926525Y-41586632D01*
X131133368Y-41793475D01*
X131376589Y-41955990D01*
X131646842Y-42067932D01*
X131933740Y-42125000D01*
X132226260Y-42125000D01*
X132513158Y-42067932D01*
X132783411Y-41955990D01*
X133026632Y-41793475D01*
X133233475Y-41586632D01*
X133395990Y-41343411D01*
X133507932Y-41073158D01*
X133565000Y-40786260D01*
X133565000Y-40493740D01*
X133542471Y-40380475D01*
X134525000Y-40380475D01*
X134525000Y-40899525D01*
X134626261Y-41408601D01*
X134824893Y-41888141D01*
X135113262Y-42319715D01*
X135480285Y-42686738D01*
X135911859Y-42975107D01*
X136391399Y-43173739D01*
X136900475Y-43275000D01*
X137419525Y-43275000D01*
X137928601Y-43173739D01*
X138408141Y-42975107D01*
X138839715Y-42686738D01*
X139206738Y-42319715D01*
X139495107Y-41888141D01*
X139693739Y-41408601D01*
X139795000Y-40899525D01*
X139795000Y-40493740D01*
X140755000Y-40493740D01*
X140755000Y-40786260D01*
X140812068Y-41073158D01*
X140924010Y-41343411D01*
X141086525Y-41586632D01*
X141293368Y-41793475D01*
X141536589Y-41955990D01*
X141806842Y-42067932D01*
X142093740Y-42125000D01*
X142386260Y-42125000D01*
X142673158Y-42067932D01*
X142943411Y-41955990D01*
X143186632Y-41793475D01*
X143393475Y-41586632D01*
X143555990Y-41343411D01*
X143667932Y-41073158D01*
X143725000Y-40786260D01*
X143725000Y-40493740D01*
X143667932Y-40206842D01*
X143555990Y-39936589D01*
X143393475Y-39693368D01*
X143186632Y-39486525D01*
X142943411Y-39324010D01*
X142673158Y-39212068D01*
X142386260Y-39155000D01*
X142093740Y-39155000D01*
X141806842Y-39212068D01*
X141536589Y-39324010D01*
X141293368Y-39486525D01*
X141086525Y-39693368D01*
X140924010Y-39936589D01*
X140812068Y-40206842D01*
X140755000Y-40493740D01*
X139795000Y-40493740D01*
X139795000Y-40380475D01*
X139693739Y-39871399D01*
X139495107Y-39391859D01*
X139206738Y-38960285D01*
X138839715Y-38593262D01*
X138408141Y-38304893D01*
X137928601Y-38106261D01*
X137419525Y-38005000D01*
X136900475Y-38005000D01*
X136391399Y-38106261D01*
X135911859Y-38304893D01*
X135480285Y-38593262D01*
X135113262Y-38960285D01*
X134824893Y-39391859D01*
X134626261Y-39871399D01*
X134525000Y-40380475D01*
X133542471Y-40380475D01*
X133507932Y-40206842D01*
X133395990Y-39936589D01*
X133328110Y-39835000D01*
X133520883Y-39835000D01*
X133856081Y-39768325D01*
X134171831Y-39637537D01*
X134455998Y-39447663D01*
X134697663Y-39205998D01*
X134887537Y-38921831D01*
X135018325Y-38606081D01*
X135085000Y-38270883D01*
X135085000Y-37929117D01*
X135018325Y-37593919D01*
X134887537Y-37278169D01*
X134697663Y-36994002D01*
X134470373Y-36766712D01*
X138672893Y-36766712D01*
X138780726Y-37041338D01*
X139087384Y-37192216D01*
X139417585Y-37280369D01*
X139758639Y-37302409D01*
X140097439Y-37257489D01*
X140420966Y-37147336D01*
X140619274Y-37041338D01*
X140727107Y-36766712D01*
X139700000Y-35739605D01*
X138672893Y-36766712D01*
X134470373Y-36766712D01*
X134455998Y-36752337D01*
X134171831Y-36562463D01*
X133856081Y-36431675D01*
X133520883Y-36365000D01*
X133179117Y-36365000D01*
X132843919Y-36431675D01*
X132528169Y-36562463D01*
X132244002Y-36752337D01*
X132002337Y-36994002D01*
X131812463Y-37278169D01*
X131788120Y-37336938D01*
X131757033Y-37340000D01*
X131645380Y-37350997D01*
X131502119Y-37394454D01*
X131370090Y-37465026D01*
X131254365Y-37559999D01*
X131230567Y-37588997D01*
X125764565Y-43055000D01*
X109005262Y-43055000D01*
X109198141Y-42975107D01*
X109629715Y-42686738D01*
X109996738Y-42319715D01*
X110285107Y-41888141D01*
X110483739Y-41408601D01*
X110585000Y-40899525D01*
X110585000Y-40493740D01*
X111545000Y-40493740D01*
X111545000Y-40786260D01*
X111602068Y-41073158D01*
X111714010Y-41343411D01*
X111876525Y-41586632D01*
X112083368Y-41793475D01*
X112326589Y-41955990D01*
X112596842Y-42067932D01*
X112883740Y-42125000D01*
X113176260Y-42125000D01*
X113463158Y-42067932D01*
X113733411Y-41955990D01*
X113976632Y-41793475D01*
X114183475Y-41586632D01*
X114345990Y-41343411D01*
X114457932Y-41073158D01*
X114515000Y-40786260D01*
X114515000Y-40493740D01*
X114457932Y-40206842D01*
X114345990Y-39936589D01*
X114183475Y-39693368D01*
X113976632Y-39486525D01*
X113733411Y-39324010D01*
X113463158Y-39212068D01*
X113176260Y-39155000D01*
X112883740Y-39155000D01*
X112596842Y-39212068D01*
X112326589Y-39324010D01*
X112083368Y-39486525D01*
X111876525Y-39693368D01*
X111714010Y-39936589D01*
X111602068Y-40206842D01*
X111545000Y-40493740D01*
X110585000Y-40493740D01*
X110585000Y-40380475D01*
X110483739Y-39871399D01*
X110285107Y-39391859D01*
X109996738Y-38960285D01*
X109629715Y-38593262D01*
X109198141Y-38304893D01*
X108718601Y-38106261D01*
X108209525Y-38005000D01*
X107690475Y-38005000D01*
X107181399Y-38106261D01*
X106701859Y-38304893D01*
X106270285Y-38593262D01*
X105903262Y-38960285D01*
X105614893Y-39391859D01*
X105416261Y-39871399D01*
X105315000Y-40380475D01*
X105315000Y-40899525D01*
X105416261Y-41408601D01*
X105614893Y-41888141D01*
X105903262Y-42319715D01*
X106270285Y-42686738D01*
X106701859Y-42975107D01*
X106894738Y-43055000D01*
X79795262Y-43055000D01*
X79988141Y-42975107D01*
X80419715Y-42686738D01*
X80786738Y-42319715D01*
X81075107Y-41888141D01*
X81273739Y-41408601D01*
X81375000Y-40899525D01*
X81375000Y-40493740D01*
X82335000Y-40493740D01*
X82335000Y-40786260D01*
X82392068Y-41073158D01*
X82504010Y-41343411D01*
X82666525Y-41586632D01*
X82873368Y-41793475D01*
X83116589Y-41955990D01*
X83386842Y-42067932D01*
X83673740Y-42125000D01*
X83966260Y-42125000D01*
X84253158Y-42067932D01*
X84523411Y-41955990D01*
X84766632Y-41793475D01*
X84973475Y-41586632D01*
X85135990Y-41343411D01*
X85247932Y-41073158D01*
X85305000Y-40786260D01*
X85305000Y-40493740D01*
X101385000Y-40493740D01*
X101385000Y-40786260D01*
X101442068Y-41073158D01*
X101554010Y-41343411D01*
X101716525Y-41586632D01*
X101923368Y-41793475D01*
X102166589Y-41955990D01*
X102436842Y-42067932D01*
X102723740Y-42125000D01*
X103016260Y-42125000D01*
X103303158Y-42067932D01*
X103573411Y-41955990D01*
X103816632Y-41793475D01*
X104023475Y-41586632D01*
X104185990Y-41343411D01*
X104297932Y-41073158D01*
X104355000Y-40786260D01*
X104355000Y-40493740D01*
X104297932Y-40206842D01*
X104185990Y-39936589D01*
X104118110Y-39835000D01*
X104310883Y-39835000D01*
X104646081Y-39768325D01*
X104961831Y-39637537D01*
X105245998Y-39447663D01*
X105487663Y-39205998D01*
X105677537Y-38921831D01*
X105808325Y-38606081D01*
X105875000Y-38270883D01*
X105875000Y-37929117D01*
X105808325Y-37593919D01*
X105677537Y-37278169D01*
X105487663Y-36994002D01*
X105260373Y-36766712D01*
X109462893Y-36766712D01*
X109570726Y-37041338D01*
X109877384Y-37192216D01*
X110207585Y-37280369D01*
X110548639Y-37302409D01*
X110887439Y-37257489D01*
X111210966Y-37147336D01*
X111409274Y-37041338D01*
X111517107Y-36766712D01*
X110490000Y-35739605D01*
X109462893Y-36766712D01*
X105260373Y-36766712D01*
X105245998Y-36752337D01*
X104961831Y-36562463D01*
X104646081Y-36431675D01*
X104310883Y-36365000D01*
X103969117Y-36365000D01*
X103633919Y-36431675D01*
X103318169Y-36562463D01*
X103034002Y-36752337D01*
X102792337Y-36994002D01*
X102602463Y-37278169D01*
X102471675Y-37593919D01*
X102405000Y-37929117D01*
X102405000Y-38270883D01*
X102471675Y-38606081D01*
X102602463Y-38921831D01*
X102758261Y-39155000D01*
X102723740Y-39155000D01*
X102436842Y-39212068D01*
X102166589Y-39324010D01*
X101923368Y-39486525D01*
X101716525Y-39693368D01*
X101554010Y-39936589D01*
X101442068Y-40206842D01*
X101385000Y-40493740D01*
X85305000Y-40493740D01*
X85247932Y-40206842D01*
X85135990Y-39936589D01*
X84973475Y-39693368D01*
X84766632Y-39486525D01*
X84523411Y-39324010D01*
X84253158Y-39212068D01*
X83966260Y-39155000D01*
X83673740Y-39155000D01*
X83386842Y-39212068D01*
X83116589Y-39324010D01*
X82873368Y-39486525D01*
X82666525Y-39693368D01*
X82504010Y-39936589D01*
X82392068Y-40206842D01*
X82335000Y-40493740D01*
X81375000Y-40493740D01*
X81375000Y-40380475D01*
X81273739Y-39871399D01*
X81075107Y-39391859D01*
X80786738Y-38960285D01*
X80419715Y-38593262D01*
X79988141Y-38304893D01*
X79508601Y-38106261D01*
X78999525Y-38005000D01*
X78480475Y-38005000D01*
X77971399Y-38106261D01*
X77491859Y-38304893D01*
X77060285Y-38593262D01*
X76693262Y-38960285D01*
X76404893Y-39391859D01*
X76206261Y-39871399D01*
X76105000Y-40380475D01*
X76105000Y-40899525D01*
X76206261Y-41408601D01*
X76404893Y-41888141D01*
X76693262Y-42319715D01*
X77060285Y-42686738D01*
X77491859Y-42975107D01*
X77684738Y-43055000D01*
X64807322Y-43055000D01*
X64769999Y-43051324D01*
X64732676Y-43055000D01*
X64732667Y-43055000D01*
X64621014Y-43065997D01*
X64477753Y-43109454D01*
X64345723Y-43180026D01*
X64262083Y-43248668D01*
X64229999Y-43274999D01*
X64206201Y-43303997D01*
X61084003Y-46426196D01*
X61054999Y-46449999D01*
X60999871Y-46517174D01*
X60960026Y-46565724D01*
X60889455Y-46697753D01*
X60889454Y-46697754D01*
X60845997Y-46841015D01*
X60835000Y-46952668D01*
X60835000Y-46952678D01*
X60831324Y-46990000D01*
X60835000Y-47027323D01*
X60835001Y-48191288D01*
X60791063Y-48235226D01*
X60677795Y-48404744D01*
X60599774Y-48593102D01*
X60560000Y-48793061D01*
X54312863Y-48793061D01*
X54208804Y-48689003D01*
X54185001Y-48659999D01*
X54069276Y-48565026D01*
X53937247Y-48494454D01*
X53793986Y-48450997D01*
X53682333Y-48440000D01*
X53682322Y-48440000D01*
X53645000Y-48436324D01*
X53607678Y-48440000D01*
X53311046Y-48440000D01*
X53260537Y-48345506D01*
X53181185Y-48248815D01*
X53084494Y-48169463D01*
X52974180Y-48110498D01*
X52854482Y-48074188D01*
X52730000Y-48061928D01*
X51230000Y-48061928D01*
X51105518Y-48074188D01*
X50985820Y-48110498D01*
X50875506Y-48169463D01*
X50778815Y-48248815D01*
X50699463Y-48345506D01*
X50640498Y-48455820D01*
X50604188Y-48575518D01*
X50591928Y-48700000D01*
X50591928Y-49700000D01*
X50604188Y-49824482D01*
X50640498Y-49944180D01*
X50699463Y-50054494D01*
X50778815Y-50151185D01*
X50875506Y-50230537D01*
X50985820Y-50289502D01*
X51105518Y-50325812D01*
X51230000Y-50338072D01*
X52730000Y-50338072D01*
X52854482Y-50325812D01*
X52974180Y-50289502D01*
X53084494Y-50230537D01*
X53181185Y-50151185D01*
X53260537Y-50054494D01*
X53311046Y-49960000D01*
X53330199Y-49960000D01*
X54681201Y-51311003D01*
X54704999Y-51340001D01*
X54820724Y-51434974D01*
X54952753Y-51505546D01*
X55096014Y-51549003D01*
X55207667Y-51560000D01*
X55207675Y-51560000D01*
X55245000Y-51563676D01*
X55282325Y-51560000D01*
X62161289Y-51560000D01*
X62205226Y-51603937D01*
X62235820Y-51624379D01*
X60645199Y-53215000D01*
X53281647Y-53215000D01*
X53319502Y-53144180D01*
X53355812Y-53024482D01*
X53368072Y-52900000D01*
X53365000Y-52685750D01*
X53206250Y-52527000D01*
X52107000Y-52527000D01*
X52107000Y-52547000D01*
X51853000Y-52547000D01*
X51853000Y-52527000D01*
X50753750Y-52527000D01*
X50595000Y-52685750D01*
X50591928Y-52900000D01*
X50604188Y-53024482D01*
X50640498Y-53144180D01*
X50678353Y-53215000D01*
X48381647Y-53215000D01*
X48419502Y-53144180D01*
X48455812Y-53024482D01*
X48468072Y-52900000D01*
X48468072Y-51900000D01*
X50591928Y-51900000D01*
X50595000Y-52114250D01*
X50753750Y-52273000D01*
X51853000Y-52273000D01*
X51853000Y-51423750D01*
X52107000Y-51423750D01*
X52107000Y-52273000D01*
X53206250Y-52273000D01*
X53365000Y-52114250D01*
X53368072Y-51900000D01*
X53355812Y-51775518D01*
X53319502Y-51655820D01*
X53260537Y-51545506D01*
X53181185Y-51448815D01*
X53084494Y-51369463D01*
X52974180Y-51310498D01*
X52854482Y-51274188D01*
X52730000Y-51261928D01*
X52265750Y-51265000D01*
X52107000Y-51423750D01*
X51853000Y-51423750D01*
X51694250Y-51265000D01*
X51230000Y-51261928D01*
X51105518Y-51274188D01*
X50985820Y-51310498D01*
X50875506Y-51369463D01*
X50778815Y-51448815D01*
X50699463Y-51545506D01*
X50640498Y-51655820D01*
X50604188Y-51775518D01*
X50591928Y-51900000D01*
X48468072Y-51900000D01*
X48455812Y-51775518D01*
X48419502Y-51655820D01*
X48360537Y-51545506D01*
X48281185Y-51448815D01*
X48184494Y-51369463D01*
X48074180Y-51310498D01*
X47954482Y-51274188D01*
X47830000Y-51261928D01*
X46330000Y-51261928D01*
X46205518Y-51274188D01*
X46085820Y-51310498D01*
X45975506Y-51369463D01*
X45878815Y-51448815D01*
X45799463Y-51545506D01*
X45740498Y-51655820D01*
X45704188Y-51775518D01*
X45691928Y-51900000D01*
X34417000Y-51900000D01*
X34417000Y-48700000D01*
X45691928Y-48700000D01*
X45691928Y-49700000D01*
X45704188Y-49824482D01*
X45740498Y-49944180D01*
X45799463Y-50054494D01*
X45878815Y-50151185D01*
X45975506Y-50230537D01*
X46085820Y-50289502D01*
X46205518Y-50325812D01*
X46330000Y-50338072D01*
X46425674Y-50338072D01*
X46445026Y-50374276D01*
X46516201Y-50461002D01*
X46540000Y-50490001D01*
X46568998Y-50513799D01*
X46809349Y-50754150D01*
X46833152Y-50783154D01*
X46948877Y-50878127D01*
X47080906Y-50948699D01*
X47224167Y-50992156D01*
X47335820Y-51003153D01*
X47335830Y-51003153D01*
X47373153Y-51006829D01*
X47410476Y-51003153D01*
X48269442Y-51003153D01*
X48313379Y-51047090D01*
X48482897Y-51160358D01*
X48671255Y-51238379D01*
X48871214Y-51278153D01*
X49075092Y-51278153D01*
X49275051Y-51238379D01*
X49463409Y-51160358D01*
X49632927Y-51047090D01*
X49777090Y-50902927D01*
X49890358Y-50733409D01*
X49968379Y-50545051D01*
X50008153Y-50345092D01*
X50008153Y-50141214D01*
X49968379Y-49941255D01*
X49890358Y-49752897D01*
X49777090Y-49583379D01*
X49632927Y-49439216D01*
X49463409Y-49325948D01*
X49275051Y-49247927D01*
X49075092Y-49208153D01*
X48871214Y-49208153D01*
X48671255Y-49247927D01*
X48482897Y-49325948D01*
X48468072Y-49335854D01*
X48468072Y-48700000D01*
X48455812Y-48575518D01*
X48419502Y-48455820D01*
X48360537Y-48345506D01*
X48281185Y-48248815D01*
X48184494Y-48169463D01*
X48074180Y-48110498D01*
X47954482Y-48074188D01*
X47830000Y-48061928D01*
X46330000Y-48061928D01*
X46205518Y-48074188D01*
X46085820Y-48110498D01*
X45975506Y-48169463D01*
X45878815Y-48248815D01*
X45799463Y-48345506D01*
X45740498Y-48455820D01*
X45704188Y-48575518D01*
X45691928Y-48700000D01*
X34417000Y-48700000D01*
X34417000Y-40493740D01*
X42965000Y-40493740D01*
X42965000Y-40786260D01*
X43022068Y-41073158D01*
X43134010Y-41343411D01*
X43296525Y-41586632D01*
X43503368Y-41793475D01*
X43746589Y-41955990D01*
X44016842Y-42067932D01*
X44303740Y-42125000D01*
X44596260Y-42125000D01*
X44883158Y-42067932D01*
X45153411Y-41955990D01*
X45396632Y-41793475D01*
X45603475Y-41586632D01*
X45765990Y-41343411D01*
X45877932Y-41073158D01*
X45935000Y-40786260D01*
X45935000Y-40493740D01*
X45912471Y-40380475D01*
X46895000Y-40380475D01*
X46895000Y-40899525D01*
X46996261Y-41408601D01*
X47194893Y-41888141D01*
X47483262Y-42319715D01*
X47850285Y-42686738D01*
X48281859Y-42975107D01*
X48761399Y-43173739D01*
X49270475Y-43275000D01*
X49789525Y-43275000D01*
X50298601Y-43173739D01*
X50778141Y-42975107D01*
X51209715Y-42686738D01*
X51576738Y-42319715D01*
X51865107Y-41888141D01*
X52063739Y-41408601D01*
X52165000Y-40899525D01*
X52165000Y-40493740D01*
X53125000Y-40493740D01*
X53125000Y-40786260D01*
X53182068Y-41073158D01*
X53294010Y-41343411D01*
X53456525Y-41586632D01*
X53663368Y-41793475D01*
X53906589Y-41955990D01*
X54176842Y-42067932D01*
X54463740Y-42125000D01*
X54756260Y-42125000D01*
X55043158Y-42067932D01*
X55313411Y-41955990D01*
X55556632Y-41793475D01*
X55763475Y-41586632D01*
X55925990Y-41343411D01*
X56037932Y-41073158D01*
X56095000Y-40786260D01*
X56095000Y-40493740D01*
X72175000Y-40493740D01*
X72175000Y-40786260D01*
X72232068Y-41073158D01*
X72344010Y-41343411D01*
X72506525Y-41586632D01*
X72713368Y-41793475D01*
X72956589Y-41955990D01*
X73226842Y-42067932D01*
X73513740Y-42125000D01*
X73806260Y-42125000D01*
X74093158Y-42067932D01*
X74363411Y-41955990D01*
X74606632Y-41793475D01*
X74813475Y-41586632D01*
X74975990Y-41343411D01*
X75087932Y-41073158D01*
X75145000Y-40786260D01*
X75145000Y-40493740D01*
X75087932Y-40206842D01*
X74975990Y-39936589D01*
X74908110Y-39835000D01*
X75100883Y-39835000D01*
X75436081Y-39768325D01*
X75751831Y-39637537D01*
X76035998Y-39447663D01*
X76277663Y-39205998D01*
X76467537Y-38921831D01*
X76598325Y-38606081D01*
X76665000Y-38270883D01*
X76665000Y-37929117D01*
X76598325Y-37593919D01*
X76467537Y-37278169D01*
X76277663Y-36994002D01*
X76050373Y-36766712D01*
X80252893Y-36766712D01*
X80360726Y-37041338D01*
X80667384Y-37192216D01*
X80997585Y-37280369D01*
X81338639Y-37302409D01*
X81677439Y-37257489D01*
X82000966Y-37147336D01*
X82199274Y-37041338D01*
X82307107Y-36766712D01*
X81280000Y-35739605D01*
X80252893Y-36766712D01*
X76050373Y-36766712D01*
X76035998Y-36752337D01*
X75751831Y-36562463D01*
X75436081Y-36431675D01*
X75100883Y-36365000D01*
X74759117Y-36365000D01*
X74423919Y-36431675D01*
X74108169Y-36562463D01*
X73824002Y-36752337D01*
X73582337Y-36994002D01*
X73392463Y-37278169D01*
X73261675Y-37593919D01*
X73195000Y-37929117D01*
X73195000Y-38270883D01*
X73261675Y-38606081D01*
X73392463Y-38921831D01*
X73548261Y-39155000D01*
X73513740Y-39155000D01*
X73226842Y-39212068D01*
X72956589Y-39324010D01*
X72713368Y-39486525D01*
X72506525Y-39693368D01*
X72344010Y-39936589D01*
X72232068Y-40206842D01*
X72175000Y-40493740D01*
X56095000Y-40493740D01*
X56037932Y-40206842D01*
X55925990Y-39936589D01*
X55763475Y-39693368D01*
X55556632Y-39486525D01*
X55313411Y-39324010D01*
X55043158Y-39212068D01*
X54756260Y-39155000D01*
X54463740Y-39155000D01*
X54176842Y-39212068D01*
X53906589Y-39324010D01*
X53663368Y-39486525D01*
X53456525Y-39693368D01*
X53294010Y-39936589D01*
X53182068Y-40206842D01*
X53125000Y-40493740D01*
X52165000Y-40493740D01*
X52165000Y-40380475D01*
X52063739Y-39871399D01*
X51865107Y-39391859D01*
X51576738Y-38960285D01*
X51209715Y-38593262D01*
X50778141Y-38304893D01*
X50298601Y-38106261D01*
X49789525Y-38005000D01*
X49270475Y-38005000D01*
X48761399Y-38106261D01*
X48281859Y-38304893D01*
X47850285Y-38593262D01*
X47483262Y-38960285D01*
X47194893Y-39391859D01*
X46996261Y-39871399D01*
X46895000Y-40380475D01*
X45912471Y-40380475D01*
X45877932Y-40206842D01*
X45765990Y-39936589D01*
X45698110Y-39835000D01*
X45890883Y-39835000D01*
X46226081Y-39768325D01*
X46541831Y-39637537D01*
X46825998Y-39447663D01*
X47067663Y-39205998D01*
X47257537Y-38921831D01*
X47388325Y-38606081D01*
X47455000Y-38270883D01*
X47455000Y-37929117D01*
X47388325Y-37593919D01*
X47257537Y-37278169D01*
X47067663Y-36994002D01*
X46840373Y-36766712D01*
X51042893Y-36766712D01*
X51150726Y-37041338D01*
X51457384Y-37192216D01*
X51787585Y-37280369D01*
X52128639Y-37302409D01*
X52467439Y-37257489D01*
X52790966Y-37147336D01*
X52989274Y-37041338D01*
X53097107Y-36766712D01*
X52070000Y-35739605D01*
X51042893Y-36766712D01*
X46840373Y-36766712D01*
X46825998Y-36752337D01*
X46541831Y-36562463D01*
X46226081Y-36431675D01*
X45890883Y-36365000D01*
X45549117Y-36365000D01*
X45213919Y-36431675D01*
X44898169Y-36562463D01*
X44614002Y-36752337D01*
X44372337Y-36994002D01*
X44182463Y-37278169D01*
X44051675Y-37593919D01*
X43985000Y-37929117D01*
X43985000Y-38270883D01*
X44051675Y-38606081D01*
X44182463Y-38921831D01*
X44338261Y-39155000D01*
X44303740Y-39155000D01*
X44016842Y-39212068D01*
X43746589Y-39324010D01*
X43503368Y-39486525D01*
X43296525Y-39693368D01*
X43134010Y-39936589D01*
X43022068Y-40206842D01*
X42965000Y-40493740D01*
X34417000Y-40493740D01*
X34417000Y-35618639D01*
X50327591Y-35618639D01*
X50372511Y-35957439D01*
X50482664Y-36280966D01*
X50588662Y-36479274D01*
X50863288Y-36587107D01*
X51890395Y-35560000D01*
X52249605Y-35560000D01*
X53276712Y-36587107D01*
X53551338Y-36479274D01*
X53702216Y-36172616D01*
X53753638Y-35980000D01*
X55661928Y-35980000D01*
X55661928Y-37680000D01*
X55674188Y-37804482D01*
X55710498Y-37924180D01*
X55769463Y-38034494D01*
X55848815Y-38131185D01*
X55945506Y-38210537D01*
X56055820Y-38269502D01*
X56175518Y-38305812D01*
X56300000Y-38318072D01*
X58000000Y-38318072D01*
X58124482Y-38305812D01*
X58244180Y-38269502D01*
X58354494Y-38210537D01*
X58451185Y-38131185D01*
X58530537Y-38034494D01*
X58589502Y-37924180D01*
X58611513Y-37851620D01*
X58743368Y-37983475D01*
X58986589Y-38145990D01*
X59256842Y-38257932D01*
X59543740Y-38315000D01*
X59836260Y-38315000D01*
X60123158Y-38257932D01*
X60393411Y-38145990D01*
X60636632Y-37983475D01*
X60843475Y-37776632D01*
X60960000Y-37602240D01*
X61076525Y-37776632D01*
X61283368Y-37983475D01*
X61526589Y-38145990D01*
X61796842Y-38257932D01*
X62083740Y-38315000D01*
X62376260Y-38315000D01*
X62663158Y-38257932D01*
X62933411Y-38145990D01*
X63176632Y-37983475D01*
X63383475Y-37776632D01*
X63500000Y-37602240D01*
X63616525Y-37776632D01*
X63823368Y-37983475D01*
X64066589Y-38145990D01*
X64336842Y-38257932D01*
X64623740Y-38315000D01*
X64916260Y-38315000D01*
X65203158Y-38257932D01*
X65473411Y-38145990D01*
X65716632Y-37983475D01*
X65923475Y-37776632D01*
X66040000Y-37602240D01*
X66156525Y-37776632D01*
X66363368Y-37983475D01*
X66606589Y-38145990D01*
X66876842Y-38257932D01*
X67163740Y-38315000D01*
X67456260Y-38315000D01*
X67743158Y-38257932D01*
X68013411Y-38145990D01*
X68256632Y-37983475D01*
X68463475Y-37776632D01*
X68580000Y-37602240D01*
X68696525Y-37776632D01*
X68903368Y-37983475D01*
X69146589Y-38145990D01*
X69416842Y-38257932D01*
X69703740Y-38315000D01*
X69996260Y-38315000D01*
X70283158Y-38257932D01*
X70553411Y-38145990D01*
X70796632Y-37983475D01*
X71003475Y-37776632D01*
X71165990Y-37533411D01*
X71277932Y-37263158D01*
X71335000Y-36976260D01*
X71335000Y-36683740D01*
X71277932Y-36396842D01*
X71165990Y-36126589D01*
X71003475Y-35883368D01*
X70796632Y-35676525D01*
X70710000Y-35618639D01*
X79537591Y-35618639D01*
X79582511Y-35957439D01*
X79692664Y-36280966D01*
X79798662Y-36479274D01*
X80073288Y-36587107D01*
X81100395Y-35560000D01*
X81459605Y-35560000D01*
X82486712Y-36587107D01*
X82761338Y-36479274D01*
X82912216Y-36172616D01*
X83000369Y-35842415D01*
X83014830Y-35618639D01*
X108747591Y-35618639D01*
X108792511Y-35957439D01*
X108902664Y-36280966D01*
X109008662Y-36479274D01*
X109283288Y-36587107D01*
X110310395Y-35560000D01*
X110669605Y-35560000D01*
X111696712Y-36587107D01*
X111971338Y-36479274D01*
X112122216Y-36172616D01*
X112210369Y-35842415D01*
X112224830Y-35618639D01*
X137957591Y-35618639D01*
X138002511Y-35957439D01*
X138112664Y-36280966D01*
X138218662Y-36479274D01*
X138493288Y-36587107D01*
X139520395Y-35560000D01*
X139879605Y-35560000D01*
X140906712Y-36587107D01*
X141181338Y-36479274D01*
X141332216Y-36172616D01*
X141420369Y-35842415D01*
X141442409Y-35501361D01*
X141397489Y-35162561D01*
X141287336Y-34839034D01*
X141181338Y-34640726D01*
X140906712Y-34532893D01*
X139879605Y-35560000D01*
X139520395Y-35560000D01*
X138493288Y-34532893D01*
X138218662Y-34640726D01*
X138067784Y-34947384D01*
X137979631Y-35277585D01*
X137957591Y-35618639D01*
X112224830Y-35618639D01*
X112232409Y-35501361D01*
X112187489Y-35162561D01*
X112077336Y-34839034D01*
X111971338Y-34640726D01*
X111696712Y-34532893D01*
X110669605Y-35560000D01*
X110310395Y-35560000D01*
X109283288Y-34532893D01*
X109008662Y-34640726D01*
X108857784Y-34947384D01*
X108769631Y-35277585D01*
X108747591Y-35618639D01*
X83014830Y-35618639D01*
X83022409Y-35501361D01*
X82977489Y-35162561D01*
X82867336Y-34839034D01*
X82761338Y-34640726D01*
X82486712Y-34532893D01*
X81459605Y-35560000D01*
X81100395Y-35560000D01*
X80073288Y-34532893D01*
X79798662Y-34640726D01*
X79647784Y-34947384D01*
X79559631Y-35277585D01*
X79537591Y-35618639D01*
X70710000Y-35618639D01*
X70553411Y-35514010D01*
X70283158Y-35402068D01*
X69996260Y-35345000D01*
X69703740Y-35345000D01*
X69416842Y-35402068D01*
X69146589Y-35514010D01*
X68903368Y-35676525D01*
X68696525Y-35883368D01*
X68580000Y-36057760D01*
X68463475Y-35883368D01*
X68256632Y-35676525D01*
X68013411Y-35514010D01*
X67743158Y-35402068D01*
X67456260Y-35345000D01*
X67163740Y-35345000D01*
X66876842Y-35402068D01*
X66606589Y-35514010D01*
X66363368Y-35676525D01*
X66156525Y-35883368D01*
X66040000Y-36057760D01*
X65923475Y-35883368D01*
X65716632Y-35676525D01*
X65473411Y-35514010D01*
X65203158Y-35402068D01*
X64916260Y-35345000D01*
X64623740Y-35345000D01*
X64336842Y-35402068D01*
X64066589Y-35514010D01*
X63823368Y-35676525D01*
X63616525Y-35883368D01*
X63500000Y-36057760D01*
X63383475Y-35883368D01*
X63176632Y-35676525D01*
X62933411Y-35514010D01*
X62663158Y-35402068D01*
X62376260Y-35345000D01*
X62083740Y-35345000D01*
X61796842Y-35402068D01*
X61526589Y-35514010D01*
X61283368Y-35676525D01*
X61076525Y-35883368D01*
X60960000Y-36057760D01*
X60843475Y-35883368D01*
X60636632Y-35676525D01*
X60393411Y-35514010D01*
X60123158Y-35402068D01*
X59836260Y-35345000D01*
X59543740Y-35345000D01*
X59256842Y-35402068D01*
X58986589Y-35514010D01*
X58743368Y-35676525D01*
X58611513Y-35808380D01*
X58589502Y-35735820D01*
X58530537Y-35625506D01*
X58451185Y-35528815D01*
X58354494Y-35449463D01*
X58244180Y-35390498D01*
X58124482Y-35354188D01*
X58000000Y-35341928D01*
X56300000Y-35341928D01*
X56175518Y-35354188D01*
X56055820Y-35390498D01*
X55945506Y-35449463D01*
X55848815Y-35528815D01*
X55769463Y-35625506D01*
X55710498Y-35735820D01*
X55674188Y-35855518D01*
X55661928Y-35980000D01*
X53753638Y-35980000D01*
X53790369Y-35842415D01*
X53812409Y-35501361D01*
X53767489Y-35162561D01*
X53657336Y-34839034D01*
X53551338Y-34640726D01*
X53276712Y-34532893D01*
X52249605Y-35560000D01*
X51890395Y-35560000D01*
X50863288Y-34532893D01*
X50588662Y-34640726D01*
X50437784Y-34947384D01*
X50349631Y-35277585D01*
X50327591Y-35618639D01*
X34417000Y-35618639D01*
X34417000Y-34353288D01*
X51042893Y-34353288D01*
X52070000Y-35380395D01*
X53097107Y-34353288D01*
X80252893Y-34353288D01*
X81280000Y-35380395D01*
X82307107Y-34353288D01*
X109462893Y-34353288D01*
X110490000Y-35380395D01*
X111517107Y-34353288D01*
X138672893Y-34353288D01*
X139700000Y-35380395D01*
X140727107Y-34353288D01*
X140619274Y-34078662D01*
X140312616Y-33927784D01*
X139982415Y-33839631D01*
X139641361Y-33817591D01*
X139302561Y-33862511D01*
X138979034Y-33972664D01*
X138780726Y-34078662D01*
X138672893Y-34353288D01*
X111517107Y-34353288D01*
X111409274Y-34078662D01*
X111102616Y-33927784D01*
X110772415Y-33839631D01*
X110431361Y-33817591D01*
X110092561Y-33862511D01*
X109769034Y-33972664D01*
X109570726Y-34078662D01*
X109462893Y-34353288D01*
X82307107Y-34353288D01*
X82199274Y-34078662D01*
X81892616Y-33927784D01*
X81562415Y-33839631D01*
X81221361Y-33817591D01*
X80882561Y-33862511D01*
X80559034Y-33972664D01*
X80360726Y-34078662D01*
X80252893Y-34353288D01*
X53097107Y-34353288D01*
X52989274Y-34078662D01*
X52682616Y-33927784D01*
X52352415Y-33839631D01*
X52011361Y-33817591D01*
X51672561Y-33862511D01*
X51349034Y-33972664D01*
X51150726Y-34078662D01*
X51042893Y-34353288D01*
X34417000Y-34353288D01*
X34417000Y-31775000D01*
X34667715Y-31775000D01*
X35408628Y-31627623D01*
X36106554Y-31338533D01*
X36734670Y-30918839D01*
X37268839Y-30384670D01*
X37688533Y-29756554D01*
X37977623Y-29058628D01*
X38125000Y-28317715D01*
X38125000Y-28067000D01*
X87213352Y-28067000D01*
X87205000Y-28151794D01*
G37*
X87205000Y-28151794D02*
X87205000Y-29368207D01*
X87222147Y-29542300D01*
X87289906Y-29765674D01*
X87399943Y-29971536D01*
X87548026Y-30151975D01*
X87728465Y-30300058D01*
X87934327Y-30410094D01*
X88157701Y-30477853D01*
X88390000Y-30500733D01*
X88622300Y-30477853D01*
X88845674Y-30410094D01*
X89051536Y-30300058D01*
X89231975Y-30151975D01*
X89380058Y-29971536D01*
X89490094Y-29765674D01*
X89557853Y-29542300D01*
X89575000Y-29368207D01*
X89575000Y-28151793D01*
X89566648Y-28067000D01*
X95853352Y-28067000D01*
X95845000Y-28151794D01*
X95845000Y-29368207D01*
X95862147Y-29542300D01*
X95929906Y-29765674D01*
X96039943Y-29971536D01*
X96188026Y-30151975D01*
X96368465Y-30300058D01*
X96574327Y-30410094D01*
X96797701Y-30477853D01*
X97030000Y-30500733D01*
X97262300Y-30477853D01*
X97485674Y-30410094D01*
X97691536Y-30300058D01*
X97871975Y-30151975D01*
X98020058Y-29971536D01*
X98130094Y-29765674D01*
X98197853Y-29542300D01*
X98215000Y-29368207D01*
X98215000Y-28151793D01*
X98206648Y-28067000D01*
X149835000Y-28067000D01*
X149835000Y-28317715D01*
X149982377Y-29058628D01*
X150271467Y-29756554D01*
X150691161Y-30384670D01*
X151225330Y-30918839D01*
X151853446Y-31338533D01*
X152551372Y-31627623D01*
X153292285Y-31775000D01*
X153543000Y-31775000D01*
X153543000Y-71095000D01*
X153292285Y-71095000D01*
X152551372Y-71242377D01*
X151853446Y-71531467D01*
X151225330Y-71951161D01*
X150691161Y-72485330D01*
X150271467Y-73113446D01*
X149982377Y-73811372D01*
X149835000Y-74552285D01*
X149835000Y-74803000D01*
X137545380Y-74803000D01*
X137598379Y-74675051D01*
X137638153Y-74475092D01*
X137638153Y-74271214D01*
X137598379Y-74071255D01*
X137520358Y-73882897D01*
X137407090Y-73713379D01*
X137262927Y-73569216D01*
X137093409Y-73455948D01*
X136905051Y-73377927D01*
X136705092Y-73338153D01*
X136501214Y-73338153D01*
X136301255Y-73377927D01*
X136112897Y-73455948D01*
X136098072Y-73465854D01*
X136098072Y-72830000D01*
X136085812Y-72705518D01*
X136049502Y-72585820D01*
X136011647Y-72515000D01*
X138308353Y-72515000D01*
X138270498Y-72585820D01*
X138234188Y-72705518D01*
X138221928Y-72830000D01*
X138221928Y-73830000D01*
X138234188Y-73954482D01*
X138270498Y-74074180D01*
X138329463Y-74184494D01*
X138408815Y-74281185D01*
X138505506Y-74360537D01*
X138615820Y-74419502D01*
X138735518Y-74455812D01*
X138860000Y-74468072D01*
X140360000Y-74468072D01*
X140484482Y-74455812D01*
X140604180Y-74419502D01*
X140714494Y-74360537D01*
X140811185Y-74281185D01*
X140890537Y-74184494D01*
X140949502Y-74074180D01*
X140985812Y-73954482D01*
X140998072Y-73830000D01*
X140998072Y-72830000D01*
X140985812Y-72705518D01*
X140949502Y-72585820D01*
X140890537Y-72475506D01*
X140811185Y-72378815D01*
X140714494Y-72299463D01*
X140604180Y-72240498D01*
X140484482Y-72204188D01*
X140360000Y-72191928D01*
X140264326Y-72191928D01*
X140244974Y-72155724D01*
X140150001Y-72039999D01*
X140121004Y-72016202D01*
X139348803Y-71244002D01*
X139325001Y-71214999D01*
X139209276Y-71120026D01*
X139077247Y-71049454D01*
X138933986Y-71005997D01*
X138822333Y-70995000D01*
X138822322Y-70995000D01*
X138785000Y-70991324D01*
X138747678Y-70995000D01*
X133387322Y-70995000D01*
X133349999Y-70991324D01*
X133312676Y-70995000D01*
X133312667Y-70995000D01*
X133201014Y-71005997D01*
X133057753Y-71049454D01*
X132925723Y-71120026D01*
X132895568Y-71144774D01*
X132809999Y-71214999D01*
X132786201Y-71243997D01*
X129227199Y-74803000D01*
X108335380Y-74803000D01*
X108388379Y-74675051D01*
X108428153Y-74475092D01*
X108428153Y-74271214D01*
X108388379Y-74071255D01*
X108310358Y-73882897D01*
X108197090Y-73713379D01*
X108052927Y-73569216D01*
X107883409Y-73455948D01*
X107695051Y-73377927D01*
X107495092Y-73338153D01*
X107291214Y-73338153D01*
X107091255Y-73377927D01*
X106902897Y-73455948D01*
X106888072Y-73465854D01*
X106888072Y-72830000D01*
X106875812Y-72705518D01*
X106839502Y-72585820D01*
X106801647Y-72515000D01*
X109098353Y-72515000D01*
X109060498Y-72585820D01*
X109024188Y-72705518D01*
X109011928Y-72830000D01*
X109011928Y-73830000D01*
X109024188Y-73954482D01*
X109060498Y-74074180D01*
X109119463Y-74184494D01*
X109198815Y-74281185D01*
X109295506Y-74360537D01*
X109405820Y-74419502D01*
X109525518Y-74455812D01*
X109650000Y-74468072D01*
X111150000Y-74468072D01*
X111274482Y-74455812D01*
X111394180Y-74419502D01*
X111504494Y-74360537D01*
X111601185Y-74281185D01*
X111680537Y-74184494D01*
X111739502Y-74074180D01*
X111775812Y-73954482D01*
X111788072Y-73830000D01*
X111788072Y-72830000D01*
X111775812Y-72705518D01*
X111739502Y-72585820D01*
X111680537Y-72475506D01*
X111601185Y-72378815D01*
X111504494Y-72299463D01*
X111394180Y-72240498D01*
X111274482Y-72204188D01*
X111153062Y-72192230D01*
X111149003Y-72151014D01*
X111105546Y-72007753D01*
X111034974Y-71875724D01*
X110986225Y-71816323D01*
X110963799Y-71788996D01*
X110963795Y-71788992D01*
X110940001Y-71759999D01*
X110911009Y-71736206D01*
X110418803Y-71244002D01*
X110395001Y-71214999D01*
X110279276Y-71120026D01*
X110147247Y-71049454D01*
X110003986Y-71005997D01*
X109892333Y-70995000D01*
X109892322Y-70995000D01*
X109855000Y-70991324D01*
X109817678Y-70995000D01*
X103542322Y-70995000D01*
X103504999Y-70991324D01*
X103467676Y-70995000D01*
X103467667Y-70995000D01*
X103356014Y-71005997D01*
X103212753Y-71049454D01*
X103080723Y-71120026D01*
X103050568Y-71144774D01*
X102964999Y-71214999D01*
X102941201Y-71243997D01*
X99382199Y-74803000D01*
X79125380Y-74803000D01*
X79178379Y-74675051D01*
X79218153Y-74475092D01*
X79218153Y-74271214D01*
X79178379Y-74071255D01*
X79100358Y-73882897D01*
X78987090Y-73713379D01*
X78842927Y-73569216D01*
X78673409Y-73455948D01*
X78485051Y-73377927D01*
X78285092Y-73338153D01*
X78081214Y-73338153D01*
X77881255Y-73377927D01*
X77692897Y-73455948D01*
X77678072Y-73465854D01*
X77678072Y-72830000D01*
X77665812Y-72705518D01*
X77629502Y-72585820D01*
X77591647Y-72515000D01*
X79888353Y-72515000D01*
X79850498Y-72585820D01*
X79814188Y-72705518D01*
X79801928Y-72830000D01*
X79801928Y-73830000D01*
X79814188Y-73954482D01*
X79850498Y-74074180D01*
X79909463Y-74184494D01*
X79988815Y-74281185D01*
X80085506Y-74360537D01*
X80195820Y-74419502D01*
X80315518Y-74455812D01*
X80440000Y-74468072D01*
X81940000Y-74468072D01*
X82064482Y-74455812D01*
X82184180Y-74419502D01*
X82294494Y-74360537D01*
X82391185Y-74281185D01*
X82470537Y-74184494D01*
X82529502Y-74074180D01*
X82565812Y-73954482D01*
X82578072Y-73830000D01*
X82578072Y-72830000D01*
X82565812Y-72705518D01*
X82529502Y-72585820D01*
X82470537Y-72475506D01*
X82391185Y-72378815D01*
X82294494Y-72299463D01*
X82184180Y-72240498D01*
X82064482Y-72204188D01*
X81943062Y-72192230D01*
X81939003Y-72151014D01*
X81895546Y-72007753D01*
X81824974Y-71875724D01*
X81776225Y-71816323D01*
X81753799Y-71788996D01*
X81753795Y-71788992D01*
X81730001Y-71759999D01*
X81701009Y-71736206D01*
X81208803Y-71244002D01*
X81185001Y-71214999D01*
X81069276Y-71120026D01*
X80937247Y-71049454D01*
X80793986Y-71005997D01*
X80682333Y-70995000D01*
X80682322Y-70995000D01*
X80645000Y-70991324D01*
X80607678Y-70995000D01*
X78374013Y-70995000D01*
X78387205Y-70975256D01*
X78465226Y-70786898D01*
X78505000Y-70586939D01*
X78505000Y-70383061D01*
X78465226Y-70183102D01*
X78387205Y-69994744D01*
X78273937Y-69825226D01*
X78129774Y-69681063D01*
X77960256Y-69567795D01*
X77771898Y-69489774D01*
X77715044Y-69478465D01*
X76571535Y-68334957D01*
X76560226Y-68278102D01*
X76482205Y-68089744D01*
X76368937Y-67920226D01*
X76224774Y-67776063D01*
X76055256Y-67662795D01*
X75866898Y-67584774D01*
X75666939Y-67545000D01*
X75463061Y-67545000D01*
X75263102Y-67584774D01*
X75074744Y-67662795D01*
X74905226Y-67776063D01*
X74761063Y-67920226D01*
X74647795Y-68089744D01*
X74569774Y-68278102D01*
X74530000Y-68478061D01*
X74530000Y-68681939D01*
X74569774Y-68881898D01*
X74647795Y-69070256D01*
X74761063Y-69239774D01*
X74905226Y-69383937D01*
X75074744Y-69497205D01*
X75263102Y-69575226D01*
X75319957Y-69586535D01*
X76463465Y-70730044D01*
X76474774Y-70786898D01*
X76552795Y-70975256D01*
X76565987Y-70995000D01*
X74967322Y-70995000D01*
X74929999Y-70991324D01*
X74892676Y-70995000D01*
X74892667Y-70995000D01*
X74781014Y-71005997D01*
X74637753Y-71049454D01*
X74505723Y-71120026D01*
X74475568Y-71144774D01*
X74389999Y-71214999D01*
X74366201Y-71243997D01*
X70807199Y-74803000D01*
X49415230Y-74803000D01*
X49411532Y-74784408D01*
X49333511Y-74596050D01*
X49220243Y-74426532D01*
X49176306Y-74382595D01*
X49176306Y-73703639D01*
X49179983Y-73666306D01*
X49165309Y-73517320D01*
X49121852Y-73374059D01*
X49105612Y-73343676D01*
X49051280Y-73242030D01*
X48956307Y-73126305D01*
X48927304Y-73102503D01*
X48654801Y-72830000D01*
X50591928Y-72830000D01*
X50591928Y-73830000D01*
X50604188Y-73954482D01*
X50640498Y-74074180D01*
X50699463Y-74184494D01*
X50778815Y-74281185D01*
X50875506Y-74360537D01*
X50985820Y-74419502D01*
X51105518Y-74455812D01*
X51230000Y-74468072D01*
X52730000Y-74468072D01*
X52854482Y-74455812D01*
X52974180Y-74419502D01*
X53084494Y-74360537D01*
X53181185Y-74281185D01*
X53260537Y-74184494D01*
X53319502Y-74074180D01*
X53342634Y-73997923D01*
X53404276Y-73964974D01*
X53520001Y-73870001D01*
X53543804Y-73840997D01*
X66299803Y-61085000D01*
X73621339Y-61085000D01*
X73582337Y-61124002D01*
X73392463Y-61408169D01*
X73261675Y-61723919D01*
X73195000Y-62059117D01*
X73195000Y-62400883D01*
X73261675Y-62736081D01*
X73392463Y-63051831D01*
X73548261Y-63285000D01*
X73513740Y-63285000D01*
X73226842Y-63342068D01*
X72956589Y-63454010D01*
X72713368Y-63616525D01*
X72506525Y-63823368D01*
X72344010Y-64066589D01*
X72232068Y-64336842D01*
X72175000Y-64623740D01*
X72175000Y-64916260D01*
X72232068Y-65203158D01*
X72344010Y-65473411D01*
X72506525Y-65716632D01*
X72713368Y-65923475D01*
X72956589Y-66085990D01*
X73226842Y-66197932D01*
X73513740Y-66255000D01*
X73806260Y-66255000D01*
X74093158Y-66197932D01*
X74363411Y-66085990D01*
X74606632Y-65923475D01*
X74813475Y-65716632D01*
X74975990Y-65473411D01*
X75087932Y-65203158D01*
X75145000Y-64916260D01*
X75145000Y-64623740D01*
X75087932Y-64336842D01*
X74975990Y-64066589D01*
X74908110Y-63965000D01*
X75100883Y-63965000D01*
X75436081Y-63898325D01*
X75751831Y-63767537D01*
X76035998Y-63577663D01*
X76277663Y-63335998D01*
X76467537Y-63051831D01*
X76598325Y-62736081D01*
X76665000Y-62400883D01*
X76665000Y-62059117D01*
X76598325Y-61723919D01*
X76467537Y-61408169D01*
X76277663Y-61124002D01*
X76238661Y-61085000D01*
X76520199Y-61085000D01*
X77759310Y-62324111D01*
X77491859Y-62434893D01*
X77060285Y-62723262D01*
X76693262Y-63090285D01*
X76404893Y-63521859D01*
X76206261Y-64001399D01*
X76105000Y-64510475D01*
X76105000Y-65029525D01*
X76206261Y-65538601D01*
X76404893Y-66018141D01*
X76693262Y-66449715D01*
X77060285Y-66816738D01*
X77491859Y-67105107D01*
X77971399Y-67303739D01*
X78480475Y-67405000D01*
X78999525Y-67405000D01*
X79508601Y-67303739D01*
X79988141Y-67105107D01*
X80419715Y-66816738D01*
X80786738Y-66449715D01*
X81075107Y-66018141D01*
X81273739Y-65538601D01*
X81375000Y-65029525D01*
X81375000Y-64510475D01*
X81273739Y-64001399D01*
X81117829Y-63625000D01*
X82864893Y-63625000D01*
X82666525Y-63823368D01*
X82504010Y-64066589D01*
X82392068Y-64336842D01*
X82335000Y-64623740D01*
X82335000Y-64916260D01*
X82392068Y-65203158D01*
X82504010Y-65473411D01*
X82666525Y-65716632D01*
X82873368Y-65923475D01*
X83116589Y-66085990D01*
X83386842Y-66197932D01*
X83673740Y-66255000D01*
X83966260Y-66255000D01*
X84253158Y-66197932D01*
X84523411Y-66085990D01*
X84766632Y-65923475D01*
X84973475Y-65716632D01*
X85135990Y-65473411D01*
X85247932Y-65203158D01*
X85305000Y-64916260D01*
X85305000Y-64623740D01*
X85247932Y-64336842D01*
X85135990Y-64066589D01*
X84973475Y-63823368D01*
X84775107Y-63625000D01*
X96838789Y-63625000D01*
X101269802Y-68056014D01*
X101293600Y-68085012D01*
X101322598Y-68108810D01*
X101409324Y-68179985D01*
X101521018Y-68239687D01*
X101541354Y-68250557D01*
X101684615Y-68294014D01*
X101796268Y-68305011D01*
X101796277Y-68305011D01*
X101833600Y-68308687D01*
X101870923Y-68305011D01*
X134347667Y-68305011D01*
X134384989Y-68308687D01*
X134422311Y-68305011D01*
X134422322Y-68305011D01*
X134533975Y-68294014D01*
X134677236Y-68250557D01*
X134809265Y-68179985D01*
X134924990Y-68085012D01*
X134948793Y-68056008D01*
X135285999Y-67718802D01*
X135315002Y-67695000D01*
X135409975Y-67579275D01*
X135480547Y-67447246D01*
X135524004Y-67303985D01*
X135535001Y-67192332D01*
X135535001Y-67192323D01*
X135538677Y-67155000D01*
X135535001Y-67117677D01*
X135535001Y-66853298D01*
X135911859Y-67105107D01*
X136391399Y-67303739D01*
X136900475Y-67405000D01*
X137419525Y-67405000D01*
X137928601Y-67303739D01*
X138408141Y-67105107D01*
X138839715Y-66816738D01*
X139206738Y-66449715D01*
X139495107Y-66018141D01*
X139693739Y-65538601D01*
X139795000Y-65029525D01*
X139795000Y-64623740D01*
X140755000Y-64623740D01*
X140755000Y-64916260D01*
X140812068Y-65203158D01*
X140924010Y-65473411D01*
X141086525Y-65716632D01*
X141293368Y-65923475D01*
X141536589Y-66085990D01*
X141806842Y-66197932D01*
X142093740Y-66255000D01*
X142386260Y-66255000D01*
X142673158Y-66197932D01*
X142943411Y-66085990D01*
X143186632Y-65923475D01*
X143393475Y-65716632D01*
X143555990Y-65473411D01*
X143667932Y-65203158D01*
X143725000Y-64916260D01*
X143725000Y-64623740D01*
X143667932Y-64336842D01*
X143555990Y-64066589D01*
X143393475Y-63823368D01*
X143186632Y-63616525D01*
X142943411Y-63454010D01*
X142673158Y-63342068D01*
X142386260Y-63285000D01*
X142093740Y-63285000D01*
X141806842Y-63342068D01*
X141536589Y-63454010D01*
X141293368Y-63616525D01*
X141086525Y-63823368D01*
X140924010Y-64066589D01*
X140812068Y-64336842D01*
X140755000Y-64623740D01*
X139795000Y-64623740D01*
X139795000Y-64510475D01*
X139693739Y-64001399D01*
X139495107Y-63521859D01*
X139206738Y-63090285D01*
X138839715Y-62723262D01*
X138408141Y-62434893D01*
X137928601Y-62236261D01*
X137419525Y-62135000D01*
X136900475Y-62135000D01*
X136391399Y-62236261D01*
X135911859Y-62434893D01*
X135535001Y-62686702D01*
X135535001Y-60896712D01*
X138672893Y-60896712D01*
X138780726Y-61171338D01*
X139087384Y-61322216D01*
X139417585Y-61410369D01*
X139758639Y-61432409D01*
X140097439Y-61387489D01*
X140420966Y-61277336D01*
X140619274Y-61171338D01*
X140727107Y-60896712D01*
X139700000Y-59869605D01*
X138672893Y-60896712D01*
X135535001Y-60896712D01*
X135535001Y-59748639D01*
X137957591Y-59748639D01*
X138002511Y-60087439D01*
X138112664Y-60410966D01*
X138218662Y-60609274D01*
X138493288Y-60717107D01*
X139520395Y-59690000D01*
X139879605Y-59690000D01*
X140906712Y-60717107D01*
X141181338Y-60609274D01*
X141332216Y-60302616D01*
X141420369Y-59972415D01*
X141442409Y-59631361D01*
X141397489Y-59292561D01*
X141287336Y-58969034D01*
X141181338Y-58770726D01*
X140906712Y-58662893D01*
X139879605Y-59690000D01*
X139520395Y-59690000D01*
X138493288Y-58662893D01*
X138218662Y-58770726D01*
X138067784Y-59077384D01*
X137979631Y-59407585D01*
X137957591Y-59748639D01*
X135535001Y-59748639D01*
X135535001Y-58483288D01*
X138672893Y-58483288D01*
X139700000Y-59510395D01*
X140727107Y-58483288D01*
X140619274Y-58208662D01*
X140312616Y-58057784D01*
X139982415Y-57969631D01*
X139641361Y-57947591D01*
X139302561Y-57992511D01*
X138979034Y-58102664D01*
X138780726Y-58208662D01*
X138672893Y-58483288D01*
X135535001Y-58483288D01*
X135535001Y-53530685D01*
X135584482Y-53525812D01*
X135704180Y-53489502D01*
X135814494Y-53430537D01*
X135911185Y-53351185D01*
X135990537Y-53254494D01*
X136049502Y-53144180D01*
X136085812Y-53024482D01*
X136098072Y-52900000D01*
X138221928Y-52900000D01*
X138234188Y-53024482D01*
X138270498Y-53144180D01*
X138329463Y-53254494D01*
X138408815Y-53351185D01*
X138505506Y-53430537D01*
X138615820Y-53489502D01*
X138735518Y-53525812D01*
X138860000Y-53538072D01*
X139324250Y-53535000D01*
X139483000Y-53376250D01*
X139483000Y-52527000D01*
X139737000Y-52527000D01*
X139737000Y-53376250D01*
X139895750Y-53535000D01*
X140360000Y-53538072D01*
X140484482Y-53525812D01*
X140604180Y-53489502D01*
X140714494Y-53430537D01*
X140811185Y-53351185D01*
X140890537Y-53254494D01*
X140949502Y-53144180D01*
X140985812Y-53024482D01*
X140998072Y-52900000D01*
X140995000Y-52685750D01*
X140836250Y-52527000D01*
X139737000Y-52527000D01*
X139483000Y-52527000D01*
X138383750Y-52527000D01*
X138225000Y-52685750D01*
X138221928Y-52900000D01*
X136098072Y-52900000D01*
X136098072Y-51900000D01*
X138221928Y-51900000D01*
X138225000Y-52114250D01*
X138383750Y-52273000D01*
X139483000Y-52273000D01*
X139483000Y-51423750D01*
X139737000Y-51423750D01*
X139737000Y-52273000D01*
X140836250Y-52273000D01*
X140995000Y-52114250D01*
X140998072Y-51900000D01*
X140985812Y-51775518D01*
X140949502Y-51655820D01*
X140890537Y-51545506D01*
X140811185Y-51448815D01*
X140714494Y-51369463D01*
X140604180Y-51310498D01*
X140484482Y-51274188D01*
X140360000Y-51261928D01*
X139895750Y-51265000D01*
X139737000Y-51423750D01*
X139483000Y-51423750D01*
X139324250Y-51265000D01*
X138860000Y-51261928D01*
X138735518Y-51274188D01*
X138615820Y-51310498D01*
X138505506Y-51369463D01*
X138408815Y-51448815D01*
X138329463Y-51545506D01*
X138270498Y-51655820D01*
X138234188Y-51775518D01*
X138221928Y-51900000D01*
X136098072Y-51900000D01*
X136085812Y-51775518D01*
X136049502Y-51655820D01*
X135990537Y-51545506D01*
X135911185Y-51448815D01*
X135814494Y-51369463D01*
X135704180Y-51310498D01*
X135584482Y-51274188D01*
X135460000Y-51261928D01*
X133960000Y-51261928D01*
X133835518Y-51274188D01*
X133715820Y-51310498D01*
X133605506Y-51369463D01*
X133508815Y-51448815D01*
X133429463Y-51545506D01*
X133370498Y-51655820D01*
X133334188Y-51775518D01*
X133321928Y-51900000D01*
X133321928Y-52900000D01*
X133334188Y-53024482D01*
X133370498Y-53144180D01*
X133429463Y-53254494D01*
X133508815Y-53351185D01*
X133605506Y-53430537D01*
X133715820Y-53489502D01*
X133835518Y-53525812D01*
X133960000Y-53538072D01*
X134015002Y-53538072D01*
X134015001Y-60627502D01*
X133856081Y-60561675D01*
X133520883Y-60495000D01*
X133179117Y-60495000D01*
X132843919Y-60561675D01*
X132528169Y-60692463D01*
X132244002Y-60882337D01*
X132002337Y-61124002D01*
X131812463Y-61408169D01*
X131786852Y-61470000D01*
X129577322Y-61470000D01*
X129539999Y-61466324D01*
X129502676Y-61470000D01*
X129502667Y-61470000D01*
X129391014Y-61480997D01*
X129247753Y-61524454D01*
X129115724Y-61595026D01*
X129115722Y-61595027D01*
X129115723Y-61595027D01*
X129028996Y-61666201D01*
X129028992Y-61666205D01*
X128999999Y-61689999D01*
X128976205Y-61718992D01*
X124360198Y-66335001D01*
X110073388Y-66335001D01*
X110285107Y-66018141D01*
X110483739Y-65538601D01*
X110585000Y-65029525D01*
X110585000Y-64623740D01*
X111545000Y-64623740D01*
X111545000Y-64916260D01*
X111602068Y-65203158D01*
X111714010Y-65473411D01*
X111876525Y-65716632D01*
X112083368Y-65923475D01*
X112326589Y-66085990D01*
X112596842Y-66197932D01*
X112883740Y-66255000D01*
X113176260Y-66255000D01*
X113463158Y-66197932D01*
X113733411Y-66085990D01*
X113976632Y-65923475D01*
X114183475Y-65716632D01*
X114345990Y-65473411D01*
X114457932Y-65203158D01*
X114515000Y-64916260D01*
X114515000Y-64623740D01*
X114457932Y-64336842D01*
X114345990Y-64066589D01*
X114183475Y-63823368D01*
X113976632Y-63616525D01*
X113733411Y-63454010D01*
X113463158Y-63342068D01*
X113176260Y-63285000D01*
X112883740Y-63285000D01*
X112596842Y-63342068D01*
X112326589Y-63454010D01*
X112083368Y-63616525D01*
X111876525Y-63823368D01*
X111714010Y-64066589D01*
X111602068Y-64336842D01*
X111545000Y-64623740D01*
X110585000Y-64623740D01*
X110585000Y-64510475D01*
X110483739Y-64001399D01*
X110285107Y-63521859D01*
X109996738Y-63090285D01*
X109629715Y-62723262D01*
X109198141Y-62434893D01*
X108718601Y-62236261D01*
X108209525Y-62135000D01*
X107690475Y-62135000D01*
X107181399Y-62236261D01*
X106701859Y-62434893D01*
X106270285Y-62723262D01*
X105903262Y-63090285D01*
X105614893Y-63521859D01*
X105416261Y-64001399D01*
X105315000Y-64510475D01*
X105315000Y-65029525D01*
X105416261Y-65538601D01*
X105614893Y-66018141D01*
X105826612Y-66335001D01*
X102334804Y-66335001D01*
X97719801Y-61720000D01*
X98356289Y-61720000D01*
X98400226Y-61763937D01*
X98569744Y-61877205D01*
X98758102Y-61955226D01*
X98958061Y-61995000D01*
X99161939Y-61995000D01*
X99361898Y-61955226D01*
X99550256Y-61877205D01*
X99719774Y-61763937D01*
X99863937Y-61619774D01*
X99977205Y-61450256D01*
X100055226Y-61261898D01*
X100095000Y-61061939D01*
X100095000Y-60858061D01*
X100055226Y-60658102D01*
X99977205Y-60469744D01*
X99863937Y-60300226D01*
X99719774Y-60156063D01*
X99550256Y-60042795D01*
X99361898Y-59964774D01*
X99161939Y-59925000D01*
X98958061Y-59925000D01*
X98758102Y-59964774D01*
X98569744Y-60042795D01*
X98400226Y-60156063D01*
X98356289Y-60200000D01*
X87063711Y-60200000D01*
X87019774Y-60156063D01*
X86850256Y-60042795D01*
X86661898Y-59964774D01*
X86461939Y-59925000D01*
X86258061Y-59925000D01*
X86058102Y-59964774D01*
X85869744Y-60042795D01*
X85700226Y-60156063D01*
X85556063Y-60300226D01*
X85442795Y-60469744D01*
X85364774Y-60658102D01*
X85325000Y-60858061D01*
X85325000Y-61061939D01*
X85364774Y-61261898D01*
X85442795Y-61450256D01*
X85455987Y-61470000D01*
X80959802Y-61470000D01*
X80864693Y-61374891D01*
X80997585Y-61410369D01*
X81338639Y-61432409D01*
X81677439Y-61387489D01*
X82000966Y-61277336D01*
X82199274Y-61171338D01*
X82307107Y-60896712D01*
X81280000Y-59869605D01*
X81265858Y-59883748D01*
X81086253Y-59704143D01*
X81100395Y-59690000D01*
X81086253Y-59675858D01*
X81265858Y-59496253D01*
X81280000Y-59510395D01*
X81294143Y-59496253D01*
X81473748Y-59675858D01*
X81459605Y-59690000D01*
X82486712Y-60717107D01*
X82761338Y-60609274D01*
X82912216Y-60302616D01*
X83000369Y-59972415D01*
X83022409Y-59631361D01*
X82977489Y-59292561D01*
X82867336Y-58969034D01*
X82761338Y-58770726D01*
X82486714Y-58662894D01*
X82602136Y-58547472D01*
X82599664Y-58545000D01*
X99380199Y-58545000D01*
X102497286Y-61662088D01*
X102471675Y-61723919D01*
X102405000Y-62059117D01*
X102405000Y-62400883D01*
X102471675Y-62736081D01*
X102602463Y-63051831D01*
X102758261Y-63285000D01*
X102723740Y-63285000D01*
X102436842Y-63342068D01*
X102166589Y-63454010D01*
X101923368Y-63616525D01*
X101716525Y-63823368D01*
X101554010Y-64066589D01*
X101442068Y-64336842D01*
X101385000Y-64623740D01*
X101385000Y-64916260D01*
X101442068Y-65203158D01*
X101554010Y-65473411D01*
X101716525Y-65716632D01*
X101923368Y-65923475D01*
X102166589Y-66085990D01*
X102436842Y-66197932D01*
X102723740Y-66255000D01*
X103016260Y-66255000D01*
X103303158Y-66197932D01*
X103573411Y-66085990D01*
X103816632Y-65923475D01*
X104023475Y-65716632D01*
X104185990Y-65473411D01*
X104297932Y-65203158D01*
X104355000Y-64916260D01*
X104355000Y-64623740D01*
X104297932Y-64336842D01*
X104185990Y-64066589D01*
X104118110Y-63965000D01*
X104310883Y-63965000D01*
X104646081Y-63898325D01*
X104961831Y-63767537D01*
X105245998Y-63577663D01*
X105487663Y-63335998D01*
X105677537Y-63051831D01*
X105808325Y-62736081D01*
X105875000Y-62400883D01*
X105875000Y-62059117D01*
X105808325Y-61723919D01*
X105677537Y-61408169D01*
X105487663Y-61124002D01*
X105260373Y-60896712D01*
X109462893Y-60896712D01*
X109570726Y-61171338D01*
X109877384Y-61322216D01*
X110207585Y-61410369D01*
X110548639Y-61432409D01*
X110887439Y-61387489D01*
X111210966Y-61277336D01*
X111409274Y-61171338D01*
X111517107Y-60896712D01*
X110490000Y-59869605D01*
X109462893Y-60896712D01*
X105260373Y-60896712D01*
X105245998Y-60882337D01*
X104961831Y-60692463D01*
X104646081Y-60561675D01*
X104310883Y-60495000D01*
X103969117Y-60495000D01*
X103633919Y-60561675D01*
X103572088Y-60587286D01*
X102733441Y-59748639D01*
X108747591Y-59748639D01*
X108792511Y-60087439D01*
X108902664Y-60410966D01*
X109008662Y-60609274D01*
X109283288Y-60717107D01*
X110310395Y-59690000D01*
X110669605Y-59690000D01*
X111696712Y-60717107D01*
X111971338Y-60609274D01*
X112122216Y-60302616D01*
X112210369Y-59972415D01*
X112232409Y-59631361D01*
X112187489Y-59292561D01*
X112077336Y-58969034D01*
X111971338Y-58770726D01*
X111696712Y-58662893D01*
X110669605Y-59690000D01*
X110310395Y-59690000D01*
X109283288Y-58662893D01*
X109008662Y-58770726D01*
X108857784Y-59077384D01*
X108769631Y-59407585D01*
X108747591Y-59748639D01*
X102733441Y-59748639D01*
X101468090Y-58483288D01*
X109462893Y-58483288D01*
X110490000Y-59510395D01*
X111517107Y-58483288D01*
X111409274Y-58208662D01*
X111102616Y-58057784D01*
X110772415Y-57969631D01*
X110431361Y-57947591D01*
X110092561Y-57992511D01*
X109769034Y-58102664D01*
X109570726Y-58208662D01*
X109462893Y-58483288D01*
X101468090Y-58483288D01*
X100258804Y-57274003D01*
X100235001Y-57244999D01*
X100119276Y-57150026D01*
X99987247Y-57079454D01*
X99843986Y-57035997D01*
X99732333Y-57025000D01*
X99732322Y-57025000D01*
X99695000Y-57021324D01*
X99657678Y-57025000D01*
X87941306Y-57025000D01*
X87990226Y-56906898D01*
X88030000Y-56706939D01*
X88030000Y-56503061D01*
X87990226Y-56303102D01*
X87912205Y-56114744D01*
X87881304Y-56068497D01*
X89320000Y-54629801D01*
X89320000Y-54737002D01*
X89484185Y-54737002D01*
X89363519Y-54966891D01*
X89460843Y-55241252D01*
X89609822Y-55491355D01*
X89804731Y-55707588D01*
X90038080Y-55881641D01*
X90300901Y-56006825D01*
X90448110Y-56051476D01*
X90678000Y-55930155D01*
X90678000Y-54737000D01*
X90658000Y-54737000D01*
X90658000Y-54483000D01*
X90678000Y-54483000D01*
X90678000Y-54463000D01*
X90932000Y-54463000D01*
X90932000Y-54483000D01*
X90952000Y-54483000D01*
X90952000Y-54737000D01*
X90932000Y-54737000D01*
X90932000Y-55930155D01*
X91161890Y-56051476D01*
X91309099Y-56006825D01*
X91571920Y-55881641D01*
X91805269Y-55707588D01*
X92000178Y-55491355D01*
X92069805Y-55374466D01*
X92191525Y-55556632D01*
X92398368Y-55763475D01*
X92641589Y-55925990D01*
X92911842Y-56037932D01*
X93198740Y-56095000D01*
X93491260Y-56095000D01*
X93778158Y-56037932D01*
X94048411Y-55925990D01*
X94291632Y-55763475D01*
X94498475Y-55556632D01*
X94615000Y-55382240D01*
X94731525Y-55556632D01*
X94938368Y-55763475D01*
X95181589Y-55925990D01*
X95451842Y-56037932D01*
X95738740Y-56095000D01*
X96031260Y-56095000D01*
X96318158Y-56037932D01*
X96588411Y-55925990D01*
X96831632Y-55763475D01*
X97038475Y-55556632D01*
X97200990Y-55313411D01*
X97312932Y-55043158D01*
X97370000Y-54756260D01*
X97370000Y-54463740D01*
X97312932Y-54176842D01*
X97200990Y-53906589D01*
X97038475Y-53663368D01*
X96906620Y-53531513D01*
X96979180Y-53509502D01*
X97089494Y-53450537D01*
X97186185Y-53371185D01*
X97265537Y-53274494D01*
X97324502Y-53164180D01*
X97360812Y-53044482D01*
X97373072Y-52920000D01*
X97373072Y-51900000D01*
X104111928Y-51900000D01*
X104111928Y-52900000D01*
X104124188Y-53024482D01*
X104160498Y-53144180D01*
X104219463Y-53254494D01*
X104298815Y-53351185D01*
X104395506Y-53430537D01*
X104505820Y-53489502D01*
X104625518Y-53525812D01*
X104750000Y-53538072D01*
X104845674Y-53538072D01*
X104865026Y-53574276D01*
X104918371Y-53639276D01*
X104960000Y-53690001D01*
X104988998Y-53713799D01*
X105761201Y-54486002D01*
X105784999Y-54515001D01*
X105900724Y-54609974D01*
X106032753Y-54680546D01*
X106176014Y-54724003D01*
X106287667Y-54735000D01*
X106287676Y-54735000D01*
X106324999Y-54738676D01*
X106362322Y-54735000D01*
X112992678Y-54735000D01*
X113030000Y-54738676D01*
X113067322Y-54735000D01*
X113067333Y-54735000D01*
X113178986Y-54724003D01*
X113322247Y-54680546D01*
X113454276Y-54609974D01*
X113570001Y-54515001D01*
X113593804Y-54485997D01*
X119694802Y-48385000D01*
X133408353Y-48385000D01*
X133370498Y-48455820D01*
X133334188Y-48575518D01*
X133321928Y-48700000D01*
X133321928Y-49700000D01*
X133334188Y-49824482D01*
X133370498Y-49944180D01*
X133429463Y-50054494D01*
X133508815Y-50151185D01*
X133605506Y-50230537D01*
X133715820Y-50289502D01*
X133835518Y-50325812D01*
X133960000Y-50338072D01*
X134055674Y-50338072D01*
X134075026Y-50374276D01*
X134146201Y-50461002D01*
X134170000Y-50490001D01*
X134198998Y-50513799D01*
X134439349Y-50754150D01*
X134463152Y-50783154D01*
X134578877Y-50878127D01*
X134710906Y-50948699D01*
X134854167Y-50992156D01*
X134965820Y-51003153D01*
X134965830Y-51003153D01*
X135003153Y-51006829D01*
X135040476Y-51003153D01*
X135899442Y-51003153D01*
X135943379Y-51047090D01*
X136112897Y-51160358D01*
X136301255Y-51238379D01*
X136501214Y-51278153D01*
X136705092Y-51278153D01*
X136905051Y-51238379D01*
X137093409Y-51160358D01*
X137262927Y-51047090D01*
X137407090Y-50902927D01*
X137520358Y-50733409D01*
X137598379Y-50545051D01*
X137638153Y-50345092D01*
X137638153Y-50141214D01*
X137598379Y-49941255D01*
X137520358Y-49752897D01*
X137407090Y-49583379D01*
X137262927Y-49439216D01*
X137093409Y-49325948D01*
X136905051Y-49247927D01*
X136705092Y-49208153D01*
X136501214Y-49208153D01*
X136301255Y-49247927D01*
X136112897Y-49325948D01*
X136098072Y-49335854D01*
X136098072Y-48700000D01*
X136085812Y-48575518D01*
X136049502Y-48455820D01*
X136011647Y-48385000D01*
X138308353Y-48385000D01*
X138270498Y-48455820D01*
X138234188Y-48575518D01*
X138221928Y-48700000D01*
X138221928Y-49700000D01*
X138234188Y-49824482D01*
X138270498Y-49944180D01*
X138329463Y-50054494D01*
X138408815Y-50151185D01*
X138505506Y-50230537D01*
X138615820Y-50289502D01*
X138735518Y-50325812D01*
X138860000Y-50338072D01*
X140360000Y-50338072D01*
X140484482Y-50325812D01*
X140604180Y-50289502D01*
X140714494Y-50230537D01*
X140811185Y-50151185D01*
X140890537Y-50054494D01*
X140949502Y-49944180D01*
X140985812Y-49824482D01*
X140998072Y-49700000D01*
X140998072Y-48700000D01*
X140985812Y-48575518D01*
X140949502Y-48455820D01*
X140890537Y-48345506D01*
X140811185Y-48248815D01*
X140714494Y-48169463D01*
X140604180Y-48110498D01*
X140484482Y-48074188D01*
X140360000Y-48061928D01*
X140264326Y-48061928D01*
X140244974Y-48025724D01*
X140150001Y-47909999D01*
X140121004Y-47886202D01*
X139348803Y-47114002D01*
X139325001Y-47084999D01*
X139209276Y-46990026D01*
X139077247Y-46919454D01*
X138933986Y-46875997D01*
X138822333Y-46865000D01*
X138822322Y-46865000D01*
X138785000Y-46861324D01*
X138747678Y-46865000D01*
X119417322Y-46865000D01*
X119379999Y-46861324D01*
X119342676Y-46865000D01*
X119342667Y-46865000D01*
X119231014Y-46875997D01*
X119087753Y-46919454D01*
X118955723Y-46990026D01*
X118872083Y-47058668D01*
X118839999Y-47084999D01*
X118816201Y-47113997D01*
X112715199Y-53215000D01*
X111701647Y-53215000D01*
X111739502Y-53144180D01*
X111775812Y-53024482D01*
X111788072Y-52900000D01*
X111785000Y-52685750D01*
X111626250Y-52527000D01*
X110527000Y-52527000D01*
X110527000Y-52547000D01*
X110273000Y-52547000D01*
X110273000Y-52527000D01*
X109173750Y-52527000D01*
X109015000Y-52685750D01*
X109011928Y-52900000D01*
X109024188Y-53024482D01*
X109060498Y-53144180D01*
X109098353Y-53215000D01*
X106801647Y-53215000D01*
X106839502Y-53144180D01*
X106875812Y-53024482D01*
X106888072Y-52900000D01*
X106888072Y-51900000D01*
X109011928Y-51900000D01*
X109015000Y-52114250D01*
X109173750Y-52273000D01*
X110273000Y-52273000D01*
X110273000Y-51423750D01*
X110527000Y-51423750D01*
X110527000Y-52273000D01*
X111626250Y-52273000D01*
X111785000Y-52114250D01*
X111788072Y-51900000D01*
X111775812Y-51775518D01*
X111739502Y-51655820D01*
X111680537Y-51545506D01*
X111601185Y-51448815D01*
X111504494Y-51369463D01*
X111394180Y-51310498D01*
X111274482Y-51274188D01*
X111150000Y-51261928D01*
X110685750Y-51265000D01*
X110527000Y-51423750D01*
X110273000Y-51423750D01*
X110114250Y-51265000D01*
X109650000Y-51261928D01*
X109525518Y-51274188D01*
X109405820Y-51310498D01*
X109295506Y-51369463D01*
X109198815Y-51448815D01*
X109119463Y-51545506D01*
X109060498Y-51655820D01*
X109024188Y-51775518D01*
X109011928Y-51900000D01*
X106888072Y-51900000D01*
X106875812Y-51775518D01*
X106839502Y-51655820D01*
X106780537Y-51545506D01*
X106701185Y-51448815D01*
X106604494Y-51369463D01*
X106494180Y-51310498D01*
X106374482Y-51274188D01*
X106250000Y-51261928D01*
X104750000Y-51261928D01*
X104625518Y-51274188D01*
X104505820Y-51310498D01*
X104395506Y-51369463D01*
X104298815Y-51448815D01*
X104219463Y-51545506D01*
X104160498Y-51655820D01*
X104124188Y-51775518D01*
X104111928Y-51900000D01*
X97373072Y-51900000D01*
X97373072Y-51220000D01*
X97360812Y-51095518D01*
X97324502Y-50975820D01*
X97265537Y-50865506D01*
X97186185Y-50768815D01*
X97089494Y-50689463D01*
X96979180Y-50630498D01*
X96859482Y-50594188D01*
X96735000Y-50581928D01*
X95035000Y-50581928D01*
X94910518Y-50594188D01*
X94790820Y-50630498D01*
X94680506Y-50689463D01*
X94583815Y-50768815D01*
X94504463Y-50865506D01*
X94445498Y-50975820D01*
X94423487Y-51048380D01*
X94291632Y-50916525D01*
X94048411Y-50754010D01*
X93778158Y-50642068D01*
X93491260Y-50585000D01*
X93198740Y-50585000D01*
X92911842Y-50642068D01*
X92641589Y-50754010D01*
X92398368Y-50916525D01*
X92191525Y-51123368D01*
X92075000Y-51297760D01*
X91958475Y-51123368D01*
X91751632Y-50916525D01*
X91508411Y-50754010D01*
X91238158Y-50642068D01*
X90951260Y-50585000D01*
X90658740Y-50585000D01*
X90371842Y-50642068D01*
X90101589Y-50754010D01*
X89858368Y-50916525D01*
X89660000Y-51114893D01*
X89660000Y-49844801D01*
X91119802Y-48385000D01*
X104198353Y-48385000D01*
X104160498Y-48455820D01*
X104124188Y-48575518D01*
X104111928Y-48700000D01*
X104111928Y-49700000D01*
X104124188Y-49824482D01*
X104160498Y-49944180D01*
X104219463Y-50054494D01*
X104298815Y-50151185D01*
X104395506Y-50230537D01*
X104505820Y-50289502D01*
X104625518Y-50325812D01*
X104750000Y-50338072D01*
X104845674Y-50338072D01*
X104865026Y-50374276D01*
X104936201Y-50461002D01*
X104960000Y-50490001D01*
X104988998Y-50513799D01*
X105229349Y-50754150D01*
X105253152Y-50783154D01*
X105368877Y-50878127D01*
X105500906Y-50948699D01*
X105644167Y-50992156D01*
X105755820Y-51003153D01*
X105755830Y-51003153D01*
X105793153Y-51006829D01*
X105830476Y-51003153D01*
X106689442Y-51003153D01*
X106733379Y-51047090D01*
X106902897Y-51160358D01*
X107091255Y-51238379D01*
X107291214Y-51278153D01*
X107495092Y-51278153D01*
X107695051Y-51238379D01*
X107883409Y-51160358D01*
X108052927Y-51047090D01*
X108197090Y-50902927D01*
X108310358Y-50733409D01*
X108388379Y-50545051D01*
X108428153Y-50345092D01*
X108428153Y-50141214D01*
X108388379Y-49941255D01*
X108310358Y-49752897D01*
X108197090Y-49583379D01*
X108052927Y-49439216D01*
X107883409Y-49325948D01*
X107695051Y-49247927D01*
X107495092Y-49208153D01*
X107291214Y-49208153D01*
X107091255Y-49247927D01*
X106902897Y-49325948D01*
X106888072Y-49335854D01*
X106888072Y-48700000D01*
X106875812Y-48575518D01*
X106839502Y-48455820D01*
X106801647Y-48385000D01*
X109098353Y-48385000D01*
X109060498Y-48455820D01*
X109024188Y-48575518D01*
X109011928Y-48700000D01*
X109011928Y-49700000D01*
X109024188Y-49824482D01*
X109060498Y-49944180D01*
X109119463Y-50054494D01*
X109198815Y-50151185D01*
X109295506Y-50230537D01*
X109405820Y-50289502D01*
X109525518Y-50325812D01*
X109650000Y-50338072D01*
X111150000Y-50338072D01*
X111274482Y-50325812D01*
X111394180Y-50289502D01*
X111504494Y-50230537D01*
X111601185Y-50151185D01*
X111680537Y-50054494D01*
X111739502Y-49944180D01*
X111775812Y-49824482D01*
X111788072Y-49700000D01*
X111788072Y-48700000D01*
X111775812Y-48575518D01*
X111739502Y-48455820D01*
X111680537Y-48345506D01*
X111601185Y-48248815D01*
X111504494Y-48169463D01*
X111394180Y-48110498D01*
X111274482Y-48074188D01*
X111150000Y-48061928D01*
X111054326Y-48061928D01*
X111034974Y-48025724D01*
X110940001Y-47909999D01*
X110911004Y-47886202D01*
X110138803Y-47114002D01*
X110115001Y-47084999D01*
X109999276Y-46990026D01*
X109867247Y-46919454D01*
X109723986Y-46875997D01*
X109612333Y-46865000D01*
X109612322Y-46865000D01*
X109575000Y-46861324D01*
X109537678Y-46865000D01*
X90842323Y-46865000D01*
X90805000Y-46861324D01*
X90767677Y-46865000D01*
X90767667Y-46865000D01*
X90656014Y-46875997D01*
X90512753Y-46919454D01*
X90380724Y-46990026D01*
X90264999Y-47084999D01*
X90241201Y-47113997D01*
X88388998Y-48966201D01*
X88360000Y-48989999D01*
X88336202Y-49018997D01*
X88336201Y-49018998D01*
X88265026Y-49105724D01*
X88194454Y-49237754D01*
X88175512Y-49300201D01*
X88150998Y-49381014D01*
X88140042Y-49492247D01*
X88136324Y-49530000D01*
X88140001Y-49567332D01*
X88140000Y-51755198D01*
X86680199Y-53215000D01*
X82491647Y-53215000D01*
X82529502Y-53144180D01*
X82565812Y-53024482D01*
X82578072Y-52900000D01*
X82575000Y-52685750D01*
X82416250Y-52527000D01*
X81317000Y-52527000D01*
X81317000Y-52547000D01*
X81063000Y-52547000D01*
X81063000Y-52527000D01*
X79963750Y-52527000D01*
X79805000Y-52685750D01*
X79801928Y-52900000D01*
X79814188Y-53024482D01*
X79850498Y-53144180D01*
X79888353Y-53215000D01*
X77591647Y-53215000D01*
X77629502Y-53144180D01*
X77665812Y-53024482D01*
X77678072Y-52900000D01*
X77678072Y-51900000D01*
X79801928Y-51900000D01*
X79805000Y-52114250D01*
X79963750Y-52273000D01*
X81063000Y-52273000D01*
X81063000Y-51423750D01*
X81317000Y-51423750D01*
X81317000Y-52273000D01*
X82416250Y-52273000D01*
X82575000Y-52114250D01*
X82578072Y-51900000D01*
X82565812Y-51775518D01*
X82529502Y-51655820D01*
X82470537Y-51545506D01*
X82391185Y-51448815D01*
X82294494Y-51369463D01*
X82184180Y-51310498D01*
X82064482Y-51274188D01*
X81940000Y-51261928D01*
X81475750Y-51265000D01*
X81317000Y-51423750D01*
X81063000Y-51423750D01*
X80904250Y-51265000D01*
X80440000Y-51261928D01*
X80315518Y-51274188D01*
X80195820Y-51310498D01*
X80085506Y-51369463D01*
X79988815Y-51448815D01*
X79909463Y-51545506D01*
X79850498Y-51655820D01*
X79814188Y-51775518D01*
X79801928Y-51900000D01*
X77678072Y-51900000D01*
X77665812Y-51775518D01*
X77629502Y-51655820D01*
X77570537Y-51545506D01*
X77491185Y-51448815D01*
X77394494Y-51369463D01*
X77284180Y-51310498D01*
X77164482Y-51274188D01*
X77040000Y-51261928D01*
X75540000Y-51261928D01*
X75415518Y-51274188D01*
X75295820Y-51310498D01*
X75185506Y-51369463D01*
X75088815Y-51448815D01*
X75009463Y-51545506D01*
X74950498Y-51655820D01*
X74914188Y-51775518D01*
X74901928Y-51900000D01*
X74901928Y-52900000D01*
X74914188Y-53024482D01*
X74950498Y-53144180D01*
X75009463Y-53254494D01*
X75088815Y-53351185D01*
X75185506Y-53430537D01*
X75295820Y-53489502D01*
X75415518Y-53525812D01*
X75540000Y-53538072D01*
X75635674Y-53538072D01*
X75655026Y-53574276D01*
X75708371Y-53639276D01*
X75750000Y-53690001D01*
X75778998Y-53713799D01*
X76551201Y-54486002D01*
X76574999Y-54515001D01*
X76690724Y-54609974D01*
X76822753Y-54680546D01*
X76966014Y-54724003D01*
X77077667Y-54735000D01*
X77077676Y-54735000D01*
X77114999Y-54738676D01*
X77152322Y-54735000D01*
X86957678Y-54735000D01*
X86995000Y-54738676D01*
X87032322Y-54735000D01*
X87032333Y-54735000D01*
X87068790Y-54731409D01*
X86483998Y-55316201D01*
X86455000Y-55339999D01*
X86431202Y-55368997D01*
X86431201Y-55368998D01*
X86360026Y-55455724D01*
X86289454Y-55587754D01*
X86282775Y-55609774D01*
X86245997Y-55731014D01*
X86235000Y-55842667D01*
X86235000Y-55842678D01*
X86231324Y-55880000D01*
X86233562Y-55902727D01*
X86191063Y-55945226D01*
X86077795Y-56114744D01*
X85999774Y-56303102D01*
X85960000Y-56503061D01*
X85960000Y-56706939D01*
X85999774Y-56906898D01*
X86048694Y-57025000D01*
X64172322Y-57025000D01*
X64134999Y-57021324D01*
X64097676Y-57025000D01*
X64097667Y-57025000D01*
X63986014Y-57035997D01*
X63842753Y-57079454D01*
X63710724Y-57150026D01*
X63710722Y-57150027D01*
X63710723Y-57150027D01*
X63623996Y-57221201D01*
X63623992Y-57221205D01*
X63594999Y-57244999D01*
X63571205Y-57273992D01*
X61555199Y-59290000D01*
X61493061Y-59290000D01*
X61293102Y-59329774D01*
X61104744Y-59407795D01*
X60935226Y-59521063D01*
X60791063Y-59665226D01*
X60677795Y-59834744D01*
X60599774Y-60023102D01*
X60560000Y-60223061D01*
X60560000Y-60426939D01*
X60599774Y-60626898D01*
X60677795Y-60815256D01*
X60791063Y-60984774D01*
X60935226Y-61128937D01*
X61104744Y-61242205D01*
X61189953Y-61277500D01*
X61104744Y-61312795D01*
X60935226Y-61426063D01*
X60791063Y-61570226D01*
X60677795Y-61739744D01*
X60599774Y-61928102D01*
X60560000Y-62128061D01*
X60560000Y-62331939D01*
X60599774Y-62531898D01*
X60677795Y-62720256D01*
X60791063Y-62889774D01*
X60935226Y-63033937D01*
X61104744Y-63147205D01*
X61293102Y-63225226D01*
X61493061Y-63265000D01*
X61696939Y-63265000D01*
X61896898Y-63225226D01*
X62085256Y-63147205D01*
X62093503Y-63141695D01*
X52987553Y-72247646D01*
X52974180Y-72240498D01*
X52854482Y-72204188D01*
X52730000Y-72191928D01*
X51230000Y-72191928D01*
X51105518Y-72204188D01*
X50985820Y-72240498D01*
X50875506Y-72299463D01*
X50778815Y-72378815D01*
X50699463Y-72475506D01*
X50640498Y-72585820D01*
X50604188Y-72705518D01*
X50591928Y-72830000D01*
X48654801Y-72830000D01*
X48643804Y-72819003D01*
X48620001Y-72789999D01*
X48504276Y-72695026D01*
X48442634Y-72662077D01*
X48419502Y-72585820D01*
X48360537Y-72475506D01*
X48281185Y-72378815D01*
X48184494Y-72299463D01*
X48074180Y-72240498D01*
X47954482Y-72204188D01*
X47830000Y-72191928D01*
X46330000Y-72191928D01*
X46205518Y-72204188D01*
X46085820Y-72240498D01*
X45975506Y-72299463D01*
X45878815Y-72378815D01*
X45799463Y-72475506D01*
X45740498Y-72585820D01*
X45704188Y-72705518D01*
X45691928Y-72830000D01*
X45691928Y-73830000D01*
X45704188Y-73954482D01*
X45740498Y-74074180D01*
X45799463Y-74184494D01*
X45878815Y-74281185D01*
X45975506Y-74360537D01*
X46085820Y-74419502D01*
X46205518Y-74455812D01*
X46330000Y-74468072D01*
X47584613Y-74468072D01*
X47499101Y-74596050D01*
X47421080Y-74784408D01*
X47417382Y-74803000D01*
X38125000Y-74803000D01*
X38125000Y-74552285D01*
X37977623Y-73811372D01*
X37688533Y-73113446D01*
X37268839Y-72485330D01*
X36734670Y-71951161D01*
X36106554Y-71531467D01*
X35408628Y-71242377D01*
X34667715Y-71095000D01*
X34417000Y-71095000D01*
X34417000Y-64623740D01*
X42965000Y-64623740D01*
X42965000Y-64916260D01*
X43022068Y-65203158D01*
X43134010Y-65473411D01*
X43296525Y-65716632D01*
X43503368Y-65923475D01*
X43746589Y-66085990D01*
X44016842Y-66197932D01*
X44303740Y-66255000D01*
X44596260Y-66255000D01*
X44883158Y-66197932D01*
X45153411Y-66085990D01*
X45396632Y-65923475D01*
X45603475Y-65716632D01*
X45765990Y-65473411D01*
X45877932Y-65203158D01*
X45935000Y-64916260D01*
X45935000Y-64623740D01*
X45912471Y-64510475D01*
X46895000Y-64510475D01*
X46895000Y-65029525D01*
X46996261Y-65538601D01*
X47194893Y-66018141D01*
X47483262Y-66449715D01*
X47850285Y-66816738D01*
X48281859Y-67105107D01*
X48761399Y-67303739D01*
X49270475Y-67405000D01*
X49789525Y-67405000D01*
X50298601Y-67303739D01*
X50778141Y-67105107D01*
X51209715Y-66816738D01*
X51576738Y-66449715D01*
X51865107Y-66018141D01*
X52063739Y-65538601D01*
X52165000Y-65029525D01*
X52165000Y-64623740D01*
X53125000Y-64623740D01*
X53125000Y-64916260D01*
X53182068Y-65203158D01*
X53294010Y-65473411D01*
X53456525Y-65716632D01*
X53663368Y-65923475D01*
X53906589Y-66085990D01*
X54176842Y-66197932D01*
X54463740Y-66255000D01*
X54756260Y-66255000D01*
X55043158Y-66197932D01*
X55313411Y-66085990D01*
X55556632Y-65923475D01*
X55763475Y-65716632D01*
X55925990Y-65473411D01*
X56037932Y-65203158D01*
X56095000Y-64916260D01*
X56095000Y-64623740D01*
X56037932Y-64336842D01*
X55925990Y-64066589D01*
X55763475Y-63823368D01*
X55556632Y-63616525D01*
X55313411Y-63454010D01*
X55043158Y-63342068D01*
X54756260Y-63285000D01*
X54463740Y-63285000D01*
X54176842Y-63342068D01*
X53906589Y-63454010D01*
X53663368Y-63616525D01*
X53456525Y-63823368D01*
X53294010Y-64066589D01*
X53182068Y-64336842D01*
X53125000Y-64623740D01*
X52165000Y-64623740D01*
X52165000Y-64510475D01*
X52063739Y-64001399D01*
X51865107Y-63521859D01*
X51576738Y-63090285D01*
X51209715Y-62723262D01*
X50778141Y-62434893D01*
X50298601Y-62236261D01*
X49789525Y-62135000D01*
X49270475Y-62135000D01*
X48761399Y-62236261D01*
X48281859Y-62434893D01*
X47850285Y-62723262D01*
X47483262Y-63090285D01*
X47194893Y-63521859D01*
X46996261Y-64001399D01*
X46895000Y-64510475D01*
X45912471Y-64510475D01*
X45877932Y-64336842D01*
X45765990Y-64066589D01*
X45698110Y-63965000D01*
X45890883Y-63965000D01*
X46226081Y-63898325D01*
X46541831Y-63767537D01*
X46825998Y-63577663D01*
X47067663Y-63335998D01*
X47257537Y-63051831D01*
X47388325Y-62736081D01*
X47455000Y-62400883D01*
X47455000Y-62059117D01*
X47388325Y-61723919D01*
X47257537Y-61408169D01*
X47067663Y-61124002D01*
X46840373Y-60896712D01*
X51042893Y-60896712D01*
X51150726Y-61171338D01*
X51457384Y-61322216D01*
X51787585Y-61410369D01*
X52128639Y-61432409D01*
X52467439Y-61387489D01*
X52790966Y-61277336D01*
X52989274Y-61171338D01*
X53097107Y-60896712D01*
X52070000Y-59869605D01*
X51042893Y-60896712D01*
X46840373Y-60896712D01*
X46825998Y-60882337D01*
X46541831Y-60692463D01*
X46226081Y-60561675D01*
X45890883Y-60495000D01*
X45549117Y-60495000D01*
X45213919Y-60561675D01*
X44898169Y-60692463D01*
X44614002Y-60882337D01*
X44372337Y-61124002D01*
X44182463Y-61408169D01*
X44051675Y-61723919D01*
X43985000Y-62059117D01*
X43985000Y-62400883D01*
X44051675Y-62736081D01*
X44182463Y-63051831D01*
X44338261Y-63285000D01*
X44303740Y-63285000D01*
X44016842Y-63342068D01*
X43746589Y-63454010D01*
X43503368Y-63616525D01*
X43296525Y-63823368D01*
X43134010Y-64066589D01*
X43022068Y-64336842D01*
X42965000Y-64623740D01*
X34417000Y-64623740D01*
X34417000Y-59748639D01*
X50327591Y-59748639D01*
X50372511Y-60087439D01*
X50482664Y-60410966D01*
X50588662Y-60609274D01*
X50863288Y-60717107D01*
X51890395Y-59690000D01*
X52249605Y-59690000D01*
X53276712Y-60717107D01*
X53551338Y-60609274D01*
X53702216Y-60302616D01*
X53790369Y-59972415D01*
X53812409Y-59631361D01*
X53767489Y-59292561D01*
X53657336Y-58969034D01*
X53551338Y-58770726D01*
X53276712Y-58662893D01*
X52249605Y-59690000D01*
X51890395Y-59690000D01*
X50863288Y-58662893D01*
X50588662Y-58770726D01*
X50437784Y-59077384D01*
X50349631Y-59407585D01*
X50327591Y-59748639D01*
X34417000Y-59748639D01*
X34417000Y-58483288D01*
X51042893Y-58483288D01*
X52070000Y-59510395D01*
X53097107Y-58483288D01*
X52989274Y-58208662D01*
X52682616Y-58057784D01*
X52352415Y-57969631D01*
X52011361Y-57947591D01*
X51672561Y-57992511D01*
X51349034Y-58102664D01*
X51150726Y-58208662D01*
X51042893Y-58483288D01*
X34417000Y-58483288D01*
X34417000Y-51900000D01*
X45691928Y-51900000D01*
X45691928Y-52900000D01*
X45704188Y-53024482D01*
X45740498Y-53144180D01*
X45799463Y-53254494D01*
X45878815Y-53351185D01*
X45975506Y-53430537D01*
X46085820Y-53489502D01*
X46205518Y-53525812D01*
X46330000Y-53538072D01*
X46425674Y-53538072D01*
X46445026Y-53574276D01*
X46498371Y-53639276D01*
X46540000Y-53690001D01*
X46568998Y-53713799D01*
X47341201Y-54486002D01*
X47364999Y-54515001D01*
X47480724Y-54609974D01*
X47612753Y-54680546D01*
X47756014Y-54724003D01*
X47867667Y-54735000D01*
X47867676Y-54735000D01*
X47904999Y-54738676D01*
X47942322Y-54735000D01*
X60922678Y-54735000D01*
X60960000Y-54738676D01*
X60997322Y-54735000D01*
X60997333Y-54735000D01*
X61108986Y-54724003D01*
X61252247Y-54680546D01*
X61384276Y-54609974D01*
X61500001Y-54515001D01*
X61523804Y-54485997D01*
X67624802Y-48385000D01*
X71454167Y-48385000D01*
X71453720Y-48385669D01*
X71375699Y-48574027D01*
X71335925Y-48773986D01*
X71335925Y-48977864D01*
X71375699Y-49177823D01*
X71453720Y-49366181D01*
X71566988Y-49535699D01*
X71711151Y-49679862D01*
X71880669Y-49793130D01*
X72069027Y-49871151D01*
X72268986Y-49910925D01*
X72472864Y-49910925D01*
X72672823Y-49871151D01*
X72861181Y-49793130D01*
X73030699Y-49679862D01*
X73074636Y-49635925D01*
X74901928Y-49635925D01*
X74901928Y-49700000D01*
X74914188Y-49824482D01*
X74950498Y-49944180D01*
X75009463Y-50054494D01*
X75088815Y-50151185D01*
X75185506Y-50230537D01*
X75295820Y-50289502D01*
X75415518Y-50325812D01*
X75540000Y-50338072D01*
X75635674Y-50338072D01*
X75655026Y-50374276D01*
X75726201Y-50461002D01*
X75750000Y-50490001D01*
X75778998Y-50513799D01*
X76019349Y-50754150D01*
X76043152Y-50783154D01*
X76158877Y-50878127D01*
X76290906Y-50948699D01*
X76434167Y-50992156D01*
X76545820Y-51003153D01*
X76545830Y-51003153D01*
X76583153Y-51006829D01*
X76620476Y-51003153D01*
X77479442Y-51003153D01*
X77523379Y-51047090D01*
X77692897Y-51160358D01*
X77881255Y-51238379D01*
X78081214Y-51278153D01*
X78285092Y-51278153D01*
X78485051Y-51238379D01*
X78673409Y-51160358D01*
X78842927Y-51047090D01*
X78987090Y-50902927D01*
X79100358Y-50733409D01*
X79178379Y-50545051D01*
X79218153Y-50345092D01*
X79218153Y-50141214D01*
X79178379Y-49941255D01*
X79100358Y-49752897D01*
X78987090Y-49583379D01*
X78842927Y-49439216D01*
X78673409Y-49325948D01*
X78485051Y-49247927D01*
X78285092Y-49208153D01*
X78081214Y-49208153D01*
X77881255Y-49247927D01*
X77692897Y-49325948D01*
X77678072Y-49335854D01*
X77678072Y-48700000D01*
X77665812Y-48575518D01*
X77629502Y-48455820D01*
X77591647Y-48385000D01*
X79888353Y-48385000D01*
X79850498Y-48455820D01*
X79814188Y-48575518D01*
X79801928Y-48700000D01*
X79801928Y-49700000D01*
X79814188Y-49824482D01*
X79850498Y-49944180D01*
X79909463Y-50054494D01*
X79988815Y-50151185D01*
X80085506Y-50230537D01*
X80195820Y-50289502D01*
X80315518Y-50325812D01*
X80440000Y-50338072D01*
X81940000Y-50338072D01*
X82064482Y-50325812D01*
X82184180Y-50289502D01*
X82294494Y-50230537D01*
X82391185Y-50151185D01*
X82470537Y-50054494D01*
X82529502Y-49944180D01*
X82565812Y-49824482D01*
X82578072Y-49700000D01*
X82578072Y-48700000D01*
X82565812Y-48575518D01*
X82529502Y-48455820D01*
X82470537Y-48345506D01*
X82391185Y-48248815D01*
X82294494Y-48169463D01*
X82184180Y-48110498D01*
X82064482Y-48074188D01*
X81940000Y-48061928D01*
X81844326Y-48061928D01*
X81824974Y-48025724D01*
X81730001Y-47909999D01*
X81701004Y-47886202D01*
X80928803Y-47114002D01*
X80905001Y-47084999D01*
X80789276Y-46990026D01*
X80657247Y-46919454D01*
X80513986Y-46875997D01*
X80402333Y-46865000D01*
X80402322Y-46865000D01*
X80365000Y-46861324D01*
X80327678Y-46865000D01*
X67347322Y-46865000D01*
X67309999Y-46861324D01*
X67272676Y-46865000D01*
X67272667Y-46865000D01*
X67161014Y-46875997D01*
X67017753Y-46919454D01*
X66885723Y-46990026D01*
X66802083Y-47058668D01*
X66769999Y-47084999D01*
X66746201Y-47113997D01*
X63689379Y-50170820D01*
X63668937Y-50140226D01*
X63524774Y-49996063D01*
X63355256Y-49882795D01*
X63166898Y-49804774D01*
X62966939Y-49765000D01*
X62763061Y-49765000D01*
X62563102Y-49804774D01*
X62374744Y-49882795D01*
X62205226Y-49996063D01*
X62161289Y-50040000D01*
X55559802Y-50040000D01*
X54312863Y-48793061D01*
X60560000Y-48793061D01*
X60560000Y-48996939D01*
X60599774Y-49196898D01*
X60677795Y-49385256D01*
X60791063Y-49554774D01*
X60935226Y-49698937D01*
X61104744Y-49812205D01*
X61293102Y-49890226D01*
X61493061Y-49930000D01*
X61696939Y-49930000D01*
X61896898Y-49890226D01*
X62085256Y-49812205D01*
X62254774Y-49698937D01*
X62398937Y-49554774D01*
X62512205Y-49385256D01*
X62590226Y-49196898D01*
X62630000Y-48996939D01*
X62630000Y-48793061D01*
X62590226Y-48593102D01*
X62512205Y-48404744D01*
X62398937Y-48235226D01*
X62355000Y-48191289D01*
X62355000Y-47304801D01*
X65084802Y-44575000D01*
X126042044Y-44575000D01*
X126079366Y-44578676D01*
X126116688Y-44575000D01*
X126116699Y-44575000D01*
X126228352Y-44564003D01*
X126371613Y-44520546D01*
X126503642Y-44449974D01*
X126619367Y-44355001D01*
X126643170Y-44325997D01*
X130624690Y-40344477D01*
X130595000Y-40493740D01*
X130595000Y-40786260D01*
X130652068Y-41073158D01*
X130764010Y-41343411D01*
X130926525Y-41586632D01*
X131133368Y-41793475D01*
X131376589Y-41955990D01*
X131646842Y-42067932D01*
X131933740Y-42125000D01*
X132226260Y-42125000D01*
X132513158Y-42067932D01*
X132783411Y-41955990D01*
X133026632Y-41793475D01*
X133233475Y-41586632D01*
X133395990Y-41343411D01*
X133507932Y-41073158D01*
X133565000Y-40786260D01*
X133565000Y-40493740D01*
X133542471Y-40380475D01*
X134525000Y-40380475D01*
X134525000Y-40899525D01*
X134626261Y-41408601D01*
X134824893Y-41888141D01*
X135113262Y-42319715D01*
X135480285Y-42686738D01*
X135911859Y-42975107D01*
X136391399Y-43173739D01*
X136900475Y-43275000D01*
X137419525Y-43275000D01*
X137928601Y-43173739D01*
X138408141Y-42975107D01*
X138839715Y-42686738D01*
X139206738Y-42319715D01*
X139495107Y-41888141D01*
X139693739Y-41408601D01*
X139795000Y-40899525D01*
X139795000Y-40493740D01*
X140755000Y-40493740D01*
X140755000Y-40786260D01*
X140812068Y-41073158D01*
X140924010Y-41343411D01*
X141086525Y-41586632D01*
X141293368Y-41793475D01*
X141536589Y-41955990D01*
X141806842Y-42067932D01*
X142093740Y-42125000D01*
X142386260Y-42125000D01*
X142673158Y-42067932D01*
X142943411Y-41955990D01*
X143186632Y-41793475D01*
X143393475Y-41586632D01*
X143555990Y-41343411D01*
X143667932Y-41073158D01*
X143725000Y-40786260D01*
X143725000Y-40493740D01*
X143667932Y-40206842D01*
X143555990Y-39936589D01*
X143393475Y-39693368D01*
X143186632Y-39486525D01*
X142943411Y-39324010D01*
X142673158Y-39212068D01*
X142386260Y-39155000D01*
X142093740Y-39155000D01*
X141806842Y-39212068D01*
X141536589Y-39324010D01*
X141293368Y-39486525D01*
X141086525Y-39693368D01*
X140924010Y-39936589D01*
X140812068Y-40206842D01*
X140755000Y-40493740D01*
X139795000Y-40493740D01*
X139795000Y-40380475D01*
X139693739Y-39871399D01*
X139495107Y-39391859D01*
X139206738Y-38960285D01*
X138839715Y-38593262D01*
X138408141Y-38304893D01*
X137928601Y-38106261D01*
X137419525Y-38005000D01*
X136900475Y-38005000D01*
X136391399Y-38106261D01*
X135911859Y-38304893D01*
X135480285Y-38593262D01*
X135113262Y-38960285D01*
X134824893Y-39391859D01*
X134626261Y-39871399D01*
X134525000Y-40380475D01*
X133542471Y-40380475D01*
X133507932Y-40206842D01*
X133395990Y-39936589D01*
X133328110Y-39835000D01*
X133520883Y-39835000D01*
X133856081Y-39768325D01*
X134171831Y-39637537D01*
X134455998Y-39447663D01*
X134697663Y-39205998D01*
X134887537Y-38921831D01*
X135018325Y-38606081D01*
X135085000Y-38270883D01*
X135085000Y-37929117D01*
X135018325Y-37593919D01*
X134887537Y-37278169D01*
X134697663Y-36994002D01*
X134470373Y-36766712D01*
X138672893Y-36766712D01*
X138780726Y-37041338D01*
X139087384Y-37192216D01*
X139417585Y-37280369D01*
X139758639Y-37302409D01*
X140097439Y-37257489D01*
X140420966Y-37147336D01*
X140619274Y-37041338D01*
X140727107Y-36766712D01*
X139700000Y-35739605D01*
X138672893Y-36766712D01*
X134470373Y-36766712D01*
X134455998Y-36752337D01*
X134171831Y-36562463D01*
X133856081Y-36431675D01*
X133520883Y-36365000D01*
X133179117Y-36365000D01*
X132843919Y-36431675D01*
X132528169Y-36562463D01*
X132244002Y-36752337D01*
X132002337Y-36994002D01*
X131812463Y-37278169D01*
X131788120Y-37336938D01*
X131757033Y-37340000D01*
X131645380Y-37350997D01*
X131502119Y-37394454D01*
X131370090Y-37465026D01*
X131254365Y-37559999D01*
X131230567Y-37588997D01*
X125764565Y-43055000D01*
X109005262Y-43055000D01*
X109198141Y-42975107D01*
X109629715Y-42686738D01*
X109996738Y-42319715D01*
X110285107Y-41888141D01*
X110483739Y-41408601D01*
X110585000Y-40899525D01*
X110585000Y-40493740D01*
X111545000Y-40493740D01*
X111545000Y-40786260D01*
X111602068Y-41073158D01*
X111714010Y-41343411D01*
X111876525Y-41586632D01*
X112083368Y-41793475D01*
X112326589Y-41955990D01*
X112596842Y-42067932D01*
X112883740Y-42125000D01*
X113176260Y-42125000D01*
X113463158Y-42067932D01*
X113733411Y-41955990D01*
X113976632Y-41793475D01*
X114183475Y-41586632D01*
X114345990Y-41343411D01*
X114457932Y-41073158D01*
X114515000Y-40786260D01*
X114515000Y-40493740D01*
X114457932Y-40206842D01*
X114345990Y-39936589D01*
X114183475Y-39693368D01*
X113976632Y-39486525D01*
X113733411Y-39324010D01*
X113463158Y-39212068D01*
X113176260Y-39155000D01*
X112883740Y-39155000D01*
X112596842Y-39212068D01*
X112326589Y-39324010D01*
X112083368Y-39486525D01*
X111876525Y-39693368D01*
X111714010Y-39936589D01*
X111602068Y-40206842D01*
X111545000Y-40493740D01*
X110585000Y-40493740D01*
X110585000Y-40380475D01*
X110483739Y-39871399D01*
X110285107Y-39391859D01*
X109996738Y-38960285D01*
X109629715Y-38593262D01*
X109198141Y-38304893D01*
X108718601Y-38106261D01*
X108209525Y-38005000D01*
X107690475Y-38005000D01*
X107181399Y-38106261D01*
X106701859Y-38304893D01*
X106270285Y-38593262D01*
X105903262Y-38960285D01*
X105614893Y-39391859D01*
X105416261Y-39871399D01*
X105315000Y-40380475D01*
X105315000Y-40899525D01*
X105416261Y-41408601D01*
X105614893Y-41888141D01*
X105903262Y-42319715D01*
X106270285Y-42686738D01*
X106701859Y-42975107D01*
X106894738Y-43055000D01*
X79795262Y-43055000D01*
X79988141Y-42975107D01*
X80419715Y-42686738D01*
X80786738Y-42319715D01*
X81075107Y-41888141D01*
X81273739Y-41408601D01*
X81375000Y-40899525D01*
X81375000Y-40493740D01*
X82335000Y-40493740D01*
X82335000Y-40786260D01*
X82392068Y-41073158D01*
X82504010Y-41343411D01*
X82666525Y-41586632D01*
X82873368Y-41793475D01*
X83116589Y-41955990D01*
X83386842Y-42067932D01*
X83673740Y-42125000D01*
X83966260Y-42125000D01*
X84253158Y-42067932D01*
X84523411Y-41955990D01*
X84766632Y-41793475D01*
X84973475Y-41586632D01*
X85135990Y-41343411D01*
X85247932Y-41073158D01*
X85305000Y-40786260D01*
X85305000Y-40493740D01*
X101385000Y-40493740D01*
X101385000Y-40786260D01*
X101442068Y-41073158D01*
X101554010Y-41343411D01*
X101716525Y-41586632D01*
X101923368Y-41793475D01*
X102166589Y-41955990D01*
X102436842Y-42067932D01*
X102723740Y-42125000D01*
X103016260Y-42125000D01*
X103303158Y-42067932D01*
X103573411Y-41955990D01*
X103816632Y-41793475D01*
X104023475Y-41586632D01*
X104185990Y-41343411D01*
X104297932Y-41073158D01*
X104355000Y-40786260D01*
X104355000Y-40493740D01*
X104297932Y-40206842D01*
X104185990Y-39936589D01*
X104118110Y-39835000D01*
X104310883Y-39835000D01*
X104646081Y-39768325D01*
X104961831Y-39637537D01*
X105245998Y-39447663D01*
X105487663Y-39205998D01*
X105677537Y-38921831D01*
X105808325Y-38606081D01*
X105875000Y-38270883D01*
X105875000Y-37929117D01*
X105808325Y-37593919D01*
X105677537Y-37278169D01*
X105487663Y-36994002D01*
X105260373Y-36766712D01*
X109462893Y-36766712D01*
X109570726Y-37041338D01*
X109877384Y-37192216D01*
X110207585Y-37280369D01*
X110548639Y-37302409D01*
X110887439Y-37257489D01*
X111210966Y-37147336D01*
X111409274Y-37041338D01*
X111517107Y-36766712D01*
X110490000Y-35739605D01*
X109462893Y-36766712D01*
X105260373Y-36766712D01*
X105245998Y-36752337D01*
X104961831Y-36562463D01*
X104646081Y-36431675D01*
X104310883Y-36365000D01*
X103969117Y-36365000D01*
X103633919Y-36431675D01*
X103318169Y-36562463D01*
X103034002Y-36752337D01*
X102792337Y-36994002D01*
X102602463Y-37278169D01*
X102471675Y-37593919D01*
X102405000Y-37929117D01*
X102405000Y-38270883D01*
X102471675Y-38606081D01*
X102602463Y-38921831D01*
X102758261Y-39155000D01*
X102723740Y-39155000D01*
X102436842Y-39212068D01*
X102166589Y-39324010D01*
X101923368Y-39486525D01*
X101716525Y-39693368D01*
X101554010Y-39936589D01*
X101442068Y-40206842D01*
X101385000Y-40493740D01*
X85305000Y-40493740D01*
X85247932Y-40206842D01*
X85135990Y-39936589D01*
X84973475Y-39693368D01*
X84766632Y-39486525D01*
X84523411Y-39324010D01*
X84253158Y-39212068D01*
X83966260Y-39155000D01*
X83673740Y-39155000D01*
X83386842Y-39212068D01*
X83116589Y-39324010D01*
X82873368Y-39486525D01*
X82666525Y-39693368D01*
X82504010Y-39936589D01*
X82392068Y-40206842D01*
X82335000Y-40493740D01*
X81375000Y-40493740D01*
X81375000Y-40380475D01*
X81273739Y-39871399D01*
X81075107Y-39391859D01*
X80786738Y-38960285D01*
X80419715Y-38593262D01*
X79988141Y-38304893D01*
X79508601Y-38106261D01*
X78999525Y-38005000D01*
X78480475Y-38005000D01*
X77971399Y-38106261D01*
X77491859Y-38304893D01*
X77060285Y-38593262D01*
X76693262Y-38960285D01*
X76404893Y-39391859D01*
X76206261Y-39871399D01*
X76105000Y-40380475D01*
X76105000Y-40899525D01*
X76206261Y-41408601D01*
X76404893Y-41888141D01*
X76693262Y-42319715D01*
X77060285Y-42686738D01*
X77491859Y-42975107D01*
X77684738Y-43055000D01*
X64807322Y-43055000D01*
X64769999Y-43051324D01*
X64732676Y-43055000D01*
X64732667Y-43055000D01*
X64621014Y-43065997D01*
X64477753Y-43109454D01*
X64345723Y-43180026D01*
X64262083Y-43248668D01*
X64229999Y-43274999D01*
X64206201Y-43303997D01*
X61084003Y-46426196D01*
X61054999Y-46449999D01*
X60999871Y-46517174D01*
X60960026Y-46565724D01*
X60889455Y-46697753D01*
X60889454Y-46697754D01*
X60845997Y-46841015D01*
X60835000Y-46952668D01*
X60835000Y-46952678D01*
X60831324Y-46990000D01*
X60835000Y-47027323D01*
X60835001Y-48191288D01*
X60791063Y-48235226D01*
X60677795Y-48404744D01*
X60599774Y-48593102D01*
X60560000Y-48793061D01*
X54312863Y-48793061D01*
X54208804Y-48689003D01*
X54185001Y-48659999D01*
X54069276Y-48565026D01*
X53937247Y-48494454D01*
X53793986Y-48450997D01*
X53682333Y-48440000D01*
X53682322Y-48440000D01*
X53645000Y-48436324D01*
X53607678Y-48440000D01*
X53311046Y-48440000D01*
X53260537Y-48345506D01*
X53181185Y-48248815D01*
X53084494Y-48169463D01*
X52974180Y-48110498D01*
X52854482Y-48074188D01*
X52730000Y-48061928D01*
X51230000Y-48061928D01*
X51105518Y-48074188D01*
X50985820Y-48110498D01*
X50875506Y-48169463D01*
X50778815Y-48248815D01*
X50699463Y-48345506D01*
X50640498Y-48455820D01*
X50604188Y-48575518D01*
X50591928Y-48700000D01*
X50591928Y-49700000D01*
X50604188Y-49824482D01*
X50640498Y-49944180D01*
X50699463Y-50054494D01*
X50778815Y-50151185D01*
X50875506Y-50230537D01*
X50985820Y-50289502D01*
X51105518Y-50325812D01*
X51230000Y-50338072D01*
X52730000Y-50338072D01*
X52854482Y-50325812D01*
X52974180Y-50289502D01*
X53084494Y-50230537D01*
X53181185Y-50151185D01*
X53260537Y-50054494D01*
X53311046Y-49960000D01*
X53330199Y-49960000D01*
X54681201Y-51311003D01*
X54704999Y-51340001D01*
X54820724Y-51434974D01*
X54952753Y-51505546D01*
X55096014Y-51549003D01*
X55207667Y-51560000D01*
X55207675Y-51560000D01*
X55245000Y-51563676D01*
X55282325Y-51560000D01*
X62161289Y-51560000D01*
X62205226Y-51603937D01*
X62235820Y-51624379D01*
X60645199Y-53215000D01*
X53281647Y-53215000D01*
X53319502Y-53144180D01*
X53355812Y-53024482D01*
X53368072Y-52900000D01*
X53365000Y-52685750D01*
X53206250Y-52527000D01*
X52107000Y-52527000D01*
X52107000Y-52547000D01*
X51853000Y-52547000D01*
X51853000Y-52527000D01*
X50753750Y-52527000D01*
X50595000Y-52685750D01*
X50591928Y-52900000D01*
X50604188Y-53024482D01*
X50640498Y-53144180D01*
X50678353Y-53215000D01*
X48381647Y-53215000D01*
X48419502Y-53144180D01*
X48455812Y-53024482D01*
X48468072Y-52900000D01*
X48468072Y-51900000D01*
X50591928Y-51900000D01*
X50595000Y-52114250D01*
X50753750Y-52273000D01*
X51853000Y-52273000D01*
X51853000Y-51423750D01*
X52107000Y-51423750D01*
X52107000Y-52273000D01*
X53206250Y-52273000D01*
X53365000Y-52114250D01*
X53368072Y-51900000D01*
X53355812Y-51775518D01*
X53319502Y-51655820D01*
X53260537Y-51545506D01*
X53181185Y-51448815D01*
X53084494Y-51369463D01*
X52974180Y-51310498D01*
X52854482Y-51274188D01*
X52730000Y-51261928D01*
X52265750Y-51265000D01*
X52107000Y-51423750D01*
X51853000Y-51423750D01*
X51694250Y-51265000D01*
X51230000Y-51261928D01*
X51105518Y-51274188D01*
X50985820Y-51310498D01*
X50875506Y-51369463D01*
X50778815Y-51448815D01*
X50699463Y-51545506D01*
X50640498Y-51655820D01*
X50604188Y-51775518D01*
X50591928Y-51900000D01*
X48468072Y-51900000D01*
X48455812Y-51775518D01*
X48419502Y-51655820D01*
X48360537Y-51545506D01*
X48281185Y-51448815D01*
X48184494Y-51369463D01*
X48074180Y-51310498D01*
X47954482Y-51274188D01*
X47830000Y-51261928D01*
X46330000Y-51261928D01*
X46205518Y-51274188D01*
X46085820Y-51310498D01*
X45975506Y-51369463D01*
X45878815Y-51448815D01*
X45799463Y-51545506D01*
X45740498Y-51655820D01*
X45704188Y-51775518D01*
X45691928Y-51900000D01*
X34417000Y-51900000D01*
X34417000Y-48700000D01*
X45691928Y-48700000D01*
X45691928Y-49700000D01*
X45704188Y-49824482D01*
X45740498Y-49944180D01*
X45799463Y-50054494D01*
X45878815Y-50151185D01*
X45975506Y-50230537D01*
X46085820Y-50289502D01*
X46205518Y-50325812D01*
X46330000Y-50338072D01*
X46425674Y-50338072D01*
X46445026Y-50374276D01*
X46516201Y-50461002D01*
X46540000Y-50490001D01*
X46568998Y-50513799D01*
X46809349Y-50754150D01*
X46833152Y-50783154D01*
X46948877Y-50878127D01*
X47080906Y-50948699D01*
X47224167Y-50992156D01*
X47335820Y-51003153D01*
X47335830Y-51003153D01*
X47373153Y-51006829D01*
X47410476Y-51003153D01*
X48269442Y-51003153D01*
X48313379Y-51047090D01*
X48482897Y-51160358D01*
X48671255Y-51238379D01*
X48871214Y-51278153D01*
X49075092Y-51278153D01*
X49275051Y-51238379D01*
X49463409Y-51160358D01*
X49632927Y-51047090D01*
X49777090Y-50902927D01*
X49890358Y-50733409D01*
X49968379Y-50545051D01*
X50008153Y-50345092D01*
X50008153Y-50141214D01*
X49968379Y-49941255D01*
X49890358Y-49752897D01*
X49777090Y-49583379D01*
X49632927Y-49439216D01*
X49463409Y-49325948D01*
X49275051Y-49247927D01*
X49075092Y-49208153D01*
X48871214Y-49208153D01*
X48671255Y-49247927D01*
X48482897Y-49325948D01*
X48468072Y-49335854D01*
X48468072Y-48700000D01*
X48455812Y-48575518D01*
X48419502Y-48455820D01*
X48360537Y-48345506D01*
X48281185Y-48248815D01*
X48184494Y-48169463D01*
X48074180Y-48110498D01*
X47954482Y-48074188D01*
X47830000Y-48061928D01*
X46330000Y-48061928D01*
X46205518Y-48074188D01*
X46085820Y-48110498D01*
X45975506Y-48169463D01*
X45878815Y-48248815D01*
X45799463Y-48345506D01*
X45740498Y-48455820D01*
X45704188Y-48575518D01*
X45691928Y-48700000D01*
X34417000Y-48700000D01*
X34417000Y-40493740D01*
X42965000Y-40493740D01*
X42965000Y-40786260D01*
X43022068Y-41073158D01*
X43134010Y-41343411D01*
X43296525Y-41586632D01*
X43503368Y-41793475D01*
X43746589Y-41955990D01*
X44016842Y-42067932D01*
X44303740Y-42125000D01*
X44596260Y-42125000D01*
X44883158Y-42067932D01*
X45153411Y-41955990D01*
X45396632Y-41793475D01*
X45603475Y-41586632D01*
X45765990Y-41343411D01*
X45877932Y-41073158D01*
X45935000Y-40786260D01*
X45935000Y-40493740D01*
X45912471Y-40380475D01*
X46895000Y-40380475D01*
X46895000Y-40899525D01*
X46996261Y-41408601D01*
X47194893Y-41888141D01*
X47483262Y-42319715D01*
X47850285Y-42686738D01*
X48281859Y-42975107D01*
X48761399Y-43173739D01*
X49270475Y-43275000D01*
X49789525Y-43275000D01*
X50298601Y-43173739D01*
X50778141Y-42975107D01*
X51209715Y-42686738D01*
X51576738Y-42319715D01*
X51865107Y-41888141D01*
X52063739Y-41408601D01*
X52165000Y-40899525D01*
X52165000Y-40493740D01*
X53125000Y-40493740D01*
X53125000Y-40786260D01*
X53182068Y-41073158D01*
X53294010Y-41343411D01*
X53456525Y-41586632D01*
X53663368Y-41793475D01*
X53906589Y-41955990D01*
X54176842Y-42067932D01*
X54463740Y-42125000D01*
X54756260Y-42125000D01*
X55043158Y-42067932D01*
X55313411Y-41955990D01*
X55556632Y-41793475D01*
X55763475Y-41586632D01*
X55925990Y-41343411D01*
X56037932Y-41073158D01*
X56095000Y-40786260D01*
X56095000Y-40493740D01*
X72175000Y-40493740D01*
X72175000Y-40786260D01*
X72232068Y-41073158D01*
X72344010Y-41343411D01*
X72506525Y-41586632D01*
X72713368Y-41793475D01*
X72956589Y-41955990D01*
X73226842Y-42067932D01*
X73513740Y-42125000D01*
X73806260Y-42125000D01*
X74093158Y-42067932D01*
X74363411Y-41955990D01*
X74606632Y-41793475D01*
X74813475Y-41586632D01*
X74975990Y-41343411D01*
X75087932Y-41073158D01*
X75145000Y-40786260D01*
X75145000Y-40493740D01*
X75087932Y-40206842D01*
X74975990Y-39936589D01*
X74908110Y-39835000D01*
X75100883Y-39835000D01*
X75436081Y-39768325D01*
X75751831Y-39637537D01*
X76035998Y-39447663D01*
X76277663Y-39205998D01*
X76467537Y-38921831D01*
X76598325Y-38606081D01*
X76665000Y-38270883D01*
X76665000Y-37929117D01*
X76598325Y-37593919D01*
X76467537Y-37278169D01*
X76277663Y-36994002D01*
X76050373Y-36766712D01*
X80252893Y-36766712D01*
X80360726Y-37041338D01*
X80667384Y-37192216D01*
X80997585Y-37280369D01*
X81338639Y-37302409D01*
X81677439Y-37257489D01*
X82000966Y-37147336D01*
X82199274Y-37041338D01*
X82307107Y-36766712D01*
X81280000Y-35739605D01*
X80252893Y-36766712D01*
X76050373Y-36766712D01*
X76035998Y-36752337D01*
X75751831Y-36562463D01*
X75436081Y-36431675D01*
X75100883Y-36365000D01*
X74759117Y-36365000D01*
X74423919Y-36431675D01*
X74108169Y-36562463D01*
X73824002Y-36752337D01*
X73582337Y-36994002D01*
X73392463Y-37278169D01*
X73261675Y-37593919D01*
X73195000Y-37929117D01*
X73195000Y-38270883D01*
X73261675Y-38606081D01*
X73392463Y-38921831D01*
X73548261Y-39155000D01*
X73513740Y-39155000D01*
X73226842Y-39212068D01*
X72956589Y-39324010D01*
X72713368Y-39486525D01*
X72506525Y-39693368D01*
X72344010Y-39936589D01*
X72232068Y-40206842D01*
X72175000Y-40493740D01*
X56095000Y-40493740D01*
X56037932Y-40206842D01*
X55925990Y-39936589D01*
X55763475Y-39693368D01*
X55556632Y-39486525D01*
X55313411Y-39324010D01*
X55043158Y-39212068D01*
X54756260Y-39155000D01*
X54463740Y-39155000D01*
X54176842Y-39212068D01*
X53906589Y-39324010D01*
X53663368Y-39486525D01*
X53456525Y-39693368D01*
X53294010Y-39936589D01*
X53182068Y-40206842D01*
X53125000Y-40493740D01*
X52165000Y-40493740D01*
X52165000Y-40380475D01*
X52063739Y-39871399D01*
X51865107Y-39391859D01*
X51576738Y-38960285D01*
X51209715Y-38593262D01*
X50778141Y-38304893D01*
X50298601Y-38106261D01*
X49789525Y-38005000D01*
X49270475Y-38005000D01*
X48761399Y-38106261D01*
X48281859Y-38304893D01*
X47850285Y-38593262D01*
X47483262Y-38960285D01*
X47194893Y-39391859D01*
X46996261Y-39871399D01*
X46895000Y-40380475D01*
X45912471Y-40380475D01*
X45877932Y-40206842D01*
X45765990Y-39936589D01*
X45698110Y-39835000D01*
X45890883Y-39835000D01*
X46226081Y-39768325D01*
X46541831Y-39637537D01*
X46825998Y-39447663D01*
X47067663Y-39205998D01*
X47257537Y-38921831D01*
X47388325Y-38606081D01*
X47455000Y-38270883D01*
X47455000Y-37929117D01*
X47388325Y-37593919D01*
X47257537Y-37278169D01*
X47067663Y-36994002D01*
X46840373Y-36766712D01*
X51042893Y-36766712D01*
X51150726Y-37041338D01*
X51457384Y-37192216D01*
X51787585Y-37280369D01*
X52128639Y-37302409D01*
X52467439Y-37257489D01*
X52790966Y-37147336D01*
X52989274Y-37041338D01*
X53097107Y-36766712D01*
X52070000Y-35739605D01*
X51042893Y-36766712D01*
X46840373Y-36766712D01*
X46825998Y-36752337D01*
X46541831Y-36562463D01*
X46226081Y-36431675D01*
X45890883Y-36365000D01*
X45549117Y-36365000D01*
X45213919Y-36431675D01*
X44898169Y-36562463D01*
X44614002Y-36752337D01*
X44372337Y-36994002D01*
X44182463Y-37278169D01*
X44051675Y-37593919D01*
X43985000Y-37929117D01*
X43985000Y-38270883D01*
X44051675Y-38606081D01*
X44182463Y-38921831D01*
X44338261Y-39155000D01*
X44303740Y-39155000D01*
X44016842Y-39212068D01*
X43746589Y-39324010D01*
X43503368Y-39486525D01*
X43296525Y-39693368D01*
X43134010Y-39936589D01*
X43022068Y-40206842D01*
X42965000Y-40493740D01*
X34417000Y-40493740D01*
X34417000Y-35618639D01*
X50327591Y-35618639D01*
X50372511Y-35957439D01*
X50482664Y-36280966D01*
X50588662Y-36479274D01*
X50863288Y-36587107D01*
X51890395Y-35560000D01*
X52249605Y-35560000D01*
X53276712Y-36587107D01*
X53551338Y-36479274D01*
X53702216Y-36172616D01*
X53753638Y-35980000D01*
X55661928Y-35980000D01*
X55661928Y-37680000D01*
X55674188Y-37804482D01*
X55710498Y-37924180D01*
X55769463Y-38034494D01*
X55848815Y-38131185D01*
X55945506Y-38210537D01*
X56055820Y-38269502D01*
X56175518Y-38305812D01*
X56300000Y-38318072D01*
X58000000Y-38318072D01*
X58124482Y-38305812D01*
X58244180Y-38269502D01*
X58354494Y-38210537D01*
X58451185Y-38131185D01*
X58530537Y-38034494D01*
X58589502Y-37924180D01*
X58611513Y-37851620D01*
X58743368Y-37983475D01*
X58986589Y-38145990D01*
X59256842Y-38257932D01*
X59543740Y-38315000D01*
X59836260Y-38315000D01*
X60123158Y-38257932D01*
X60393411Y-38145990D01*
X60636632Y-37983475D01*
X60843475Y-37776632D01*
X60960000Y-37602240D01*
X61076525Y-37776632D01*
X61283368Y-37983475D01*
X61526589Y-38145990D01*
X61796842Y-38257932D01*
X62083740Y-38315000D01*
X62376260Y-38315000D01*
X62663158Y-38257932D01*
X62933411Y-38145990D01*
X63176632Y-37983475D01*
X63383475Y-37776632D01*
X63500000Y-37602240D01*
X63616525Y-37776632D01*
X63823368Y-37983475D01*
X64066589Y-38145990D01*
X64336842Y-38257932D01*
X64623740Y-38315000D01*
X64916260Y-38315000D01*
X65203158Y-38257932D01*
X65473411Y-38145990D01*
X65716632Y-37983475D01*
X65923475Y-37776632D01*
X66040000Y-37602240D01*
X66156525Y-37776632D01*
X66363368Y-37983475D01*
X66606589Y-38145990D01*
X66876842Y-38257932D01*
X67163740Y-38315000D01*
X67456260Y-38315000D01*
X67743158Y-38257932D01*
X68013411Y-38145990D01*
X68256632Y-37983475D01*
X68463475Y-37776632D01*
X68580000Y-37602240D01*
X68696525Y-37776632D01*
X68903368Y-37983475D01*
X69146589Y-38145990D01*
X69416842Y-38257932D01*
X69703740Y-38315000D01*
X69996260Y-38315000D01*
X70283158Y-38257932D01*
X70553411Y-38145990D01*
X70796632Y-37983475D01*
X71003475Y-37776632D01*
X71165990Y-37533411D01*
X71277932Y-37263158D01*
X71335000Y-36976260D01*
X71335000Y-36683740D01*
X71277932Y-36396842D01*
X71165990Y-36126589D01*
X71003475Y-35883368D01*
X70796632Y-35676525D01*
X70710000Y-35618639D01*
X79537591Y-35618639D01*
X79582511Y-35957439D01*
X79692664Y-36280966D01*
X79798662Y-36479274D01*
X80073288Y-36587107D01*
X81100395Y-35560000D01*
X81459605Y-35560000D01*
X82486712Y-36587107D01*
X82761338Y-36479274D01*
X82912216Y-36172616D01*
X83000369Y-35842415D01*
X83014830Y-35618639D01*
X108747591Y-35618639D01*
X108792511Y-35957439D01*
X108902664Y-36280966D01*
X109008662Y-36479274D01*
X109283288Y-36587107D01*
X110310395Y-35560000D01*
X110669605Y-35560000D01*
X111696712Y-36587107D01*
X111971338Y-36479274D01*
X112122216Y-36172616D01*
X112210369Y-35842415D01*
X112224830Y-35618639D01*
X137957591Y-35618639D01*
X138002511Y-35957439D01*
X138112664Y-36280966D01*
X138218662Y-36479274D01*
X138493288Y-36587107D01*
X139520395Y-35560000D01*
X139879605Y-35560000D01*
X140906712Y-36587107D01*
X141181338Y-36479274D01*
X141332216Y-36172616D01*
X141420369Y-35842415D01*
X141442409Y-35501361D01*
X141397489Y-35162561D01*
X141287336Y-34839034D01*
X141181338Y-34640726D01*
X140906712Y-34532893D01*
X139879605Y-35560000D01*
X139520395Y-35560000D01*
X138493288Y-34532893D01*
X138218662Y-34640726D01*
X138067784Y-34947384D01*
X137979631Y-35277585D01*
X137957591Y-35618639D01*
X112224830Y-35618639D01*
X112232409Y-35501361D01*
X112187489Y-35162561D01*
X112077336Y-34839034D01*
X111971338Y-34640726D01*
X111696712Y-34532893D01*
X110669605Y-35560000D01*
X110310395Y-35560000D01*
X109283288Y-34532893D01*
X109008662Y-34640726D01*
X108857784Y-34947384D01*
X108769631Y-35277585D01*
X108747591Y-35618639D01*
X83014830Y-35618639D01*
X83022409Y-35501361D01*
X82977489Y-35162561D01*
X82867336Y-34839034D01*
X82761338Y-34640726D01*
X82486712Y-34532893D01*
X81459605Y-35560000D01*
X81100395Y-35560000D01*
X80073288Y-34532893D01*
X79798662Y-34640726D01*
X79647784Y-34947384D01*
X79559631Y-35277585D01*
X79537591Y-35618639D01*
X70710000Y-35618639D01*
X70553411Y-35514010D01*
X70283158Y-35402068D01*
X69996260Y-35345000D01*
X69703740Y-35345000D01*
X69416842Y-35402068D01*
X69146589Y-35514010D01*
X68903368Y-35676525D01*
X68696525Y-35883368D01*
X68580000Y-36057760D01*
X68463475Y-35883368D01*
X68256632Y-35676525D01*
X68013411Y-35514010D01*
X67743158Y-35402068D01*
X67456260Y-35345000D01*
X67163740Y-35345000D01*
X66876842Y-35402068D01*
X66606589Y-35514010D01*
X66363368Y-35676525D01*
X66156525Y-35883368D01*
X66040000Y-36057760D01*
X65923475Y-35883368D01*
X65716632Y-35676525D01*
X65473411Y-35514010D01*
X65203158Y-35402068D01*
X64916260Y-35345000D01*
X64623740Y-35345000D01*
X64336842Y-35402068D01*
X64066589Y-35514010D01*
X63823368Y-35676525D01*
X63616525Y-35883368D01*
X63500000Y-36057760D01*
X63383475Y-35883368D01*
X63176632Y-35676525D01*
X62933411Y-35514010D01*
X62663158Y-35402068D01*
X62376260Y-35345000D01*
X62083740Y-35345000D01*
X61796842Y-35402068D01*
X61526589Y-35514010D01*
X61283368Y-35676525D01*
X61076525Y-35883368D01*
X60960000Y-36057760D01*
X60843475Y-35883368D01*
X60636632Y-35676525D01*
X60393411Y-35514010D01*
X60123158Y-35402068D01*
X59836260Y-35345000D01*
X59543740Y-35345000D01*
X59256842Y-35402068D01*
X58986589Y-35514010D01*
X58743368Y-35676525D01*
X58611513Y-35808380D01*
X58589502Y-35735820D01*
X58530537Y-35625506D01*
X58451185Y-35528815D01*
X58354494Y-35449463D01*
X58244180Y-35390498D01*
X58124482Y-35354188D01*
X58000000Y-35341928D01*
X56300000Y-35341928D01*
X56175518Y-35354188D01*
X56055820Y-35390498D01*
X55945506Y-35449463D01*
X55848815Y-35528815D01*
X55769463Y-35625506D01*
X55710498Y-35735820D01*
X55674188Y-35855518D01*
X55661928Y-35980000D01*
X53753638Y-35980000D01*
X53790369Y-35842415D01*
X53812409Y-35501361D01*
X53767489Y-35162561D01*
X53657336Y-34839034D01*
X53551338Y-34640726D01*
X53276712Y-34532893D01*
X52249605Y-35560000D01*
X51890395Y-35560000D01*
X50863288Y-34532893D01*
X50588662Y-34640726D01*
X50437784Y-34947384D01*
X50349631Y-35277585D01*
X50327591Y-35618639D01*
X34417000Y-35618639D01*
X34417000Y-34353288D01*
X51042893Y-34353288D01*
X52070000Y-35380395D01*
X53097107Y-34353288D01*
X80252893Y-34353288D01*
X81280000Y-35380395D01*
X82307107Y-34353288D01*
X109462893Y-34353288D01*
X110490000Y-35380395D01*
X111517107Y-34353288D01*
X138672893Y-34353288D01*
X139700000Y-35380395D01*
X140727107Y-34353288D01*
X140619274Y-34078662D01*
X140312616Y-33927784D01*
X139982415Y-33839631D01*
X139641361Y-33817591D01*
X139302561Y-33862511D01*
X138979034Y-33972664D01*
X138780726Y-34078662D01*
X138672893Y-34353288D01*
X111517107Y-34353288D01*
X111409274Y-34078662D01*
X111102616Y-33927784D01*
X110772415Y-33839631D01*
X110431361Y-33817591D01*
X110092561Y-33862511D01*
X109769034Y-33972664D01*
X109570726Y-34078662D01*
X109462893Y-34353288D01*
X82307107Y-34353288D01*
X82199274Y-34078662D01*
X81892616Y-33927784D01*
X81562415Y-33839631D01*
X81221361Y-33817591D01*
X80882561Y-33862511D01*
X80559034Y-33972664D01*
X80360726Y-34078662D01*
X80252893Y-34353288D01*
X53097107Y-34353288D01*
X52989274Y-34078662D01*
X52682616Y-33927784D01*
X52352415Y-33839631D01*
X52011361Y-33817591D01*
X51672561Y-33862511D01*
X51349034Y-33972664D01*
X51150726Y-34078662D01*
X51042893Y-34353288D01*
X34417000Y-34353288D01*
X34417000Y-31775000D01*
X34667715Y-31775000D01*
X35408628Y-31627623D01*
X36106554Y-31338533D01*
X36734670Y-30918839D01*
X37268839Y-30384670D01*
X37688533Y-29756554D01*
X37977623Y-29058628D01*
X38125000Y-28317715D01*
X38125000Y-28067000D01*
X87213352Y-28067000D01*
X87205000Y-28151794D01*
M02*
