M48
; DRILL file {KiCad (5.1.5)-3} date 15.04.2020 22:50:00
; FORMAT={-:-/ absolute / inch / decimal}
; #@! TF.CreationDate,2020-04-15T22:50:00+02:00
; #@! TF.GenerationSoftware,Kicad,Pcbnew,(5.1.5)-3
; #@! TF.FileFunction,NonPlated,1,2,NPTH
FMAT,2
INCH
T1C0.0669
T2C0.1575
%
G90
G05
T1
X5.2Y-1.6
X1.75Y-1.6
X2.15Y-1.6
X5.2Y-2.55
X5.6Y-2.55
X2.9Y-1.6
X3.3Y-1.6
X2.9Y-2.55
X3.3Y-2.55
X4.05Y-2.55
X4.45Y-2.55
X1.75Y-2.55
X2.15Y-2.55
X5.6Y-1.6
X4.05Y-1.6
X4.45Y-1.6
T2
X1.95Y-1.6
X5.4Y-2.55
X3.1Y-1.6
X3.1Y-2.55
X4.25Y-2.55
X1.95Y-2.55
X5.4Y-1.6
X4.25Y-1.6
T0
M30
