G04 #@! TF.GenerationSoftware,KiCad,Pcbnew,(5.1.5)-3*
G04 #@! TF.CreationDate,2020-04-15T22:49:56+02:00*
G04 #@! TF.ProjectId,makroboard,6d616b72-6f62-46f6-9172-642e6b696361,rev?*
G04 #@! TF.SameCoordinates,Original*
G04 #@! TF.FileFunction,Soldermask,Top*
G04 #@! TF.FilePolarity,Negative*
%FSLAX46Y46*%
G04 Gerber Fmt 4.6, Leading zero omitted, Abs format (unit mm)*
G04 Created by KiCad (PCBNEW (5.1.5)-3) date 2020-04-15 22:49:56*
%MOMM*%
%LPD*%
G04 APERTURE LIST*
%ADD10C,0.100000*%
G04 APERTURE END LIST*
D10*
G36*
X154304239Y-71741467D02*
G01*
X154618282Y-71803934D01*
X155209926Y-72049001D01*
X155742392Y-72404784D01*
X156195216Y-72857608D01*
X156550999Y-73390074D01*
X156796066Y-73981718D01*
X156921000Y-74609804D01*
X156921000Y-75250196D01*
X156796066Y-75878282D01*
X156550999Y-76469926D01*
X156195216Y-77002392D01*
X155742392Y-77455216D01*
X155209926Y-77810999D01*
X154618282Y-78056066D01*
X154304239Y-78118533D01*
X153990197Y-78181000D01*
X153349803Y-78181000D01*
X153035761Y-78118533D01*
X152721718Y-78056066D01*
X152130074Y-77810999D01*
X151597608Y-77455216D01*
X151144784Y-77002392D01*
X150789001Y-76469926D01*
X150543934Y-75878282D01*
X150419000Y-75250196D01*
X150419000Y-74609804D01*
X150543934Y-73981718D01*
X150789001Y-73390074D01*
X151144784Y-72857608D01*
X151597608Y-72404784D01*
X152130074Y-72049001D01*
X152721718Y-71803934D01*
X153035761Y-71741467D01*
X153349803Y-71679000D01*
X153990197Y-71679000D01*
X154304239Y-71741467D01*
G37*
G36*
X34924239Y-71741467D02*
G01*
X35238282Y-71803934D01*
X35829926Y-72049001D01*
X36362392Y-72404784D01*
X36815216Y-72857608D01*
X37170999Y-73390074D01*
X37416066Y-73981718D01*
X37541000Y-74609804D01*
X37541000Y-75250196D01*
X37416066Y-75878282D01*
X37170999Y-76469926D01*
X36815216Y-77002392D01*
X36362392Y-77455216D01*
X35829926Y-77810999D01*
X35238282Y-78056066D01*
X34924239Y-78118533D01*
X34610197Y-78181000D01*
X33969803Y-78181000D01*
X33655761Y-78118533D01*
X33341718Y-78056066D01*
X32750074Y-77810999D01*
X32217608Y-77455216D01*
X31764784Y-77002392D01*
X31409001Y-76469926D01*
X31163934Y-75878282D01*
X31039000Y-75250196D01*
X31039000Y-74609804D01*
X31163934Y-73981718D01*
X31409001Y-73390074D01*
X31764784Y-72857608D01*
X32217608Y-72404784D01*
X32750074Y-72049001D01*
X33341718Y-71803934D01*
X33655761Y-71741467D01*
X33969803Y-71679000D01*
X34610197Y-71679000D01*
X34924239Y-71741467D01*
G37*
G36*
X77091000Y-77081000D02*
G01*
X75489000Y-77081000D01*
X75489000Y-75979000D01*
X77091000Y-75979000D01*
X77091000Y-77081000D01*
G37*
G36*
X81991000Y-77081000D02*
G01*
X80389000Y-77081000D01*
X80389000Y-75979000D01*
X81991000Y-75979000D01*
X81991000Y-77081000D01*
G37*
G36*
X52781000Y-77081000D02*
G01*
X51179000Y-77081000D01*
X51179000Y-75979000D01*
X52781000Y-75979000D01*
X52781000Y-77081000D01*
G37*
G36*
X47881000Y-77081000D02*
G01*
X46279000Y-77081000D01*
X46279000Y-75979000D01*
X47881000Y-75979000D01*
X47881000Y-77081000D01*
G37*
G36*
X111201000Y-77081000D02*
G01*
X109599000Y-77081000D01*
X109599000Y-75979000D01*
X111201000Y-75979000D01*
X111201000Y-77081000D01*
G37*
G36*
X106301000Y-77081000D02*
G01*
X104699000Y-77081000D01*
X104699000Y-75979000D01*
X106301000Y-75979000D01*
X106301000Y-77081000D01*
G37*
G36*
X135511000Y-77081000D02*
G01*
X133909000Y-77081000D01*
X133909000Y-75979000D01*
X135511000Y-75979000D01*
X135511000Y-77081000D01*
G37*
G36*
X140411000Y-77081000D02*
G01*
X138809000Y-77081000D01*
X138809000Y-75979000D01*
X140411000Y-75979000D01*
X140411000Y-77081000D01*
G37*
G36*
X111201000Y-73881000D02*
G01*
X109599000Y-73881000D01*
X109599000Y-72779000D01*
X111201000Y-72779000D01*
X111201000Y-73881000D01*
G37*
G36*
X52781000Y-73881000D02*
G01*
X51179000Y-73881000D01*
X51179000Y-72779000D01*
X52781000Y-72779000D01*
X52781000Y-73881000D01*
G37*
G36*
X81991000Y-73881000D02*
G01*
X80389000Y-73881000D01*
X80389000Y-72779000D01*
X81991000Y-72779000D01*
X81991000Y-73881000D01*
G37*
G36*
X47881000Y-73881000D02*
G01*
X46279000Y-73881000D01*
X46279000Y-72779000D01*
X47881000Y-72779000D01*
X47881000Y-73881000D01*
G37*
G36*
X77091000Y-73881000D02*
G01*
X75489000Y-73881000D01*
X75489000Y-72779000D01*
X77091000Y-72779000D01*
X77091000Y-73881000D01*
G37*
G36*
X106301000Y-73881000D02*
G01*
X104699000Y-73881000D01*
X104699000Y-72779000D01*
X106301000Y-72779000D01*
X106301000Y-73881000D01*
G37*
G36*
X135511000Y-73881000D02*
G01*
X133909000Y-73881000D01*
X133909000Y-72779000D01*
X135511000Y-72779000D01*
X135511000Y-73881000D01*
G37*
G36*
X140411000Y-73881000D02*
G01*
X138809000Y-73881000D01*
X138809000Y-72779000D01*
X140411000Y-72779000D01*
X140411000Y-73881000D01*
G37*
G36*
X137758254Y-62797818D02*
G01*
X138131511Y-62952426D01*
X138131513Y-62952427D01*
X138467436Y-63176884D01*
X138753116Y-63462564D01*
X138977574Y-63798489D01*
X139132182Y-64171746D01*
X139211000Y-64567993D01*
X139211000Y-64972007D01*
X139132182Y-65368254D01*
X138977574Y-65741511D01*
X138977573Y-65741513D01*
X138753116Y-66077436D01*
X138467436Y-66363116D01*
X138131513Y-66587573D01*
X138131512Y-66587574D01*
X138131511Y-66587574D01*
X137758254Y-66742182D01*
X137362007Y-66821000D01*
X136957993Y-66821000D01*
X136561746Y-66742182D01*
X136188489Y-66587574D01*
X136188488Y-66587574D01*
X136188487Y-66587573D01*
X135852564Y-66363116D01*
X135566884Y-66077436D01*
X135342427Y-65741513D01*
X135342426Y-65741511D01*
X135187818Y-65368254D01*
X135109000Y-64972007D01*
X135109000Y-64567993D01*
X135187818Y-64171746D01*
X135342426Y-63798489D01*
X135566884Y-63462564D01*
X135852564Y-63176884D01*
X136188487Y-62952427D01*
X136188489Y-62952426D01*
X136561746Y-62797818D01*
X136957993Y-62719000D01*
X137362007Y-62719000D01*
X137758254Y-62797818D01*
G37*
G36*
X79338254Y-62797818D02*
G01*
X79711511Y-62952426D01*
X79711513Y-62952427D01*
X80047436Y-63176884D01*
X80333116Y-63462564D01*
X80557574Y-63798489D01*
X80712182Y-64171746D01*
X80791000Y-64567993D01*
X80791000Y-64972007D01*
X80712182Y-65368254D01*
X80557574Y-65741511D01*
X80557573Y-65741513D01*
X80333116Y-66077436D01*
X80047436Y-66363116D01*
X79711513Y-66587573D01*
X79711512Y-66587574D01*
X79711511Y-66587574D01*
X79338254Y-66742182D01*
X78942007Y-66821000D01*
X78537993Y-66821000D01*
X78141746Y-66742182D01*
X77768489Y-66587574D01*
X77768488Y-66587574D01*
X77768487Y-66587573D01*
X77432564Y-66363116D01*
X77146884Y-66077436D01*
X76922427Y-65741513D01*
X76922426Y-65741511D01*
X76767818Y-65368254D01*
X76689000Y-64972007D01*
X76689000Y-64567993D01*
X76767818Y-64171746D01*
X76922426Y-63798489D01*
X77146884Y-63462564D01*
X77432564Y-63176884D01*
X77768487Y-62952427D01*
X77768489Y-62952426D01*
X78141746Y-62797818D01*
X78537993Y-62719000D01*
X78942007Y-62719000D01*
X79338254Y-62797818D01*
G37*
G36*
X50128254Y-62797818D02*
G01*
X50501511Y-62952426D01*
X50501513Y-62952427D01*
X50837436Y-63176884D01*
X51123116Y-63462564D01*
X51347574Y-63798489D01*
X51502182Y-64171746D01*
X51581000Y-64567993D01*
X51581000Y-64972007D01*
X51502182Y-65368254D01*
X51347574Y-65741511D01*
X51347573Y-65741513D01*
X51123116Y-66077436D01*
X50837436Y-66363116D01*
X50501513Y-66587573D01*
X50501512Y-66587574D01*
X50501511Y-66587574D01*
X50128254Y-66742182D01*
X49732007Y-66821000D01*
X49327993Y-66821000D01*
X48931746Y-66742182D01*
X48558489Y-66587574D01*
X48558488Y-66587574D01*
X48558487Y-66587573D01*
X48222564Y-66363116D01*
X47936884Y-66077436D01*
X47712427Y-65741513D01*
X47712426Y-65741511D01*
X47557818Y-65368254D01*
X47479000Y-64972007D01*
X47479000Y-64567993D01*
X47557818Y-64171746D01*
X47712426Y-63798489D01*
X47936884Y-63462564D01*
X48222564Y-63176884D01*
X48558487Y-62952427D01*
X48558489Y-62952426D01*
X48931746Y-62797818D01*
X49327993Y-62719000D01*
X49732007Y-62719000D01*
X50128254Y-62797818D01*
G37*
G36*
X108548254Y-62797818D02*
G01*
X108921511Y-62952426D01*
X108921513Y-62952427D01*
X109257436Y-63176884D01*
X109543116Y-63462564D01*
X109767574Y-63798489D01*
X109922182Y-64171746D01*
X110001000Y-64567993D01*
X110001000Y-64972007D01*
X109922182Y-65368254D01*
X109767574Y-65741511D01*
X109767573Y-65741513D01*
X109543116Y-66077436D01*
X109257436Y-66363116D01*
X108921513Y-66587573D01*
X108921512Y-66587574D01*
X108921511Y-66587574D01*
X108548254Y-66742182D01*
X108152007Y-66821000D01*
X107747993Y-66821000D01*
X107351746Y-66742182D01*
X106978489Y-66587574D01*
X106978488Y-66587574D01*
X106978487Y-66587573D01*
X106642564Y-66363116D01*
X106356884Y-66077436D01*
X106132427Y-65741513D01*
X106132426Y-65741511D01*
X105977818Y-65368254D01*
X105899000Y-64972007D01*
X105899000Y-64567993D01*
X105977818Y-64171746D01*
X106132426Y-63798489D01*
X106356884Y-63462564D01*
X106642564Y-63176884D01*
X106978487Y-62952427D01*
X106978489Y-62952426D01*
X107351746Y-62797818D01*
X107747993Y-62719000D01*
X108152007Y-62719000D01*
X108548254Y-62797818D01*
G37*
G36*
X54723512Y-63873927D02*
G01*
X54872812Y-63903624D01*
X55036784Y-63971544D01*
X55184354Y-64070147D01*
X55309853Y-64195646D01*
X55408456Y-64343216D01*
X55476376Y-64507188D01*
X55511000Y-64681259D01*
X55511000Y-64858741D01*
X55476376Y-65032812D01*
X55408456Y-65196784D01*
X55309853Y-65344354D01*
X55184354Y-65469853D01*
X55036784Y-65568456D01*
X54872812Y-65636376D01*
X54723512Y-65666073D01*
X54698742Y-65671000D01*
X54521258Y-65671000D01*
X54496488Y-65666073D01*
X54347188Y-65636376D01*
X54183216Y-65568456D01*
X54035646Y-65469853D01*
X53910147Y-65344354D01*
X53811544Y-65196784D01*
X53743624Y-65032812D01*
X53709000Y-64858741D01*
X53709000Y-64681259D01*
X53743624Y-64507188D01*
X53811544Y-64343216D01*
X53910147Y-64195646D01*
X54035646Y-64070147D01*
X54183216Y-63971544D01*
X54347188Y-63903624D01*
X54496488Y-63873927D01*
X54521258Y-63869000D01*
X54698742Y-63869000D01*
X54723512Y-63873927D01*
G37*
G36*
X102983512Y-63873927D02*
G01*
X103132812Y-63903624D01*
X103296784Y-63971544D01*
X103444354Y-64070147D01*
X103569853Y-64195646D01*
X103668456Y-64343216D01*
X103736376Y-64507188D01*
X103771000Y-64681259D01*
X103771000Y-64858741D01*
X103736376Y-65032812D01*
X103668456Y-65196784D01*
X103569853Y-65344354D01*
X103444354Y-65469853D01*
X103296784Y-65568456D01*
X103132812Y-65636376D01*
X102983512Y-65666073D01*
X102958742Y-65671000D01*
X102781258Y-65671000D01*
X102756488Y-65666073D01*
X102607188Y-65636376D01*
X102443216Y-65568456D01*
X102295646Y-65469853D01*
X102170147Y-65344354D01*
X102071544Y-65196784D01*
X102003624Y-65032812D01*
X101969000Y-64858741D01*
X101969000Y-64681259D01*
X102003624Y-64507188D01*
X102071544Y-64343216D01*
X102170147Y-64195646D01*
X102295646Y-64070147D01*
X102443216Y-63971544D01*
X102607188Y-63903624D01*
X102756488Y-63873927D01*
X102781258Y-63869000D01*
X102958742Y-63869000D01*
X102983512Y-63873927D01*
G37*
G36*
X132193512Y-63873927D02*
G01*
X132342812Y-63903624D01*
X132506784Y-63971544D01*
X132654354Y-64070147D01*
X132779853Y-64195646D01*
X132878456Y-64343216D01*
X132946376Y-64507188D01*
X132981000Y-64681259D01*
X132981000Y-64858741D01*
X132946376Y-65032812D01*
X132878456Y-65196784D01*
X132779853Y-65344354D01*
X132654354Y-65469853D01*
X132506784Y-65568456D01*
X132342812Y-65636376D01*
X132193512Y-65666073D01*
X132168742Y-65671000D01*
X131991258Y-65671000D01*
X131966488Y-65666073D01*
X131817188Y-65636376D01*
X131653216Y-65568456D01*
X131505646Y-65469853D01*
X131380147Y-65344354D01*
X131281544Y-65196784D01*
X131213624Y-65032812D01*
X131179000Y-64858741D01*
X131179000Y-64681259D01*
X131213624Y-64507188D01*
X131281544Y-64343216D01*
X131380147Y-64195646D01*
X131505646Y-64070147D01*
X131653216Y-63971544D01*
X131817188Y-63903624D01*
X131966488Y-63873927D01*
X131991258Y-63869000D01*
X132168742Y-63869000D01*
X132193512Y-63873927D01*
G37*
G36*
X142353512Y-63873927D02*
G01*
X142502812Y-63903624D01*
X142666784Y-63971544D01*
X142814354Y-64070147D01*
X142939853Y-64195646D01*
X143038456Y-64343216D01*
X143106376Y-64507188D01*
X143141000Y-64681259D01*
X143141000Y-64858741D01*
X143106376Y-65032812D01*
X143038456Y-65196784D01*
X142939853Y-65344354D01*
X142814354Y-65469853D01*
X142666784Y-65568456D01*
X142502812Y-65636376D01*
X142353512Y-65666073D01*
X142328742Y-65671000D01*
X142151258Y-65671000D01*
X142126488Y-65666073D01*
X141977188Y-65636376D01*
X141813216Y-65568456D01*
X141665646Y-65469853D01*
X141540147Y-65344354D01*
X141441544Y-65196784D01*
X141373624Y-65032812D01*
X141339000Y-64858741D01*
X141339000Y-64681259D01*
X141373624Y-64507188D01*
X141441544Y-64343216D01*
X141540147Y-64195646D01*
X141665646Y-64070147D01*
X141813216Y-63971544D01*
X141977188Y-63903624D01*
X142126488Y-63873927D01*
X142151258Y-63869000D01*
X142328742Y-63869000D01*
X142353512Y-63873927D01*
G37*
G36*
X83933512Y-63873927D02*
G01*
X84082812Y-63903624D01*
X84246784Y-63971544D01*
X84394354Y-64070147D01*
X84519853Y-64195646D01*
X84618456Y-64343216D01*
X84686376Y-64507188D01*
X84721000Y-64681259D01*
X84721000Y-64858741D01*
X84686376Y-65032812D01*
X84618456Y-65196784D01*
X84519853Y-65344354D01*
X84394354Y-65469853D01*
X84246784Y-65568456D01*
X84082812Y-65636376D01*
X83933512Y-65666073D01*
X83908742Y-65671000D01*
X83731258Y-65671000D01*
X83706488Y-65666073D01*
X83557188Y-65636376D01*
X83393216Y-65568456D01*
X83245646Y-65469853D01*
X83120147Y-65344354D01*
X83021544Y-65196784D01*
X82953624Y-65032812D01*
X82919000Y-64858741D01*
X82919000Y-64681259D01*
X82953624Y-64507188D01*
X83021544Y-64343216D01*
X83120147Y-64195646D01*
X83245646Y-64070147D01*
X83393216Y-63971544D01*
X83557188Y-63903624D01*
X83706488Y-63873927D01*
X83731258Y-63869000D01*
X83908742Y-63869000D01*
X83933512Y-63873927D01*
G37*
G36*
X113143512Y-63873927D02*
G01*
X113292812Y-63903624D01*
X113456784Y-63971544D01*
X113604354Y-64070147D01*
X113729853Y-64195646D01*
X113828456Y-64343216D01*
X113896376Y-64507188D01*
X113931000Y-64681259D01*
X113931000Y-64858741D01*
X113896376Y-65032812D01*
X113828456Y-65196784D01*
X113729853Y-65344354D01*
X113604354Y-65469853D01*
X113456784Y-65568456D01*
X113292812Y-65636376D01*
X113143512Y-65666073D01*
X113118742Y-65671000D01*
X112941258Y-65671000D01*
X112916488Y-65666073D01*
X112767188Y-65636376D01*
X112603216Y-65568456D01*
X112455646Y-65469853D01*
X112330147Y-65344354D01*
X112231544Y-65196784D01*
X112163624Y-65032812D01*
X112129000Y-64858741D01*
X112129000Y-64681259D01*
X112163624Y-64507188D01*
X112231544Y-64343216D01*
X112330147Y-64195646D01*
X112455646Y-64070147D01*
X112603216Y-63971544D01*
X112767188Y-63903624D01*
X112916488Y-63873927D01*
X112941258Y-63869000D01*
X113118742Y-63869000D01*
X113143512Y-63873927D01*
G37*
G36*
X44563512Y-63873927D02*
G01*
X44712812Y-63903624D01*
X44876784Y-63971544D01*
X45024354Y-64070147D01*
X45149853Y-64195646D01*
X45248456Y-64343216D01*
X45316376Y-64507188D01*
X45351000Y-64681259D01*
X45351000Y-64858741D01*
X45316376Y-65032812D01*
X45248456Y-65196784D01*
X45149853Y-65344354D01*
X45024354Y-65469853D01*
X44876784Y-65568456D01*
X44712812Y-65636376D01*
X44563512Y-65666073D01*
X44538742Y-65671000D01*
X44361258Y-65671000D01*
X44336488Y-65666073D01*
X44187188Y-65636376D01*
X44023216Y-65568456D01*
X43875646Y-65469853D01*
X43750147Y-65344354D01*
X43651544Y-65196784D01*
X43583624Y-65032812D01*
X43549000Y-64858741D01*
X43549000Y-64681259D01*
X43583624Y-64507188D01*
X43651544Y-64343216D01*
X43750147Y-64195646D01*
X43875646Y-64070147D01*
X44023216Y-63971544D01*
X44187188Y-63903624D01*
X44336488Y-63873927D01*
X44361258Y-63869000D01*
X44538742Y-63869000D01*
X44563512Y-63873927D01*
G37*
G36*
X73773512Y-63873927D02*
G01*
X73922812Y-63903624D01*
X74086784Y-63971544D01*
X74234354Y-64070147D01*
X74359853Y-64195646D01*
X74458456Y-64343216D01*
X74526376Y-64507188D01*
X74561000Y-64681259D01*
X74561000Y-64858741D01*
X74526376Y-65032812D01*
X74458456Y-65196784D01*
X74359853Y-65344354D01*
X74234354Y-65469853D01*
X74086784Y-65568456D01*
X73922812Y-65636376D01*
X73773512Y-65666073D01*
X73748742Y-65671000D01*
X73571258Y-65671000D01*
X73546488Y-65666073D01*
X73397188Y-65636376D01*
X73233216Y-65568456D01*
X73085646Y-65469853D01*
X72960147Y-65344354D01*
X72861544Y-65196784D01*
X72793624Y-65032812D01*
X72759000Y-64858741D01*
X72759000Y-64681259D01*
X72793624Y-64507188D01*
X72861544Y-64343216D01*
X72960147Y-64195646D01*
X73085646Y-64070147D01*
X73233216Y-63971544D01*
X73397188Y-63903624D01*
X73546488Y-63873927D01*
X73571258Y-63869000D01*
X73748742Y-63869000D01*
X73773512Y-63873927D01*
G37*
G36*
X75154549Y-61101116D02*
G01*
X75265734Y-61123232D01*
X75475203Y-61209997D01*
X75663720Y-61335960D01*
X75824040Y-61496280D01*
X75950003Y-61684797D01*
X76036768Y-61894266D01*
X76081000Y-62116636D01*
X76081000Y-62343364D01*
X76036768Y-62565734D01*
X75950003Y-62775203D01*
X75824040Y-62963720D01*
X75663720Y-63124040D01*
X75475203Y-63250003D01*
X75265734Y-63336768D01*
X75154549Y-63358884D01*
X75043365Y-63381000D01*
X74816635Y-63381000D01*
X74705451Y-63358884D01*
X74594266Y-63336768D01*
X74384797Y-63250003D01*
X74196280Y-63124040D01*
X74035960Y-62963720D01*
X73909997Y-62775203D01*
X73823232Y-62565734D01*
X73779000Y-62343364D01*
X73779000Y-62116636D01*
X73823232Y-61894266D01*
X73909997Y-61684797D01*
X74035960Y-61496280D01*
X74196280Y-61335960D01*
X74384797Y-61209997D01*
X74594266Y-61123232D01*
X74705451Y-61101116D01*
X74816635Y-61079000D01*
X75043365Y-61079000D01*
X75154549Y-61101116D01*
G37*
G36*
X45944549Y-61101116D02*
G01*
X46055734Y-61123232D01*
X46265203Y-61209997D01*
X46453720Y-61335960D01*
X46614040Y-61496280D01*
X46740003Y-61684797D01*
X46826768Y-61894266D01*
X46871000Y-62116636D01*
X46871000Y-62343364D01*
X46826768Y-62565734D01*
X46740003Y-62775203D01*
X46614040Y-62963720D01*
X46453720Y-63124040D01*
X46265203Y-63250003D01*
X46055734Y-63336768D01*
X45944549Y-63358884D01*
X45833365Y-63381000D01*
X45606635Y-63381000D01*
X45495451Y-63358884D01*
X45384266Y-63336768D01*
X45174797Y-63250003D01*
X44986280Y-63124040D01*
X44825960Y-62963720D01*
X44699997Y-62775203D01*
X44613232Y-62565734D01*
X44569000Y-62343364D01*
X44569000Y-62116636D01*
X44613232Y-61894266D01*
X44699997Y-61684797D01*
X44825960Y-61496280D01*
X44986280Y-61335960D01*
X45174797Y-61209997D01*
X45384266Y-61123232D01*
X45495451Y-61101116D01*
X45606635Y-61079000D01*
X45833365Y-61079000D01*
X45944549Y-61101116D01*
G37*
G36*
X104364549Y-61101116D02*
G01*
X104475734Y-61123232D01*
X104685203Y-61209997D01*
X104873720Y-61335960D01*
X105034040Y-61496280D01*
X105160003Y-61684797D01*
X105246768Y-61894266D01*
X105291000Y-62116636D01*
X105291000Y-62343364D01*
X105246768Y-62565734D01*
X105160003Y-62775203D01*
X105034040Y-62963720D01*
X104873720Y-63124040D01*
X104685203Y-63250003D01*
X104475734Y-63336768D01*
X104364549Y-63358884D01*
X104253365Y-63381000D01*
X104026635Y-63381000D01*
X103915451Y-63358884D01*
X103804266Y-63336768D01*
X103594797Y-63250003D01*
X103406280Y-63124040D01*
X103245960Y-62963720D01*
X103119997Y-62775203D01*
X103033232Y-62565734D01*
X102989000Y-62343364D01*
X102989000Y-62116636D01*
X103033232Y-61894266D01*
X103119997Y-61684797D01*
X103245960Y-61496280D01*
X103406280Y-61335960D01*
X103594797Y-61209997D01*
X103804266Y-61123232D01*
X103915451Y-61101116D01*
X104026635Y-61079000D01*
X104253365Y-61079000D01*
X104364549Y-61101116D01*
G37*
G36*
X133574549Y-61101116D02*
G01*
X133685734Y-61123232D01*
X133895203Y-61209997D01*
X134083720Y-61335960D01*
X134244040Y-61496280D01*
X134370003Y-61684797D01*
X134456768Y-61894266D01*
X134501000Y-62116636D01*
X134501000Y-62343364D01*
X134456768Y-62565734D01*
X134370003Y-62775203D01*
X134244040Y-62963720D01*
X134083720Y-63124040D01*
X133895203Y-63250003D01*
X133685734Y-63336768D01*
X133574549Y-63358884D01*
X133463365Y-63381000D01*
X133236635Y-63381000D01*
X133125451Y-63358884D01*
X133014266Y-63336768D01*
X132804797Y-63250003D01*
X132616280Y-63124040D01*
X132455960Y-62963720D01*
X132329997Y-62775203D01*
X132243232Y-62565734D01*
X132199000Y-62343364D01*
X132199000Y-62116636D01*
X132243232Y-61894266D01*
X132329997Y-61684797D01*
X132455960Y-61496280D01*
X132616280Y-61335960D01*
X132804797Y-61209997D01*
X133014266Y-61123232D01*
X133125451Y-61101116D01*
X133236635Y-61079000D01*
X133463365Y-61079000D01*
X133574549Y-61101116D01*
G37*
G36*
X52294549Y-58561116D02*
G01*
X52405734Y-58583232D01*
X52615203Y-58669997D01*
X52803720Y-58795960D01*
X52964040Y-58956280D01*
X53090003Y-59144797D01*
X53176768Y-59354266D01*
X53221000Y-59576636D01*
X53221000Y-59803364D01*
X53176768Y-60025734D01*
X53090003Y-60235203D01*
X52964040Y-60423720D01*
X52803720Y-60584040D01*
X52615203Y-60710003D01*
X52405734Y-60796768D01*
X52294549Y-60818884D01*
X52183365Y-60841000D01*
X51956635Y-60841000D01*
X51845451Y-60818884D01*
X51734266Y-60796768D01*
X51524797Y-60710003D01*
X51336280Y-60584040D01*
X51175960Y-60423720D01*
X51049997Y-60235203D01*
X50963232Y-60025734D01*
X50919000Y-59803364D01*
X50919000Y-59576636D01*
X50963232Y-59354266D01*
X51049997Y-59144797D01*
X51175960Y-58956280D01*
X51336280Y-58795960D01*
X51524797Y-58669997D01*
X51734266Y-58583232D01*
X51845451Y-58561116D01*
X51956635Y-58539000D01*
X52183365Y-58539000D01*
X52294549Y-58561116D01*
G37*
G36*
X110714549Y-58561116D02*
G01*
X110825734Y-58583232D01*
X111035203Y-58669997D01*
X111223720Y-58795960D01*
X111384040Y-58956280D01*
X111510003Y-59144797D01*
X111596768Y-59354266D01*
X111641000Y-59576636D01*
X111641000Y-59803364D01*
X111596768Y-60025734D01*
X111510003Y-60235203D01*
X111384040Y-60423720D01*
X111223720Y-60584040D01*
X111035203Y-60710003D01*
X110825734Y-60796768D01*
X110714549Y-60818884D01*
X110603365Y-60841000D01*
X110376635Y-60841000D01*
X110265451Y-60818884D01*
X110154266Y-60796768D01*
X109944797Y-60710003D01*
X109756280Y-60584040D01*
X109595960Y-60423720D01*
X109469997Y-60235203D01*
X109383232Y-60025734D01*
X109339000Y-59803364D01*
X109339000Y-59576636D01*
X109383232Y-59354266D01*
X109469997Y-59144797D01*
X109595960Y-58956280D01*
X109756280Y-58795960D01*
X109944797Y-58669997D01*
X110154266Y-58583232D01*
X110265451Y-58561116D01*
X110376635Y-58539000D01*
X110603365Y-58539000D01*
X110714549Y-58561116D01*
G37*
G36*
X139924549Y-58561116D02*
G01*
X140035734Y-58583232D01*
X140245203Y-58669997D01*
X140433720Y-58795960D01*
X140594040Y-58956280D01*
X140720003Y-59144797D01*
X140806768Y-59354266D01*
X140851000Y-59576636D01*
X140851000Y-59803364D01*
X140806768Y-60025734D01*
X140720003Y-60235203D01*
X140594040Y-60423720D01*
X140433720Y-60584040D01*
X140245203Y-60710003D01*
X140035734Y-60796768D01*
X139924549Y-60818884D01*
X139813365Y-60841000D01*
X139586635Y-60841000D01*
X139475451Y-60818884D01*
X139364266Y-60796768D01*
X139154797Y-60710003D01*
X138966280Y-60584040D01*
X138805960Y-60423720D01*
X138679997Y-60235203D01*
X138593232Y-60025734D01*
X138549000Y-59803364D01*
X138549000Y-59576636D01*
X138593232Y-59354266D01*
X138679997Y-59144797D01*
X138805960Y-58956280D01*
X138966280Y-58795960D01*
X139154797Y-58669997D01*
X139364266Y-58583232D01*
X139475451Y-58561116D01*
X139586635Y-58539000D01*
X139813365Y-58539000D01*
X139924549Y-58561116D01*
G37*
G36*
X81504549Y-58561116D02*
G01*
X81615734Y-58583232D01*
X81825203Y-58669997D01*
X82013720Y-58795960D01*
X82174040Y-58956280D01*
X82300003Y-59144797D01*
X82386768Y-59354266D01*
X82431000Y-59576636D01*
X82431000Y-59803364D01*
X82386768Y-60025734D01*
X82300003Y-60235203D01*
X82174040Y-60423720D01*
X82013720Y-60584040D01*
X81825203Y-60710003D01*
X81615734Y-60796768D01*
X81504549Y-60818884D01*
X81393365Y-60841000D01*
X81166635Y-60841000D01*
X81055451Y-60818884D01*
X80944266Y-60796768D01*
X80734797Y-60710003D01*
X80546280Y-60584040D01*
X80385960Y-60423720D01*
X80259997Y-60235203D01*
X80173232Y-60025734D01*
X80129000Y-59803364D01*
X80129000Y-59576636D01*
X80173232Y-59354266D01*
X80259997Y-59144797D01*
X80385960Y-58956280D01*
X80546280Y-58795960D01*
X80734797Y-58669997D01*
X80944266Y-58583232D01*
X81055451Y-58561116D01*
X81166635Y-58539000D01*
X81393365Y-58539000D01*
X81504549Y-58561116D01*
G37*
G36*
X95998512Y-53713927D02*
G01*
X96147812Y-53743624D01*
X96311784Y-53811544D01*
X96459354Y-53910147D01*
X96584853Y-54035646D01*
X96683456Y-54183216D01*
X96751376Y-54347188D01*
X96786000Y-54521259D01*
X96786000Y-54698741D01*
X96751376Y-54872812D01*
X96683456Y-55036784D01*
X96584853Y-55184354D01*
X96459354Y-55309853D01*
X96311784Y-55408456D01*
X96147812Y-55476376D01*
X95998512Y-55506073D01*
X95973742Y-55511000D01*
X95796258Y-55511000D01*
X95771488Y-55506073D01*
X95622188Y-55476376D01*
X95458216Y-55408456D01*
X95310646Y-55309853D01*
X95185147Y-55184354D01*
X95086544Y-55036784D01*
X95018624Y-54872812D01*
X94984000Y-54698741D01*
X94984000Y-54521259D01*
X95018624Y-54347188D01*
X95086544Y-54183216D01*
X95185147Y-54035646D01*
X95310646Y-53910147D01*
X95458216Y-53811544D01*
X95622188Y-53743624D01*
X95771488Y-53713927D01*
X95796258Y-53709000D01*
X95973742Y-53709000D01*
X95998512Y-53713927D01*
G37*
G36*
X93458512Y-53713927D02*
G01*
X93607812Y-53743624D01*
X93771784Y-53811544D01*
X93919354Y-53910147D01*
X94044853Y-54035646D01*
X94143456Y-54183216D01*
X94211376Y-54347188D01*
X94246000Y-54521259D01*
X94246000Y-54698741D01*
X94211376Y-54872812D01*
X94143456Y-55036784D01*
X94044853Y-55184354D01*
X93919354Y-55309853D01*
X93771784Y-55408456D01*
X93607812Y-55476376D01*
X93458512Y-55506073D01*
X93433742Y-55511000D01*
X93256258Y-55511000D01*
X93231488Y-55506073D01*
X93082188Y-55476376D01*
X92918216Y-55408456D01*
X92770646Y-55309853D01*
X92645147Y-55184354D01*
X92546544Y-55036784D01*
X92478624Y-54872812D01*
X92444000Y-54698741D01*
X92444000Y-54521259D01*
X92478624Y-54347188D01*
X92546544Y-54183216D01*
X92645147Y-54035646D01*
X92770646Y-53910147D01*
X92918216Y-53811544D01*
X93082188Y-53743624D01*
X93231488Y-53713927D01*
X93256258Y-53709000D01*
X93433742Y-53709000D01*
X93458512Y-53713927D01*
G37*
G36*
X90918512Y-53713927D02*
G01*
X91067812Y-53743624D01*
X91231784Y-53811544D01*
X91379354Y-53910147D01*
X91504853Y-54035646D01*
X91603456Y-54183216D01*
X91671376Y-54347188D01*
X91706000Y-54521259D01*
X91706000Y-54698741D01*
X91671376Y-54872812D01*
X91603456Y-55036784D01*
X91504853Y-55184354D01*
X91379354Y-55309853D01*
X91231784Y-55408456D01*
X91067812Y-55476376D01*
X90918512Y-55506073D01*
X90893742Y-55511000D01*
X90716258Y-55511000D01*
X90691488Y-55506073D01*
X90542188Y-55476376D01*
X90378216Y-55408456D01*
X90230646Y-55309853D01*
X90105147Y-55184354D01*
X90006544Y-55036784D01*
X89938624Y-54872812D01*
X89904000Y-54698741D01*
X89904000Y-54521259D01*
X89938624Y-54347188D01*
X90006544Y-54183216D01*
X90105147Y-54035646D01*
X90230646Y-53910147D01*
X90378216Y-53811544D01*
X90542188Y-53743624D01*
X90691488Y-53713927D01*
X90716258Y-53709000D01*
X90893742Y-53709000D01*
X90918512Y-53713927D01*
G37*
G36*
X90918512Y-51173927D02*
G01*
X91067812Y-51203624D01*
X91231784Y-51271544D01*
X91379354Y-51370147D01*
X91504853Y-51495646D01*
X91603456Y-51643216D01*
X91671376Y-51807188D01*
X91706000Y-51981259D01*
X91706000Y-52158741D01*
X91671376Y-52332812D01*
X91603456Y-52496784D01*
X91504853Y-52644354D01*
X91379354Y-52769853D01*
X91231784Y-52868456D01*
X91067812Y-52936376D01*
X90918512Y-52966073D01*
X90893742Y-52971000D01*
X90716258Y-52971000D01*
X90691488Y-52966073D01*
X90542188Y-52936376D01*
X90378216Y-52868456D01*
X90230646Y-52769853D01*
X90105147Y-52644354D01*
X90006544Y-52496784D01*
X89938624Y-52332812D01*
X89904000Y-52158741D01*
X89904000Y-51981259D01*
X89938624Y-51807188D01*
X90006544Y-51643216D01*
X90105147Y-51495646D01*
X90230646Y-51370147D01*
X90378216Y-51271544D01*
X90542188Y-51203624D01*
X90691488Y-51173927D01*
X90716258Y-51169000D01*
X90893742Y-51169000D01*
X90918512Y-51173927D01*
G37*
G36*
X96786000Y-52971000D02*
G01*
X94984000Y-52971000D01*
X94984000Y-51169000D01*
X96786000Y-51169000D01*
X96786000Y-52971000D01*
G37*
G36*
X93458512Y-51173927D02*
G01*
X93607812Y-51203624D01*
X93771784Y-51271544D01*
X93919354Y-51370147D01*
X94044853Y-51495646D01*
X94143456Y-51643216D01*
X94211376Y-51807188D01*
X94246000Y-51981259D01*
X94246000Y-52158741D01*
X94211376Y-52332812D01*
X94143456Y-52496784D01*
X94044853Y-52644354D01*
X93919354Y-52769853D01*
X93771784Y-52868456D01*
X93607812Y-52936376D01*
X93458512Y-52966073D01*
X93433742Y-52971000D01*
X93256258Y-52971000D01*
X93231488Y-52966073D01*
X93082188Y-52936376D01*
X92918216Y-52868456D01*
X92770646Y-52769853D01*
X92645147Y-52644354D01*
X92546544Y-52496784D01*
X92478624Y-52332812D01*
X92444000Y-52158741D01*
X92444000Y-51981259D01*
X92478624Y-51807188D01*
X92546544Y-51643216D01*
X92645147Y-51495646D01*
X92770646Y-51370147D01*
X92918216Y-51271544D01*
X93082188Y-51203624D01*
X93231488Y-51173927D01*
X93256258Y-51169000D01*
X93433742Y-51169000D01*
X93458512Y-51173927D01*
G37*
G36*
X135511000Y-52951000D02*
G01*
X133909000Y-52951000D01*
X133909000Y-51849000D01*
X135511000Y-51849000D01*
X135511000Y-52951000D01*
G37*
G36*
X140411000Y-52951000D02*
G01*
X138809000Y-52951000D01*
X138809000Y-51849000D01*
X140411000Y-51849000D01*
X140411000Y-52951000D01*
G37*
G36*
X52781000Y-52951000D02*
G01*
X51179000Y-52951000D01*
X51179000Y-51849000D01*
X52781000Y-51849000D01*
X52781000Y-52951000D01*
G37*
G36*
X111201000Y-52951000D02*
G01*
X109599000Y-52951000D01*
X109599000Y-51849000D01*
X111201000Y-51849000D01*
X111201000Y-52951000D01*
G37*
G36*
X47881000Y-52951000D02*
G01*
X46279000Y-52951000D01*
X46279000Y-51849000D01*
X47881000Y-51849000D01*
X47881000Y-52951000D01*
G37*
G36*
X77091000Y-52951000D02*
G01*
X75489000Y-52951000D01*
X75489000Y-51849000D01*
X77091000Y-51849000D01*
X77091000Y-52951000D01*
G37*
G36*
X81991000Y-52951000D02*
G01*
X80389000Y-52951000D01*
X80389000Y-51849000D01*
X81991000Y-51849000D01*
X81991000Y-52951000D01*
G37*
G36*
X106301000Y-52951000D02*
G01*
X104699000Y-52951000D01*
X104699000Y-51849000D01*
X106301000Y-51849000D01*
X106301000Y-52951000D01*
G37*
G36*
X47881000Y-49751000D02*
G01*
X46279000Y-49751000D01*
X46279000Y-48649000D01*
X47881000Y-48649000D01*
X47881000Y-49751000D01*
G37*
G36*
X52781000Y-49751000D02*
G01*
X51179000Y-49751000D01*
X51179000Y-48649000D01*
X52781000Y-48649000D01*
X52781000Y-49751000D01*
G37*
G36*
X135511000Y-49751000D02*
G01*
X133909000Y-49751000D01*
X133909000Y-48649000D01*
X135511000Y-48649000D01*
X135511000Y-49751000D01*
G37*
G36*
X111201000Y-49751000D02*
G01*
X109599000Y-49751000D01*
X109599000Y-48649000D01*
X111201000Y-48649000D01*
X111201000Y-49751000D01*
G37*
G36*
X106301000Y-49751000D02*
G01*
X104699000Y-49751000D01*
X104699000Y-48649000D01*
X106301000Y-48649000D01*
X106301000Y-49751000D01*
G37*
G36*
X77091000Y-49751000D02*
G01*
X75489000Y-49751000D01*
X75489000Y-48649000D01*
X77091000Y-48649000D01*
X77091000Y-49751000D01*
G37*
G36*
X81991000Y-49751000D02*
G01*
X80389000Y-49751000D01*
X80389000Y-48649000D01*
X81991000Y-48649000D01*
X81991000Y-49751000D01*
G37*
G36*
X140411000Y-49751000D02*
G01*
X138809000Y-49751000D01*
X138809000Y-48649000D01*
X140411000Y-48649000D01*
X140411000Y-49751000D01*
G37*
G36*
X108548254Y-38667818D02*
G01*
X108921511Y-38822426D01*
X108921513Y-38822427D01*
X109257436Y-39046884D01*
X109543116Y-39332564D01*
X109767574Y-39668489D01*
X109922182Y-40041746D01*
X110001000Y-40437993D01*
X110001000Y-40842007D01*
X109922182Y-41238254D01*
X109767574Y-41611511D01*
X109767573Y-41611513D01*
X109543116Y-41947436D01*
X109257436Y-42233116D01*
X108921513Y-42457573D01*
X108921512Y-42457574D01*
X108921511Y-42457574D01*
X108548254Y-42612182D01*
X108152007Y-42691000D01*
X107747993Y-42691000D01*
X107351746Y-42612182D01*
X106978489Y-42457574D01*
X106978488Y-42457574D01*
X106978487Y-42457573D01*
X106642564Y-42233116D01*
X106356884Y-41947436D01*
X106132427Y-41611513D01*
X106132426Y-41611511D01*
X105977818Y-41238254D01*
X105899000Y-40842007D01*
X105899000Y-40437993D01*
X105977818Y-40041746D01*
X106132426Y-39668489D01*
X106356884Y-39332564D01*
X106642564Y-39046884D01*
X106978487Y-38822427D01*
X106978489Y-38822426D01*
X107351746Y-38667818D01*
X107747993Y-38589000D01*
X108152007Y-38589000D01*
X108548254Y-38667818D01*
G37*
G36*
X137758254Y-38667818D02*
G01*
X138131511Y-38822426D01*
X138131513Y-38822427D01*
X138467436Y-39046884D01*
X138753116Y-39332564D01*
X138977574Y-39668489D01*
X139132182Y-40041746D01*
X139211000Y-40437993D01*
X139211000Y-40842007D01*
X139132182Y-41238254D01*
X138977574Y-41611511D01*
X138977573Y-41611513D01*
X138753116Y-41947436D01*
X138467436Y-42233116D01*
X138131513Y-42457573D01*
X138131512Y-42457574D01*
X138131511Y-42457574D01*
X137758254Y-42612182D01*
X137362007Y-42691000D01*
X136957993Y-42691000D01*
X136561746Y-42612182D01*
X136188489Y-42457574D01*
X136188488Y-42457574D01*
X136188487Y-42457573D01*
X135852564Y-42233116D01*
X135566884Y-41947436D01*
X135342427Y-41611513D01*
X135342426Y-41611511D01*
X135187818Y-41238254D01*
X135109000Y-40842007D01*
X135109000Y-40437993D01*
X135187818Y-40041746D01*
X135342426Y-39668489D01*
X135566884Y-39332564D01*
X135852564Y-39046884D01*
X136188487Y-38822427D01*
X136188489Y-38822426D01*
X136561746Y-38667818D01*
X136957993Y-38589000D01*
X137362007Y-38589000D01*
X137758254Y-38667818D01*
G37*
G36*
X50128254Y-38667818D02*
G01*
X50501511Y-38822426D01*
X50501513Y-38822427D01*
X50837436Y-39046884D01*
X51123116Y-39332564D01*
X51347574Y-39668489D01*
X51502182Y-40041746D01*
X51581000Y-40437993D01*
X51581000Y-40842007D01*
X51502182Y-41238254D01*
X51347574Y-41611511D01*
X51347573Y-41611513D01*
X51123116Y-41947436D01*
X50837436Y-42233116D01*
X50501513Y-42457573D01*
X50501512Y-42457574D01*
X50501511Y-42457574D01*
X50128254Y-42612182D01*
X49732007Y-42691000D01*
X49327993Y-42691000D01*
X48931746Y-42612182D01*
X48558489Y-42457574D01*
X48558488Y-42457574D01*
X48558487Y-42457573D01*
X48222564Y-42233116D01*
X47936884Y-41947436D01*
X47712427Y-41611513D01*
X47712426Y-41611511D01*
X47557818Y-41238254D01*
X47479000Y-40842007D01*
X47479000Y-40437993D01*
X47557818Y-40041746D01*
X47712426Y-39668489D01*
X47936884Y-39332564D01*
X48222564Y-39046884D01*
X48558487Y-38822427D01*
X48558489Y-38822426D01*
X48931746Y-38667818D01*
X49327993Y-38589000D01*
X49732007Y-38589000D01*
X50128254Y-38667818D01*
G37*
G36*
X79338254Y-38667818D02*
G01*
X79711511Y-38822426D01*
X79711513Y-38822427D01*
X80047436Y-39046884D01*
X80333116Y-39332564D01*
X80557574Y-39668489D01*
X80712182Y-40041746D01*
X80791000Y-40437993D01*
X80791000Y-40842007D01*
X80712182Y-41238254D01*
X80557574Y-41611511D01*
X80557573Y-41611513D01*
X80333116Y-41947436D01*
X80047436Y-42233116D01*
X79711513Y-42457573D01*
X79711512Y-42457574D01*
X79711511Y-42457574D01*
X79338254Y-42612182D01*
X78942007Y-42691000D01*
X78537993Y-42691000D01*
X78141746Y-42612182D01*
X77768489Y-42457574D01*
X77768488Y-42457574D01*
X77768487Y-42457573D01*
X77432564Y-42233116D01*
X77146884Y-41947436D01*
X76922427Y-41611513D01*
X76922426Y-41611511D01*
X76767818Y-41238254D01*
X76689000Y-40842007D01*
X76689000Y-40437993D01*
X76767818Y-40041746D01*
X76922426Y-39668489D01*
X77146884Y-39332564D01*
X77432564Y-39046884D01*
X77768487Y-38822427D01*
X77768489Y-38822426D01*
X78141746Y-38667818D01*
X78537993Y-38589000D01*
X78942007Y-38589000D01*
X79338254Y-38667818D01*
G37*
G36*
X73773512Y-39743927D02*
G01*
X73922812Y-39773624D01*
X74086784Y-39841544D01*
X74234354Y-39940147D01*
X74359853Y-40065646D01*
X74458456Y-40213216D01*
X74526376Y-40377188D01*
X74561000Y-40551259D01*
X74561000Y-40728741D01*
X74526376Y-40902812D01*
X74458456Y-41066784D01*
X74359853Y-41214354D01*
X74234354Y-41339853D01*
X74086784Y-41438456D01*
X73922812Y-41506376D01*
X73773512Y-41536073D01*
X73748742Y-41541000D01*
X73571258Y-41541000D01*
X73546488Y-41536073D01*
X73397188Y-41506376D01*
X73233216Y-41438456D01*
X73085646Y-41339853D01*
X72960147Y-41214354D01*
X72861544Y-41066784D01*
X72793624Y-40902812D01*
X72759000Y-40728741D01*
X72759000Y-40551259D01*
X72793624Y-40377188D01*
X72861544Y-40213216D01*
X72960147Y-40065646D01*
X73085646Y-39940147D01*
X73233216Y-39841544D01*
X73397188Y-39773624D01*
X73546488Y-39743927D01*
X73571258Y-39739000D01*
X73748742Y-39739000D01*
X73773512Y-39743927D01*
G37*
G36*
X83933512Y-39743927D02*
G01*
X84082812Y-39773624D01*
X84246784Y-39841544D01*
X84394354Y-39940147D01*
X84519853Y-40065646D01*
X84618456Y-40213216D01*
X84686376Y-40377188D01*
X84721000Y-40551259D01*
X84721000Y-40728741D01*
X84686376Y-40902812D01*
X84618456Y-41066784D01*
X84519853Y-41214354D01*
X84394354Y-41339853D01*
X84246784Y-41438456D01*
X84082812Y-41506376D01*
X83933512Y-41536073D01*
X83908742Y-41541000D01*
X83731258Y-41541000D01*
X83706488Y-41536073D01*
X83557188Y-41506376D01*
X83393216Y-41438456D01*
X83245646Y-41339853D01*
X83120147Y-41214354D01*
X83021544Y-41066784D01*
X82953624Y-40902812D01*
X82919000Y-40728741D01*
X82919000Y-40551259D01*
X82953624Y-40377188D01*
X83021544Y-40213216D01*
X83120147Y-40065646D01*
X83245646Y-39940147D01*
X83393216Y-39841544D01*
X83557188Y-39773624D01*
X83706488Y-39743927D01*
X83731258Y-39739000D01*
X83908742Y-39739000D01*
X83933512Y-39743927D01*
G37*
G36*
X132193512Y-39743927D02*
G01*
X132342812Y-39773624D01*
X132506784Y-39841544D01*
X132654354Y-39940147D01*
X132779853Y-40065646D01*
X132878456Y-40213216D01*
X132946376Y-40377188D01*
X132981000Y-40551259D01*
X132981000Y-40728741D01*
X132946376Y-40902812D01*
X132878456Y-41066784D01*
X132779853Y-41214354D01*
X132654354Y-41339853D01*
X132506784Y-41438456D01*
X132342812Y-41506376D01*
X132193512Y-41536073D01*
X132168742Y-41541000D01*
X131991258Y-41541000D01*
X131966488Y-41536073D01*
X131817188Y-41506376D01*
X131653216Y-41438456D01*
X131505646Y-41339853D01*
X131380147Y-41214354D01*
X131281544Y-41066784D01*
X131213624Y-40902812D01*
X131179000Y-40728741D01*
X131179000Y-40551259D01*
X131213624Y-40377188D01*
X131281544Y-40213216D01*
X131380147Y-40065646D01*
X131505646Y-39940147D01*
X131653216Y-39841544D01*
X131817188Y-39773624D01*
X131966488Y-39743927D01*
X131991258Y-39739000D01*
X132168742Y-39739000D01*
X132193512Y-39743927D01*
G37*
G36*
X142353512Y-39743927D02*
G01*
X142502812Y-39773624D01*
X142666784Y-39841544D01*
X142814354Y-39940147D01*
X142939853Y-40065646D01*
X143038456Y-40213216D01*
X143106376Y-40377188D01*
X143141000Y-40551259D01*
X143141000Y-40728741D01*
X143106376Y-40902812D01*
X143038456Y-41066784D01*
X142939853Y-41214354D01*
X142814354Y-41339853D01*
X142666784Y-41438456D01*
X142502812Y-41506376D01*
X142353512Y-41536073D01*
X142328742Y-41541000D01*
X142151258Y-41541000D01*
X142126488Y-41536073D01*
X141977188Y-41506376D01*
X141813216Y-41438456D01*
X141665646Y-41339853D01*
X141540147Y-41214354D01*
X141441544Y-41066784D01*
X141373624Y-40902812D01*
X141339000Y-40728741D01*
X141339000Y-40551259D01*
X141373624Y-40377188D01*
X141441544Y-40213216D01*
X141540147Y-40065646D01*
X141665646Y-39940147D01*
X141813216Y-39841544D01*
X141977188Y-39773624D01*
X142126488Y-39743927D01*
X142151258Y-39739000D01*
X142328742Y-39739000D01*
X142353512Y-39743927D01*
G37*
G36*
X102983512Y-39743927D02*
G01*
X103132812Y-39773624D01*
X103296784Y-39841544D01*
X103444354Y-39940147D01*
X103569853Y-40065646D01*
X103668456Y-40213216D01*
X103736376Y-40377188D01*
X103771000Y-40551259D01*
X103771000Y-40728741D01*
X103736376Y-40902812D01*
X103668456Y-41066784D01*
X103569853Y-41214354D01*
X103444354Y-41339853D01*
X103296784Y-41438456D01*
X103132812Y-41506376D01*
X102983512Y-41536073D01*
X102958742Y-41541000D01*
X102781258Y-41541000D01*
X102756488Y-41536073D01*
X102607188Y-41506376D01*
X102443216Y-41438456D01*
X102295646Y-41339853D01*
X102170147Y-41214354D01*
X102071544Y-41066784D01*
X102003624Y-40902812D01*
X101969000Y-40728741D01*
X101969000Y-40551259D01*
X102003624Y-40377188D01*
X102071544Y-40213216D01*
X102170147Y-40065646D01*
X102295646Y-39940147D01*
X102443216Y-39841544D01*
X102607188Y-39773624D01*
X102756488Y-39743927D01*
X102781258Y-39739000D01*
X102958742Y-39739000D01*
X102983512Y-39743927D01*
G37*
G36*
X44563512Y-39743927D02*
G01*
X44712812Y-39773624D01*
X44876784Y-39841544D01*
X45024354Y-39940147D01*
X45149853Y-40065646D01*
X45248456Y-40213216D01*
X45316376Y-40377188D01*
X45351000Y-40551259D01*
X45351000Y-40728741D01*
X45316376Y-40902812D01*
X45248456Y-41066784D01*
X45149853Y-41214354D01*
X45024354Y-41339853D01*
X44876784Y-41438456D01*
X44712812Y-41506376D01*
X44563512Y-41536073D01*
X44538742Y-41541000D01*
X44361258Y-41541000D01*
X44336488Y-41536073D01*
X44187188Y-41506376D01*
X44023216Y-41438456D01*
X43875646Y-41339853D01*
X43750147Y-41214354D01*
X43651544Y-41066784D01*
X43583624Y-40902812D01*
X43549000Y-40728741D01*
X43549000Y-40551259D01*
X43583624Y-40377188D01*
X43651544Y-40213216D01*
X43750147Y-40065646D01*
X43875646Y-39940147D01*
X44023216Y-39841544D01*
X44187188Y-39773624D01*
X44336488Y-39743927D01*
X44361258Y-39739000D01*
X44538742Y-39739000D01*
X44563512Y-39743927D01*
G37*
G36*
X54723512Y-39743927D02*
G01*
X54872812Y-39773624D01*
X55036784Y-39841544D01*
X55184354Y-39940147D01*
X55309853Y-40065646D01*
X55408456Y-40213216D01*
X55476376Y-40377188D01*
X55511000Y-40551259D01*
X55511000Y-40728741D01*
X55476376Y-40902812D01*
X55408456Y-41066784D01*
X55309853Y-41214354D01*
X55184354Y-41339853D01*
X55036784Y-41438456D01*
X54872812Y-41506376D01*
X54723512Y-41536073D01*
X54698742Y-41541000D01*
X54521258Y-41541000D01*
X54496488Y-41536073D01*
X54347188Y-41506376D01*
X54183216Y-41438456D01*
X54035646Y-41339853D01*
X53910147Y-41214354D01*
X53811544Y-41066784D01*
X53743624Y-40902812D01*
X53709000Y-40728741D01*
X53709000Y-40551259D01*
X53743624Y-40377188D01*
X53811544Y-40213216D01*
X53910147Y-40065646D01*
X54035646Y-39940147D01*
X54183216Y-39841544D01*
X54347188Y-39773624D01*
X54496488Y-39743927D01*
X54521258Y-39739000D01*
X54698742Y-39739000D01*
X54723512Y-39743927D01*
G37*
G36*
X113143512Y-39743927D02*
G01*
X113292812Y-39773624D01*
X113456784Y-39841544D01*
X113604354Y-39940147D01*
X113729853Y-40065646D01*
X113828456Y-40213216D01*
X113896376Y-40377188D01*
X113931000Y-40551259D01*
X113931000Y-40728741D01*
X113896376Y-40902812D01*
X113828456Y-41066784D01*
X113729853Y-41214354D01*
X113604354Y-41339853D01*
X113456784Y-41438456D01*
X113292812Y-41506376D01*
X113143512Y-41536073D01*
X113118742Y-41541000D01*
X112941258Y-41541000D01*
X112916488Y-41536073D01*
X112767188Y-41506376D01*
X112603216Y-41438456D01*
X112455646Y-41339853D01*
X112330147Y-41214354D01*
X112231544Y-41066784D01*
X112163624Y-40902812D01*
X112129000Y-40728741D01*
X112129000Y-40551259D01*
X112163624Y-40377188D01*
X112231544Y-40213216D01*
X112330147Y-40065646D01*
X112455646Y-39940147D01*
X112603216Y-39841544D01*
X112767188Y-39773624D01*
X112916488Y-39743927D01*
X112941258Y-39739000D01*
X113118742Y-39739000D01*
X113143512Y-39743927D01*
G37*
G36*
X133574549Y-36971116D02*
G01*
X133685734Y-36993232D01*
X133895203Y-37079997D01*
X134083720Y-37205960D01*
X134244040Y-37366280D01*
X134370003Y-37554797D01*
X134456768Y-37764266D01*
X134501000Y-37986636D01*
X134501000Y-38213364D01*
X134456768Y-38435734D01*
X134370003Y-38645203D01*
X134244040Y-38833720D01*
X134083720Y-38994040D01*
X133895203Y-39120003D01*
X133685734Y-39206768D01*
X133574549Y-39228884D01*
X133463365Y-39251000D01*
X133236635Y-39251000D01*
X133125451Y-39228884D01*
X133014266Y-39206768D01*
X132804797Y-39120003D01*
X132616280Y-38994040D01*
X132455960Y-38833720D01*
X132329997Y-38645203D01*
X132243232Y-38435734D01*
X132199000Y-38213364D01*
X132199000Y-37986636D01*
X132243232Y-37764266D01*
X132329997Y-37554797D01*
X132455960Y-37366280D01*
X132616280Y-37205960D01*
X132804797Y-37079997D01*
X133014266Y-36993232D01*
X133125451Y-36971116D01*
X133236635Y-36949000D01*
X133463365Y-36949000D01*
X133574549Y-36971116D01*
G37*
G36*
X45944549Y-36971116D02*
G01*
X46055734Y-36993232D01*
X46265203Y-37079997D01*
X46453720Y-37205960D01*
X46614040Y-37366280D01*
X46740003Y-37554797D01*
X46826768Y-37764266D01*
X46871000Y-37986636D01*
X46871000Y-38213364D01*
X46826768Y-38435734D01*
X46740003Y-38645203D01*
X46614040Y-38833720D01*
X46453720Y-38994040D01*
X46265203Y-39120003D01*
X46055734Y-39206768D01*
X45944549Y-39228884D01*
X45833365Y-39251000D01*
X45606635Y-39251000D01*
X45495451Y-39228884D01*
X45384266Y-39206768D01*
X45174797Y-39120003D01*
X44986280Y-38994040D01*
X44825960Y-38833720D01*
X44699997Y-38645203D01*
X44613232Y-38435734D01*
X44569000Y-38213364D01*
X44569000Y-37986636D01*
X44613232Y-37764266D01*
X44699997Y-37554797D01*
X44825960Y-37366280D01*
X44986280Y-37205960D01*
X45174797Y-37079997D01*
X45384266Y-36993232D01*
X45495451Y-36971116D01*
X45606635Y-36949000D01*
X45833365Y-36949000D01*
X45944549Y-36971116D01*
G37*
G36*
X75154549Y-36971116D02*
G01*
X75265734Y-36993232D01*
X75475203Y-37079997D01*
X75663720Y-37205960D01*
X75824040Y-37366280D01*
X75950003Y-37554797D01*
X76036768Y-37764266D01*
X76081000Y-37986636D01*
X76081000Y-38213364D01*
X76036768Y-38435734D01*
X75950003Y-38645203D01*
X75824040Y-38833720D01*
X75663720Y-38994040D01*
X75475203Y-39120003D01*
X75265734Y-39206768D01*
X75154549Y-39228884D01*
X75043365Y-39251000D01*
X74816635Y-39251000D01*
X74705451Y-39228884D01*
X74594266Y-39206768D01*
X74384797Y-39120003D01*
X74196280Y-38994040D01*
X74035960Y-38833720D01*
X73909997Y-38645203D01*
X73823232Y-38435734D01*
X73779000Y-38213364D01*
X73779000Y-37986636D01*
X73823232Y-37764266D01*
X73909997Y-37554797D01*
X74035960Y-37366280D01*
X74196280Y-37205960D01*
X74384797Y-37079997D01*
X74594266Y-36993232D01*
X74705451Y-36971116D01*
X74816635Y-36949000D01*
X75043365Y-36949000D01*
X75154549Y-36971116D01*
G37*
G36*
X104364549Y-36971116D02*
G01*
X104475734Y-36993232D01*
X104685203Y-37079997D01*
X104873720Y-37205960D01*
X105034040Y-37366280D01*
X105160003Y-37554797D01*
X105246768Y-37764266D01*
X105291000Y-37986636D01*
X105291000Y-38213364D01*
X105246768Y-38435734D01*
X105160003Y-38645203D01*
X105034040Y-38833720D01*
X104873720Y-38994040D01*
X104685203Y-39120003D01*
X104475734Y-39206768D01*
X104364549Y-39228884D01*
X104253365Y-39251000D01*
X104026635Y-39251000D01*
X103915451Y-39228884D01*
X103804266Y-39206768D01*
X103594797Y-39120003D01*
X103406280Y-38994040D01*
X103245960Y-38833720D01*
X103119997Y-38645203D01*
X103033232Y-38435734D01*
X102989000Y-38213364D01*
X102989000Y-37986636D01*
X103033232Y-37764266D01*
X103119997Y-37554797D01*
X103245960Y-37366280D01*
X103406280Y-37205960D01*
X103594797Y-37079997D01*
X103804266Y-36993232D01*
X103915451Y-36971116D01*
X104026635Y-36949000D01*
X104253365Y-36949000D01*
X104364549Y-36971116D01*
G37*
G36*
X67423512Y-35933927D02*
G01*
X67572812Y-35963624D01*
X67736784Y-36031544D01*
X67884354Y-36130147D01*
X68009853Y-36255646D01*
X68108456Y-36403216D01*
X68176376Y-36567188D01*
X68211000Y-36741259D01*
X68211000Y-36918741D01*
X68176376Y-37092812D01*
X68108456Y-37256784D01*
X68009853Y-37404354D01*
X67884354Y-37529853D01*
X67736784Y-37628456D01*
X67572812Y-37696376D01*
X67423512Y-37726073D01*
X67398742Y-37731000D01*
X67221258Y-37731000D01*
X67196488Y-37726073D01*
X67047188Y-37696376D01*
X66883216Y-37628456D01*
X66735646Y-37529853D01*
X66610147Y-37404354D01*
X66511544Y-37256784D01*
X66443624Y-37092812D01*
X66409000Y-36918741D01*
X66409000Y-36741259D01*
X66443624Y-36567188D01*
X66511544Y-36403216D01*
X66610147Y-36255646D01*
X66735646Y-36130147D01*
X66883216Y-36031544D01*
X67047188Y-35963624D01*
X67196488Y-35933927D01*
X67221258Y-35929000D01*
X67398742Y-35929000D01*
X67423512Y-35933927D01*
G37*
G36*
X69963512Y-35933927D02*
G01*
X70112812Y-35963624D01*
X70276784Y-36031544D01*
X70424354Y-36130147D01*
X70549853Y-36255646D01*
X70648456Y-36403216D01*
X70716376Y-36567188D01*
X70751000Y-36741259D01*
X70751000Y-36918741D01*
X70716376Y-37092812D01*
X70648456Y-37256784D01*
X70549853Y-37404354D01*
X70424354Y-37529853D01*
X70276784Y-37628456D01*
X70112812Y-37696376D01*
X69963512Y-37726073D01*
X69938742Y-37731000D01*
X69761258Y-37731000D01*
X69736488Y-37726073D01*
X69587188Y-37696376D01*
X69423216Y-37628456D01*
X69275646Y-37529853D01*
X69150147Y-37404354D01*
X69051544Y-37256784D01*
X68983624Y-37092812D01*
X68949000Y-36918741D01*
X68949000Y-36741259D01*
X68983624Y-36567188D01*
X69051544Y-36403216D01*
X69150147Y-36255646D01*
X69275646Y-36130147D01*
X69423216Y-36031544D01*
X69587188Y-35963624D01*
X69736488Y-35933927D01*
X69761258Y-35929000D01*
X69938742Y-35929000D01*
X69963512Y-35933927D01*
G37*
G36*
X64883512Y-35933927D02*
G01*
X65032812Y-35963624D01*
X65196784Y-36031544D01*
X65344354Y-36130147D01*
X65469853Y-36255646D01*
X65568456Y-36403216D01*
X65636376Y-36567188D01*
X65671000Y-36741259D01*
X65671000Y-36918741D01*
X65636376Y-37092812D01*
X65568456Y-37256784D01*
X65469853Y-37404354D01*
X65344354Y-37529853D01*
X65196784Y-37628456D01*
X65032812Y-37696376D01*
X64883512Y-37726073D01*
X64858742Y-37731000D01*
X64681258Y-37731000D01*
X64656488Y-37726073D01*
X64507188Y-37696376D01*
X64343216Y-37628456D01*
X64195646Y-37529853D01*
X64070147Y-37404354D01*
X63971544Y-37256784D01*
X63903624Y-37092812D01*
X63869000Y-36918741D01*
X63869000Y-36741259D01*
X63903624Y-36567188D01*
X63971544Y-36403216D01*
X64070147Y-36255646D01*
X64195646Y-36130147D01*
X64343216Y-36031544D01*
X64507188Y-35963624D01*
X64656488Y-35933927D01*
X64681258Y-35929000D01*
X64858742Y-35929000D01*
X64883512Y-35933927D01*
G37*
G36*
X62343512Y-35933927D02*
G01*
X62492812Y-35963624D01*
X62656784Y-36031544D01*
X62804354Y-36130147D01*
X62929853Y-36255646D01*
X63028456Y-36403216D01*
X63096376Y-36567188D01*
X63131000Y-36741259D01*
X63131000Y-36918741D01*
X63096376Y-37092812D01*
X63028456Y-37256784D01*
X62929853Y-37404354D01*
X62804354Y-37529853D01*
X62656784Y-37628456D01*
X62492812Y-37696376D01*
X62343512Y-37726073D01*
X62318742Y-37731000D01*
X62141258Y-37731000D01*
X62116488Y-37726073D01*
X61967188Y-37696376D01*
X61803216Y-37628456D01*
X61655646Y-37529853D01*
X61530147Y-37404354D01*
X61431544Y-37256784D01*
X61363624Y-37092812D01*
X61329000Y-36918741D01*
X61329000Y-36741259D01*
X61363624Y-36567188D01*
X61431544Y-36403216D01*
X61530147Y-36255646D01*
X61655646Y-36130147D01*
X61803216Y-36031544D01*
X61967188Y-35963624D01*
X62116488Y-35933927D01*
X62141258Y-35929000D01*
X62318742Y-35929000D01*
X62343512Y-35933927D01*
G37*
G36*
X59803512Y-35933927D02*
G01*
X59952812Y-35963624D01*
X60116784Y-36031544D01*
X60264354Y-36130147D01*
X60389853Y-36255646D01*
X60488456Y-36403216D01*
X60556376Y-36567188D01*
X60591000Y-36741259D01*
X60591000Y-36918741D01*
X60556376Y-37092812D01*
X60488456Y-37256784D01*
X60389853Y-37404354D01*
X60264354Y-37529853D01*
X60116784Y-37628456D01*
X59952812Y-37696376D01*
X59803512Y-37726073D01*
X59778742Y-37731000D01*
X59601258Y-37731000D01*
X59576488Y-37726073D01*
X59427188Y-37696376D01*
X59263216Y-37628456D01*
X59115646Y-37529853D01*
X58990147Y-37404354D01*
X58891544Y-37256784D01*
X58823624Y-37092812D01*
X58789000Y-36918741D01*
X58789000Y-36741259D01*
X58823624Y-36567188D01*
X58891544Y-36403216D01*
X58990147Y-36255646D01*
X59115646Y-36130147D01*
X59263216Y-36031544D01*
X59427188Y-35963624D01*
X59576488Y-35933927D01*
X59601258Y-35929000D01*
X59778742Y-35929000D01*
X59803512Y-35933927D01*
G37*
G36*
X58051000Y-37731000D02*
G01*
X56249000Y-37731000D01*
X56249000Y-35929000D01*
X58051000Y-35929000D01*
X58051000Y-37731000D01*
G37*
G36*
X81504549Y-34431116D02*
G01*
X81615734Y-34453232D01*
X81825203Y-34539997D01*
X82013720Y-34665960D01*
X82174040Y-34826280D01*
X82300003Y-35014797D01*
X82386768Y-35224266D01*
X82431000Y-35446636D01*
X82431000Y-35673364D01*
X82386768Y-35895734D01*
X82300003Y-36105203D01*
X82174040Y-36293720D01*
X82013720Y-36454040D01*
X81825203Y-36580003D01*
X81615734Y-36666768D01*
X81504549Y-36688884D01*
X81393365Y-36711000D01*
X81166635Y-36711000D01*
X81055451Y-36688884D01*
X80944266Y-36666768D01*
X80734797Y-36580003D01*
X80546280Y-36454040D01*
X80385960Y-36293720D01*
X80259997Y-36105203D01*
X80173232Y-35895734D01*
X80129000Y-35673364D01*
X80129000Y-35446636D01*
X80173232Y-35224266D01*
X80259997Y-35014797D01*
X80385960Y-34826280D01*
X80546280Y-34665960D01*
X80734797Y-34539997D01*
X80944266Y-34453232D01*
X81055451Y-34431116D01*
X81166635Y-34409000D01*
X81393365Y-34409000D01*
X81504549Y-34431116D01*
G37*
G36*
X139924549Y-34431116D02*
G01*
X140035734Y-34453232D01*
X140245203Y-34539997D01*
X140433720Y-34665960D01*
X140594040Y-34826280D01*
X140720003Y-35014797D01*
X140806768Y-35224266D01*
X140851000Y-35446636D01*
X140851000Y-35673364D01*
X140806768Y-35895734D01*
X140720003Y-36105203D01*
X140594040Y-36293720D01*
X140433720Y-36454040D01*
X140245203Y-36580003D01*
X140035734Y-36666768D01*
X139924549Y-36688884D01*
X139813365Y-36711000D01*
X139586635Y-36711000D01*
X139475451Y-36688884D01*
X139364266Y-36666768D01*
X139154797Y-36580003D01*
X138966280Y-36454040D01*
X138805960Y-36293720D01*
X138679997Y-36105203D01*
X138593232Y-35895734D01*
X138549000Y-35673364D01*
X138549000Y-35446636D01*
X138593232Y-35224266D01*
X138679997Y-35014797D01*
X138805960Y-34826280D01*
X138966280Y-34665960D01*
X139154797Y-34539997D01*
X139364266Y-34453232D01*
X139475451Y-34431116D01*
X139586635Y-34409000D01*
X139813365Y-34409000D01*
X139924549Y-34431116D01*
G37*
G36*
X110714549Y-34431116D02*
G01*
X110825734Y-34453232D01*
X111035203Y-34539997D01*
X111223720Y-34665960D01*
X111384040Y-34826280D01*
X111510003Y-35014797D01*
X111596768Y-35224266D01*
X111641000Y-35446636D01*
X111641000Y-35673364D01*
X111596768Y-35895734D01*
X111510003Y-36105203D01*
X111384040Y-36293720D01*
X111223720Y-36454040D01*
X111035203Y-36580003D01*
X110825734Y-36666768D01*
X110714549Y-36688884D01*
X110603365Y-36711000D01*
X110376635Y-36711000D01*
X110265451Y-36688884D01*
X110154266Y-36666768D01*
X109944797Y-36580003D01*
X109756280Y-36454040D01*
X109595960Y-36293720D01*
X109469997Y-36105203D01*
X109383232Y-35895734D01*
X109339000Y-35673364D01*
X109339000Y-35446636D01*
X109383232Y-35224266D01*
X109469997Y-35014797D01*
X109595960Y-34826280D01*
X109756280Y-34665960D01*
X109944797Y-34539997D01*
X110154266Y-34453232D01*
X110265451Y-34431116D01*
X110376635Y-34409000D01*
X110603365Y-34409000D01*
X110714549Y-34431116D01*
G37*
G36*
X52294549Y-34431116D02*
G01*
X52405734Y-34453232D01*
X52615203Y-34539997D01*
X52803720Y-34665960D01*
X52964040Y-34826280D01*
X53090003Y-35014797D01*
X53176768Y-35224266D01*
X53221000Y-35446636D01*
X53221000Y-35673364D01*
X53176768Y-35895734D01*
X53090003Y-36105203D01*
X52964040Y-36293720D01*
X52803720Y-36454040D01*
X52615203Y-36580003D01*
X52405734Y-36666768D01*
X52294549Y-36688884D01*
X52183365Y-36711000D01*
X51956635Y-36711000D01*
X51845451Y-36688884D01*
X51734266Y-36666768D01*
X51524797Y-36580003D01*
X51336280Y-36454040D01*
X51175960Y-36293720D01*
X51049997Y-36105203D01*
X50963232Y-35895734D01*
X50919000Y-35673364D01*
X50919000Y-35446636D01*
X50963232Y-35224266D01*
X51049997Y-35014797D01*
X51175960Y-34826280D01*
X51336280Y-34665960D01*
X51524797Y-34539997D01*
X51734266Y-34453232D01*
X51845451Y-34431116D01*
X51956635Y-34409000D01*
X52183365Y-34409000D01*
X52294549Y-34431116D01*
G37*
G36*
X34870894Y-24740856D02*
G01*
X35238282Y-24813934D01*
X35829926Y-25059001D01*
X36362392Y-25414784D01*
X36815216Y-25867608D01*
X37170999Y-26400074D01*
X37416066Y-26991718D01*
X37541000Y-27619804D01*
X37541000Y-28260196D01*
X37416066Y-28888282D01*
X37170999Y-29479926D01*
X36815216Y-30012392D01*
X36362392Y-30465216D01*
X35829926Y-30820999D01*
X35238282Y-31066066D01*
X34924239Y-31128533D01*
X34610197Y-31191000D01*
X33969803Y-31191000D01*
X33655761Y-31128533D01*
X33341718Y-31066066D01*
X32750074Y-30820999D01*
X32217608Y-30465216D01*
X31764784Y-30012392D01*
X31409001Y-29479926D01*
X31163934Y-28888282D01*
X31039000Y-28260196D01*
X31039000Y-27619804D01*
X31163934Y-26991718D01*
X31409001Y-26400074D01*
X31764784Y-25867608D01*
X32217608Y-25414784D01*
X32750074Y-25059001D01*
X33341718Y-24813934D01*
X33709106Y-24740856D01*
X33969803Y-24689000D01*
X34610197Y-24689000D01*
X34870894Y-24740856D01*
G37*
G36*
X154250894Y-24740856D02*
G01*
X154618282Y-24813934D01*
X155209926Y-25059001D01*
X155742392Y-25414784D01*
X156195216Y-25867608D01*
X156550999Y-26400074D01*
X156796066Y-26991718D01*
X156921000Y-27619804D01*
X156921000Y-28260196D01*
X156796066Y-28888282D01*
X156550999Y-29479926D01*
X156195216Y-30012392D01*
X155742392Y-30465216D01*
X155209926Y-30820999D01*
X154618282Y-31066066D01*
X154304239Y-31128533D01*
X153990197Y-31191000D01*
X153349803Y-31191000D01*
X153035761Y-31128533D01*
X152721718Y-31066066D01*
X152130074Y-30820999D01*
X151597608Y-30465216D01*
X151144784Y-30012392D01*
X150789001Y-29479926D01*
X150543934Y-28888282D01*
X150419000Y-28260196D01*
X150419000Y-27619804D01*
X150543934Y-26991718D01*
X150789001Y-26400074D01*
X151144784Y-25867608D01*
X151597608Y-25414784D01*
X152130074Y-25059001D01*
X152721718Y-24813934D01*
X153089106Y-24740856D01*
X153349803Y-24689000D01*
X153990197Y-24689000D01*
X154250894Y-24740856D01*
G37*
G36*
X97147817Y-27617696D02*
G01*
X97261104Y-27652062D01*
X97365511Y-27707869D01*
X97365513Y-27707870D01*
X97365512Y-27707870D01*
X97457027Y-27782973D01*
X97520711Y-27860572D01*
X97532131Y-27874488D01*
X97587938Y-27978895D01*
X97622304Y-28092182D01*
X97631000Y-28180481D01*
X97631000Y-29339519D01*
X97622304Y-29427818D01*
X97587938Y-29541105D01*
X97532131Y-29645512D01*
X97457027Y-29737027D01*
X97365512Y-29812131D01*
X97261105Y-29867938D01*
X97147818Y-29902304D01*
X97030000Y-29913907D01*
X96912183Y-29902304D01*
X96798896Y-29867938D01*
X96694489Y-29812131D01*
X96602974Y-29737027D01*
X96527870Y-29645512D01*
X96472063Y-29541105D01*
X96437697Y-29427818D01*
X96429001Y-29339519D01*
X96429000Y-28180482D01*
X96437696Y-28092183D01*
X96472062Y-27978896D01*
X96527869Y-27874489D01*
X96541338Y-27858077D01*
X96602973Y-27782973D01*
X96694487Y-27707870D01*
X96694486Y-27707870D01*
X96694488Y-27707869D01*
X96798895Y-27652062D01*
X96912182Y-27617696D01*
X97030000Y-27606093D01*
X97147817Y-27617696D01*
G37*
G36*
X88507817Y-27617696D02*
G01*
X88621104Y-27652062D01*
X88725511Y-27707869D01*
X88725513Y-27707870D01*
X88725512Y-27707870D01*
X88817027Y-27782973D01*
X88880711Y-27860572D01*
X88892131Y-27874488D01*
X88947938Y-27978895D01*
X88982304Y-28092182D01*
X88991000Y-28180481D01*
X88991000Y-29339519D01*
X88982304Y-29427818D01*
X88947938Y-29541105D01*
X88892131Y-29645512D01*
X88817027Y-29737027D01*
X88725512Y-29812131D01*
X88621105Y-29867938D01*
X88507818Y-29902304D01*
X88390000Y-29913907D01*
X88272183Y-29902304D01*
X88158896Y-29867938D01*
X88054489Y-29812131D01*
X87962974Y-29737027D01*
X87887870Y-29645512D01*
X87832063Y-29541105D01*
X87797697Y-29427818D01*
X87789001Y-29339519D01*
X87789000Y-28180482D01*
X87797696Y-28092183D01*
X87832062Y-27978896D01*
X87887869Y-27874489D01*
X87901338Y-27858077D01*
X87962973Y-27782973D01*
X88054487Y-27707870D01*
X88054486Y-27707870D01*
X88054488Y-27707869D01*
X88158895Y-27652062D01*
X88272182Y-27617696D01*
X88390000Y-27606093D01*
X88507817Y-27617696D01*
G37*
G36*
X88527420Y-22059143D02*
G01*
X88659556Y-22099227D01*
X88659558Y-22099228D01*
X88781338Y-22164320D01*
X88781340Y-22164321D01*
X88781339Y-22164321D01*
X88888080Y-22251920D01*
X88962360Y-22342430D01*
X88975680Y-22358661D01*
X89040772Y-22480441D01*
X89040773Y-22480443D01*
X89080857Y-22612579D01*
X89091000Y-22715568D01*
X89091000Y-24084432D01*
X89080857Y-24187421D01*
X89040773Y-24319557D01*
X89040772Y-24319559D01*
X88975680Y-24441339D01*
X88888080Y-24548080D01*
X88781339Y-24635680D01*
X88681583Y-24689000D01*
X88659557Y-24700773D01*
X88527421Y-24740857D01*
X88390000Y-24754391D01*
X88252580Y-24740857D01*
X88120444Y-24700773D01*
X88098418Y-24689000D01*
X87998662Y-24635680D01*
X87891921Y-24548080D01*
X87804321Y-24441339D01*
X87739229Y-24319559D01*
X87739228Y-24319557D01*
X87699144Y-24187421D01*
X87689001Y-24084432D01*
X87689000Y-22715569D01*
X87699143Y-22612580D01*
X87739227Y-22480444D01*
X87804321Y-22358661D01*
X87891920Y-22251920D01*
X87998660Y-22164321D01*
X87998659Y-22164321D01*
X87998661Y-22164320D01*
X88120441Y-22099228D01*
X88120443Y-22099227D01*
X88252579Y-22059143D01*
X88390000Y-22045609D01*
X88527420Y-22059143D01*
G37*
G36*
X97167420Y-22059143D02*
G01*
X97299556Y-22099227D01*
X97299558Y-22099228D01*
X97421338Y-22164320D01*
X97421340Y-22164321D01*
X97421339Y-22164321D01*
X97528080Y-22251920D01*
X97602360Y-22342430D01*
X97615680Y-22358661D01*
X97680772Y-22480441D01*
X97680773Y-22480443D01*
X97720857Y-22612579D01*
X97731000Y-22715568D01*
X97731000Y-24084432D01*
X97720857Y-24187421D01*
X97680773Y-24319557D01*
X97680772Y-24319559D01*
X97615680Y-24441339D01*
X97528080Y-24548080D01*
X97421339Y-24635680D01*
X97321583Y-24689000D01*
X97299557Y-24700773D01*
X97167421Y-24740857D01*
X97030000Y-24754391D01*
X96892580Y-24740857D01*
X96760444Y-24700773D01*
X96738418Y-24689000D01*
X96638662Y-24635680D01*
X96531921Y-24548080D01*
X96444321Y-24441339D01*
X96379229Y-24319559D01*
X96379228Y-24319557D01*
X96339144Y-24187421D01*
X96329001Y-24084432D01*
X96329000Y-22715569D01*
X96339143Y-22612580D01*
X96379227Y-22480444D01*
X96444321Y-22358661D01*
X96531920Y-22251920D01*
X96638660Y-22164321D01*
X96638659Y-22164321D01*
X96638661Y-22164320D01*
X96760441Y-22099228D01*
X96760443Y-22099227D01*
X96892579Y-22059143D01*
X97030000Y-22045609D01*
X97167420Y-22059143D01*
G37*
M02*
